<svg xmlns="http://www.w3.org/2000/svg" viewBox="0 0 22.68 22.68">
  <title>cam front</title>
  <g id="Layer_2" data-name="Layer 2">
    <g id="Layer_3" data-name="Layer 3">
      <g>
        <circle cx="11.34" cy="11.34" r="11.34" style="fill: #e44e3e"/>
        <path d="M10.21,10.18a1.65,1.65,0,0,0,2.3-2.34.85.85,0,0,0-.25-.25A1.66,1.66,0,0,0,10,9.92,1.07,1.07,0,0,0,10.21,10.18ZM16,3.92H6.68a1,1,0,0,0-1,1V17.52a1,1,0,0,0,1,1H16a1,1,0,0,0,1-1V4.94A1,1,0,0,0,16,3.92ZM8.21,5.67h6a1,1,0,0,1,1,1v5.08a1,1,0,0,1-1.4.93,7.53,7.53,0,0,0-2.63-.54,7.53,7.53,0,0,0-2.63.54,1,1,0,0,1-1.4-.93V6.68A1,1,0,0,1,8.21,5.67Z" style="fill: #fff"/>
      </g>
    </g>
  </g>
</svg>
