<svg xmlns="http://www.w3.org/2000/svg" viewBox="0 0 63.53 40">
  <g id="Layer_2" data-name="Layer 2">
    <g id="Layer_3" data-name="Layer 3">
      <g>
        <g>
          <path d="M18.06,10.18a5.44,5.44,0,0,1,2.25.44A5,5,0,0,1,22,11.82a5.24,5.24,0,0,1,1.1,1.76,6.13,6.13,0,0,1,.37,2.16,6.48,6.48,0,0,1-.69,3.08,4.48,4.48,0,0,1-2.24,2v.05a3.05,3.05,0,0,1,1.24.69,3.87,3.87,0,0,1,.81,1.1,5.22,5.22,0,0,1,.45,1.4,13.35,13.35,0,0,1,.2,1.53c0,.32,0,.69,0,1.13s.05.87.09,1.32a8.47,8.47,0,0,0,.21,1.29,3,3,0,0,0,.43,1H20a8.14,8.14,0,0,1-.42-2.29c-.05-.88-.13-1.73-.23-2.54a4.23,4.23,0,0,0-.88-2.32,2.92,2.92,0,0,0-2.21-.73H12.14v7.88H8.06V10.18ZM16.61,19.3a2.93,2.93,0,0,0,2.1-.68,3,3,0,0,0,.7-2.2,2.8,2.8,0,0,0-.7-2.13,2.93,2.93,0,0,0-2.1-.67H12.14V19.3Z" style="fill: #2c3e50"/>
          <path d="M40.69,10.18v3.73h-9.8v4.32h9v3.44h-9v4.94h10v3.73H26.82V10.18Z" style="fill: #2c3e50"/>
          <path d="M56.69,10.18v3.73h-9v4.65h7.76V22H47.73v8.33H43.65V10.18Z" style="fill: #2c3e50"/>
        </g>
        <path d="M63.53,40H0V0H63.53Zm-62-1.57H62V1.57H1.57Z" style="fill: #2c3e50"/>
      </g>
    </g>
  </g>
</svg>
