<svg xmlns="http://www.w3.org/2000/svg" viewBox="0 0 175.17 157.26"><defs><style>.cls-1{fill:none;}.cls-2{fill:#f6b7b1;}.cls-3{fill:#3495d8;}</style></defs><g id="Layer_2" data-name="Layer 2"><g id="copy_instructions" data-name="copy / instructions"><path class="cls-1" d="M56.57,156.88h1a47,47,0,0,0-.26-7c-.42-3.91-.78-7.82-1.51-11.69-.37-2-3.24-9.65-1.54-11.33a57.59,57.59,0,0,1-5.91-8.72,23.81,23.81,0,0,1-2.44-5.88c-.53-2.18-.46-5.15-1.57-7.13-5.62.44-5.89-7.76-6.39-11.81-.14-.82-.28-1.64-.44-2.46a19.32,19.32,0,0,0-.38,9.84c.66,3,3,5.32,3.51,8.3.61,3.29-1.72,6.17-2.7,9.19-1.11,3.46.61,5.59,1.9,8.71.43-2.17,2.4-6.82,4.27-8s5.33-.07,3.62,2.57c1,1.09,0,1.75-.23,2.78-.13,2.81,1.87,5,3.31,7.21a37.77,37.77,0,0,1,3.28,7.1c.84,2.11,2.13,4.19,2.47,6.46.23,1.52.11,6.21-1.58,7-3,1.42-1.85-2.85-1.72-4.13.28-2.71-.78-4.41-1.84-6.84-1-2.25-1.65-4.62-2.84-6.77-1.41-2.53-3.19-4.56-4-7.42-1,2.77,1,6.18,1.68,8.87a15.45,15.45,0,0,1,0,7.06c-1.3,6-6.32,8.5-9.17,13.44-.12.21-.22.42-.32.63H55.25A5.81,5.81,0,0,1,56.57,156.88Z"/><path class="cls-1" d="M57.5,157.15c0-.09,0-.18,0-.27h-1A3,3,0,0,1,57.5,157.15Z"/><path class="cls-1" d="M68,72H68a32.84,32.84,0,0,1-5-2.7,3.8,3.8,0,0,1-1.84,4.91l.7-.13c2.1-.31,4.07-1.52,6.13-2.07Z"/><path class="cls-1" d="M41.32,79.22v0l0,.05,0,.07Z"/><path class="cls-1" d="M74.86,117.53h0c-2.69-.37-5.46-.86-8.15-.25,4.59,2.28,8.81,6.92,14,7.41,6.27.6,10.11-2.57,14.43-6.52l.16-.16A80.17,80.17,0,0,1,74.86,117.53Z"/><path class="cls-1" d="M57.71,69c.58.38-.11,1.87.34,2.52h0l.05,0a1.51,1.51,0,0,0,.47,0c1-.24,1.07-1.88,1-2.64a.56.56,0,0,1,.13-.22C59,68.79,58.37,68.87,57.71,69Z"/><path class="cls-1" d="M40.57,78.34Z"/><path class="cls-1" d="M55.5,69.68a11.81,11.81,0,0,0-3.73,2.44c1.74.06,3.81,2,5.67,2.26l.72.07C56.69,74.06,53.76,71.23,55.5,69.68Z"/><path class="cls-1" d="M36.32,153c1.31-1.84,2.83-3.53,4-5.44,2.86-4.6,1.6-9.35.25-14.21-1,6.95-5.49,16.38-12.52,19-.65.24-4.82,1.32-3.43-.71.54-.78,3.29-1.11,4.15-1.57,3.66-1.93,6.34-6.35,8-10,2.28-5.15,2.68-9.31.09-14.32-2.32-4.49-1.49-7.4.18-12,.9-2.43,1.17-3.13.06-5.48s-2.22-4.2-2.63-6.74c-.58-3.62-1-11.68,2.64-13.86-.25-2.08-1-4.09-1.43-6.14-3.79,5.16-3.4,9-2.48,15,1,6.22-3.86,9.1-5.23,14.53-.2,4.85,1.83,9.15.73,14.13-1,4.36-2.92,8.45-3.65,12.86s-.19,8.79-1.65,13.18a21.7,21.7,0,0,1-2.5,5.63h13.5A13,13,0,0,1,36.32,153Z"/><path class="cls-1" d="M173.14,151.76c.35-5.74-5.54-9.56-6.43-15.11-1.06-6.56,2.17-13.47-.08-20-1.81-5.27-9.13-6.81-8.44-13.1.38-3.42,2.44-5.18,4.57-7.59,1.88-2.14,1.91-4.42,1.62-7.17-.78-7.35-6.61-10.83-11.79-15.25,1.85,6.14.94,11-2.49,16.43-2.8,4.44-9.15,9-8.73,15,.35,5,7.39,8.76,10.57,12,4.57,4.72,3.35,9.29,3.76,15.18.94,3.44,5.15,4.66,7.22,7.28a8.94,8.94,0,0,1,1.78,8.36c-.86,2.61-3.47,4.91-3.11,7.85a5,5,0,0,0,.31,1.2h10.17C172.24,155.18,173,153.61,173.14,151.76Z"/><path class="cls-1" d="M110,154.23c-.08-4.46.22-8.89.44-13.35.25-5,.16-10.35,1.14-15.25.15-.76.32-1.52.53-2.27-3.28,5.51-6.54,11.85-11.11,16.39-3.33,3.3-9.21,4.75-13.75,4.93-6.29.24-15.07.55-20.21-3.54-4.6-3.66-8.08-8.66-11.89-13.06.39,7.51,2.54,15.16,3.66,22.63.31,2.07.52,4.12.67,6.17H108.3C108.47,155.52,108.91,154.4,110,154.23Z"/><path class="cls-1" d="M21.09,153.92a22.54,22.54,0,0,0,1.92-12,.59.59,0,0,0,0,.13c-1-7,1.33-13.29,1.57-20.16.1-2.84-.74-5.44-1.12-8.22-.52-3.81,1-6,3.08-9,1.74-2.53,3.24-4.67,3.14-7.82s-.52-6.18.32-9.4c.77-2.94,2.82-5,4-7.73,1.42-3.19-.83-5.46-1.08-8.59-2.05,6-6.26,9.61-5.53,16.31.3,2.77.65,5.1-.9,7.58-1.29,2.07-3.44,3.28-4.92,5.16-2.68,3.41-4.41,9.21-5.36,13.38a18.56,18.56,0,0,0-.54,6.16c.29,2.51,1.5,4.92.71,7.45s-2.93,4.06-3.62,6.57-.47,5.34-.59,8c-.31,7-4.47,10.7-9.56,15l-.28.23H19.25A13.23,13.23,0,0,0,21.09,153.92ZM23,141.62s0-.08,0-.11S23,141.58,23,141.62Z"/><path class="cls-1" d="M121.48,156.88h.22c3-5.79,8.73-5,9.73,0h13.25a13.13,13.13,0,0,0,2.21-5.43c.36-4.18-3.55-9.7-6.64-12.28l.25.19c-2-1.54-3.85-2.87-4.41-5.49-.49-2.24,0-4.59-.49-6.86-1-4.6-4.09-6.75-8.33-8a10.14,10.14,0,0,0,0,6.26c1,2.41,2.46,4.14,2.34,6.9-.2,4.21-4.49,8.46-1.46,12.49a9.16,9.16,0,0,0,4.16,2.82c1.13.39,3.65.29,4.38,1.33,2.9,4.19-6.53,1.88-7.87,1.17-4.07-2.16-6.4-6.28-5.34-10.88.94-4,3.25-6.53,1.28-10.63a11.58,11.58,0,0,1-1-8.91A10.22,10.22,0,0,1,126,115c.44-.45,3-2.62,3.11-.87h0v0a2.82,2.82,0,0,1-.32,1.14c0-.07-.24,1.22-.29.59l-.21.43c3.92,1.18,6.77,2.76,8.9,6.45s.7,9.51,3.84,12.43c3.5,3.26,6.29,5.93,8.21,10.5,1.79,4.27,1.32,7.33-.79,11.18h6.34c.34-.56.77-.44,1.17,0h3.8a6,6,0,0,1-.22-1.06c-.33-3,1.65-5.12,2.8-7.64,2.86-6.25-3.2-8.38-6.84-11.91-3.86-3.73-1.48-9.25-4.83-13.46s-8.21-7.1-10.94-11.64-1.34-8.68,1.19-13c2.89-4.89,7.52-8,9.8-13.42,1.9-4.51,1.35-9.36-.68-13.78-.28-.29-1.9-1.49-1.26-2-3.09-4.34-5.91-7.39-6.17-13-.26-5.85-1.43-9.4-5.67-13.5-7.12-6.89-14.91-13.18-19.5-22.21a35,35,0,0,1-9-6.18c-2-1.9-4.05-3.89-6.62-5-3-1.29-8.25-1.05-10.87,1.18A4.77,4.77,0,0,0,89.39,14c0,.65.47,1.81-.35,2.12a21.62,21.62,0,0,1,9.33,2.54c6.74-1.38,14.64,3,16.59,9.62,1,3.38,1.68,7.31,3.9,10.15s5.24,3.16,8.09,4.76c7.77,4.35,3.65,13.87,8.57,20.12,1.31,1.66,3.64,2.69,4.8,4.35s.33,1.56-1.2.81c-3.83-1.89-7.23-7.24-7.8-11.4,0,0,0,.09,0,.14l0-.17v0c-.59-4.53,0-9.06-4.2-12.09-2.3-1.66-5.23-2-7.48-3.8a13.5,13.5,0,0,1-3.59-4.74c-1.78-3.75-1.91-8.46-4.65-11.66s-7.47-5.8-11.74-5.36c7.56,5,13.78,15.14,18,22.93,2.18,4.08,3.43,8.45,5.7,12.49,2.66,4.71,1.76,9.58,3,14.59C137,67.07,130.93,84.56,128.8,89a21.49,21.49,0,0,0-2.27,6.92c-.36,2.76-.45,6.85-2.61,9-1.93,1.91-3.06,1.28-4.38,4s-2.19,5.4-3.64,8c3.15-.39,1.32,4.28,1,5.53a106.38,106.38,0,0,0-2.12,13c-.57,4.74-1.83,9.3-2.5,14-.13.92-.09,4.32-.17,7.39h1.59C115.87,151.18,121,148.4,121.48,156.88Z"/><path class="cls-1" d="M79.19,114.64l.18.08c-2.79-1.15-4.78-.48-7.55.39-.72.22-1.45.45-2.17.69,8.95,0,17.64,2,26.65.42-3.65-.57-7.26-1.87-11-2.19C82.91,113.82,81.49,115.63,79.19,114.64Z"/><path class="cls-1" d="M121.7,156.88h-.22l0,.38C121.57,157.13,121.63,157,121.7,156.88Z"/><path class="cls-1" d="M42.55,74.24a132.68,132.68,0,0,1-.83-21.83c-2.6,3.21-1.34,5.41-1.4,9.25s-2.69,6-3.58,9.47c0,.12,0,.24,0,.37s.1.5.15.75C38.73,69.89,41.27,72.79,42.55,74.24Z"/><path class="cls-1" d="M97.09,68.66a13.67,13.67,0,0,0-1.64,1.08s0,0,0,0a20.36,20.36,0,0,1-3.3,2.16c2,.4,3.84.92,5.79,1.38.39.09.77.18,1.16.25C98.43,73,95.91,69.75,97.09,68.66Z"/><path class="cls-1" d="M97.79,70.89a1.63,1.63,0,0,1-.11-.31,1.16,1.16,0,0,0,0,.18A.54.54,0,0,0,97.79,70.89Z"/><path class="cls-1" d="M98.41,68.09a5.34,5.34,0,0,0-.76.28,2.31,2.31,0,0,1,.49-.07A.48.48,0,0,1,98.41,68.09Z"/><path class="cls-1" d="M97.63,69.66c0-.06,0-.13,0-.2l0,.06a1.76,1.76,0,0,0-.06.39C97.6,69.83,97.61,69.75,97.63,69.66Z"/><path class="cls-1" d="M33.59,68.25c1.79-3.79,2.93-5.75,3.14-10,.23-4.81,3-5.43,5.14-9.23a14.74,14.74,0,0,1,.8-4.17c.09-3.53-1.09-7.35.25-10.75.65-1.69,2.06-2.79,3-4.28.83-1.31.7-2.67,1.39-4,3.21-6.15,13.15-10,19.49-11.1,1.85-.32,11.08-2.05,12.14.21s-2.85,1.2-3.6,1.16a29.22,29.22,0,0,0-6,.43,33.18,33.18,0,0,0-11.7,4c-2.8,1.61-7,3.76-8.6,6.7v0a8.44,8.44,0,0,1-.37,3.47c3.83-5.9,13-9.12,19.34-11.11,3.66-1.15,7.41-2.65,11.16-3.45,3.14-.67,6.18-.15,9.32,0-2.58-1.5.9-6.68,2.6-7.65a15.34,15.34,0,0,1,10.46-1.28c5.76,1.75,9.12,7.76,14.33,10.55l.36.19a37.67,37.67,0,0,0-15-15.43c-3.12-.87-7.78-.14-10.7,1A8.09,8.09,0,0,0,86.2,6.9c-.38.64-.87,3.14-2,2.3-.1,1.89-2.78-1.93-3-2.14a10.28,10.28,0,0,0-4.35-2.33c-3.81-1.06-8.31,0-11.94,1.32-4,1.48-7.55,4.27-10.78,7s-6.76,5.54-9.21,9c-2.17,3.09-2,6.89-4,10s-4.81,5.53-6.57,9c-2.25,4.41-3.77,8.59-3.11,13.6C31.81,59.14,34.07,63.73,33.59,68.25Z"/><path class="cls-1" d="M76.67,18.44c-3.2.92-6.44,1.75-9.61,2.78a47.69,47.69,0,0,0-12,5.91c-1.84,1.24-4.28,2.53-5.38,4.52-.93,1.67-.65,3.62-1.39,5.4l0,0c0,.06-.05.12-.08.17v0c-1.12,2.59-2.47,5.23-3.35,7.91a17.15,17.15,0,0,1-.47,2.35c-.49,5.47-.63,11-.77,16.49-.07,2.38-.21,4.75,0,7.13,0,.59,1.13,6-.61,4.75-1,1.34-3.32-2.6-4.51-2.88a.57.57,0,0,0-.18,0,4.31,4.31,0,0,0-1,1.44A7.52,7.52,0,0,1,37,78.91c.44,4.13,1.78,8.29,2.53,12.39.58,3.13.72,10.14,3.72,11.77,2.37.79,3,.88,3.77,3.78,1,3.82,1.76,7.07,3.71,10.53,2.8,5,6.57,9.09,10.22,13.49,2.37,2.85,4.86,6,7.82,8.24,2.2,1.69,4.54,2,7.21,2.36a43.93,43.93,0,0,0,19.09-1.08,20.2,20.2,0,0,0,7.39-5.72c2.53-3.24,4.42-7.15,6.66-10.6a87.5,87.5,0,0,0,5.91-10.29c1.13-2.39,1.82-5.06,3.14-7.36,1.12-2,2.26-2,4.06-3.19,2.49-2.34,2-6.86,2.61-9.91.74-3.58,2.9-6.93,4.14-10.39,1.06-3,2.9-6.92,1.61-10.15-1.16-2.91-2.41-.17-4.57-1.2-2.45,1.85-3.61-12.24-4.35-13.77-1-2.18-2.75-4-3.79-6.17-1.14-2.42-2-4.91-3.3-7.24-2.59-4.52-5.27-9.22-8.13-13.56-2.35-3.57-5.73-8.93-9.57-10.92a2.66,2.66,0,0,1-.6-.32,27.79,27.79,0,0,0-5.62-1.77C85.89,17.48,81.35,17.08,76.67,18.44ZM42.05,92.23c-.37-1.14,0-2.5-.28-3.7a18,18,0,0,0-1.31-3.69h0v0c-.61-1.42-2.67-6.71-.21-7.62,3.15-.47,3.15,7.15,1.1,2.07l0-.05a1.35,1.35,0,0,0-.77-.89c-.93,2.62.49,5.1,1.42,7.48.76,2,.33,6,1.9,7.31C46.45,95.08,42.78,94.49,42.05,92.23Zm80,3.12c.61-2.47-.51-4.41-.35-6.83.06-.86,1.25-6.78,2.52-4.12.45,1-1,3.52-1,4.68s.46,2.31.51,3.5c0,.86-.54,6.21-2.41,4.16C120,95.31,121.56,94.33,122.06,95.35ZM75.55,97.13c1.55.73.57,3.66-.69,1.44-.36-.12-.72-.21-1.08-.33a1.11,1.11,0,0,1-1,.18C70.35,97.42,74.06,94.16,75.55,97.13Zm-6.28,1c.48.51,3.32,1.37,3.31,2.17,0,2-4.09-.76-4.58-1.46-1.31-1.84-.64-6.4,1.14-7.8,2-1.54-.51,3.19-.67,3.76A3.18,3.18,0,0,0,69.27,98.12ZM54.41,58.85a25.45,25.45,0,0,1,9.29-.05h0A20,20,0,0,1,70,60.67c1.08.55,2.58,2.68.27,2.1-2.43-.15-4.33-2.3-6.67-2.92-3.11-.82-6.92-1.1-10,.07C48.06,62,51.46,59.56,54.41,58.85Zm6.53,72h0l0,0ZM56,75c-.9-.19-4.64-1-4.77-2.21-.15.06-.25.49-.5.24-1.28-1.28,7.8-5.28,9-5.43,1.79-.22,10.09,3.89,9.27,4.5.55.56-4.69,2.09-5.32,2.32A14.78,14.78,0,0,1,56,75Zm44.21,41.66c-.16,1.26-2.1,1-3,1.15-3.09,2.06-4.68,5.4-8.1,7.28a15.15,15.15,0,0,1-10.09,1.72c-5.8-1.17-9.1-7.27-14.56-9.09a1.61,1.61,0,0,1-1.28.4c-1.4.81-1.48-.61-.26-1.28,2.23-2.18,7.52-3.26,10.51-4,3.26-.77,4.39-.25,7.3.76,3.52-1.28,5.89-.92,9.59-.27,2.13.38,7.54.47,9.12,2a1.19,1.19,0,0,1,.56.07A.73.73,0,0,1,100.16,116.64Zm-7.6-20.22,0,.18A3.07,3.07,0,0,0,92,94.7l0,0c-.34-.47-.52-.88-.81-1.33-.21-.76-.58-1.48-.82-2.22-1-.44.19-1.74.71-.79.94.25,2.44,3.67,2.77,4.71a5.06,5.06,0,0,1-.35,4.5c-.48.68-3.57,2.94-4,1.75s1.48-1.19,2-2.1l.13-.12A3.4,3.4,0,0,0,92.56,96.42Zm16.78-24.3a17.62,17.62,0,0,1-7.59,2.44c-1.32,0-10.43-1.22-10.5-2.42-.22-.17,3.26-2.27,3.53-2.47h0l0,0h0c4.44-3.49,9.31-2.84,13.69.75C108.7,70.55,110.71,72.86,109.34,72.12ZM87,61.61c1.92-1.45,4.54-2.36,6.72-3.3h0a15.07,15.07,0,0,1,8.7-1.28c.73.13,6.44,2.32,6.57,3.21a.15.15,0,0,1,0,.13.19.19,0,0,0,0-.13c-.3-.91-9.32-1.87-10.36-1.7-3.93.65-7.22,2.47-10.52,4.59C86.52,64.67,85.48,62.76,87,61.61ZM85.59,95.48c1,.17,2.18,1.35,1,2.27-.35.94-2.16.31-2.31-.49l-.11.09c-.28.44-.3,2-1.26,1.72-1.18-.32,0-2.77.68-3.16A1.3,1.3,0,0,1,85.59,95.48Z"/><path class="cls-1" d="M100.24,67.86a8.23,8.23,0,0,0-1.11,0c-.11,0-.22.07-.33.09.85.07.62.84.38,1.3a2.23,2.23,0,0,0,.79,1.6,1.53,1.53,0,0,0,1.19,0c.4-.4.2-1.26-.07-1.68C100.56,69,99.63,68.51,100.24,67.86Z"/><path class="cls-1" d="M101.79,73.75c2.43-.19,4.08-1.15,6.17-2.26a1.94,1.94,0,0,1,.3-.13A22.44,22.44,0,0,0,105,69.19C105.62,71,103.41,73.41,101.79,73.75Z"/><path class="cls-1" d="M103.76,69a.6.6,0,0,1,.24-.28l-.19-.09-.88-.28A1.49,1.49,0,0,1,103.76,69Z"/><path class="cls-1" d="M93.77,58.31h0Z"/><path class="cls-1" d="M94.81,69.65h0Z"/><path class="cls-1" d="M45.21,39.75c.54-1.15,1.31-2.2,1.81-3.36.65-1.51.49-3,1.07-4.52C46.57,34.74,45.32,36.32,45.21,39.75Z"/><path class="cls-2" d="M113.7,156.88h7.78C121,148.4,115.87,151.18,113.7,156.88Z"/><path class="cls-2" d="M121.7,156.88h9.73C130.43,151.84,124.7,151.09,121.7,156.88Z"/><path class="cls-2" d="M60.94,130.8h0l0,0Z"/><path class="cls-2" d="M149.2,145.7c-1.92-4.57-4.71-7.24-8.21-10.5-3.14-2.92-1.64-8.62-3.84-12.43s-5-5.27-8.9-6.45l.21-.43c0,.63.28-.66.29-.59a2.82,2.82,0,0,0,.32-1.14v0h0c-.07-1.75-2.67.42-3.11.87a10.22,10.22,0,0,0-2.21,4.54,11.58,11.58,0,0,0,1,8.91c2,4.1-.34,6.59-1.28,10.63-1.06,4.6,1.27,8.72,5.34,10.88,1.34.71,10.77,3,7.87-1.17-.73-1-3.25-.94-4.38-1.33a9.16,9.16,0,0,1-4.16-2.82c-3-4,1.26-8.28,1.46-12.49.12-2.76-1.37-4.49-2.34-6.9a10.14,10.14,0,0,1,0-6.26c4.24,1.27,7.32,3.42,8.33,8,.5,2.27,0,4.62.49,6.86.56,2.62,2.39,3.95,4.41,5.49l-.25-.19c3.09,2.58,7,8.1,6.64,12.28a13.13,13.13,0,0,1-2.21,5.43h3.73C150.52,153,151,150,149.2,145.7Z"/><path class="cls-2" d="M37.87,93.13l0,.23v0C37.9,93.31,37.88,93.22,37.87,93.13Z"/><path class="cls-2" d="M131.34,57.23s0-.09,0-.14v0Z"/><path class="cls-2" d="M2.64,156.65c5.09-4.33,9.25-8,9.56-15,.12-2.61-.1-5.39.59-8s2.88-4.15,3.62-6.57-.42-4.94-.71-7.45a18.56,18.56,0,0,1,.54-6.16c1-4.17,2.68-10,5.36-13.38C23.08,98.23,25.23,97,26.52,95c1.55-2.48,1.2-4.81.9-7.58C26.69,80.67,30.9,77,33,71.06c.25,3.13,2.5,5.4,1.08,8.59-1.19,2.69-3.24,4.79-4,7.73-.84,3.22-.43,6.16-.32,9.4s-1.4,5.29-3.14,7.82c-2.08,3-3.6,5.23-3.08,9,.38,2.78,1.22,5.38,1.12,8.22C24.36,128.73,22.05,135,23,142a.59.59,0,0,1,0-.13,22.54,22.54,0,0,1-1.92,12,13.23,13.23,0,0,1-1.84,3h1.63a21.7,21.7,0,0,0,2.5-5.63c1.46-4.39.9-8.71,1.65-13.18s2.69-8.5,3.65-12.86c1.1-5-.93-9.28-.73-14.13,1.37-5.43,6.18-8.31,5.23-14.53-.92-6-1.31-9.89,2.48-15,.4,2,1.18,4.06,1.43,6.14-3.68,2.18-3.22,10.24-2.64,13.86.41,2.54,1.56,4.48,2.63,6.74s.84,3.05-.06,5.48c-1.67,4.56-2.5,7.47-.18,12,2.59,5,2.19,9.17-.09,14.32-1.62,3.67-4.3,8.09-8,10-.86.46-3.61.79-4.15,1.57-1.39,2,2.78.95,3.43.71,7-2.61,11.53-12,12.52-19,1.35,4.86,2.61,9.61-.25,14.21-1.19,1.91-2.71,3.6-4,5.44a13,13,0,0,0-1.94,3.92h2.38c.1-.21.2-.42.32-.63,2.85-4.94,7.87-7.47,9.17-13.44a15.45,15.45,0,0,0,0-7.06c-.65-2.69-2.72-6.1-1.68-8.87.79,2.86,2.57,4.89,4,7.42,1.19,2.15,1.87,4.52,2.84,6.77,1.06,2.43,2.12,4.13,1.84,6.84-.13,1.28-1.27,5.55,1.72,4.13,1.69-.79,1.81-5.48,1.58-7-.34-2.27-1.63-4.35-2.47-6.46a37.77,37.77,0,0,0-3.28-7.1c-1.44-2.19-3.44-4.4-3.31-7.21.25-1,1.22-1.69.23-2.78,1.71-2.64-1.85-3.7-3.62-2.57s-3.84,5.85-4.27,8c-1.29-3.12-3-5.25-1.9-8.71,1-3,3.31-5.9,2.7-9.19-.56-3-2.85-5.31-3.51-8.3a19.32,19.32,0,0,1,.38-9.84c.16.82.3,1.64.44,2.46l0-.23c0,.09,0,.18,0,.27v0c.5,4,.77,12.25,6.39,11.81,1.11,2,1,5,1.57,7.13a23.81,23.81,0,0,0,2.44,5.88,57.59,57.59,0,0,0,5.91,8.72c-1.7,1.68,1.17,9.35,1.54,11.33.73,3.87,1.09,7.78,1.51,11.69a47,47,0,0,1,.26,7h2c-.15-2-.36-4.1-.67-6.17-1.12-7.47-3.27-15.12-3.66-22.63,3.81,4.4,7.29,9.4,11.89,13.06,5.14,4.09,13.92,3.78,20.21,3.54,4.54-.18,10.42-1.63,13.75-4.93,4.57-4.54,7.83-10.88,11.11-16.39-.21.75-.38,1.51-.53,2.27-1,4.9-.89,10.27-1.14,15.25-.22,4.46-.52,8.89-.44,13.35-1.12.17-1.56,1.29-1.73,2.65h3.81c.08-3.07,0-6.47.17-7.39.67-4.71,1.93-9.27,2.5-14a106.38,106.38,0,0,1,2.12-13c.32-1.25,2.15-5.92-1-5.53,1.45-2.57,2.37-5.33,3.64-8s2.45-2.12,4.38-4c2.16-2.14,2.25-6.23,2.61-9A21.49,21.49,0,0,1,128.8,89c2.13-4.44,8.19-21.93-2.45-19.55-1.28-5-.38-9.88-3-14.59-2.27-4-3.52-8.41-5.7-12.49-4.17-7.79-10.39-17.95-18-22.93,4.27-.44,9,2.18,11.74,5.36s2.87,7.91,4.65,11.66a13.5,13.5,0,0,0,3.59,4.74c2.25,1.82,5.18,2.14,7.48,3.8,4.19,3,3.61,7.56,4.2,12.09.57,4.16,4,9.51,7.8,11.4,1.53.75,2.35.85,1.2-.81s-3.49-2.69-4.8-4.35c-4.92-6.25-.8-15.77-8.57-20.12-2.85-1.6-6-2-8.09-4.76S116,31.68,115,28.3c-1.95-6.62-9.85-11-16.59-9.62A21.62,21.62,0,0,0,89,16.14c.82-.31.3-1.47.35-2.12a4.77,4.77,0,0,1,1.55-3.76C93.56,8,98.79,7.79,101.81,9.08c2.57,1.09,4.64,3.08,6.62,5a35,35,0,0,0,9,6.18c4.59,9,12.38,15.32,19.5,22.21,4.24,4.1,5.41,7.65,5.67,13.5.26,5.63,3.08,8.68,6.17,13-.64.55,1,1.75,1.26,2,2,4.42,2.58,9.27.68,13.78-2.28,5.41-6.91,8.53-9.8,13.42-2.53,4.28-3.9,8.43-1.19,13s7.68,7.54,10.94,11.64,1,9.73,4.83,13.46c3.64,3.53,9.7,5.66,6.84,11.91-1.15,2.52-3.13,4.67-2.8,7.64a6,6,0,0,0,.22,1.06h2.18a5,5,0,0,1-.31-1.2c-.36-2.94,2.25-5.24,3.11-7.85a8.94,8.94,0,0,0-1.78-8.36c-2.07-2.62-6.28-3.84-7.22-7.28-.41-5.89.81-10.46-3.76-15.18-3.18-3.27-10.22-7-10.57-12-.42-6,5.93-10.56,8.73-15,3.43-5.43,4.34-10.29,2.49-16.43,5.18,4.42,11,7.9,11.79,15.25.29,2.75.26,5-1.62,7.17-2.13,2.41-4.19,4.17-4.57,7.59-.69,6.29,6.63,7.83,8.44,13.1,2.25,6.52-1,13.43.08,20,.89,5.55,6.78,9.37,6.43,15.11-.12,1.85-.9,3.42-1.07,5.12h2.46a19.78,19.78,0,0,1,.43-3.19,11.6,11.6,0,0,0-1.31-7.95c-1.54-2.71-3.67-5-4.58-8.05s-.18-6.4.13-9.44c.69-6.68.47-12.78-4.49-17.7-1.57-1.56-4-3-4.4-5.31-.46-2.66,1.21-4.87,2.86-6.67,4.08-4.45,4.43-9.81,1.56-15.32S156.29,75.62,152,71.57c-1.48-4.19-5.36-7-6.74-11.16-1.54-4.65.07-9.85-2.47-14.27s-7.07-7.37-10.6-11a65.53,65.53,0,0,1-10.4-12.89c2.3.42-1.25-2.15-1.44-2.25-2.2-3.19-3.78-6.48-6.23-9.49-2.88-3.52-5.65-7.25-9.89-9.23C98.1-1.57,84.88.1,83.93,8.59l-.27-.36v0C72.91-5.7,52.76,10.55,44.79,19.91a16.26,16.26,0,0,0-3.45,7C40.25,31.2,37.29,33.48,34.88,37,30,44.09,28.5,51,30.49,59.28c.75,3.14,2.1,6.3,1.37,9.57-.86,3.87-3.83,6.71-5.3,10.3-1.53,3.77-.93,6.7-.62,10.59.28,3.42-1.41,5.14-3.85,7.3-3.28,2.9-4.47,6.6-6,10.6-1.41,3.57-2.62,7.49-2.25,11.39.36,3.73,2,6,.08,9.44-2.19,3.85-2.52,6.89-2.62,11.33-.12,5.21-1.25,8.35-5,12-1.94,1.85-4.1,3.45-6.21,5.1H2.36Zm31.25-8.78.14-.18ZM36.76,71.5c0-.13,0-.25,0-.37.89-3.42,3.52-5.63,3.58-9.47s-1.2-6,1.4-9.25a132.68,132.68,0,0,0,.83,21.83c-1.28-1.45-3.82-4.35-5.64-2C36.86,72,36.8,71.75,36.76,71.5ZM90.7,17.83a27.79,27.79,0,0,1,5.62,1.77,2.66,2.66,0,0,0,.6.32c3.84,2,7.22,7.35,9.57,10.92,2.86,4.34,5.54,9,8.13,13.56,1.34,2.33,2.16,4.82,3.3,7.24,1,2.21,2.74,4,3.79,6.17.74,1.53,1.9,15.62,4.35,13.77,2.16,1,3.41-1.71,4.57,1.2C131.92,76,130.08,80,129,82.93c-1.24,3.46-3.4,6.81-4.14,10.39-.63,3.05-.12,7.57-2.61,9.91-1.8,1.16-2.94,1.23-4.06,3.19-1.32,2.3-2,5-3.14,7.36a87.5,87.5,0,0,1-5.91,10.29c-2.24,3.45-4.13,7.36-6.66,10.6a20.2,20.2,0,0,1-7.39,5.72A43.93,43.93,0,0,1,76,141.47c-2.67-.37-5-.67-7.21-2.36-3-2.27-5.45-5.39-7.82-8.24-3.65-4.4-7.42-8.49-10.22-13.49-2-3.46-2.74-6.71-3.71-10.53-.73-2.9-1.4-3-3.77-3.78-3-1.63-3.14-8.64-3.72-11.77C38.82,87.2,37.48,83,37,78.91a7.52,7.52,0,0,0,.29-4.52,4.31,4.31,0,0,1,1-1.44.57.57,0,0,1,.18,0C39.67,73.2,42,77.14,43,75.8c1.74,1.2.65-4.16.61-4.75-.16-2.38,0-4.75,0-7.13.14-5.49.28-11,.77-16.49a17.15,17.15,0,0,0,.47-2.35c.88-2.68,2.23-5.32,3.35-7.91v0s.05-.11.08-.17l0,0c.74-1.78.46-3.73,1.39-5.4,1.1-2,3.54-3.28,5.38-4.52a47.69,47.69,0,0,1,12-5.91c3.17-1,6.41-1.86,9.61-2.78C81.35,17.08,85.89,17.48,90.7,17.83ZM45.21,39.75c.11-3.43,1.36-5,2.88-7.88-.58,1.5-.42,3-1.07,4.52C46.52,37.55,45.75,38.6,45.21,39.75Zm-14,14.93c-.66-5,.86-9.19,3.11-13.6,1.76-3.47,4.44-5.84,6.57-9s1.88-6.9,4-10c2.45-3.49,6-6.27,9.21-9s6.76-5.53,10.78-7c3.63-1.33,8.13-2.38,11.94-1.32a10.28,10.28,0,0,1,4.35,2.33c.22.21,2.9,4,3,2.14,1.11.84,1.6-1.66,2-2.3a8.09,8.09,0,0,1,4.33-3.44c2.92-1.12,7.58-1.85,10.7-1a37.67,37.67,0,0,1,15,15.43l-.36-.19c-5.21-2.79-8.57-8.8-14.33-10.55A15.34,15.34,0,0,0,91.11,8.45c-1.7,1-5.18,6.15-2.6,7.65-3.14-.19-6.18-.71-9.32,0-3.75.8-7.5,2.3-11.16,3.45-6.34,2-15.51,5.21-19.34,11.11a8.44,8.44,0,0,0,.37-3.47v0c1.61-2.94,5.8-5.09,8.6-6.7a33.18,33.18,0,0,1,11.7-4,29.22,29.22,0,0,1,6-.43c.75,0,4.6,1,3.6-1.16s-10.29-.53-12.14-.21c-6.34,1.08-16.28,5-19.49,11.1-.69,1.33-.56,2.69-1.39,4-.94,1.49-2.35,2.59-3,4.28-1.34,3.4-.16,7.22-.25,10.75a14.74,14.74,0,0,0-.8,4.17c-2.11,3.8-4.91,4.42-5.14,9.23-.21,4.3-1.35,6.26-3.14,10C34.07,63.73,31.81,59.14,31.21,54.68ZM69.28,14.3l.28,0Z"/><path class="cls-2" d="M99.92,115.37a1.19,1.19,0,0,0-.56-.07c-1.58-1.48-7-1.57-9.12-2-3.7-.65-6.07-1-9.59.27-2.91-1-4-1.53-7.3-.76-3,.7-8.28,1.78-10.51,4-1.22.67-1.14,2.09.26,1.28a1.61,1.61,0,0,0,1.28-.4c5.46,1.82,8.76,7.92,14.56,9.09A15.15,15.15,0,0,0,89,125.07c3.42-1.88,5-5.22,8.1-7.28.93-.13,2.87.11,3-1.15A.73.73,0,0,0,99.92,115.37Zm-4.75,2.81c-4.32,3.95-8.16,7.12-14.43,6.52-5.17-.49-9.39-5.13-14-7.41,2.69-.61,5.46-.12,8.15.25h0a80.17,80.17,0,0,0,20.47.49ZM69.65,115.8c.72-.24,1.45-.47,2.17-.69,2.77-.87,4.76-1.54,7.55-.39l-.18-.08c2.3,1,3.72-.82,6.15-.61,3.7.32,7.31,1.62,11,2.19C87.29,117.83,78.6,115.82,69.65,115.8Z"/><path class="cls-2" d="M69.14,91c-1.78,1.4-2.45,6-1.14,7.8.49.7,4.55,3.51,4.58,1.46,0-.8-2.83-1.66-3.31-2.17a3.18,3.18,0,0,1-.8-3.33C68.63,94.22,71.11,89.49,69.14,91Z"/><path class="cls-2" d="M91.57,99.26c-.5.91-2.35.94-2,2.1s3.48-1.07,4-1.75a5.06,5.06,0,0,0,.35-4.5c-.33-1-1.83-4.46-2.77-4.71-.52-1-1.72.35-.71.79.24.74.61,1.46.82,2.22.29.45.47.86.81,1.33l0,0a3.07,3.07,0,0,1,.57,1.9l0-.18a3.4,3.4,0,0,1-.86,2.72Z"/><path class="cls-2" d="M72.76,98.42a1.11,1.11,0,0,0,1-.18c.36.12.72.21,1.08.33,1.26,2.22,2.24-.71.69-1.44C74.06,94.16,70.35,97.42,72.76,98.42Z"/><path class="cls-2" d="M82.94,99.07c1,.27,1-1.28,1.26-1.72l.11-.09c.15.8,2,1.43,2.31.49,1.15-.92,0-2.1-1-2.27a1.3,1.3,0,0,0-2,.43C83,96.3,81.76,98.75,82.94,99.07Z"/><path class="cls-2" d="M53.59,59.92c3.06-1.17,6.87-.89,10-.07,2.34.62,4.24,2.77,6.67,2.92,2.31.58.81-1.55-.27-2.1a20,20,0,0,0-6.29-1.87h0a25.45,25.45,0,0,0-9.29.05C51.46,59.56,48.06,62,53.59,59.92Z"/><path class="cls-2" d="M109,60.24a.19.19,0,0,1,0,.13A.15.15,0,0,0,109,60.24Z"/><path class="cls-2" d="M88.16,63.13c3.3-2.12,6.59-3.94,10.52-4.59,1-.17,10.06.79,10.36,1.7-.13-.89-5.84-3.08-6.57-3.21a15.07,15.07,0,0,0-8.7,1.28h0l-.06,0,.06,0h0c-2.18.94-4.8,1.85-6.72,3.3C85.48,62.76,86.52,64.67,88.16,63.13Z"/><path class="cls-2" d="M69,72.08c.82-.61-7.48-4.72-9.27-4.5-1.23.15-10.31,4.15-9,5.43.25.25.35-.18.5-.24.13,1.18,3.87,2,4.77,2.21a14.78,14.78,0,0,0,7.71-.58C64.29,74.17,69.53,72.64,69,72.08Zm-11.54,2.3c-1.86-.3-3.93-2.2-5.67-2.26a11.81,11.81,0,0,1,3.73-2.44c-1.74,1.55,1.19,4.38,2.66,4.77Zm1.13-2.78a1.51,1.51,0,0,1-.47,0l-.05,0h0c-.45-.65.24-2.14-.34-2.52.66-.11,1.33-.19,2-.24a.56.56,0,0,0-.13.22C59.64,69.72,59.62,71.36,58.57,71.6Zm2.56,2.62A3.8,3.8,0,0,0,63,69.31,32.84,32.84,0,0,0,68,72H68c-2.06.55-4,1.76-6.13,2.07Z"/><path class="cls-2" d="M108.5,70.4c-4.38-3.59-9.25-4.24-13.69-.75l0,0h0c-.27.2-3.75,2.3-3.53,2.47.07,1.2,9.18,2.46,10.5,2.42a17.62,17.62,0,0,0,7.59-2.44C110.71,72.86,108.7,70.55,108.5,70.4ZM98,73.24c-2-.46-3.82-1-5.79-1.38a20.36,20.36,0,0,0,3.3-2.16s0,0,0,0a13.67,13.67,0,0,1,1.64-1.08,1.24,1.24,0,0,1,.56-.29,5.34,5.34,0,0,1,.76-.28.48.48,0,0,0-.27.21,2.31,2.31,0,0,0-.49.07c-.19.08-.37.19-.56.29-1.18,1.09,1.34,4.36,2,4.83C98.75,73.42,98.37,73.33,98,73.24Zm-.19-2.35a.54.54,0,0,1-.07-.13,1.16,1.16,0,0,1,0-.18A1.63,1.63,0,0,0,97.79,70.89Zm-.12-1.43c0,.07,0,.14,0,.2s0,.17,0,.25a1.76,1.76,0,0,1,.06-.39Zm1.88,4.88h0Zm1.61-3.47a1.53,1.53,0,0,1-1.19,0,2.23,2.23,0,0,1-.79-1.6c.24-.46.47-1.23-.38-1.3.11,0,.22-.07.33-.09a8.23,8.23,0,0,1,1.11,0c-.61.65.32,1.16.85,1.33C101.36,69.61,101.56,70.47,101.16,70.87Zm2.65-2.27.19.09a.6.6,0,0,0-.24.28,1.49,1.49,0,0,0-.83-.65ZM108,71.49c-2.09,1.11-3.74,2.07-6.17,2.26,1.62-.34,3.83-2.72,3.19-4.56a22.44,22.44,0,0,1,3.28,2.17A1.94,1.94,0,0,0,108,71.49Z"/><path class="cls-2" d="M97.09,68.66c.19-.1.37-.21.56-.29A1.24,1.24,0,0,0,97.09,68.66Z"/><path class="cls-2" d="M94.82,69.64l0,0h0Z"/><path class="cls-2" d="M40.47,84.85h0v0Z"/><path class="cls-2" d="M43.88,93.14c-1.57-1.28-1.14-5.32-1.9-7.31-.93-2.38-2.35-4.86-1.42-7.48a1.35,1.35,0,0,1,.77.89v0l.06.14,0-.07c2,5.08,2-2.54-1.1-2.07-2.46.91-.4,6.2.21,7.62a18,18,0,0,1,1.31,3.69c.23,1.2-.09,2.56.28,3.7C42.78,94.49,46.45,95.08,43.88,93.14Zm-3.31-14.8h0Z"/><path class="cls-2" d="M123.74,92.58c0-1.19-.55-2.3-.51-3.5s1.45-3.72,1-4.68c-1.27-2.66-2.46,3.26-2.52,4.12-.16,2.42,1,4.36.35,6.83-.5-1-2,0-.73,1.39C123.2,98.79,123.78,93.44,123.74,92.58Z"/><path class="cls-3" d="M115,146.35h-6.78a.85.85,0,0,1,0-1.7H115a.87.87,0,0,1,.87.85A.83.83,0,0,1,115,146.35Zm-12.17,0H96.12a.85.85,0,1,1,0-1.7h6.74a.85.85,0,0,1,0,1.7Zm-12.13,0H84a.85.85,0,0,1,0-1.7h6.74a.85.85,0,0,1,0,1.7Zm-12.13,0H71.86a.85.85,0,0,1,0-1.7H78.6a.85.85,0,0,1,0,1.7Zm-12.13,0H59.73a.85.85,0,0,1,0-1.7h6.74a.85.85,0,0,1,0,1.7Zm-12.13,0H52a10.82,10.82,0,0,1-4.65-1,.86.86,0,0,1-.41-1.14.85.85,0,0,1,1.14-.4,9.13,9.13,0,0,0,3.92.88h2.31a.85.85,0,0,1,0,1.7Zm65.82-1.43a.86.86,0,0,1-.45-1.59,9.22,9.22,0,0,0,3.86-4.65.85.85,0,1,1,1.6.59,10.94,10.94,0,0,1-4.57,5.53A.88.88,0,0,1,120.16,144.92Zm-76.44-3a.86.86,0,0,1-.71-.38,10.78,10.78,0,0,1-1.83-6v-.85a.86.86,0,0,1,1.71,0v.85a9.09,9.09,0,0,0,1.54,5.08.85.85,0,0,1-.24,1.18A.82.82,0,0,1,43.72,141.91Zm81.27-7.4a.85.85,0,0,1-.85-.86v-6.74a.85.85,0,1,1,1.7,0v6.74A.85.85,0,0,1,125,134.51Zm-83-4.4a.85.85,0,0,1-.85-.85v-6.74a.86.86,0,0,1,1.71,0v6.74A.85.85,0,0,1,42,130.11Zm83-7.73a.85.85,0,0,1-.85-.86v-6.74a.85.85,0,1,1,1.7,0v6.74A.85.85,0,0,1,125,122.38ZM42,118a.85.85,0,0,1-.85-.85v-6.74a.86.86,0,0,1,1.71,0v6.74A.85.85,0,0,1,42,118Zm83-7.73a.86.86,0,0,1-.85-.86v-6.74a.85.85,0,1,1,1.7,0v6.74A.86.86,0,0,1,125,110.25Zm-83-4.4a.85.85,0,0,1-.85-.85V98.26a.86.86,0,0,1,1.71,0V105A.85.85,0,0,1,42,105.85Zm83-7.73a.86.86,0,0,1-.85-.86V90.52a.85.85,0,1,1,1.7,0v6.74A.86.86,0,0,1,125,98.12Zm-83-4.4a.85.85,0,0,1-.85-.85V86.13a.86.86,0,0,1,1.71,0v6.74A.85.85,0,0,1,42,93.72ZM125,86a.85.85,0,0,1-.85-.86V78.4a.85.85,0,1,1,1.7,0v6.73A.85.85,0,0,1,125,86Zm-83-4.4a.85.85,0,0,1-.85-.85V74a.86.86,0,0,1,1.71,0v6.74A.85.85,0,0,1,42,81.59Zm83-7.73a.85.85,0,0,1-.85-.86V66.26a.85.85,0,0,1,1.7,0V73A.85.85,0,0,1,125,73.86Zm-83-4.4a.85.85,0,0,1-.85-.85V61.87a.86.86,0,0,1,1.71,0v6.74A.85.85,0,0,1,42,69.46Zm83-7.73a.85.85,0,0,1-.85-.86V54.13a.85.85,0,0,1,1.7,0v6.74A.85.85,0,0,1,125,61.73Zm-83-4.4a.85.85,0,0,1-.85-.85V49.74a.86.86,0,0,1,1.71,0v6.74A.85.85,0,0,1,42,57.33Zm83-7.73a.85.85,0,0,1-.85-.86V42a.85.85,0,0,1,1.7,0v6.74A.85.85,0,0,1,125,49.6ZM42,45.2a.85.85,0,0,1-.85-.85V37.61a.86.86,0,0,1,1.71,0v6.74A.85.85,0,0,1,42,45.2Zm83-7.73a.85.85,0,0,1-.85-.86v-.83a9.21,9.21,0,0,0-1.55-5.09.85.85,0,1,1,1.41-1,10.74,10.74,0,0,1,1.84,6v.83A.85.85,0,0,1,125,37.47ZM42.66,33.15a.8.8,0,0,1-.3-.06.86.86,0,0,1-.5-1.1,10.84,10.84,0,0,1,4.59-5.51.84.84,0,0,1,1.17.29.86.86,0,0,1-.29,1.17,9.19,9.19,0,0,0-3.87,4.65A.86.86,0,0,1,42.66,33.15Zm76.6-5.56a.9.9,0,0,1-.36-.08,9.08,9.08,0,0,0-3.91-.87h-2.32a.86.86,0,1,1,0-1.71H115a10.77,10.77,0,0,1,4.64,1,.85.85,0,0,1-.37,1.62ZM52,26.64a.86.86,0,0,1-.08-1.71h6.81a.86.86,0,1,1,0,1.71Zm55.25,0h-6.74a.86.86,0,0,1-.85-.86.85.85,0,0,1,.85-.85h6.74a.86.86,0,1,1,0,1.71Zm-12.13,0H88.41a.86.86,0,1,1,0-1.71h6.73a.86.86,0,1,1,0,1.71ZM83,26.64H76.28a.86.86,0,1,1,0-1.71H83a.86.86,0,1,1,0,1.71Zm-12.13,0H64.15a.86.86,0,1,1,0-1.71h6.73a.86.86,0,1,1,0,1.71Z"/></g></g></svg>