<svg xmlns="http://www.w3.org/2000/svg" xmlns:xlink="http://www.w3.org/1999/xlink" viewBox="0 0 214.3 244.7">
  <defs>
    <clipPath id="clip-path" transform="translate(36.65 0.82)">
      <rect width="145.19" height="152.58" style="fill: none"/>
    </clipPath>
  </defs>
  <title>face 3</title>
  <g id="Layer_2" data-name="Layer 2">
    <g id="Layer_2-2" data-name="Layer 2">
      <g>
        <rect x="36.65" y="0.82" width="145.19" height="152.58" style="fill: #fff"/>
        <g style="clip-path: url(#clip-path)">
          <g>
            <g>
              <path d="M-20.57,166.79l0,0Z" transform="translate(36.65 0.82)" style="fill: #f6b7b1"/>
              <path d="M176.31,196.13l-.06.15Z" transform="translate(36.65 0.82)" style="fill: #f6b7b1"/>
              <path d="M176.72,183c.69-23.25-30.59-45.35-15.53-23.06-7.7,8.38-5.48,12.81-14.87,20.86a10.52,10.52,0,0,0-11.91,1.78,14.45,14.45,0,0,0-3.27-2.56,6.89,6.89,0,0,0-2.47-4c.62-4.62.21-9.38-3.24-13.07.26-1.78,4-24.16-5.8-19.43-.91-3.1-3-4.37-6.2-3.81,3.11-8.65-4.67-11.79-8-4.79-.33-9.17-6.69-4.06-7.48,2.71l.13-1.09c-5.36,42.27-37.17,31.33-48.53,2.8,6.76-9.6-12.48-3.47-16.53,7.13-3.61-.5-5.93,5.2-7.67,7.31-3.27.41-3.86,4.9-4.34,7.37-3.38.5-4.17,4.65-4.81,7.38A7,7,0,0,0,13,170.84c3.2-4.44-.48-13.1-5.13-7.77-3.66,1.09-8.43,2.7-9.64,6.82a3.55,3.55,0,0,0-2.32,1.22,2.89,2.89,0,0,0-.29-1,3.51,3.51,0,0,0-2.06-4.46,8.2,8.2,0,0,0-.79-3.84c6-6.38-1-7.31-5.6-2.7-4.52,1.13-9.14,9.22-11.72,13l.31-.46c-1.67,2.51-4.31,4.5-5.26,7.41-2.27,1.75-4.53,5.64-3.54,8.52-1.64,4-8,17.56,1.47,16.45.72,3.2,4.56,6.12,7.88,4.56a8.15,8.15,0,0,0,4.64,3.75c.57,4.85,5,9.46,10.11,8.42a8.83,8.83,0,0,0,3.58,1.16,8.72,8.72,0,0,0,.92.77c2.19,6.19,7.51,10.18,14.09,9.05,2.35,7,9.92,11.18,16.85,7.66,3.49,5.35,10.8,5.9,15.52,1.84,4.39,3.72,10.23,2.78,14.05-1a9.11,9.11,0,0,0,8.2-1c10.18,14,25.21-9.89,25.35-19.07a7.75,7.75,0,0,0,1.7-.58,8.82,8.82,0,0,0,7.22.65c2.56,5.13,9.42,7.74,14.43,4.37,5.27,4.64,10.53.22,14.6-3.23a8.22,8.22,0,0,0,8.18.59c6.49,2.66,11.59-4.2,15.69-8,7.73,4,12.7-5,16.23-10.26,4.52.55,7.92-3.36,8.59-7.45h0C177.74,192.55,178.26,186.11,176.72,183Z" transform="translate(36.65 0.82)" style="fill: #f6b7b1"/>
            </g>
            <g>
              <path d="M53.19,112h0v0Z" transform="translate(36.65 0.82)" style="fill: #f6b7b1"/>
              <path d="M72.73,6.2a.18.18,0,0,0,0,.07A.18.18,0,0,1,72.73,6.2Z" transform="translate(36.65 0.82)" style="fill: #f6b7b1"/>
              <path d="M72.79,6.29v0Z" transform="translate(36.65 0.82)" style="fill: #f6b7b1"/>
              <path d="M60.39,11.52l.24,0Z" transform="translate(36.65 0.82)" style="fill: #f6b7b1"/>
              <path d="M20.43,121.38a.31.31,0,0,0,0-.1Z" transform="translate(36.65 0.82)" style="fill: #f6b7b1"/>
              <path d="M30,126.62a.79.79,0,0,0-.12.15Z" transform="translate(36.65 0.82)" style="fill: #f6b7b1"/>
              <path d="M129.54,176.7c-6-6-.46-13.86.48-21,.54-4.14-.79-7.39-2.4-11.11-1.79-4.11-1.3-5.92.84-9.67,2-3.51,2.49-6.2.89-10s-4.07-6.24-7.09-9c-2.71-2.52-1.41-7.44-3.31-10.73s-4.29-4.55-7.68-5.56l.18-.37c0,.54.25-.57.25-.51a2.3,2.3,0,0,0,.28-1h0v0h0c-.06-1.51-2.31.37-2.68.75a8.83,8.83,0,0,0-1.91,3.92,10,10,0,0,0,.85,7.68c1.7,3.54-.29,5.69-1.1,9.17-.92,4,1.09,7.53,4.61,9.4,1.15.61,9.29,2.6,6.78-1-.62-.91-2.8-.81-3.77-1.16a7.71,7.71,0,0,1-3.59-2.43c-2.62-3.47,1.09-7.14,1.25-10.78.11-2.37-1.18-3.87-2-5.94a8.7,8.7,0,0,1,0-5.41c3.65,1.1,6.31,3,7.19,6.92.43,2,0,4,.41,5.93.49,2.25,2.07,3.4,3.81,4.73l-.22-.16c2.67,2.22,6,7,5.73,10.59s-3.87,6.16-3.85,10a34.2,34.2,0,0,0-5.07,10.85c-1.09,3.78-1.71,7.2-4.26,10.37-2.21,2.74-5.08,4.33-7.65,6.65-3,2.74-3,6.42-5.12,9.6-4.6,7-14.86,5.83-21.87,7.41-8.54,1.92-16.94,3.17-25.51.64A26.48,26.48,0,0,0,48.54,181c-1.18-3.35-1.19-7-1.77-10.52a62.85,62.85,0,0,0,7.16,2.8c3,.84,4.84,3.23,8,4,6.82,1.59,14.3,0,20.68-2.57,5.33-2.14,11.71-3.59,16.41-7a8.41,8.41,0,0,0,3.65-6.16c.28-3-1.32-5.94-1-9s2.69-6,4.48-8.44c.7-1,5-5.64,3.53-7-2.12-1.89-9.64,11.36-10.24,13.46-1.6,5.56,3.26,11.6-2.91,15.38-5.13,3.15-12,5.23-17.76,6.91-5.11,1.49-13,3.33-18.06.59-2.24-1.21-3.2-2.79-5.81-3.59A37.6,37.6,0,0,1,45.74,166c-1.46-4.23-4.07-7.75-6.27-11.6-.41-1.71-.7-6.33-2.23-7.57-.72-.59-1.6-.94-2.25,0s.3,1.65.55,2.39c-1.66.77.59,3.88,1.06,4.8,1,5.71,2.06,11.26,7.07,14.77.66,3.59.57,7.32,1.31,10.87-3.64-.55-8.47.29-11.65-2-1.67-1.19-2.06-3.19-3.26-4.76a23.7,23.7,0,0,0-4.72-4.1,10.16,10.16,0,0,1-4.09-9.51c.1-1.45,1.17-4.72.33-5.93s-1.71-.76-2.07.63c-.86,3.37-1.14,8.43.08,11.73,1.35,3.67,4.11,5.14,6.83,7.66,3.23,3,3.55,6.74,8.32,8.19,3.74,1.14,8.1.21,11.58,1.93a11.34,11.34,0,0,0,6.67,5,1.48,1.48,0,0,0,1.39.41,42.3,42.3,0,0,0,6.41,1.19c-.31,1.57,4.8,5.37,5.77,6.79a23.19,23.19,0,0,1,3.77,11.31c.72,8.54,1.1,17,1.23,25.6,0,1-.28,2.91.75,3.57s1.8,0,2.17-.9c.56-1.4-.47-4.71-.64-6.23-.23-2.09-.41-4.16-.52-6.26-.23-4.2-.34-8.41-.68-12.6-.25-3.16-.12-6.37-1.11-9.43,4.53-5.09,9.85-9.31,13.81-14.93,5.35-.48,10.4-1,15-4.18a12.14,12.14,0,0,0,4.71-5.61c.9-2.32,1.31-4.67,3-6.62s4.26-3.16,6.15-5a23.32,23.32,0,0,0,4.53-5.66c2.68-4.93,3.3-10.78,5.78-15.91,1.31,3.32,3.2,6.29,3,10a39.27,39.27,0,0,1-2.08,9.5c-1,3.25-2.21,7-1,10.37a9.25,9.25,0,0,0,2.7,3.76c.37.3,1,1,1.56,1A1.21,1.21,0,0,0,129.54,176.7ZM80.8,189.37C77.68,193.18,73.68,196,70.72,200a25.45,25.45,0,0,0-7.06-9.6c6.29.2,12.37-1.37,18.45-2.74Z" transform="translate(36.65 0.82)" style="fill: #f6b7b1"/>
              <path d="M165.29,164c-.92-5.61-2.62-9.8-6.53-13.92-3.32-3.49-4.19-8-6.48-12.13-1.41-2.55-1.22-3.4-.7-6.2a10.08,10.08,0,0,0-1.14-6.86c-1.32-2.33-3.16-4.31-3.95-7s-.16-5.52.12-8.14c.59-5.76.4-11-3.88-15.27-1.36-1.35-3.45-2.57-3.8-4.58-.4-2.3,1-4.21,2.47-5.76,3.52-3.84,3.82-8.46,1.35-13.22s-7.29-6.58-11-10.07c-1.28-3.62-4.62-6-5.82-9.63-1.32-4,.07-8.5-2.13-12.32s-6.1-6.36-9.14-9.47a57.28,57.28,0,0,1-9-11.13c2,.37-1.07-1.85-1.24-1.94-1.9-2.75-3.26-5.59-5.38-8.19-2.48-3-4.87-6.25-8.53-8C85.25-2.17,73.85-.73,73,6.6l-.24-.31h0c-9.29-12-26.68,2-33.55,10.07a14,14,0,0,0-3,6c-.94,3.7-3.49,5.66-5.57,8.7-4.19,6.11-5.51,12.1-3.79,19.22.65,2.71,1.81,5.44,1.18,8.26-.74,3.34-3.3,5.79-4.57,8.89s-.8,5.78-.53,9.14c.23,2.95-1.22,4.43-3.32,6.29-2.83,2.51-3.86,5.7-5.22,9.15-1.21,3.08-2.26,6.46-1.93,9.82s1.74,5.2.06,8.15c-1.89,3.33-2.18,6-2.26,9.78-.1,4.49-1.08,7.2-4.35,10.33C3.39,132.61.34,134.55-2.26,137a8.54,8.54,0,0,0-2.39,9.15c1.08,3.49-.83,5-3.07,7.73-2.26-2.62-11.56,7.79-12.91,9.32a49.59,49.59,0,0,0-5.74,8.14c-.88,1.54-1.63,3.15-2.44,4.72-.53,1-2.16,3.21-2.17,4.38s.51,1.61,1.64.95,2-4,2.58-5.19a50.31,50.31,0,0,1,4.91-8,63,63,0,0,1,7.12-7.49c2.13-2,4.82-3.24,6.91-5.13,1.23-.32,3.77-4.25,4.3-5.51.76-1.77.18-2.85-.31-4.67-1.44-5.31,3.28-8.06,6.72-11,4.39-3.73,8-6.93,8.25-13,.11-2.26-.09-4.65.51-6.86s2.48-3.59,3.13-5.67-.37-4.26-.62-6.43a15.87,15.87,0,0,1,.47-5.31c.82-3.6,2.31-8.61,4.62-11.55,1.27-1.62,3.13-2.66,4.25-4.45,1.33-2.14,1-4.15.77-6.54-.63-5.78,3-8.94,4.78-14.07.21,2.7,2.16,4.66.93,7.41-1,2.32-2.8,4.14-3.46,6.67-.73,2.78-.37,5.31-.28,8.11s-1.2,4.57-2.71,6.75C21.74,92,20.42,94,20.87,97.23c.33,2.4,1.06,4.65,1,7.1-.21,5.92-2.2,11.34-1.36,17.39,0,0,0-.07,0-.11A19.52,19.52,0,0,1,18.81,132c-1.44,3.37-4.82,5.32-6.35,8.71-.42.91-1.42,9.19.11,8.19.52-.34-.08-4.43,0-5.1a11,11,0,0,1,2.1-4.78c1.12-1.56,2.67-2.73,3.81-4.26a17.81,17.81,0,0,0,2.29-5.06c1.25-3.79.78-7.52,1.42-11.37s2.32-7.34,3.15-11.1c.95-4.3-.8-8-.63-12.2,1.19-4.68,5.33-7.16,4.51-12.53-.79-5.22-1.13-8.53,2.14-13,.35,1.77,1,3.5,1.23,5.29-3.17,1.89-2.77,8.84-2.27,12a21.15,21.15,0,0,0,2.27,5.8c1,2,.72,2.64,0,4.74-1.45,3.93-2.16,6.44-.16,10.32,2.23,4.32,1.89,7.91-.08,12.35-1.4,3.17-3.71,7-6.87,8.65-.74.39-3.11.68-3.57,1.35-1.21,1.75,2.39.82,2.95.61,6.07-2.25,10-10.38,10.81-16.38,1.16,4.19,2.25,8.29-.22,12.25-1,1.66-2.34,3.12-3.47,4.7-1.51,2.11-1.87,3.87-2.39,6.31-1,4.45-4.42,6-7.95,8.29-2.09,1.33-4.09,2.79-6,4.32-.69.54-3.9,2.39-1.88,3,.83.25,5.64-4,6.39-4.49,1.92-1.29,3.92-2.43,5.87-3.66a11.26,11.26,0,0,0,4.52-4.63c1-2,1-4.32,2.15-6.3,2.46-4.26,6.79-6.44,7.91-11.6a13.28,13.28,0,0,0,0-6.08c-.56-2.32-2.35-5.27-1.45-7.66.69,2.47,2.22,4.22,3.43,6.41,1,1.85,1.62,3.9,2.46,5.83.91,2.1,1.83,3.57,1.59,5.9-.12,1.11-1.1,4.79,1.48,3.57,1.45-.69,1.56-4.73,1.36-6-.29-2-1.41-3.75-2.13-5.58a32.67,32.67,0,0,0-2.83-6.12c-1.24-1.89-3-3.8-2.85-6.23.21-.88,1-1.45.2-2.39,1.47-2.28-1.6-3.2-3.13-2.22s-3.31,5-3.68,6.92c-1.12-2.69-2.6-4.53-1.64-7.51.84-2.61,2.86-5.09,2.32-7.93-.48-2.58-2.45-4.59-3-7.17a16.59,16.59,0,0,1,.33-8.48c.14.72.26,1.44.38,2.16l0-.24c.45,3.42.6,10.77,5.54,10.39,1,1.71.89,4.27,1.35,6.15a20.52,20.52,0,0,0,2.11,5.08,49.22,49.22,0,0,0,5.1,7.52c-1.47,1.45,1,8.06,1.33,9.77.62,3.34.94,6.72,1.3,10.09a39.12,39.12,0,0,1-.09,9.79c-.31,2.36-2.28,9,0,10.81-1.11,2.48,1.34,5,2.94,6.48,2.26,2.15,4.77,3.88,6.32,6.69s2.21,4.9,5.85,5.07c3.19.15,6.61-1.84,9.74-.93,2.16,1.13,3.49,2.24,6,1.62a13.85,13.85,0,0,0,6-3.7c4.23-4.32,2.61-10.46,4.52-15.62a1,1,0,0,0,0,.1c.11-.27.22-.54.34-.81l0,.09c1.44-3.12,4.6-5.33,5.1-8.84.9-.07.58-9.59.8-11.12.57-4.07,1.66-8,2.15-12.09a89.08,89.08,0,0,1,1.83-11.25c.27-1.08,1.85-5.11-.86-4.78,1.25-2.21,2-4.59,3.14-6.87s2.11-1.83,3.77-3.47c1.87-1.85,2-5.38,2.26-7.76a18.55,18.55,0,0,1,2-6c1.83-3.84,7.07-18.92-2.12-16.87-1.11-4.33-.33-8.53-2.62-12.59-2-3.49-3-7.26-4.92-10.77C98.49,29,93.13,20.25,86.6,16c3.68-.38,7.78,1.88,10.13,4.62s2.48,6.83,4,10.06a11.66,11.66,0,0,0,3.1,4.09c2,1.58,4.48,1.85,6.46,3.28,3.64,2.64,3.1,6.6,3.63,10.55,0-.05,0-.09,0-.14.48,3.59,3.42,8.23,6.73,9.86,1.32.65,2,.73,1-.7s-3-2.32-4.15-3.76c-4.24-5.38-.69-13.6-7.39-17.35-2.46-1.38-5.13-1.75-7-4.11s-2.51-5.84-3.37-8.76c-1.68-5.71-8.49-9.49-14.31-8.3a18.59,18.59,0,0,0-8-2.19c.7-.27.26-1.27.3-1.83A4.14,4.14,0,0,1,79.08,8c2.26-1.93,6.78-2.13,9.38-1a20,20,0,0,1,5.71,4.3,30,30,0,0,0,7.74,5.32c4,7.8,10.69,13.23,16.82,19.17,3.66,3.54,4.67,6.6,4.9,11.65.22,4.86,2.65,7.49,5.32,11.23-.55.47.85,1.52,1.09,1.77a14.55,14.55,0,0,1,.59,11.88c-2,4.67-6,7.36-8.46,11.58-2.18,3.7-3.37,7.28-1,11.19s6.63,6.5,9.44,10,.84,8.39,4.17,11.61c3.14,3,8.37,4.88,5.9,10.28-1,2.17-2.7,4-2.41,6.59.27,2.37,2.09,4.17,3.78,5.7,3.37,3.06,7,4.95,8.34,9.59.76,2.54.9,4.67,2.14,7.07a8.33,8.33,0,0,1,.8,6.59c-1.73,5.32-7.26,8.67-9.77,13.55,2.78-7.29,7.56-15.5,3.34-23.13-1.71-3.08-4.11-5-6.28-7.66a14.59,14.59,0,0,1-2.32-4.48c-.34-.94-.74-4-2-4.18-.35-1.21-1.83-4.15-2.44-1.19-.31,1.51,1.44,4.93,1.84,6.52a10.46,10.46,0,0,1,.22,5.41c-.59,2.09-2.11,3.72-2.58,5.87-.83,3.81.67,7.68,1.26,11.4.64,4.09.52,8.36-1.35,12.12-.9,1.81-2.88,3.65-3.45,5.5s.7,3.27,2.59,2.44c1.7-.75,3.34-4.31,4.12-5.93a19.57,19.57,0,0,0,1.95-6.86c.41-4.89-1.17-9.28-1.93-14a11.38,11.38,0,0,1,.21-5.88c.72-2,1.64-3.46,1.73-5.64,3.1,4.54,8.14,8,7.62,14.19-.28,3.24-1.74,6.4-2.81,9.42a45.58,45.58,0,0,0-1.57,4.52c-.17.71-.75,1.73.08,2.26a1.07,1.07,0,0,0,1.58-.24c-.29.66-2.09,5.18.33,4.13.86-.38,2-4.35,2.78-5.44,2.92-4,7.64-7.88,8.86-12.85a10.51,10.51,0,0,0-1.23-7.43,18.29,18.29,0,0,1-1.56-5c-1-4.73-3.67-7.52-7.38-10.37l.18.13c-1.94-1.52-4.94-3.63-5.26-6.29s1.94-4.52,2.69-6.77a7.74,7.74,0,0,0-1.54-7.22c-1.79-2.26-5.42-3.31-6.23-6.28-.35-5.08.69-9-3.25-13.09-2.74-2.83-8.81-6-9.12-10.38-.36-5.17,5.12-9.12,7.53-13,3-4.69,3.75-8.87,2.16-14.17,4.47,3.81,9.49,6.81,10.16,13.16.25,2.37.23,4.34-1.4,6.18-1.83,2.08-3.61,3.6-3.93,6.55-.6,5.42,5.71,6.75,7.28,11.3,1.94,5.63-.85,11.59.06,17.25.77,4.79,5.86,8.09,5.55,13-.14,2.3-1.49,4.1-.7,6.44s2.53,4.55,3.42,7a20.45,20.45,0,0,0,3.23,6.32c1.64,2,3.83,3.54,5.08,5.82,2.1,3.85,3.85,10.31,1.41,14.26-1.46,2.39-3.61,4.47-5.42,6.62-.6.71-3,2.76-2.92,3.68.1,1.91,1.31.67,2.13-.14C160.4,176.05,166.3,170.32,165.29,164ZM32.33,60.88c0-.11,0-.22,0-.33.76-2.95,3-4.85,3.08-8.16s-1-5.21,1.21-8a115,115,0,0,0,.72,18.83C36.22,62,34,59.49,32.46,61.52,32.42,61.31,32.36,61.09,32.33,60.88Zm64.58,46.7c-.85,4.23-.77,8.86-1,13.16-.19,3.85-.45,7.67-.38,11.52-2.26.35-1.34,5.17-1.62,6.69-.42,2.28-2.2,3.25-3.46,5.06-3.09,4.47-2.17,9.58-3.74,14.48-1.08,3.37-5.21,8-9.07,6.12-2.29-1.13-3.32-1.67-6-1.56-2.13.09-5.88,1.36-7.78.16l-.24-.24c-1.64-2.52-2.85-4.68-5.13-6.71-1.9-1.71-4.45-3.06-5.7-5.37a2.63,2.63,0,0,1-.08-.3c0-.79.17-1.38-.52-2a1.31,1.31,0,0,0,.12-.78c.36-2.86-.15-5.9-.2-8.77a72.39,72.39,0,0,0-.76-9.87c-1-6.45-2.83-13-3.16-19.52,3.29,3.79,6.29,8.11,10.25,11.26,4.44,3.53,12,3.27,17.44,3.06,3.92-.16,9-1.41,11.86-4.25,4-3.92,6.76-9.39,9.59-14.15C97.19,106.27,97.05,106.92,96.91,107.58Zm-18-93a23.54,23.54,0,0,1,4.85,1.52,2,2,0,0,0,.52.28c3.31,1.72,6.23,6.34,8.26,9.42,2.47,3.75,4.78,7.8,7,11.7,1.16,2,1.86,4.17,2.85,6.25.9,1.91,2.36,3.44,3.27,5.33.64,1.32,1.64,13.47,3.75,11.88,1.87.89,3-1.48,4,1,1.11,2.79-.48,6.19-1.4,8.75-1.06,3-2.93,5.88-3.57,9-.54,2.62-.1,6.53-2.25,8.54-1.55,1-2.53,1.06-3.5,2.76-1.14,2-1.73,4.29-2.71,6.35a75.84,75.84,0,0,1-5.1,8.88c-1.94,3-3.57,6.35-5.75,9.14a17.21,17.21,0,0,1-6.37,4.93,38,38,0,0,1-16.47.94c-2.3-.32-4.33-.58-6.22-2a44.55,44.55,0,0,1-6.75-7.11c-3.15-3.8-6.41-7.33-8.82-11.63a34.39,34.39,0,0,1-3.2-9.09C40.58,88.87,40,88.8,38,88.12c-2.58-1.41-2.71-7.46-3.2-10.16-.65-3.54-1.81-7.13-2.19-10.69a6.59,6.59,0,0,0,.26-3.9,3.51,3.51,0,0,1,.83-1.24.4.4,0,0,1,.15,0c1,.24,3,3.64,3.9,2.49,1.5,1,.56-3.59.52-4.11-.14-2,0-4.09,0-6.14.13-4.74.25-9.51.67-14.23a14,14,0,0,0,.41-2c.75-2.31,1.92-4.59,2.89-6.83v0l.06-.15v0c.64-1.53.4-3.22,1.2-4.66,1-1.72,3.05-2.83,4.64-3.9A41.07,41.07,0,0,1,58.48,17.5c2.73-.9,5.53-1.61,8.29-2.41C70.81,13.92,74.72,14.27,78.87,14.57ZM39.62,33.48c.1-3,1.18-4.32,2.49-6.8-.51,1.3-.37,2.6-.93,3.9C40.75,31.58,40.09,32.49,39.62,33.48Zm61-19c-4.5-2.4-7.4-7.59-12.37-9.1a13.27,13.27,0,0,0-9,1.11c-1.46.83-4.46,5.31-2.23,6.6-2.72-.17-5.34-.62-8,0-3.23.69-6.47,2-9.63,3-5.47,1.71-13.38,4.49-16.69,9.59a7,7,0,0,0,.32-3v0c1.38-2.53,5-4.39,7.41-5.78a28.85,28.85,0,0,1,10.1-3.42A26.2,26.2,0,0,1,65.62,13c.64,0,4,.83,3.1-1s-8.88-.46-10.47-.18c-5.47.93-14,4.28-16.81,9.58-.6,1.15-.49,2.32-1.2,3.45-.81,1.29-2,2.24-2.6,3.69-1.15,2.94-.14,6.23-.21,9.28a12.9,12.9,0,0,0-.69,3.6c-1.82,3.27-4.24,3.81-4.44,8-.18,3.72-1.15,5.4-2.7,8.68.41-3.9-1.54-7.87-2.05-11.72-.58-4.32.74-7.93,2.67-11.73,1.53-3,3.84-5,5.68-7.76s1.62-6,3.49-8.62c2.11-3,5.17-5.42,8-7.79s5.83-4.78,9.29-6.05c3.14-1.15,7-2.06,10.31-1.15a8.9,8.9,0,0,1,3.75,2c.19.18,2.5,3.47,2.59,1.84,1,.72,1.38-1.43,1.71-2a7,7,0,0,1,3.74-3c2.51-1,6.54-1.6,9.23-.84a32.48,32.48,0,0,1,13,13.31Z" transform="translate(36.65 0.82)" style="fill: #f6b7b1"/>
              <path d="M5.11,178.58c-1.8-4-6.89-6.59-7.54-11.07-.16-1,1.6-6.47.53-6.25-1.82.37-2.12,4.8-1.95,6.27.6,5,6,7.23,7.67,11.73A3.76,3.76,0,0,1,4,182.09c0,.13-1.58,2.24,0,2.12C6.27,184,5.67,179.85,5.11,178.58Z" transform="translate(36.65 0.82)" style="fill: #f6b7b1"/>
              <path d="M2.51,155.25c.75-1.67,2.34-2.83,3.72-4,.19-.17,3.66-2.38,2.44-3-1.65-.79-7.41,5.15-7.72,7-.39,2.33,6.79,8.44,7.64,7.36C10.55,160.16,1.4,158.13,2.51,155.25Z" transform="translate(36.65 0.82)" style="fill: #f6b7b1"/>
              <path d="M16.5,167.05c.11-1.06.95-5.5-.06-6.12-1.22-.75-1.15,4.53-1.2,5.08-.39,4.56-4,5.35-8.07,6.16-.81-.61-1.43.72-.78,1.33.84.79,3.27-.43,4.06-.68C13.73,171.76,16.11,170.74,16.5,167.05Zm-9.32,5.13Z" transform="translate(36.65 0.82)" style="fill: #f6b7b1"/>
              <path d="M21.62,186.38c-.22-2.89-2.6-4-3.46-6.55-.64-1.84,0-4.07.38-5.91s1.15-4.55.8-6.61c-.09-.53,0-2.36-1.19-1.47-.56.43-.18,2.34-.22,3-.3,4.51-3.13,9.17-.43,13.34a13.72,13.72,0,0,1,2.29,5.25c.15.62.15,2.15,1.31,1.74C22.11,188.8,21.67,187.11,21.62,186.38Z" transform="translate(36.65 0.82)" style="fill: #f6b7b1"/>
              <path d="M122.14,156.71c-1.63,0-4.32,5.26-5.1,6.54a18.84,18.84,0,0,0-3.05,8.68,20.85,20.85,0,0,0,1.52,8.1c.45,1.24,2,6.83,3.77,6.73,2.67-.15-.69-5.42-1.15-6.6-1.08-2.81-2-5.83-1.66-8.89s2-5.74,3.61-8.28C120.58,162.21,124.89,156.71,122.14,156.71Z" transform="translate(36.65 0.82)" style="fill: #f6b7b1"/>
              <path d="M86.83,98.73a1,1,0,0,0-.48-.06c-1.37-1.28-6-1.36-7.87-1.68-3.19-.56-5.24-.87-8.28.23-2.51-.87-3.48-1.32-6.29-.66-2.58.6-7.15,1.54-9.08,3.42-1,.58-1,1.8.23,1.1a1.37,1.37,0,0,0,1.11-.34c4.71,1.57,7.55,6.84,12.55,7.84a13.12,13.12,0,0,0,8.71-1.48c2.95-1.62,4.32-4.5,7-6.29.8-.11,2.48.1,2.61-1A.62.62,0,0,0,86.83,98.73ZM62.58,98.5c2.39-.74,4.11-1.32,6.52-.33l-.16-.07c2,.85,3.21-.71,5.31-.52,3.19.27,6.3,1.39,9.45,1.88-7.77,1.39-15.26-.34-23-.36Zm20.15,2.66c-3.72,3.4-7,6.14-12.45,5.62-4.47-.43-8.11-4.43-12.06-6.4,2.31-.53,4.71-.1,7,.22h0a69.17,69.17,0,0,0,17.66.43Z" transform="translate(36.65 0.82)" style="fill: #f6b7b1"/>
              <path d="M59.69,81c.14-.49,2.28-4.58.58-3.24-1.54,1.21-2.11,5.14-1,6.73.43.6,3.93,3,4,1.25,0-.68-2.44-1.42-2.85-1.87A2.73,2.73,0,0,1,59.69,81Z" transform="translate(36.65 0.82)" style="fill: #f6b7b1"/>
              <path d="M79.74,84.73l-.12.1c-.43.78-2,.81-1.7,1.81s3-.93,3.42-1.51a4.4,4.4,0,0,0,.29-3.89c-.28-.89-1.57-3.84-2.39-4-.44-.82-1.48.3-.61.67.21.65.53,1.27.71,1.93.25.38.4.74.7,1.14l0,0a2.57,2.57,0,0,1,.49,1.63.77.77,0,0,0,0-.15A3,3,0,0,1,79.74,84.73Z" transform="translate(36.65 0.82)" style="fill: #f6b7b1"/>
              <path d="M63.39,84.11a1,1,0,0,0,.88-.16l.94.28c1.09,1.92,1.93-.61.59-1.24C64.51,80.43,61.31,83.24,63.39,84.11Z" transform="translate(36.65 0.82)" style="fill: #f6b7b1"/>
              <path d="M72.18,84.67c.83.22.84-1.11,1.09-1.49a.22.22,0,0,1,.09-.07c.13.68,1.69,1.22,2,.41,1-.78,0-1.81-.89-2a1.12,1.12,0,0,0-1.7.37C72.21,82.27,71.16,84.39,72.18,84.67Z" transform="translate(36.65 0.82)" style="fill: #f6b7b1"/>
              <path d="M46.85,50.89a14.56,14.56,0,0,1,8.62-.06c2,.53,3.65,2.38,5.75,2.51,2,.51.7-1.33-.24-1.81a17.31,17.31,0,0,0-5.42-1.61h0a22.06,22.06,0,0,0-8,0C45,50.57,42.08,52.71,46.85,50.89Z" transform="translate(36.65 0.82)" style="fill: #f6b7b1"/>
              <path d="M81.52,49.5h0Z" transform="translate(36.65 0.82)" style="fill: #f6b7b1"/>
              <path d="M75.71,52.34c-1.34,1-.44,2.64,1,1.32a23.91,23.91,0,0,1,9.08-4c.93-.15,9.41.76,8.93,1.58.4-.68-5-2.76-5.66-2.88a13,13,0,0,0-7.51,1.11h0A28.8,28.8,0,0,0,75.71,52.34Z" transform="translate(36.65 0.82)" style="fill: #f6b7b1"/>
              <path d="M81.45,49.53l0,0Z" transform="translate(36.65 0.82)" style="fill: #f6b7b1"/>
              <path d="M55.55,63.38c.54-.2,5.06-1.52,4.58-2,.71-.53-6.45-4.07-8-3.88-1.06.12-8.89,3.57-7.79,4.68.22.21.3-.16.44-.21.11,1,3.33,1.74,4.11,1.91A12.81,12.81,0,0,0,55.55,63.38Zm-5.38,0c-1.6-.26-3.39-1.9-4.89-2A10.39,10.39,0,0,1,48.5,59.3c-1.5,1.35,1,3.78,2.3,4.12ZM52,58.69c0,.65,0,2.07-.88,2.27a1.07,1.07,0,0,1-.4,0l0,0h0c-.38-.57.21-1.85-.3-2.18.58-.09,1.15-.16,1.73-.2A.35.35,0,0,0,52,58.69ZM54,63.11l-.6.11A3.29,3.29,0,0,0,55,59a27.78,27.78,0,0,0,4.35,2.34h0C57.47,61.8,55.78,62.85,54,63.11Z" transform="translate(36.65 0.82)" style="fill: #f6b7b1"/>
              <path d="M94.23,59.93c-3.78-3.1-8-3.67-11.82-.64v0l0,0h0c-.23.17-3.23,2-3,2.13.05,1,7.92,2.12,9.05,2.09A15.14,15.14,0,0,0,95,61.41C96.14,62.05,94.4,60.05,94.23,59.93Zm-9.38-.64a1.43,1.43,0,0,0,0,.22,1.86,1.86,0,0,1,0-.34l0-.05C84.88,59.18,84.86,59.23,84.85,59.29ZM85,60.35l-.06-.11a.75.75,0,0,1,0-.16A1.69,1.69,0,0,0,85,60.35Zm5.19-2,.17.08a.47.47,0,0,0-.21.25c-.16-.33-.41-.42-.72-.57Zm-4-.61a7.53,7.53,0,0,1,.95,0c-.52.56.28,1,.74,1.15.23.35.41,1.09.06,1.44a1.27,1.27,0,0,1-1,0A1.92,1.92,0,0,1,86.19,59c.21-.39.4-1.06-.33-1.12Zm-1,4.62c-1.69-.4-3.31-.85-5-1.19A17.65,17.65,0,0,0,83,59.33l0,0a8.45,8.45,0,0,1,2.55-1.43.47.47,0,0,0-.23.18c-2.8.13.14,4,.87,4.48C85.82,62.53,85.49,62.45,85.16,62.38Zm8.6-1.51a12.87,12.87,0,0,1-5.32,2c1.4-.3,3.31-2.35,2.75-3.93A19,19,0,0,1,94,60.75C93.94,60.79,93.85,60.82,93.76,60.87Z" transform="translate(36.65 0.82)" style="fill: #f6b7b1"/>
              <path d="M82.41,59.29h0Z" transform="translate(36.65 0.82)" style="fill: #f6b7b1"/>
              <path d="M86.6,63.34l-.09,0Z" transform="translate(36.65 0.82)" style="fill: #f6b7b1"/>
              <path d="M36.28,67.55l0,0S36.28,67.57,36.28,67.55Z" transform="translate(36.65 0.82)" style="fill: #f6b7b1"/>
              <path d="M38.47,79.55c-1.35-1.1-1-4.59-1.64-6.31-.8-2.06-2-4.2-1.22-6.45a1.16,1.16,0,0,1,.67.76v0s0,.09,0,.13a.14.14,0,0,1,0-.06c1.76,4.38,1.76-2.19-1-1.79-2.13.79-.33,5.38.19,6.59v0a15.22,15.22,0,0,1,1.13,3.2c.2,1-.08,2.21.24,3.19C37.52,80.71,40.69,81.22,38.47,79.55ZM35.62,66.77h0Z" transform="translate(36.65 0.82)" style="fill: #f6b7b1"/>
              <path d="M105.3,82.65c1.61,1.77,2.11-2.84,2.08-3.58,0-1-.48-2-.44-3s1.25-3.22.86-4c-1.09-2.29-2.12,2.81-2.17,3.55-.14,2.09.83,3.76.3,5.9C105.5,80.57,104.18,81.42,105.3,82.65Z" transform="translate(36.65 0.82)" style="fill: #f6b7b1"/>
            </g>
          </g>
        </g>
        <g>
          <path d="M72.18,121.54a27.42,27.42,0,0,1-18.59-7c-2.69-2.34-7.93-7.31-12.12-28.79-.18-.91-.35-1.81-.52-2.69A2.68,2.68,0,0,0,40,81.5c-2.51-2.06-4.3-7.8-5.21-11.46s-1.34-8.68,1.41-10.35a3,3,0,0,0,1.46-2.63,85.78,85.78,0,0,1,.46-8.84c1.42-13.86,2.26-25,11.21-32.73,7.82-6.72,16.52-7.3,22.83-7.3s15,.58,22.83,7.3c8.95,7.69,9.79,18.87,11.21,32.73a85.78,85.78,0,0,1,.46,8.84,3.09,3.09,0,0,0,1.46,2.63c2.75,1.67,2.36,6.56,1.42,10.35s-2.71,9.4-5.22,11.46a2.73,2.73,0,0,0-.93,1.6c-.17.88-.34,1.78-.52,2.69-4.19,21.48-9.43,26.45-12.12,28.79A27.42,27.42,0,0,1,72.18,121.54Z" transform="translate(36.65 0.82)" style="fill: none;stroke: #3c92ca;stroke-linecap: round;stroke-miterlimit: 10;stroke-width: 1.81961360882666px"/>
          <g>
            <line x1="85.41" y1="62.13" x2="102.09" y2="62.13" style="fill: none;stroke: #3c92ca;stroke-linecap: round;stroke-miterlimit: 10;stroke-width: 1.21307573921777px"/>
            <line x1="115.56" y1="62.13" x2="132.24" y2="62.13" style="fill: none;stroke: #3c92ca;stroke-linecap: round;stroke-miterlimit: 10;stroke-width: 1.21307573921777px"/>
          </g>
        </g>
      </g>
    </g>
  </g>
</svg>
