<?xml version="1.0" encoding="utf-8"?>
<!-- Generator: Adobe Illustrator 25.0.1, SVG Export Plug-In . SVG Version: 6.00 Build 0)  -->
<svg version="1.1" id="Layer_1" xmlns="http://www.w3.org/2000/svg" xmlns:xlink="http://www.w3.org/1999/xlink" x="0px" y="0px"
	 viewBox="0 0 174 174" style="enable-background:new 0 0 174 174;" xml:space="preserve">
<style type="text/css">
	.st0{fill:#2C3E50;}
</style>
<g>
	<path class="st0" d="M60,6V0c-3,0-9,0-12,0v6C51,6,57,6,60,6z"/>
	<rect x="84" class="st0" width="6" height="6"/>
	<rect x="120" class="st0" width="6" height="6"/>
	<path class="st0" d="M168,0c-11.7,0-24.3,0-36,0c0,13.7,0,28.3,0,42c13.7,0,28.3,0,42,0c0-13.7,0-28.3,0-42H168z M168,12
		c0,7.5,0,16.5,0,24c-9.6,0-20.4,0-30,0c0-9.6,0-20.4,0-30c9.6,0,20.4,0,30,0V12z"/>
	<path class="st0" d="M150,12h-6c0,5.3,0,12.7,0,18c5.3,0,12.7,0,18,0c0-5.3,0-12.7,0-18C159,12,153,12,150,12z"/>
	<path class="st0" d="M24,30h6c0-5.3,0-12.7,0-18c-5.3,0-12.7,0-18,0c0,5.3,0,12.7,0,18C15,30,21,30,24,30z"/>
	<path class="st0" d="M12,42c9.6,0,20.4,0,30,0c0-13.7,0-28.3,0-42C28.3,0,13.7,0,0,0c0,13.7,0,28.3,0,42C3,42,9,42,12,42z M6,30
		c0-7.5,0-16.5,0-24c9.6,0,20.4,0,30,0c0,9.6,0,20.4,0,30c-9.6,0-20.4,0-30,0V30z"/>
	<path class="st0" d="M72,42v6c5.3,0,12.7,0,18,0c0-3,0-9,0-12h-6v6h-6c0-5.3,0-12.7,0-18c3,0,9,0,12,0v-6h6v6h-6v6c3,0,9,0,12,0v6
		h6c0,3,0,9,0,12h-6c0-3,0-9,0-12h-6c0,3,0,9,0,12h-6v6c7.5,0,16.5,0,24,0v6c5.3,0,12.7,0,18,0v-6h-6c0-11.7,0-24.3,0-36h-6
		c0-3,0-9,0-12c-3,0-9,0-12,0V0c-3,0-9,0-12,0c0,3,0,9,0,12c-3,0-9,0-12,0V6h-6V0h-6c0,3,0,9,0,12h6v6h-6v-6c-5.3,0-12.7,0-18,0
		c0,3,0,9,0,12c5.3,0,12.7,0,18,0v6h-6v6h6V42z M120,36v6h-6c0-3,0-9,0-12h-6v-6h6v6h6V36z M108,12v6h-6v-6H108z"/>
	<path class="st0" d="M54,42v-6h-6c0,3,0,9,0,12h6V42z"/>
	<path class="st0" d="M66,42v-6h-6c0,5.3,0,12.7,0,18h6C66,51,66,45,66,42z"/>
	<path class="st0" d="M30,48c-3,0-9,0-12,0v6h6v6h6C30,57,30,51,30,48z"/>
	<rect x="36" y="48" class="st0" width="6" height="6"/>
	<rect x="132" y="48" class="st0" width="6" height="6"/>
	<rect x="168" y="48" class="st0" width="6" height="6"/>
	<rect x="144" y="54" class="st0" width="6" height="6"/>
	<path class="st0" d="M78,66c0-3,0-9,0-12c-3,0-9,0-12,0c0,3,0,9,0,12C69,66,75,66,78,66z"/>
	<path class="st0" d="M96,66v-6c-3,0-9,0-12,0v6C87,66,93,66,96,66z"/>
	<path class="st0" d="M102,60c0,3,0,9,0,12h6v-6h6v-6C111,60,105,60,102,60z"/>
	<rect x="138" y="60" class="st0" width="6" height="6"/>
	<path class="st0" d="M168,60c-5.3,0-12.7,0-18,0v6c3,0,9,0,12,0c0,3,0,9,0,12c-5.3,0-12.7,0-18,0v6h6v6h6v-6h6v6h6v6h6
		c0-9.6,0-20.4,0-30h-6V60z"/>
	<rect x="144" y="66" class="st0" width="6" height="6"/>
	<path class="st0" d="M24,78v-6h-6c0-3,0-9,0-12c-3,0-9,0-12,0v-6h6v-6c-3,0-9,0-12,0c0,7.5,0,16.5,0,24h6v-6h6c0,3,0,9,0,12H6v6
		c3,0,9,0,12,0v-6H24z"/>
	<path class="st0" d="M30,78v6h6v-6h6v-6h-6v-6c3,0,9,0,12,0v-6h6v-6c-3,0-9,0-12,0v6c-3,0-9,0-12,0v6h-6v6h6V78z"/>
	<path class="st0" d="M48,78v6c3,0,9,0,12,0v-6h6c0-3,0-9,0-12h-6v6h-6v-6h-6C48,69,48,75,48,78z"/>
	<rect x="84" y="72" class="st0" width="6" height="6"/>
	<path class="st0" d="M114,78h6v-6c-3,0-9,0-12,0v6H114z"/>
	<path class="st0" d="M72,84v6c3,0,9,0,12,0c0-3,0-9,0-12h-6v-6h-6v6h-6v6H72z"/>
	<path class="st0" d="M126,84v6c3,0,9,0,12,0v6c3,0,9,0,12,0v-6h-6v-6h-6c0-3,0-9,0-12h-6v-6h-6c0,3,0,9,0,12h-6v6H126z"/>
	<rect x="36" y="84" class="st0" width="6" height="6"/>
	<path class="st0" d="M66,84h-6c0,3,0,9,0,12h6C66,93,66,87,66,84z"/>
	<rect x="156" y="90" class="st0" width="6" height="6"/>
	<rect x="66" y="96" class="st0" width="6" height="6"/>
	<path class="st0" d="M156,96h-6v6c-3,0-9,0-12,0v6c5.3,0,12.7,0,18,0C156,105,156,99,156,96z"/>
	<path class="st0" d="M162,102v6h-6v6c-5.3,0-12.7,0-18,0v6c-13.7,0-28.3,0-42,0v6h-6v6h-6v6c3,0,9,0,12,0v6c3,0,9,0,12,0
		c0-3,0-9,0-12h-6v-6c3,0,9,0,12,0c0,3,0,9,0,12h6v6c-3,0-9,0-12,0v6h-6v6h6c0,5.3,0,12.7,0,18h6v-6h6c0-5.3,0-12.7,0-18
		c5.3,0,12.7,0,18,0v6h6v-6h6c0-9.6,0-20.4,0-30h6c0,5.3,0,12.7,0,18h6v6h6v6c-3,0-9,0-12,0v6c-3,0-9,0-12,0c0,3,0,9,0,12h-6v6
		c5.3,0,12.7,0,18,0v-6h-6v-6h6v6h6v-6h6v6h6c0-9.6,0-20.4,0-30h-6v-6h-6v-6h6v-6h-6v-6c3,0,9,0,12,0v-6h-6c0-3,0-9,0-12h-6V102z
		 M144,132c0,3,0,9,0,12c-5.3,0-12.7,0-18,0c0-5.3,0-12.7,0-18c5.3,0,12.7,0,18,0V132z"/>
	<path class="st0" d="M12,108v-6H6v-6H0c0,9.6,0,20.4,0,30c3,0,9,0,12,0v-6h6v-6h-6V108z"/>
	<path class="st0" d="M72,114v-6h-6v-6c-3,0-9,0-12,0v6h6v6h-6v-6h-6v-6h6v-6c-5.3,0-12.7,0-18,0v-6h-6v-6c-3,0-9,0-12,0v6h-6
		c0,3,0,9,0,12h6c0,3,0,9,0,12c3,0,9,0,12,0c0-3,0-9,0-12h-6v-6h6v6c3,0,9,0,12,0v6h-6v6c3,0,9,0,12,0v6c5.3,0,12.7,0,18,0v-6H72z"
		/>
	<path class="st0" d="M132,108c0-3,0-9,0-12h-6v-6h-6v6h-6v-6h6v-6c-5.3,0-12.7,0-18,0c0-3,0-9,0-12h-6c0,3,0,9,0,12h-6v6
		c5.3,0,12.7,0,18,0c0,3,0,9,0,12h6v6h-6v-6h-6c0,3,0,9,0,12c11.7,0,24.3,0,36,0v-6H132z M120,108v-6h6v6H120z"/>
	<path class="st0" d="M30,120v6c3,0,9,0,12,0v-6h-6v-6h-6V120z"/>
	<path class="st0" d="M30,132c-9.6,0-20.4,0-30,0c0,13.7,0,28.3,0,42c13.7,0,28.3,0,42,0c0-13.7,0-28.3,0-42C39,132,33,132,30,132z
		 M36,144c0,7.5,0,16.5,0,24c-9.6,0-20.4,0-30,0c0-9.6,0-20.4,0-30c9.6,0,20.4,0,30,0V144z"/>
	<rect x="132" y="132" class="st0" width="6" height="6"/>
	<path class="st0" d="M66,144v-6h6v6h6c0-3,0-9,0-12h6v-6h-6v-6c3,0,9,0,12,0v-6h6v-6c-3,0-9,0-12,0v-6h6v-6c-3,0-9,0-12,0v6h-6v6h6
		v6h-6v6h-6v6c-5.3,0-12.7,0-18,0v6h6c0,3,0,9,0,12C57,144,63,144,66,144z"/>
	<path class="st0" d="M18,144h-6c0,5.3,0,12.7,0,18c5.3,0,12.7,0,18,0c0-5.3,0-12.7,0-18C27,144,21,144,18,144z"/>
	<path class="st0" d="M54,144h-6c0,3,0,9,0,12h6C54,153,54,147,54,144z"/>
	<path class="st0" d="M72,150v-6h-6c0,3,0,9,0,12c3,0,9,0,12,0v6h6c0-3,0-9,0-12C81,150,75,150,72,150z"/>
	<path class="st0" d="M96,150v-6c-3,0-9,0-12,0v6h6c0,3,0,9,0,12h-6v6h-6v6c7.5,0,16.5,0,24,0c0-5.3,0-12.7,0-18h-6V150z"/>
	<rect x="54" y="156" class="st0" width="6" height="6"/>
	<rect x="72" y="162" class="st0" width="6" height="6"/>
	<rect x="132" y="162" class="st0" width="6" height="6"/>
	<path class="st0" d="M60,168h-6v-6h-6c0,3,0,9,0,12c7.5,0,16.5,0,24,0v-6C69,168,63,168,60,168z"/>
	<path class="st0" d="M120,168v6c3,0,9,0,12,0v-6C129,168,123,168,120,168z"/>
</g>
</svg>
