<svg xmlns="http://www.w3.org/2000/svg" viewBox="0 0 63.53 40">
  <g id="Layer_2" data-name="Layer 2">
    <g id="Layer_3" data-name="Layer 3">
      <g>
        <g>
          <path d="M17.89,10.18,22.23,24h.05l4.11-13.86h5.74V30.34H28.31V16.05h0L23.71,30.34H20.57L16,16.19h0V30.34H12.15V10.18Z" style="fill: #2c3e50"/>
          <path d="M43.71,10.18a8.94,8.94,0,0,1,3.34.62,7.32,7.32,0,0,1,2.68,1.86,8.78,8.78,0,0,1,1.76,3.11,13.39,13.39,0,0,1,.64,4.38,14.94,14.94,0,0,1-.52,4.06A9.3,9.3,0,0,1,50,27.43a7.56,7.56,0,0,1-2.62,2.13,8.28,8.28,0,0,1-3.71.78h-8V10.18Zm-.28,16.43a4.75,4.75,0,0,0,1.71-.31,3.72,3.72,0,0,0,1.48-1,5.2,5.2,0,0,0,1-1.88,8.88,8.88,0,0,0,.39-2.82,12.82,12.82,0,0,0-.27-2.75,5.69,5.69,0,0,0-.9-2.11,4,4,0,0,0-1.65-1.34,6.12,6.12,0,0,0-2.53-.46H39.79v12.7Z" style="fill: #2c3e50"/>
        </g>
        <path d="M63.53,40H0V0H63.53Zm-62-1.57H62V1.57H1.57Z" style="fill: #2c3e50"/>
      </g>
    </g>
  </g>
</svg>
