<svg xmlns="http://www.w3.org/2000/svg" viewBox="0 0 213.22 215.88">
  <title>operator subject</title>
  <g id="Layer_2" data-name="Layer 2">
    <g id="Layer_3" data-name="Layer 3">
      <g>
        <g>
          <path d="M85,51.4l.26.12Z" style="fill: #3c94cc"/>
          <polygon points="85.66 51.71 85.66 51.71 85.65 51.71 85.66 51.71" style="fill: #3c94cc"/>
          <path d="M124.61,65.9l.13,0,.11,0Z" style="fill: #3c94cc"/>
          <path d="M127,62.75a32.11,32.11,0,0,1-6.75-6.67l.12.16c-1-1.52-6.7-6.32-8.12-6.42-1.83-3.9-9.56-11.7-13.58-11.65-.83-.55-1.25-1-2.38-.73a4,4,0,0,1-1.52-1.32,1.1,1.1,0,0,0-.33-.71h0c-1.15-1.34-2.28.82-1.67,1.89h0a2.05,2.05,0,0,0-.7,1.17,6.38,6.38,0,0,0-.61,1.08A3.73,3.73,0,0,0,89.91,42a7.18,7.18,0,0,0,.62,3.88c-.07.41-.11.83-.16,1.24a6.36,6.36,0,0,0-.49,4.07,18.57,18.57,0,0,0-.26,2.23,38.58,38.58,0,0,1-4-1.73h0c-3.14-1.54-5.65-4-8.73-5.66a4.64,4.64,0,0,0-1.83-1.82,5.56,5.56,0,0,0-1.92-3.7c.72-1.62,1.3-6.91-.68-8.16.29-2-1.62-.77-2.07.13-1,.91-1.63,4.12-1.94,5.37-3.37,1.58-8.9,4.51-11.06,7.71a1.27,1.27,0,0,0-.38.51,1.39,1.39,0,0,0-.36,2.55,1,1,0,0,0,.33.19c.6,1.34,1.44,1.46,1.91,2.88a3.85,3.85,0,0,1,0,1,20.63,20.63,0,0,0-2.14,3.08,3.08,3.08,0,0,0-.66,3.31,6.53,6.53,0,0,0,.1,1.53,1.65,1.65,0,0,0-.29,2A2.25,2.25,0,0,0,56,63c-.1.42-.43.67-.57,1.1-.74,1.08-.76,3.44-.76,4.77,0,0,0,.09-.08.14-.95.53-5.7,3-3.14,3.92a1.58,1.58,0,0,0,.47.42c.1,3.06,3.6,6.5,6.08,7.52,2.14,2,4,2,5.83,4.42,1.4,1.9,2.13,4.37,3.17,6.5,0,.93.43,1.81.56,2.73a.28.28,0,0,0,0-.09A4.33,4.33,0,0,0,68,96.14a1.27,1.27,0,0,0,.06.28,4.08,4.08,0,0,0-.08,3,1.5,1.5,0,0,0,0,.3,6.88,6.88,0,0,0-.26,1.45c-1.06,2.45-.8,5.24,2.15,3.44,1.8-1.1,2.77-6.14,3.94-8.23,1.51.68,3,1.68,4.69,1.17,2,.49,3.28,1.3,5.38.26,2.29.9,5.3-1,7.35-1.69,1.7.17,4.55-1.6,5.9-2.91l.92-.44-.4.19.53-.23c4.24,1.92,2.95-5.76,1.29-7.67-2.52-8.72.13-12.67,3-20.87a50.63,50.63,0,0,0,5.68,3.46c1.33,1.29,2.78,3.23,4.73,3.52,1.82,1.63,3.66,2.06,5.55.25.9,1.33,3.39,1.35,2.43-.79,0-.92,0-1.86.66-2.52l-.28.24c1.31-1.16,1.84-2.18,3.5-2.47l-.13,0,.24,0-.11,0c.54-.06,1.35-.06,2.07-.19a20.48,20.48,0,0,0,.21-2.92Zm-69.3,3.33c0-.23,0-.46-.09-.68l.15-.18c0,.22,0,.45,0,.67ZM90,51.63a.88.88,0,0,1,0,.15A.38.38,0,0,1,90,51.63Zm2.74,43.89h0l.18-.08Z" style="fill: #3b94cc"/>
        </g>
        <path d="M114.89,138.59c-1.06-5.55-7.38-8.08-12.07-5.77.55-2.88-7.32-9-10.23-8.35a3,3,0,0,0-2.11-.5,34.49,34.49,0,0,1-4.13-2.55c-3.24-3.86-8.56-5.08-12.27-7.83-2.35-1.74-3.92-6.6-7.83-6.47a3.44,3.44,0,0,0-3.66-.28c-1,0-2.05-.58-3,0A4,4,0,0,0,58,105.64c-1.51-1.51-4.26-1.15-6.2-1.66.26-2.06-1.26-4.39-3.53-4a43.55,43.55,0,0,1-5.12-3c-1.07-.74-2.42-3-4-3.18-2.87-.36-5.65,2-3.76,5.17a4.33,4.33,0,0,0-1,2.88c-.6-3-1.35-7.33-5-8.2-3.33-.8-6.68,1.24-6.73,4.92a8.08,8.08,0,0,0-1.39,7.73c-7.8-4.17-3.56,8.64-3.3,12.19a3.57,3.57,0,0,0,.68,3.22A4.2,4.2,0,0,0,20.36,125c1.66,4.88,12.08,9.79,16,10.94,4.81,1.41,9.79,2.56,14.54,4.18,1.81,1.25,2.23,2.88,3.9,4.24a4.88,4.88,0,0,0,1.61,2c.33,1.51.55,2.95.81,4.48a5.47,5.47,0,0,0,0,1.34c-.59,1.48-1,3.73.76,4.6a12.42,12.42,0,0,0,1.2,1.09c1.67,2.6,3.2,5.24,4.93,7.8l-.3-.44c3.07,4.6,4.8,6.92,10,5.52,4.18-1.12,8.31-4,11.66-6.55,9.12-7,19.39-13.73,28-21.36l0,0A4.22,4.22,0,0,0,114.89,138.59ZM80.91,117l-.47-.42Zm-55.84,2.35a6.77,6.77,0,0,0,.3.82,3.13,3.13,0,0,0-.52-.73Zm.38,1a1,1,0,0,0,0-.1,1.17,1.17,0,0,0,.05.11h0Zm47.07,42.19v0l0,.11Z" style="fill: #e44e3d"/>
        <path d="M69.06,37.61c-.43-.72-14.59,9.42-13.83,10,0,0,6-4.58,6.65-5s7.64-4.21,7.18-5Zm-1.51.72,0,0,0,0Z" style="fill: #2d3f51"/>
        <path d="M73.84,37.36c0-.52,0-1.06,0-1.58v0a8.4,8.4,0,0,0-1-3.19c-1.08-1.55-.07,1.09.16,1.65h0l0,.05h0a43.59,43.59,0,0,1,.78,4.31c.23,0,.14-1.09.14-1.25Zm-.74-2.69v0Zm-.18-.36v0Zm-.11-1.54v0Zm1,3v0Z" style="fill: #2d3f51"/>
        <path d="M77.6,55.86c-.31-1.08-.42-2.22-.75-3.29a34.81,34.81,0,0,0-2.09-4.46c-1.21-2.51-3.16-4.64-4.25-7.18h0a10.28,10.28,0,0,1-1.27-4.16c0-2.05.89-3.39,1.69-5.19.09-.2.82-1.13.11-.89-.43.14-1.32,2.11-1.47,2.41a8.22,8.22,0,0,0-.86,4.39v0c.62,4.07,4,7.35,5.64,11a29.34,29.34,0,0,1,2.43,6.25A10.18,10.18,0,0,0,77,56c.2.15.71.32.57-.18Z" style="fill: #2d3f51"/>
        <path d="M93.52,72.29a110.9,110.9,0,0,0-1-11.52v.06c-.34-2.52-1.4-6.22-3.86-7.53s-6.34.8-8.56,1.67c-.23.09-3.6,1.34-2.38,1.48S81,55.2,82,54.81c2.5-1,5.8-2.47,7.79.06l0,0c2,2.56,2.33,5.44,2.75,8.57h0a44.16,44.16,0,0,1,.23,11.93c-.29,1.92-1.25,3.4-1.89,5.18a6.27,6.27,0,0,0-.54,2c0,.52.44,1.21.51,1.76A19.48,19.48,0,0,1,90,91.34c-.37,1.29-.32,2.78.42.9a21.77,21.77,0,0,0,1-5.56c.13-1.28.29-3.33-.62-4.4.89-3.44,2.78-6.28,2.66-10Zm-1.47-12h0Zm-.23-2.51v0Zm-1.47,32v0ZM88.77,53.88l0,0,0,0Z" style="fill: #2d3f51"/>
        <path d="M101,42.73c-.19-1-2.76-2.49-3.48-3.28a24.86,24.86,0,0,1-2.25-2.76c-.35-.52-1-2.5-1.58-2.68C92,33.52,95,37.94,95.41,38.38a64.15,64.15,0,0,0,4.85,4.48c-2.2,2.37-5,4.07-7.51,6.12a8.91,8.91,0,0,0-2.64,3.52c-.16.4-.64,2.07-.36,2.32s.54.21.6-.25v0c.46-3.35,2.8-5,5.34-6.9.88-.67,5.49-3.7,5.27-5Zm-.63,0v0Zm-3.09-3.59,0,0,0,0Zm-2.58,8.36,0,0,0,0Zm5.22-5.9,0,0,0,0Zm0,0,0,0,0,0Z" style="fill: #2d3f51"/>
        <path d="M90.74,44.1c-.09-.7-.14-2.78-.55-3.26-.68-.8-.45.74-.44.88a28.86,28.86,0,0,1,.09,6.57c-.11.78-.74,5.36-.21,5.43s.61-4.09.65-4.42v0a19.53,19.53,0,0,0,.46-5.22Zm-.65,2.66v0Zm0-3v0Z" style="fill: #2d3f51"/>
        <path d="M73.58,36.46a.23.23,0,0,0,0,.45.23.23,0,0,0,0-.45Z" style="fill: #2d3f51"/>
        <path d="M88.19,53.55c-.27-1-3.71-2.42-4.42-2.86a52,52,0,0,1-4.63-3.45c-3-2.4-6.07-5.86-5.5-10.06h0v0c0-.11,0-.21,0-.32h0c.11-.86-.3-.29-.46.07a5.81,5.81,0,0,0,.09,3.33,12.19,12.19,0,0,0,4,6.19l0,0c.38.3.76.61,1.15.9l0,0,.06.05h0a59.63,59.63,0,0,0,6.39,4.59c.36.21,3.65,2.42,3.43,1.63ZM82.71,50l0,0,0,0Zm-1.1-.22,0,0,0,0Zm-.44-.94,0,0,0,0Zm-6.92-7.66h0Zm-.56-4.36h0Zm0,.06v0Zm0,.25v0Zm0,.09v0Zm0,1.85v0Z" style="fill: #2d3f51"/>
        <path d="M89.21,40.76c-.45-.27-.54.41-.58.66a.34.34,0,0,0,0-.1c-.34,2.44-1.17,5.49-3.45,6.83a6.47,6.47,0,0,1-2.49.78c-.75.1-2.94.26-1.06.58,5,.84,7.26-4.43,7.73-8.35v0c0-.16.06-.3-.15-.42Zm-1.68,4.53v0Zm-4.84,3.64h0Z" style="fill: #2d3f51"/>
        <path d="M110.87,50.09a18.32,18.32,0,0,0-2.09-4.29A23.65,23.65,0,0,0,105,42.45a29.35,29.35,0,0,0-7.85-4.86l0,0c-.42-.18-2.42-1.3-2.87-1.13-1,.38,1.92,1.42,2.15,1.52l-.07,0a29.83,29.83,0,0,1,6.6,3.79h0c2.69,2.09,5.42,4.22,6.76,7.43h0c.08.17.48,1.48.89,1.3.14-.07.29-.23.22-.39Zm-4.22-5.26-.06,0,.06,0ZM103,41.71l0,0,0,0Zm-7.52-4.79,0,0,0,0Zm1.69.65,0,0,0,0Z" style="fill: #2d3f51"/>
        <path d="M116.5,55.07c-.28-.61-.65-1.16-.91-1.77l0,.08a11.61,11.61,0,0,0-3.75-4.77A10.43,10.43,0,0,0,109.06,47c-1.25-.26-.59.29.22.8a15.07,15.07,0,0,1,4.53,3.8c.76,1,1,2.18,1.74,3.18.16.24,1.36,1.19,1,.29Z" style="fill: #2d3f51"/>
        <path d="M121.36,67.81a5.65,5.65,0,0,0-.72,3.86c.08.51,1,3,1.29,1.22,0-.32-.43-1.15-.48-1.52a5.31,5.31,0,0,1,.12-2.1,5.93,5.93,0,0,1,2.07-2.9,5.87,5.87,0,0,1,2.88-1c0-.22.06-.45.1-.67A6.55,6.55,0,0,0,121.36,67.81Z" style="fill: #2d3f51"/>
        <path d="M125.85,60.94c-1.7-2.2-4.19-3.4-5.94-5.5A8.38,8.38,0,0,0,116.53,53c-.57-.26-3.27-1.92-2-.47,1.08,1.22,3.14,1.46,4.34,2.71.56.59.93,1.39,1.53,1.94s1.14.63,1.66,1a.18.18,0,0,1-.07-.05,17.65,17.65,0,0,1,3.38,3l0,0A18.51,18.51,0,0,0,127,62.82c0-.21.06-.43.08-.64A11.29,11.29,0,0,1,125.85,60.94Z" style="fill: #2d3f51"/>
        <path d="M120.51,72.7c-1.91-1.84-3.07-.15-5.16-.41-2.37-.3-4.24-2.15-6.08-3.47s-3-3.16-4.79-4.35A13,13,0,0,0,102,63c-.36-.14-1.23-.63-.87.35.27.74,1.46.91,2.15,1.27a11.86,11.86,0,0,1,2.92,2.31,32.46,32.46,0,0,0,4.5,3.77c1.68,1.21,4,2.74,6.16,2.13.75-.21,1.31-.8,2.15-.56.37.1.63.58.94.65.07,0,1,.26.54-.21Zm-3.88-.44-.07,0,.07,0Zm-.92.1h0Z" style="fill: #2d3f51"/>
        <path d="M101.45,64.51c0-1.11-.08-2.34-.3-1.17s0,1.13-.23,2.22A32.82,32.82,0,0,1,99,71.65c-1.76,3.91-1.19,8.95-.22,13a49.06,49.06,0,0,0,1.63,5.82c.11.29,0,1,.51,1s.2-1.22.09-1.53a41.63,41.63,0,0,1-2.23-12.39c-.25-5.23,1.62-6.81,2.5-11.7ZM99.74,85.6v0Z" style="fill: #2d3f51"/>
        <path d="M73.17,31.12c-.24-.14-.39.22-.53.34l0,0c-.31.23-.8-.06-1-.24l0,0A18.15,18.15,0,0,1,68.91,28h0c-1-1.3-4.3-5.6-.51-5.52a3.31,3.31,0,0,1,3,1.89c.14.22.44,1.05.8,1,.61,0-.28-1-.35-1.16l0,.06c-.7-1.64-3.09-3.22-4.86-2.1s-.28,3.65.65,4.84,1.9,2.69,3,3.89c.45.48,1.25,1.31,2,1,.2-.07,1-.54.51-.81Zm-1.8-6.76v0Zm-2.48,3.58,0,0,0,0Zm-1.08-.7v0Z" style="fill: #2d3f51"/>
        <path d="M72.6,28.31a10.58,10.58,0,0,0-.43-1.14A8.36,8.36,0,0,0,71.28,25c-.51-.69-3.58-2.54-3.69-.46,0,.66.88-.48,1.27-.55a2.68,2.68,0,0,1,2,1.09c.78.92.87,2.15,1.39,3.12a.37.37,0,0,1-.22-.08l.06,0c-1-.44-1.28-.62-1.43-1.77,0-.21.23-1.68-.41-.81a2.27,2.27,0,0,0,.62,2.65c.23.18,1.79.77,1.72.07Zm-.25-.1h0ZM71.8,27h0Zm-.91-1.82,0,0,0,0Zm-.5-.5,0,0,0,0Z" style="fill: #2d3f51"/>
        <path d="M68.37,4.51c-.5-.85-2.36,3.36-2.5,3.86a13.28,13.28,0,0,0-.45,7.49c.38,1.62.89,3.21,1.4,4.79.11.36.33,1.88.84,1.82S67.14,20.24,67,20l0,0a19.86,19.86,0,0,1-1.66-8,15,15,0,0,1,1.67-5.45c.14-.28,1.49-1.8,1.29-2.14Zm-2.88,9.56v0Z" style="fill: #2d3f51"/>
        <path d="M93.08,16.35a18.28,18.28,0,0,0-4.25-10.2A19,19,0,0,0,81.1.92h0l0,0h0L81,.89l0,0A9.55,9.55,0,0,0,73.79.54a9.18,9.18,0,0,0-2.85,1.24c-.24.16-3.19,2.85-2.71,3.13a33.17,33.17,0,0,1,4-3.52h0l.15-.06,0,0c2.23-.88,5-1.54,7.33-.66a25.23,25.23,0,0,1,6.66,3.45A18.8,18.8,0,0,1,92.38,15.4v-.08l0,.23v.07h0c.06.42,0,2.62.23,2.65.61.07.46-1.51.44-1.91Zm-.66-.66v0Zm-8.62-13h0ZM79.7.72h0Zm1.37.19h0Z" style="fill: #2d3f51"/>
        <path d="M73.68,22.34c0-.52,0-5.43-1.2-4.65-.47-1.48.26-3.39.59-4.8.37-1.63-.38-2.45-.91-3.9A5.81,5.81,0,0,0,70,5.75c-.2-.16-.57-.72-.79-.7-.61,0-.24.7-.06,1,.69,1,1.79,1,2.23,2.36.37,1.13,1.32,2.42,1.37,3.59,0,1.35-.7,2.9-.79,4.29,0,.34-.17,2.76.81,1.86,1,1.85.31,4.94.3,6.91,0,.86.07,2,.57.9.33-.73.07-2.86.06-3.6ZM73.08,11v0ZM72.89,18h0Zm-.58-8.64,0-.06,0,.06ZM72,16v0Z" style="fill: #2d3f51"/>
        <path d="M93.34,15.66c-.15-.54-.78-.86-1-1.35a15.85,15.85,0,0,1-.7-2.25,12.06,12.06,0,0,0-2.42-4.18c-.47-.44-1.31-1.14-2-.68-.29.2-.18.67-.41.85-.83.66-2.57.61-3.61,1.08l.06,0c-1.45.62-4.1.44-5.67.26h0l-.21,0h.07c-1.55-.25-2.88-.61-4.41-1-.32-.08-1.27-.34-1.55-.06-.52.51,1.19.53,1.4.58,3,.66,6.74,1.75,9.92,1,.73-.18,1.39-.59,2.12-.79a5.23,5.23,0,0,0,2.22-.67c.26-.21.17-.68.5-.77.59-.16,1.21.85,1.48,1.22a17.65,17.65,0,0,1,2.16,5.1c.2.62.55,1.7,1.26,1.94.23.08,1,.5.8-.21Zm-2.57-5.24v0ZM83.05,9.18h0Z" style="fill: #2d3f51"/>
        <path d="M78.58,25.66c-.49-.8-2.73-1.23-3.59-1.6a40,40,0,0,0-3.83-1.42c-.85-.26-2.18-.44-.94.27a34.78,34.78,0,0,0,3.47,1.26l-.07,0c1.1.47,2.18,1,3.27,1.45.14.06,2.22,1,1.69.07Zm-4.41-1.29h0Z" style="fill: #2d3f51"/>
        <path d="M87.21,23.67c-.18-1.48-4.37-.79-5.38-.53-.62.15-4.49,2-3.6,3.11-.43.44.59,2.09.78,2.48.68,1.41,1.35,1.69,3,1.41,1.32-.23,3-.64,3.88-1.73a8.42,8.42,0,0,0,1.35-4.74Zm-.46.46a5.35,5.35,0,0,1-5.17,5.73c-1.18.09-1.42-.14-1.83-1.11-.21-.5-.62-2.53-1.17-2.61a5,5,0,0,1,4.6-2.85c1-.07,3.57-.58,3.57.84ZM85.11,28.6l0,0,0,0Zm-4.73,1.17h0Z" style="fill: #2d3f51"/>
        <path d="M87.27,24a.23.23,0,0,0,0,.45.23.23,0,0,0,0-.45Z" style="fill: #2d3f51"/>
        <path d="M88.66,23.77c-.43-.15-2.52.22-1.83.69,0,0,2.52-.45,1.83-.69Z" style="fill: #2d3f51"/>
        <path d="M96.28,23c-.29-4.32-7.14-.18-7.29-.71,0-.07,5.2-.82,5.66-.89h0c1.89-.24,1.1,2.7.71,3.79-.58,1.61-1.67,1.95-3.26,2.17h0c-1.35.18-1.53-.73-2.1-1.84-.27-.53-.69-2.77-1.07-2.89-1.41-.43.18,3,.39,3.34,1.08,1.69,1.55,1.93,3.55,1.65h0A4.11,4.11,0,0,0,96.28,23Zm-.48.29v0Zm0-.73v0Zm-1.32-1.48h0Zm-3,6.73h0Z" style="fill: #2d3f51"/>
        <path d="M96.38,21.52c-.31-.66-1.6-1.08-2.21-1.35-1.41-.62-2-.42-.37.32.59.25,1.62,1.2,2.19,1.28,0,0,.7.42.39-.25ZM96,21.8v0Z" style="fill: #2d3f51"/>
        <path d="M94.09,26.48A24.86,24.86,0,0,0,93.44,22a13.19,13.19,0,0,1-.14-3c0-.15.09-1.81-.41-1.05s0,3.33.1,4.1c.38,1.92,1,3.71.69,5.7v0c-.24,1.75,0,3.45-.39,5.19s-1,4.55-2.09,6.05c-2.48,3.28-6.37,1.23-9.32,0-.62-.27-3.31-2-1.93-.22.94,1.24,3.29,1.79,4.63,2.42A5.83,5.83,0,0,0,89.71,41c1.77-.85,2.28-2.17,3-3.87l0,.08c.11-.26.2-.52.31-.78l0,.08a15.42,15.42,0,0,0,1-6.05c-.06-1.36.2-2.65.14-4ZM93.7,33h0Zm-.3-.73v0Zm-2.59,7.23h0Z" style="fill: #2d3f51"/>
        <path d="M91.28,33.73c-.1-.16-1.83.94-2.32,1a33.09,33.09,0,0,0-3.69.4c0,.23,1.49,0,1.66,0h0c.88-.11,2,.21,2.79-.09.29-.1,1.67-1.07,1.53-1.31ZM87,35.13h0Z" style="fill: #2d3f51"/>
        <path d="M91.12,35.23c-.05-.08-1.86.64-2.11.67h.06c-.28,0-1.56-.28-1.63,0-.27,1,4.33.48,3.68-.63Zm-2.72.63h0Zm-.38,0h0Z" style="fill: #2d3f51"/>
        <path d="M90.92,33.61a17.44,17.44,0,0,0-4.17,1.2c0,.19,2-.36,2.23-.4h0c.34-.05,2-.59,2-.81Zm-1.84.49h0Z" style="fill: #2d3f51"/>
        <path d="M87.34,31.42c-.08-.31-1.61-.35-1.85-1.09-.1-.31.45-2.26-.29-1-.46.78-.13,1.34.49,1.84.22.18,1.83.89,1.65.25ZM86.15,31l0,0,0,0Z" style="fill: #2d3f51"/>
        <path d="M91.06,28.34c-.07-.92-.87-1.57-1.21-2.38l0,.07c-.15-.37-.72-1.42-.84-.5-.05.36.61,1.19.82,1.46l0,0c.73,1,1.69,3.67-.57,3.36h0c-.61-.09-1.87-.52-2.23.25-.65,1.4.72.13.38.2,1.64-.35,3.84,0,3.62-2.43Zm-.36,1.14v0ZM90.45,28v0Zm0,2h0Zm-.6-3.08h0Z" style="fill: #2d3f51"/>
        <path d="M85.79,22.68a7.47,7.47,0,0,0-3.51-1,25.53,25.53,0,0,0-4.23,1.21c0,.17,4.15-.44,4.72-.48a5.44,5.44,0,0,1,2,.13c.24.07,1.57.32,1.05.12Zm-4-.91h0ZM79,22.85h0Z" style="fill: #2d3f51"/>
        <path d="M92.67,18.6c-.14-.52-2.39.69-2.6.85l.07-.05c-.12.09-1.21,1.12-1,1.33s3.66-1.66,3.53-2.13Z" style="fill: #2d3f51"/>
        <path d="M92.49,21.92c-.23-.13-1,1-1.24,1.1s-1.84-.53-1.94-.16c-.23.83,2.3.29,2.69-.1.08-.09.78-.67.49-.84Zm-.21.07h0Z" style="fill: #2d3f51"/>
        <path d="M84.08,23.76c-.07-.89-4,.51-4.11,1.11s1.86,1,2.32.95c.68-.13,1.84-1.27,1.79-2.06Zm-.28.14a1.8,1.8,0,0,1-3.23.83,11.14,11.14,0,0,1,3.21-1.07.65.65,0,0,1,0,.24Zm0-.25h0Zm0,0v0Zm0,0h0ZM83,25.37l0,0,0,0Zm-.27-.07h0Zm-.2.19h0Zm-1.92-.79h0Z" style="fill: #2d3f51"/>
        <path d="M89.54,22.11a.23.23,0,0,0,0,.45.23.23,0,0,0,0-.45Z" style="fill: #2d3f51"/>
        <path d="M91.78,21.16a7.09,7.09,0,0,0-1.75.42c-.33.18-1.51,1-.69,1.13.26,0,.45-.43.68-.52s1.06-.26,1.33-.4.63.14.75-.1.09-.63-.32-.53Z" style="fill: #2d3f51"/>
        <path d="M91.46,22.3c-.15-.61-1-.19-.73.26s.83.14.73-.26Zm-.43.09h0v0h0v0Zm0,0Z" style="fill: #2d3f51"/>
        <path d="M82.49,24.43c-.79-.24,0,.89.08.32a.19.19,0,0,0-.08-.32Z" style="fill: #2d3f51"/>
        <path d="M82.74,24.52c-.17-.62-.82.05-.5.16-.08.24.61.26.5-.16Zm-.24.07h0Zm0,0Z" style="fill: #2d3f51"/>
        <path d="M82.8,24.47c-.15-.37-.57-.12-.75,0-.41.26,1.11.91.75,0Zm-.31.15v0a.21.21,0,0,1-.11,0l0,0h0l0,0Zm0,0h0Zm-.09,0Z" style="fill: #2d3f51"/>
        <path d="M69.17,71.54c-.23-1.67-1.13-3.16-1.11-4.87,0-.7.89-3.08.55-3.49-.66-.81-1,2-1.08,2.43a6.54,6.54,0,0,0,.21,3.67,13,13,0,0,1,.73,3.12c.06.9-.79,3.5-.35,4.18.85,1.31.88-1.58.93-2a11.75,11.75,0,0,0,.12-3Z" style="fill: #2d3f51"/>
        <path d="M70.26,79.62c-.31-2.83-3.28-4.06-4.9-6.15l0,.06c-.11-.15-1.36-2.45-1.34-1.1,0,.94,1.52,2.47,2.16,3.1,1.86,1.87,3.45,2.44,3.33,5.36-.06,1.51,0,3-.11,4.54,0,.28-.24,2.24.52,1.28.63-.79.16-3.25.2-4.16a19.13,19.13,0,0,0,.09-2.93Zm-2-2.39,0,0,0,0Z" style="fill: #2d3f51"/>
        <path d="M71.63,84.77c-.5-.85-1.83,1.51-2,1.7a3.93,3.93,0,0,1-1.24,1c-.3.14-1.59.21-1.75.49-.88,1.54,2.57.11,3-.36.31-.32,2.08-2.57,1.94-2.81Z" style="fill: #2d3f51"/>
        <path d="M72.23,84.88a9.33,9.33,0,0,0-1.75-3.54c-.4-.55-.66-1.12-.52.16s1.46,2.35,1.53,3.81c.06,1-.16,2.24-.19,3.26-1.19,1.16-2.19,1.64-1.38,3.61.11.27.4,1,.74,1,.53,0,.88-.74.23-.83a2.15,2.15,0,0,1-.54-1.67c.15-1.07.86-.81,1.38-1.57s0-.87.09-1.54c.09-.94.57-1.71.41-2.7Zm-.91,3.64v0Z" style="fill: #2d3f51"/>
        <path d="M71.08,93.14c-.59-.16-.49.76-.74,1s-2.9.57-1.8,1.42c.43.33,2.06-.34,2.43-.78.23-.28.71-1.48.11-1.65Zm-.78,1h0Z" style="fill: #2d3f51"/>
        <path d="M74.66,95.29c-.56-.57-3.38-1.44-4-.85s2.59.88,3.18,1.13c-1.75,1.35-2.5,3.15-3.39,5.12-.4.87-.78,1.76-1.14,2.64-.14.36-1.15,2.5.08,2,.53-.21,1.18-2.77,1.38-3.24.41-1,.8-2,1.23-3,.28-.64,2.9-3.66,2.71-3.84Zm-.31-.15h0Z" style="fill: #2d3f51"/>
        <path d="M107.75,116c-.47-.13-.36.63-.69.78-.64.29-1.06,0-1.66-.26-2.09-1-4.27-2-6.32-3s-3.72-2.42-6-3a63.56,63.56,0,0,0-7.37-1.2h0c-1.42-.2-2.83-.47-4.25-.66h0A37.14,37.14,0,0,1,73,106.32c-.66-.25-6-2.67-6-1.47,0,.05,6.06,2.11,6.76,2.39a34.34,34.34,0,0,0,8.9,2H82.6c1.86.26,3.71.57,5.57.82h0a30.2,30.2,0,0,1,6.16,1.32c1.94.73,3.62,2.18,5.5,3.07s3.75,2.13,5.68,2.89a2.07,2.07,0,0,0,1.52.15c.28-.11,1.48-1.21.7-1.42Zm-32.38-8.66h0ZM88.17,110Z" style="fill: #2d3f51"/>
        <path d="M110.18,113.82c-.73,0-.2,2.06-1.74,1.88h0c-.68-.1-1-.91-1.64-1-.91-.13,1.15,1.17,1.66,1.22,1.32.13,2.69-2.09,1.72-2.09Zm-.85,1.71h0Zm-1.47,0h0Z" style="fill: #2d3f51"/>
        <path d="M112.12,111.7c-.24-.82-.68,1.45-.71,1.49-.68.9-1,.3-1.75-.27-1-.72-1.9-.73-.53.29,1,.75,2,1.39,2.63-.1v0a2.43,2.43,0,0,0,.37-1.45Z" style="fill: #2d3f51"/>
        <path d="M113.57,110.23c0-.28,0-.85-.42-.7s.1.55,0,.73c-.26.8-.26,1.15-1.13.9-.23-.06-2.29-2.09-1.86-.78s3.44,1.82,3.37-.15Z" style="fill: #2d3f51"/>
        <path d="M114.64,107c-.11-.55-3.69-1.51-4.11-1.65a27.93,27.93,0,0,0-3.37-.91c-1.56-.31-3-.2-4.54-.39h0c-1.79-.25-3.52.36-5.2-.34l0,0c-2.71-1.17-5.83-1.66-8.66-2.53a62.46,62.46,0,0,1-9.45-3.63c-1.23-.62-2.48-1.15-3.72-1.72-.49-.22-2-1-1.35.05.36.57,1.94.84,2.59,1.11,1.44.59,2.83,1.34,4.26,1.95l0,0a97,97,0,0,0,11,3.77c1.57.46,3.21.73,4.77,1.25,2,.65,3.69.16,5.74.43h-.05c1,.13,1.91.09,2.88.22h0a27.2,27.2,0,0,1,6.46,1.68h0l0,0h0c.71.31,1.5.5,2.19.83-.16.41-1.51,1.08-1.43,1.3.25.65,2.08-.72,1.94-1.44Zm-.53.13h0Zm-8.76-3h0Zm0,0h0Zm-2.66-.09h0Zm-2.77.31h0Zm-.43-.27h0ZM87.1,100.65h0ZM76.63,96.89h0Zm28.83,7.72h0Zm6.48,1.69Z" style="fill: #2d3f51"/>
        <path d="M113.35,109.45a5.74,5.74,0,0,0-2.47-2.88c-.4-.24-3.25-1.43-3.38-1a12.42,12.42,0,0,1,3.17,1.51c.63.59,1,1.35,1.63,2,.09.09,1.25,1.22,1,.37Z" style="fill: #2d3f51"/>
        <path d="M143.69,89.25c-.29-1.66-1.51-3.28-2.43-4.64a18.6,18.6,0,0,0-3.4-4.09c-2.23-1.82-3.14-4.11-4.33-6.58l-.74-.23a11.37,11.37,0,0,0,1.34,2.37h0c.63.82.64,1.9,1.25,2.74a9.43,9.43,0,0,0,1.69,1.71l0,0a14.9,14.9,0,0,1,3,3.05h0a63.09,63.09,0,0,1,3.51,5.93A.18.18,0,0,0,143.69,89.25Zm-9.53-13.14v0Zm6.23,7.28v0Zm1.13,2.26,0,0Zm1.69,2.84h0Zm.31.15h0Z" style="fill: #2d3f51"/>
        <path d="M127.43,78.24c-.31-.18-3.41,3.66-3.59,4a7.76,7.76,0,0,0-1,3,6,6,0,0,0,0,1.8s.53,2.28.87,1.71c.07-.12-.71-2.36-.66-2.86a7.5,7.5,0,0,1,1.09-3.32v0l.63-.8,0,0c.15-.18,3.21-3.25,2.71-3.54Zm-4.36,8.63h0Z" style="fill: #2d3f51"/>
        <path d="M127.52,78.2A17.11,17.11,0,0,0,125.46,76l.06,0c-.46-.36-5.51-3.91-5.72-3.32-.11.31,4.64,3.15,5,3.45h0l1.31,1h0c.3.24.7,1,1,1.12,0,0,.85.36.45-.06Zm-1.73-1.31h0Zm-.94-.72h0l0,0,0,0Z" style="fill: #2d3f51"/>
        <path d="M127,84c-.6-.17-1,2.36-1.08,2.55a2.7,2.7,0,0,1-1.55,1.81h0c-.13.06-.73.12-.73.3,0,.58,2.43-1.27,2.62-1.65.11-.22.67-3,.73-3Zm-2.35,4.19h0Z" style="fill: #2d3f51"/>
        <path d="M129.23,84.7a14.89,14.89,0,0,1-2.72.19c-.23.83,2.94.19,2.72-.19Z" style="fill: #2d3f51"/>
        <path d="M133.25,83.5c-.4-.7-.43,1.6-.44,1.75-.06,1-.37,1.91-.5,2.87v0c-.16,1.11.57,4.08-1.21,3.85h0c-1.47-.21-1.12-1.13-1.11-2.35a35.74,35.74,0,0,0-.34-4.39c-.09-.79-.48-3.18-.47-1.26,0,1.09.51,2.07.53,3.16s-.53,3.12,0,4.25a1.73,1.73,0,0,0,2.33.81c.54-.4.55-1.94.62-2.51.14-1.15.33-2.29.47-3.44.08-.61.41-2.27.14-2.71Zm-.5,4.86v0Zm-.84,3.56h0Zm0,0Zm-1.81-.36h0Zm0,0h0Zm0,0h0Zm1,.4Z" style="fill: #2d3f51"/>
        <path d="M136.3,92.41c-.14-.24-1.63.12-1.92-.1-.48-.36-.4-1.15-.34-1.69a23.22,23.22,0,0,0-.19-5.88v.05c-.09-.73-.88-2.73-.8-1,0,1.09.69,2.27.73,3.47s-.12,2.53-.05,3.77a1.65,1.65,0,0,0,.67,1.5c.11.07,2.22.4,1.9-.15Zm-.34,0h0Zm-1.69-.16h0Zm-.13-3.73h0Z" style="fill: #2d3f51"/>
        <path d="M137.09,86.18a29.19,29.19,0,0,0-.5-4c-.74-.2.13,3.17.17,3.47v0a13,13,0,0,1-.21,3.1v-.06c-.14,1.07.09,2.52-.32,3.49l0-.05a.33.33,0,0,0,0,.39c.55.56.67-2.44.69-2.73.06-1.21.2-2.4.19-3.61Z" style="fill: #2d3f51"/>
        <path d="M139.7,91.25c-.3-.17-1.32,1-2.08,0-.66-.89.27-2.73-.28-3.81-.22-.44-.59-.42-.59,0a3,3,0,0,1,.5.68,13.2,13.2,0,0,1,0,2.43c.06.81.11,1.18.91,1.46.26.09,2.31-.32,1.58-.75Z" style="fill: #2d3f51"/>
        <path d="M140.08,89.76a22.07,22.07,0,0,1-.32-3,8.59,8.59,0,0,0,.09-2.26c-.13-.54-1.57-2.85-1.21-1.33.13.58.83,1,.94,1.66a14,14,0,0,1-.1,2.23c0,.28.15,4.47.22,4.49.38.11.4-1.5.38-1.75Zm-.43-.36v0Z" style="fill: #2d3f51"/>
        <path d="M143.72,89.27c-.24-.65-.46.7-.75.74h0c-1.15.13-1.6-1.35-2.15-2.14-.27-.39-1.45-2.41-1.24-1.08a8.23,8.23,0,0,0,1.34,2.12c.43.67.69,1.35,1.6,1.39.48,0,1.47-.32,1.2-1Zm-3.91-2.12,0,0,0,0ZM143,90h0Z" style="fill: #2d3f51"/>
        <path d="M106.06,66.83a.23.23,0,0,0,0,.45.23.23,0,0,0,0-.45Z" style="fill: #2d3f51"/>
        <path d="M112.82,98.88c-1.26-.79-2.34-1.77-3.58-2.57-1.09-.71-2.41-.85-3.57-1.42-1.52-.75-2.88-1.81-4.35-2.63-.56-.31-2.79-1.37-1.65-.21a16.59,16.59,0,0,0,2,1.07c.56.38,1.11.78,1.69,1.15a17.29,17.29,0,0,0,3.71,1.89c2.35.83,4.3,2.78,6.43,4.1.93.58,1.92,1.15,2.93,1.7q-.35-.67-.66-1.32C114.78,100.07,113.79,99.48,112.82,98.88Z" style="fill: #2d3f51"/>
        <path d="M111.85,122.2a17.63,17.63,0,0,0-2.34-3.41c-.26-.26-3.11-2.19-2.58-.81.12.33,1.22.67,1.53.91a8.39,8.39,0,0,1,1.6,1.66c.28.37.84,1.85,1.29,2,.16,0,.79.19.5-.31Zm-3.32-3.26,0,0,0,0Z" style="fill: #2d3f51"/>
        <path d="M132.7,128.33c-.31.76-1.08,2.1-.92,2.94.31,1.65,1-1.21,1.17-1.63.1-.27.21-.55.32-.83a6.05,6.05,0,0,0-.49-.69A1.8,1.8,0,0,1,132.7,128.33Z" style="fill: #2d3f51"/>
        <path d="M100.68,91.69c-.14-.53-6.12,2.48-7,2.85l.07,0A74.86,74.86,0,0,1,81.54,98.2c-.37.09-1.56.25-.82.71.48.29,2.84-.47,3.42-.59a33.57,33.57,0,0,0,6.43-2h0l.07,0h0c1.1-.45,10.43-3.4,10.1-4.6Zm-.15.39,0,0,0,0Zm-10,4.22Z" style="fill: #2d3f51"/>
        <path d="M47.13,41.27a14,14,0,0,0-.93-4.47c-.4-1.13-1-2.67-.72-3.88.11-.44,1.38-1.56.84-1.71-1.24-.34-1.49,1.88-1.49,2.55a15.06,15.06,0,0,0,1.05,4.34,16.14,16.14,0,0,1,.45,5.32,16.68,16.68,0,0,1-.55,4.67c-.5,1.51-1.49,2.85-1.92,4.38-.36,1.31,0,3-1.34,3.87s-2.75-.47-4-1c-1-.43-1.82-.23-.74.62a7.33,7.33,0,0,0,3.6,1.39c3-.06,2.67-3.45,3.41-5.42a34.24,34.24,0,0,0,1.87-4.57,26,26,0,0,0,.49-6.1Z" style="fill: #2d3f51"/>
        <path d="M67.65,92.83C66.22,90.89,66,88.35,65,86.23A10.26,10.26,0,0,0,61,82c-1.58-.93-3.19-1.35-4.46-2.76-1.83-2-3.13-4.52-4.94-6.59a13.65,13.65,0,0,0-6.09-4.2c-2.76-.88-5.67-.82-8.09-2.6C36,64.81,34.23,63,34,61.07s1-3.87,1.84-5.5c1-1.86,2.1-3.65,2.32-5.78.07-.63-.86-6.56-2.16-5.8-.52.3,1.2,3.87,1.2,4.82,0,2.63-1.65,4.88-2.8,7.11-1,1.94-2.06,4-1.33,6.27a10.25,10.25,0,0,0,4.44,5.13c1.95,1.2,4.18,1.39,6.35,2a12.62,12.62,0,0,1,6.38,3.82,63.59,63.59,0,0,1,4.45,6c1.62,2.26,3.73,2.93,6,4.37s3.28,3.61,4.11,6.19A11.6,11.6,0,0,0,66,92.74c.17.27.65,1,1.06,1s.92-.46.6-.9Zm-31-46.5v0ZM38.15,50v.07s0-.09,0-.14V50Z" style="fill: #2d3f51"/>
        <path d="M66.14,102.92c-1.64-1.36-.6-4-2.56-5.49s-4.14-1.69-5.22-4.38c-.88-2.2-1.42-3.88-3.37-5.42-2.27-1.8-5-2.87-7.54-4.18C45.21,82.3,43.1,80.56,42.66,78s-.93-5-2.61-7.3c-2.9-3.91-8.37-6.59-9.49-11.67-1-4.56,4.1-9.44,2-13.84-.85-1.75-.17.94-.12,1.6a8.42,8.42,0,0,1-.54,3.33c-.73,2.2-1.94,4.1-2.24,6.43-.76,5.78,4.7,9.34,8.21,13A11.35,11.35,0,0,1,41,75.72c.46,2.74.43,4.59,2.55,6.63,2.45,2.37,5.86,3.33,8.75,5.06A9.84,9.84,0,0,1,57,93.16a7,7,0,0,0,2.58,3.58c1.1.76,2.75,1,3.67,1.94s.7,2.45,1.1,3.65c.15.47.52,1.39,1.07,1.54s1.37-.42.73-1Z" style="fill: #2d3f51"/>
        <path d="M33.17,86.2C31,84.41,30.26,82.69,29.79,80a13.14,13.14,0,0,0-3.63-6.42c-1.54-1.72-3.17-3.07-3.94-5.32s-1.09-4.57-2-6.76c-1.73-4.3-3.76-8.69-1.27-13.18,2-3.66,4.62-7.72,2.66-12-.85-1.86-2.11-3.3-1.76-5.47a4.68,4.68,0,0,1,1.34-2.65c.33-.32,2.74-1.69,1.22-1.79-.66,0-2.12,1.62-2.44,2.08a6.16,6.16,0,0,0-1.08,3.27c-.12,2.38,1.58,3.95,2.18,6.12a9.74,9.74,0,0,1-.56,5.51c-.67,2-2.21,3.48-3.07,5.42-1.79,4-.45,8.26,1.28,12a52.3,52.3,0,0,1,2.33,7.35c.85,2.9,3,4.59,4.9,6.82a13.27,13.27,0,0,1,2.37,3.61c.58,1.47.5,3.09,1.07,4.57a7.41,7.41,0,0,0,1.74,2.64c.27.28.91,1.08,1.29,1.17s1.44-.15.73-.73Z" style="fill: #2d3f51"/>
        <path d="M46.89,31.4c-.69-4.7-5.94-7-10-8.12-5.14-1.38-10.86-3-16.14-1.34-4.2,1.27-9,3.22-12.49,6a12.73,12.73,0,0,0-3.94,5.91C3.48,36,2.43,38,1.66,40.2,0,45-.67,50.94.91,55.84a11.79,11.79,0,0,1,.89,3.44A14.13,14.13,0,0,1,.89,63a12.62,12.62,0,0,0,.43,8.36c.19.42.9,2.27,1.61,1.88s-.52-1.53-.68-1.83a11.89,11.89,0,0,1-.73-7.84c.37-1.76,1.14-3.36.83-5.19-.45-2.72-1.54-5-1.54-7.86,0-5.75,1.94-10.56,4-15.81,1-2.46,1.9-4.59,4-6.25a31.19,31.19,0,0,1,7-3.7l0,0,.1-.05h0l.1,0-.06,0,.67-.29,0,0,.11,0h0a23.4,23.4,0,0,1,9.77-2,43.65,43.65,0,0,1,10,1.78,17.46,17.46,0,0,1,7.7,3.75,7.13,7.13,0,0,1,2,2.18c.16.34.12,1.56.42,1.6s.43,0,.39-.3ZM2.6,38l0,0,0,0ZM1.27,65v0ZM16.61,24.43l0,0,.06,0Z" style="fill: #2d3f51"/>
        <path d="M6.18,79.09c-.24-1.61-1.45-2.85-1.68-4.41-.28-1.94.87-3.71,1.34-5.5a15.25,15.25,0,0,0,.28-4.62c0-1,.16-5.19-.61-5.75-1-.72-.38,2.51-.36,2.74a25.87,25.87,0,0,1-.07,6c-.27,1.79-1.22,3.34-1.56,5.11s.14,3,.91,4.65C6,80.59,3.32,83.79,2.66,87a5.91,5.91,0,0,0,.57,4.59,19,19,0,0,0,2,3c1.82.34-.36-2.47-.67-2.93a4.64,4.64,0,0,1-.91-3.55A19.92,19.92,0,0,1,5.2,82.93a7.26,7.26,0,0,0,1-3.84Zm-2.51,9v.09s0-.06,0-.09Z" style="fill: #2d3f51"/>
        <path d="M10.11,105.43c-.15-3.29-3.18-5.14-3.82-8.23S8.63,92,9.25,89C9.92,85.73,9,82.2,8.43,79c0-.19-.59-3.52-1.18-2.44-.38.69.62,3.51.75,4.35.44,2.87,1.06,6,.1,8.84S4.64,94,5.33,97.32c.64,3.09,3.84,5.14,3.76,8.42,0,.67-1,3.09-.25,3.39.91.36,1.3-3.14,1.27-3.7ZM8.05,81.24a.25.25,0,0,1,0-.08v.08Z" style="fill: #2d3f51"/>
        <path d="M17.13,122.8c-.19-1.33-.49-3-1.6-4s-2.84-.91-4-1.9c-1.83-1.55-.66-3.67-1.7-5.55-1.22-2.21-4.25-4.31-4.26-7a7.81,7.81,0,0,1,1.35-3.5c.43-.82.94-2.32-.23-1.16a9,9,0,0,0-1.81,3.87,5.17,5.17,0,0,0,1,3.75c.83,1.32,1.85,2.5,2.71,3.79,1,1.46.59,2.24.8,3.85.41,3.07,3.06,3,5.16,4.3,1.12.69,1.24,1.79,1.63,3,0,.11.1,1.29.66,1a.43.43,0,0,0,.29-.51Zm-4.18-5,0,0,0,0Zm-2.5-2.28v0Zm-1-2.57h0Z" style="fill: #2d3f51"/>
        <path d="M22.44,88.08a4.49,4.49,0,0,1-.72-4.17,8.05,8.05,0,0,0,.4-3.41c-.48-3.37-2.51-5.18-5.13-7.06a8.75,8.75,0,0,1-3.79-5.9,28.45,28.45,0,0,0-3.34-9.21,16.26,16.26,0,0,1-2.15-3.78,9,9,0,0,1,0-3.65c.22-2-.45-1.26-.67.31a9.33,9.33,0,0,0,.1,4.27c1,3.07,2.89,5.68,3.65,8.86.7,2.93.82,5.93,2.73,8.39l-.14-.18c2.37,3.06,6.51,3.6,7.36,7.86.39,2-.82,3.68-.53,5.61a4.7,4.7,0,0,0,1.07,2.34c.4.37,1.71.62,1.13-.28ZM14.05,70.36,14,70.19s0,.11.07.17ZM7.7,51.18v0Zm0,.06v0Z" style="fill: #2d3f51"/>
        <path d="M19.26,115.93c-.11-2.63-2.43-4.3-2.56-6.88-.15-3,2.27-5.7,1.89-8.7-.24-1.8-1.72-3.12-2.66-4.59A14.38,14.38,0,0,1,14,91.57c-.61-2.47.15-4.8,1.17-7,.61-1.34.37-2.19-.49-.6a14.72,14.72,0,0,0-1.59,4.48,12.23,12.23,0,0,0,2.28,8.53c.82,1.27,2.05,2.39,2.07,4s-1,3.28-1.42,4.82a8.53,8.53,0,0,0-.31,4.82c.39,1.38,1.45,2.36,2,3.65.68,1.63.14,3-.31,4.65a8,8,0,0,0,.35,5.52c.39.72,1.17,1.28,1.32,0,.09-.72-.6-1.87-.68-2.63-.24-2.08,1-3.84.89-5.88Z" style="fill: #2d3f51"/>
        <path d="M25.82,111.91c-.23-2.46-1.32-5.28-3.66-6.27-.58-.24-2-1.31-2.56-1.23-2.12.33,1.39,2.09,1.74,2.24,2.25.95,3.36,3.75,3.23,6.19,0,.56-1.05,3.18.46,2.66.87-.3.85-3,.79-3.59Z" style="fill: #2d3f51"/>
        <path d="M28.19,87.48A13.91,13.91,0,0,0,26.35,82c-.4-.53-1-1.09-1.16,0-.1.77,1,2.57,1.26,3.3.83,2.33.72,4-1.15,5.8-1.53,1.45-3.3,2.54-3.58,4.82-.11.81-.09,4.37.87,4.78,1.19.5.6-1.22.5-1.66a8.26,8.26,0,0,1-.23-2.71c.35-3.75,5.68-4.57,5.33-8.83Z" style="fill: #2d3f51"/>
        <path d="M36.21,99.33c-.17-2.41-1-4.42-3.39-5.32a28.4,28.4,0,0,0-4.17-1c-.4-.09-3.13-.93-2.49.43.31.66,3.24.9,3.95,1.07a7.76,7.76,0,0,1,3.24,1.2c1,.85,1,1.92,1.28,3.08.12.49,0,1,.61,1.2a.7.7,0,0,0,1-.67Z" style="fill: #2d3f51"/>
        <path d="M62.22,105.41c-.29-1-2.6.14-3.21.28a9.16,9.16,0,0,1-4.62.08A3,3,0,0,1,52,102.84c-.22-1.52-.54-2.16-2-2.65A20.36,20.36,0,0,1,42.59,96,13.49,13.49,0,0,0,40,94.13c-.39-.2-3.59-1.78-3-.29.25.65,3,1.36,3.79,1.91,1,.7,1.75,1.63,2.65,2.4a14.2,14.2,0,0,0,3.6,2.44c.93.4,2.42.46,3.22,1,1,.65.43,2.23.9,3.23a4.66,4.66,0,0,0,3.29,2.27c.76.18,8.32.19,7.81-1.68Z" style="fill: #2d3f51"/>
        <path d="M52.52,143.85c-2.63,0-5.72-1.16-8.28-1.77a53,53,0,0,1-7.86-2A49.9,49.9,0,0,1,22,130.92a34,34,0,0,1-4.16-4.58c-.66-.86-1.32-1.71-1.95-2.58s-1.91-2-2.14-3.05c-.11-.48.6-2.17-.39-2s-.19,2.52.11,3a54.06,54.06,0,0,0,3.87,5.18l-.06-.08a61.65,61.65,0,0,0,6.49,6.74c2.67,2.6,6.42,4.48,9.72,6.24,3.53,1.88,7.34,2.52,11.21,3.39,2.07.47,4.15.86,6.25,1.19.33.05,1.19.35,1.54.18s.86-.75.08-.75ZM14.89,122.54l0,0,0,0Z" style="fill: #2d3f51"/>
        <path d="M57.1,150.9c-.08-3.6-.76-8.37-4.15-10.39-2.07-1.22-4.22-1.46-6.52-1.93s-4.69-1.49-7.13-1.93C35.85,136,31.84,135,29,132.8c-3.44-2.61-7.59-5.59-9.65-9.49-1.14-2.17-1.58-1.48-.53.49a21.48,21.48,0,0,0,4.47,5.44c3.23,3,6.22,5.67,10.44,7.12,2.24.77,4.48,1.1,6.76,1.67,2,.5,3.92,1.3,6,1.63,4.13.67,7.57,1.4,8.94,5.8a17.56,17.56,0,0,1,.8,5.39c0,1.47.45,2.47-1,2.87-.56.15-2,.47-.89,1.22a2.83,2.83,0,0,0,2-.28c1.14-.76.84-2.58.81-3.76Zm-5.63-10.1h0Z" style="fill: #2d3f51"/>
        <path d="M56,154.77c-1.67-.11-3.33-1.15-4.8-1.86-1.71-.83-3.37-1.74-5.14-2.45-4.16-1.65-7.9-2.87-11.52-5.62-6.26-4.77-11.45-11.17-16.21-17.38l0,.05-.08-.1h0a30.1,30.1,0,0,1-2.33-3.29c-.4-.67-1.45-3.36-2.08-3.56-1.36-.42,0,1.77.23,2.14a36.84,36.84,0,0,0,2.48,4.14c1.67,2.29,3.22,4.68,5.05,6.84s3.88,4,5.7,6.12a35.29,35.29,0,0,0,14.56,10.34,87.58,87.58,0,0,1,8.79,3.8,15.74,15.74,0,0,0,4,1.58c.29.05,1,.28,1.31.11s.75-.83,0-.87Z" style="fill: #2d3f51"/>
        <path d="M73.57,189.12c-.17-.64-3.86.86-4.67.92-2.3.17-3.3-.89-4.92-2.35a48.11,48.11,0,0,1-8.27-10.16c-1.67-2.72-3.42-5.33-5-8.08-1.85-3.18-3.33-6.13-5.79-8.91-4.78-5.42-9.1-11.16-13.45-16.9a8.77,8.77,0,0,0-1.75-2c-.77-.44-1.39-.46-1.08.61.21.72,1.44,1.67,1.86,2.32.56.82,1,1.7,1.59,2.52,2.21,3.21,5.13,5.84,7.48,9,2.59,3.45,6,6.29,8.08,10.11,1.75,3.24,3.36,6.75,5.61,9.66v0c3.27,4.39,5.88,9.24,10.07,12.89,1.55,1.34,2.65,2.46,4.8,2.49.87,0,5.89-.6,5.49-2Zm-15.16-6,0,0,0,0Zm-1-3.06,0,0,0,0Zm-3.64-5.45,0,0,0,0Z" style="fill: #2d3f51"/>
        <path d="M49.53,169.9c-.28,0-.28.45,0,.44a.22.22,0,0,0,0-.44Z" style="fill: #2d3f51"/>
        <path d="M126.23,169.12a4.71,4.71,0,0,0-.78-2.37c-.57-.61-1.53-.85-1.83.17-.2.69.47,1.36.67,2a5.48,5.48,0,0,1-.45,4.12c-2.22,4-8.35,6.12-12.35,7.47C100.15,184.32,89,188.92,78,193.58l.13-.05c-4.28,1.73-10,3.55-14.11.72-3.89-2.64-6.21-6.78-8.33-10.85-1-2-1.93-4-3-6s-2.18-3.65-2.45-5.83c0-.44.25-2.1-.14-2.33-1.07-.65-.9,1.38-.87,1.92a14.21,14.21,0,0,0,2.16,6.25C55,184.26,59,196.3,68.28,196.73c5.42.25,10.72-2.53,15.58-4.51,5.24-2.14,10.6-4.15,15.9-6.17,5.68-2.16,11.72-3.54,17.22-6.17,4.14-2,9.86-5.36,9.25-10.76ZM98.42,186.58l-.06,0,.06,0Z" style="fill: #2d3f51"/>
        <path d="M76.24,186.45c-.36-3-2-6.07-3.51-8.69s-2.92-5.1-4.6-7.5S65,165.2,63.35,162.7s-3.89-5.64-6.49-7.26c-1.48-.93-2.24-.19-.89.95A19.59,19.59,0,0,1,58.48,159a60.69,60.69,0,0,1,5.79,7.74c3.14,5.23,6.87,10.08,9.27,15.74a1.11,1.11,0,0,1-.07-.16,19.78,19.78,0,0,1,1.27,3.5c.26,1.22-.17,1.43-.56,2.46s0,1.61,1,.84a3.32,3.32,0,0,0,1-2.62Z" style="fill: #2d3f51"/>
        <path d="M140.31,153.13c-.4-1.45-1.77,1.51-1.91,1.74a25.72,25.72,0,0,1-2.17,3.3c-1.6,2-3.8,2.61-5.63,4.2-.7.61-1.23,1.39-1.91,2a10.83,10.83,0,0,1-3.47,1.67c-2.6,1-5.16,2.11-7.75,3.14-5.19,2.07-9.88,5.54-14.88,8-2.59,1.3-5.08,2.9-7.72,4a58.18,58.18,0,0,1-7.49,2.49,30,30,0,0,1-7.43,1.1,7.58,7.58,0,0,1-3.25-.33c-.43-.21-2-2.42-2.31-1.19-.18.61,1.08,1.74,1.52,2a7.54,7.54,0,0,0,3.73.67,26.58,26.58,0,0,0,8-1.06,72.73,72.73,0,0,0,7.58-2.58c2.49-1,4.78-2.55,7.2-3.74,4.82-2.37,9.31-5.46,14.15-7.76s10.5-3.19,14.25-6.95c1.71-1.72,3.92-2.67,5.62-4.39a18.67,18.67,0,0,0,2.67-3.63c.35-.62,1.42-2,1.22-2.79Zm-15.23,14.2h0Zm-30.29,14-.06,0,.06,0Z" style="fill: #2d3f51"/>
        <path d="M162.75,181.61c-.29-1.07-4.51,3.07-4.87,3.41a30.66,30.66,0,0,1-4.35,3.45c-3,2-6.23,3.58-9.89,2.79a3.83,3.83,0,0,1-3.31-2.52,27.67,27.67,0,0,1-2.44-5.87c-.93-3.63-1.8-7.47-2.47-11.16a20.3,20.3,0,0,0-1.48-4.87c-.38-.83-2.81-4.84-3.75-3.94-.65.63,2.21,3.65,2.57,4.51a23,23,0,0,1,1.31,5.3c.37,2.07,1.23,4,1.73,6,.43,1.75.66,3.51,1.18,5.24a30.78,30.78,0,0,0,2,4.68c1,2,1.47,2.94,3.69,3.43,4.06.89,7.5-.26,10.93-2.49a30.63,30.63,0,0,0,4.61-3.66c.53-.51,4.78-3.34,4.51-4.31Z" style="fill: #2d3f51"/>
        <path d="M114.64,140.93c-.71-1.22-5,3.62-5.54,4.16a46.4,46.4,0,0,1-5.35,4.12c-3.9,2.69-8.08,4.86-11.86,7.71-2.77,2.09-5,3.69-8.62,3.29a21.15,21.15,0,0,1-8-2.88c-4.55-2.62-9.56-5.26-13.74-8.46h0a25.4,25.4,0,0,0-2.9-2.06c-.63-.35-2.44-1.47-3.16-1.27-1,.26.35.79.54.89a28,28,0,0,1,3.12,1.63c3.42,2.32,6.83,4.59,10.37,6.72s7,4.28,10.79,5.53a11.45,11.45,0,0,0,11.27-2.12l0,.05c4-3.15,8.64-5.29,12.83-8.23a46.46,46.46,0,0,0,5.12-3.91c.61-.58,5.42-4.68,5.13-5.17ZM93.76,155.52l-.06,0,.06,0ZM91.83,158l0,0,0,0Zm-.49.38,0,0,0,0Z" style="fill: #2d3f51"/>
        <path d="M115.12,139.16c-.38-1.49-1.57-2.65-2.14-4.07a5.67,5.67,0,0,0-2.5-3.14c-1.6-1-3.27-.75-5-.3a3.93,3.93,0,0,0-2.83,1.76c-1.11,1.35-3.09,2.21-4.61,3.05a23,23,0,0,1-4.92,2c-3.1.87-6.55.87-9.22-1.18l.09.07c-6.85-5.31-10.67-13.85-15.49-20.81-2.21-3.18-4.35-6.6-7.17-9.29-.22-.21-1.65-1.71-1.91-1.23s.7.82.87,1A32.14,32.14,0,0,1,64,111.26c5.23,6.69,8.77,14.52,14.11,21.14,2.9,3.61,5.74,7,10.63,7.37,4.32.32,8.73-1.79,12.32-4a14,14,0,0,0,2.59-2.49,6.26,6.26,0,0,1,3.24-1.17c2.66-.39,4.38,1.1,5.36,3.44.49,1.19,1.43,2.19,1.84,3.41.31.92,0,.91-.14,1.49-.07.39-.76,1,.38.75.91-.22.92-1.37.75-2.05Zm-.76.66v0ZM88,139.66h0ZM64.48,111.81h0Zm-4.83-5.32h0Z" style="fill: #2d3f51"/>
        <path d="M88.78,139.23c-1.06-2.54-4.26-4.36-6-6.43s-3.13-4.11-4.64-6.2a87.61,87.61,0,0,1-4.52-7.79,38.6,38.6,0,0,0-6.77-8.55,27.19,27.19,0,0,0-3.68-2.82c-.65-.42-1.32-.79-2-1.18-.15-.09-1.72-1-1.18-.11s2.72,1.59,3.51,2.16a25.06,25.06,0,0,1,3.57,3.18A48.18,48.18,0,0,1,73,119.27c1.56,2.57,2.85,5.29,4.59,7.75,1.46,2,2.88,4.13,4.49,6.07,1.22,1.48,2.65,2.69,4,4,.61.61,1.24,1.73,2,2.16.07,0,1.09.67.78-.06ZM68.45,113.09v0Z" style="fill: #2d3f51"/>
        <path d="M96.14,135.28a6.67,6.67,0,0,0-1.41-3.59c-1-1.06-2.49-.9-3.85-1-2.86-.27-5.75-.36-8.09-2.25-1.45-1.16-2.37-3-3.45-4.52-.87-1.21-1.76-2.4-2.59-3.65a66.41,66.41,0,0,0-5.48-6.7,40,40,0,0,0-6.84-6.22c-.76-.54-2.31-1.94-3.27-1.95s1.44,1.24,1.69,1.4c4.67,3,8.67,7.5,12.08,11.85l0-.05c3.23,4.13,5.52,10.38,10.88,12.06a17.65,17.65,0,0,0,4,.57c1.18.09,3-.13,4,.51,1.16.75,1,2,1.52,3.14.09.21.11,1.06.58.86a.37.37,0,0,0,.25-.43Zm-9-5h0ZM75,118.73l0,0,0,0Zm0,0h0ZM64.38,107.88h0Z" style="fill: #2d3f51"/>
        <path d="M99.7,135c-1.31-.69-2.88.17-4.11.59a8.05,8.05,0,0,1-5.66-.08h0a15.55,15.55,0,0,1-3.41-2.15l0,0-.06,0h0l0,0,0,0-.16-.12h0l-.08-.06h0c-.74-.57-2-2.27-3-2.5-1.14-.28.4.86.76,1.19a24.57,24.57,0,0,0,4.81,3.95,9.16,9.16,0,0,0,6.63.56,15.73,15.73,0,0,1,3-.84c.13,0,2.1,0,1.12-.55Zm-8.16.95h0Zm-5.25-2.79h0Zm.25.2h0Zm0,0Zm0,0h0ZM90,135.54l0,0,0,0Z" style="fill: #2d3f51"/>
        <path d="M90,130.47c-1.72-2.69-3.43-5.76-5.88-7.85a49.45,49.45,0,0,0-8.45-5.28,5,5,0,0,0-2-.87c-1,0-.44.16,0,.45,1.28.85,2.86,1.53,4.2,2.35,2.93,1.81,5.82,3.46,8,6.21l-.06-.07c.9,1.17,1.64,2.46,2.47,3.68.21.29.91,1.62,1.26,1.69.14,0,.88.22.54-.31Zm-.5-.72,0,0,0,0Zm-6.48-7.11,0,0,0,0Z" style="fill: #2d3f51"/>
        <path d="M77,114.7a16,16,0,0,0-3-2c-1.21-.85-2.54-1.61-3.69-2.54-.39-.32-4.8-4.9-5.15-4.31,0,0,5.12,5,5.53,5.28,1.43,1.07,2.92,2.11,4.4,3.09.37.24,1,.89,1.42.9.19,0,.93.12.53-.37Z" style="fill: #2d3f51"/>
        <path d="M102.62,131.34c0-2.2-3.12-3.17-4.61-4.33l0,0a21.42,21.42,0,0,0-2.88-2.33,18.47,18.47,0,0,0-4.41-1.48,13.7,13.7,0,0,1-6.63-4.29c-1.69-1.75-4-3.61-6.56-3.73a22,22,0,0,0-2.81.08c-1.39.12.39.48,1,.53A10.27,10.27,0,0,1,82.06,118c2,1.59,3.39,3.83,5.71,5s4.73,1.24,6.88,2.39a17.75,17.75,0,0,1,2.59,2c1.19,1,2.93,1.6,4,2.67a2.16,2.16,0,0,1,.41,2.41c-.19.72-2,3-1.71,3.58.59,1.15,2.7-3.92,2.69-4.7ZM78.71,116.11h0Zm-.85-.25h0ZM76,115.39h0Z" style="fill: #2d3f51"/>
        <path d="M117.83,136.06c-.12-1.53-.75-2-1.58-3.14s-.86-2.26-2.24-2.91-2.41.07-3.69-.09c-.74-.1-1.08-.74-1.94-.84-1.25-.15-2.11,1.12-3.32,1.17-.34,0-3.68-1.26-3.7-.33,0,.28,2.88.8,3.35.85,1.35.15,2.32-1.12,3.57-1,1,.11,1.3.8,2.46.75s2.24-.38,3.28.25,1.48,2,2.19,2.92a3,3,0,0,1,.79,3,8.4,8.4,0,0,0-.52,1.56c-.06.38.2.5,0,.85s-2.64,1.47-.65,1.15c1.56-.25,1.06-1.4,1.2-2.34.11-.73.84-1.07.78-1.87Zm-.65-.05v0Z" style="fill: #2d3f51"/>
        <path d="M138.89,139c-.86-1.57-5.44-.69-6.66-.52h0c-1.38.19-2.76.31-4.14.5h0c-3.19.42-6.33,1.05-9.51,1.49h0c-.4.05-4.58.44-4.47.81s13.54-1.6,14.51-1.71c1.84-.21,3.7-.44,5.56-.53a12.81,12.81,0,0,1,2.9.1c.15,0,2.24.73,1.76-.14Zm-6.56-.53h0Zm0,0h0Zm0,0h0Zm-.09,0h0ZM116.47,141h0Z" style="fill: #2d3f51"/>
        <path d="M99.4,121.19c-.59-.59-3.48.14-4.24.22-2.22.22-4.47.06-6.69.1-.3,0-2.38-.16-2,.43s2.34.15,2.93.15a48,48,0,0,0,6.68-.18H96c.14,0,3.94-.18,3.39-.73Z" style="fill: #2d3f51"/>
        <path d="M133.92,138.55a17.36,17.36,0,0,0-1-2.51l0,.07c-1.71-4.06-1.59-9.3-5.93-11.74-4.5-2.53-9.38-2.57-14.39-2.32s-10-.15-15,1.49c-.83.28-1.67.52-2.51.75-.28.07-1.65.31-.71.64s2.79-.56,3.64-.81a27.37,27.37,0,0,1,4-1h0c3.87-.5,7.91-.28,11.81-.5s7.82-.06,11.47,1.61c3.28,1.5,4.82,4.31,5.73,7.71a35,35,0,0,0,1.33,4.49c.14.35.46,2,.84,2.29.16.12.83.52.66-.14Zm-1.39-1.87v0Z" style="fill: #2d3f51"/>
        <path d="M107.19,122.41c-.26-.94-3.44-1.25-4.22-1.33-.47,0-4.79-.1-4.16.54.41.42,3.62.1,4.37.19.43.06,4.19,1.27,4,.6Zm-7.94-.68h0Z" style="fill: #2d3f51"/>
        <path d="M133,168.64c-1-1.67-7.88,2.21-7.5,3s3.91-1.56,4.31-1.74c.59-.27,3.54-.65,3.19-1.25Z" style="fill: #2d3f51"/>
        <path d="M162.44,195.68c-.2-.73-9.33,3.08-10,3.28-1.92.6-3.82,1.21-5.77,1.69s-4.85.58-6.33-.93-.53-3.65.13-5.34l0,.08.07-.18,0,.07c.09-.19,1.7-3.49.69-3.11-.44.17-1,2.3-1.19,2.73-1,2.48-1.87,5.51,1.19,6.84,2.34,1,4.74.62,7.11,0s9.75-3,12-4l-.1,0,.24-.1h0l.06,0h0l0,0h0c.39-.16,2.15-.47,2-1.12Zm-1.9,1.09,0,0,0,0Zm-1-.45,0,0,0,0Zm-14,4.55h0Zm-5.26-1.16,0,0,0,0Zm-.78-2.55v0Zm-.13-1.35v0Zm21.06,1h0Z" style="fill: #2d3f51"/>
        <path d="M133.46,215c-2.83-6.8-5.11-13.77-7.77-20.63-1.24-3.16-2.31-6.32-3.32-9.56-.54-1.73-1.17-3.45-1.76-5.16-.22-.63-1.31-3.37-1.21-1.53a11,11,0,0,0,.77,1.89c.28.89.53,1.79.84,2.67.62,1.75,1.14,3.51,1.71,5.27,1.1,3.43,2.38,6.79,3.66,10.15s2.3,6.8,3.59,10.16c.68,1.77,1.37,3.54,2.08,5.29.11.28.51,1.85.83,1.89s.75,0,.58-.44Zm-13.64-36,0,0,0,0Z" style="fill: #2d3f51"/>
        <path d="M127.33,215.47c-2-6.47-4.43-12.81-6.36-19.3-.43-1.43-4.65-16.77-5.58-16.46-.65.21.26,1.36.44,1.8a29.81,29.81,0,0,1,1.3,4.35c.91,3.45,2,6.82,3,10.24,1.92,6.46,3.78,13.23,6.4,19.44l0-.1c.19.45,1.05.7.84,0Z" style="fill: #2d3f51"/>
        <path d="M68.82,197.53a.22.22,0,0,0,0,.44.22.22,0,0,0,0-.44Z" style="fill: #2d3f51"/>
        <path d="M69.19,196.57c-.56-1-.9,2.79-.92,3.21-.09,1.66-.24,3.3-.32,5a51.15,51.15,0,0,1-.73,5.52c-.1.62-1.08,4.12-.56,4.44s1-3.3,1.1-3.72a52.05,52.05,0,0,0,.69-5.29c.11-1.74.26-3.46.41-5.2.07-.77.7-3.29.33-3.92Z" style="fill: #2d3f51"/>
        <path d="M74.65,195.81c-.73,0-.72,9.22-.73,10.27s-.76,8.14-.17,8.33.91-7.66.91-8.51.18-10.09,0-10.09Z" style="fill: #2d3f51"/>
        <path d="M56,185c-.72-.43-5.35,12.57-6.21,13.83-5.24,0-1.47-5.81-.73-8.53,1.15-4.23,1.49-8.74,3.17-12.8v0l0-.07v0c.2-.49-.13-.59-.5-.42s-1,2.54-1.1,3c-.53,1.83-.85,3.65-1.25,5.5A55.58,55.58,0,0,1,48,191.3c-.61,1.79-1.75,3.9-1.84,5.78-.07,1.59,2.27,3,3.75,2.39,1.24-.54,1.6-3.11,2-4.33s4.66-9.83,4-10.19Zm-2.83,5.56v0Zm-.94-13.07h0Z" style="fill: #2d3f51"/>
        <path d="M59.12,51.53c-.1-1.7-1.91-2.73-3.07-3.72-1.38-1.17-2-1.56-2.27-3.31-.54-3-2.21-5.8-3.68-8.48a17.15,17.15,0,0,0-2.65-3.78c-.17-.17-.59-1-.86-.54-.14.23,1.22,1.68,1.41,1.94a46.31,46.31,0,0,1,4.56,8.24l0-.05c.58,1.38.3,3,.91,4.33.4.87,1.47,1.44,2.21,2,1,.77,2.87,1.75,3.06,3.11.14,1-.8,2.11-1.41,2.8s-1.53.9-2.22,1.45-.79.78.35.67C57.07,56,59.2,53,59.12,51.53Zm-.87-1.22v0ZM55.53,55.4h0Z" style="fill: #2d3f51"/>
        <path d="M54.94,53c-1-.59-.72,3.33-.66,3.72h0v0A16.54,16.54,0,0,1,54.51,61h0c0,.28-.8,2.43-.39,2.54,1.05.29.67-6.21.61-6.79,0-.39.2-3.75.21-3.75Zm-.22.9v0Zm-.44,2.82Z" style="fill: #2d3f51"/>
        <path d="M56.45,59.05A17.73,17.73,0,0,0,56,56.3c-.06-.13.12-.71-.29-.4-.93.71.71,3,.26,4-.14.29-1.8,1.22-.89,1.44s1.46-1.69,1.37-2.28Z" style="fill: #2d3f51"/>
        <path d="M55.92,62.67c0-.64-1.18-2-1.19-1.36s1.31.67.83,1.83h0c-.62,1.38-1.11,1.44-.85,3.07.18,1.18.39,2.53-.7,3.36a6.09,6.09,0,0,1-2.41.77c-.24,0-2.6.48-2,.92.41.32,2.25-.44,2.75-.58,1.22-.32,2.24-.71,2.67-2s-.24-2.22-.18-3.4,1.12-1.56,1.11-2.61Zm-.24,0v0Zm-.12-.48h0Zm-.71,4.67v0Z" style="fill: #2d3f51"/>
        <path d="M38,56.9a1.43,1.43,0,0,0-2.39.34c-.38.86.34,1.21.4,2s-.64,1.5-.25,2.45c.07.15.43,1,.69.8s-.28-.86-.3-1c-.1-.76.24-1.14.28-1.88s-.56-1.34-.46-1.92.84-.83,1.42-.92c0,0,1,.61.61.07Z" style="fill: #2d3f51"/>
        <path d="M38.61,60.91c-.24-1.52-.38.53-.62.77-.22-.24-.33-1.34-.69-1.27s.09,1.45.41,1.56c.61.21,1-.4.9-1.06Zm-.6.78h0Zm0,0h0Zm0,0h0Zm0,0h0Z" style="fill: #2d3f51"/>
        <path d="M40.68,62.32c0-.47,0-2-.66-1.81-.28.06.17,2,.16,2.18s-.77,2,0,1.68c.52-.25.55-1.63.52-2.05Z" style="fill: #2d3f51"/>
        <path d="M58.16,52.82c-.39-.66-1.86,1.51-1.53,2.12s1.65-1.92,1.53-2.12Z" style="fill: #2d3f51"/>
        <path d="M53.42,47.47c-.21-.12-.7,1-.74,1l0,0C52.31,49,50,50.29,51.63,50c.54-.09,2.39-2.18,1.79-2.53Zm-.32.36v0Zm-1,1.27h0Z" style="fill: #2d3f51"/>
        <path d="M53.28,50.24a1.15,1.15,0,0,1-.51-.22h0l0,0h0c-.49-.2-2.24-.23-1.37.28.3.18,2.29,0,1.88-.06Z" style="fill: #2d3f51"/>
        <path d="M68.41,100.76c-.1-.8-.57-1.51-.61-2.3,0-1.08.45-2,.21-3.16-.1-.5-.72-3.33-1.32-3.06s.11,1.61.25,2.05c.59,1.89.16,3.57.56,5.42a4.13,4.13,0,0,1-.17,2.71c-.39.87-1.13,1.51-1.17,2.52,0,.59.44,1.36.25,1.93s-1.1,1-1.37,1.65c-.17.41-.35,1.19,0,1.59,1,1.09.89-.53,1.06-.89a12.07,12.07,0,0,1,1-1.37c.54-.84.32-1.26.2-2.19-.24-1.78,1.31-3,1.09-4.9Z" style="fill: #2d3f51"/>
        <path d="M91.21,158.8c-.33-1.22-1.54,1.1-1.67,1.27a25.17,25.17,0,0,1-2.7,2.46,28.06,28.06,0,0,1-5.86,4.6,36.49,36.49,0,0,1-6.23,2.33,16.39,16.39,0,0,1-2.69.52c-.62.1-3.57.66-3.84,1.33-.51,1.25,1.15.26,1.75,0a24.85,24.85,0,0,1,3.91-.88,35.76,35.76,0,0,0,6.48-2.32,24,24,0,0,0,7-4.78c.85-.83,4.27-3.11,3.88-4.55Zm-7.94,6.86,0,0,0,0Z" style="fill: #2d3f51"/>
        <path d="M128.67,68.2c0-2.65-.07-34.7-.51-34.7-.27,0,.1,15.24.08,16.55,0,1.67-.38,18.55.26,18.55.23,0,.18-.29.17-.4Z" style="fill: #2d3f51"/>
        <path d="M145.67,39.29c0-.2-.25-1-.56-.81a19.93,19.93,0,0,1,.28,2.69c0,1.27-.13,2.53-.2,3.8-.15,2.61-.35,5.18-.27,7.8.18,5.31-.27,10.69-.44,16,0,1.16-.11,2.32-.19,3.49-.06.87-.52,2.46-.29,3.29.08.29,0,.83.4.32.52-.67.21-2.95.25-3.77.26-5.12.34-10.27.66-15.39.19-3-.07-6,.05-9,.12-2.67.75-5.78.31-8.42Zm-1.55,35.33v0Zm-.11.89v0Z" style="fill: #2d3f51"/>
        <path d="M144,75.57a30.86,30.86,0,0,1-3.66-1.89,3.92,3.92,0,0,0-2.46-.45c-.95.11-1.51.32-2.27-.39-1.33-1.24-1.63-2.47-3.52-3.13-.78-.27-1.56-.48-2.32-.81-.05,0-1.66-1-1.43-.29.33,1,3.39,1.37,4.24,1.77,1.62.76,1.75,2.67,3.21,3.48,1,.54,1.76,0,2.73,0a6,6,0,0,1,2.56.87c.66.33,1.28.8,2,1.08.11,0,.86.51,1,.31s.31-.38-.06-.5Zm-.45-.19h0Z" style="fill: #2d3f51"/>
        <path d="M145.53,38.37c-.33-1.19-2.29-1.17-3.26-1.36a7.26,7.26,0,0,1-3.77-1.6c-1-1-1.34-1.85-2.9-1.38-1.27.38-1.69.79-3.08.22l.07,0c-.49-.21-3.88-1.67-4.41-1-.17.23,2.93,1,3.42,1.16,2,.66,2.25.86,4.15,0,1.72-.77,1.59.67,2.91,1.68l0,0c1.43,1.11,3.25,1,4.92,1.54.19.06,2.09,1.05,2,.68Zm-1.12-.43h0Zm-7.25-3.61,0,0,0,0Zm-5.21.28Zm-.06,0h0l0,0,0,0Zm-1.31-.93-.07,0h0l.05,0Zm-.05,0h0Z" style="fill: #2d3f51"/>
        <path d="M148.79,49.23c0-3.07-1.54-5.6-.75-8.78a15.45,15.45,0,0,0,.66-2.94,3,3,0,0,0-.39-2c-.21-.25-1.37-1-1.69-.63a34.43,34.43,0,0,0-7.41-2.58c-1.54-.45-3.07-.85-4.63-1.23-.38-.09-5.42-1.82-6-1.37-3.36-1.11-2,7.11-2,8.86.08,2.11.24,4.21.31,6.32.17,5.81.33,11.78,0,17.59-.07,1.23-1.39,8,.09,8.3a9.41,9.41,0,0,0,2.58,1.49c1.37.74,2.78,1.35,4.15,2.07,2.93,1.55,6,3.11,9,4.4h0c.58.26,3.07,1.69,3.54.88,2-.74,1.12-7.29,1.36-9.06h0c.44-2.66.12-5.41.47-8.06h0v0c.11-.82.08-3.49-.35-1.28a34.8,34.8,0,0,0-.33,5c-.12,3-.35,5.94-.46,8.93,0,1,.28,3.17-.56,3.76-1,.7-2.76-.46-3.67-.86-2.29-1-4.5-2.2-6.75-3.29-1.44-.7-2.83-1.4-4.29-2-1-.43-1.93-1-2.87-1.46-.31-.16-1.23-.89-1.64-.91-.89-.88-.18-4.22-.09-5.31.18-2.15.21-4.26.22-6.42,0-3.83-.12-7.66-.06-11.49,0-3.61-.27-7.21-.38-10.81,0-1.56-.8-4.5.35-5.84.68-.8,1.33-.42,2.2-.18,1.74.49,3.51.83,5.26,1.3.67.18,12.08,3.69,12.15,3.48,1.18.38,1.5.5,1.62,1.85a8.41,8.41,0,0,1-.69,3.4,10.59,10.59,0,0,0,.15,5.8,13.17,13.17,0,0,1,.53,2.92c0,1-.44,2.19-.18,3.15.12.46.11,1,.47.26s.11-2.59.11-3.28Z" style="fill: #2d3f51"/>
        <path d="M127.29,45.6c-.58-1-1.53,1.47-1.54,1.79-.07,1.21.15,2.52.18,3.75,0,.81-.06,1.69.76,2.16.38.22.76.07.28-.3h0c-1.2-.92-.57-3.63-.61-5,0-.3-.19-1,0-1.3s1.2-.71,1-1.11Zm-1,1.18h0Zm-.38,4.38h0Zm-.09-2.95v0Z" style="fill: #2d3f51"/>
        <path d="M151.65,58.06c0-1.69.42-4.93-.88-6.12-.26-.25-2.84-1.3-2.35-.34.27.53,1.92.39,2.37,1,.72,1.06.47,4.66.32,5.85a.15.15,0,0,1,0-.07c0,.13,0,.27-.05.41v0a.93.93,0,0,1-.64.85l0,0a1.91,1.91,0,0,1-.45.13h0c-.79.11-2.37.82-3.18.48s-.39-1.05-.25-2a12.47,12.47,0,0,0,.26-4.34c-.09-.4-.15-1-.62-1s.06,1.15.09,1.25c.32,1.46-1.41,5.92.19,6.59.85.36,2.8-.26,3.55-.54a2,2,0,0,0,1.59-2.08Z" style="fill: #2d3f51"/>
        <path d="M149.07,52.4c-.54,0-3.22.12-3,.79.08.33,3.26-.32,3.26-.59l-.21-.2Z" style="fill: #2d3f51"/>
        <path d="M150.45,56.31c0-.82-.53-2.6-1.68-1.53-.35,0-.54,3.71,0,4.08.33.21,1.22-.15,1.45-.41.41-.46.19-1.59.19-2.14Zm-.39.27a3.57,3.57,0,0,1-.2,1.59,3.35,3.35,0,0,1-.84.13,13,13,0,0,0,.09-3.12,2.24,2.24,0,0,1,.73-.06,4.43,4.43,0,0,1,.22,1.46Zm-.15-1.24v0Zm0,2.82h0Zm0-3h0Zm0,0,0,0,0,0Z" style="fill: #2d3f51"/>
        <path d="M156.93,62.58c-1.36-2-3.58.84-2.81,2.48,1,2.15,3.91-.8,2.81-2.48Zm-.23,1c0,.08,0,.16,0,.24V63.8c-.39,2.81-3.75,1-1.57-1.26.76.2,1.76-.23,1.6,1.08Zm-1,1.56h0Zm-1.05-1.93,0,0,0,0Z" style="fill: #2d3f51"/>
        <path d="M152.62,64.65l-.09,0c-1-1.29-1.87-1-1.15-2.94.24-.64.57-1.65-.44-2-.33-.12-.4,0-.37.31s.75.5.72,1c0,.25-.44.61-.55.76l0,0a2,2,0,0,0,.17,2.56,2.7,2.7,0,0,0,1,.72c.19.07,1.49.18.71-.3Z" style="fill: #2d3f51"/>
        <path d="M155.84,61.65c-.87-.79-1.76-1.51-2.64-2.29-.27-.24-2.07-1.61-1.48-.84l0,0a19.77,19.77,0,0,0,2.34,2,11.51,11.51,0,0,0,1,1.08s1.44.63.8,0Zm-3.34-2.92h0Z" style="fill: #2d3f51"/>
        <path d="M153.84,62c-.3-.29-2.24-1.15-1.66-.26.23.36,2.07.68,1.66.26Zm-1.07-.58h0Z" style="fill: #2d3f51"/>
        <path d="M152.75,65.15c-.12-.3-.42-.26-.46.07v0a65.42,65.42,0,0,1-1.89,7.57,96,96,0,0,0-2.29,10.53v0h0c-.35,2.49-1.21,6.15-2.76,8.16l0,0c-1.18,1.51-4.53,4.51-2.21,6.29h0c1,.77,0-.46-.07-.66a1.67,1.67,0,0,1,0-2.12c1-1.66,2.59-2.83,3.36-4.69h0c1.67-4,2.42-8.64,3.35-12.92.48-2.21,1.06-4.38,1.57-6.58.36-1.55,1.6-4,1.37-5.6Zm0,0h0Zm-4.21,17.68v0ZM146.58,90l0,0,0,0Zm-.75.74v0Zm0,0h0Zm-.23.41v0Zm-.51.65,0,0,0,0Zm-1.19,1.57v0Zm-.47,1.17v0Zm-.73,1.55v0Zm5.41-12.78h0Z" style="fill: #2d3f51"/>
        <path d="M156.55,65c-.67-.65-.92,1.71-1,1.88-.27,1.46-.7,2.91-.89,4.39v-.06c-.29,2-.94,4-1.21,6.07h0c-.16,1.09-.32,2.16-.44,3.26v0c-.51,4-2.06,7.75-2.57,11.73v0c-.32,2.26-.71,5-2.92,6.34-1,.57-1.24.25-2.29-.19l0,0c-.55-.24-2.71-1.54-1.47-.37a6,6,0,0,0,2.78,1.32c1.15.1,1.94-1,2.64-1.9,1.23-1.49,1.18-2.72,1.41-4.51v0c0-.18,0-.36.07-.54v0c.7-5.11,2.35-10.07,3.09-15.19a74.64,74.64,0,0,1,1.69-7.62c.19-.78,1.55-4.07,1-4.6Zm-2.87,13.25v0Zm-.63,2.35v0Zm-2.92,14.28h0Zm0,0v0Zm-4.76,3.91,0,0,0,0Zm5.14-6.62h0Z" style="fill: #2d3f51"/>
        <path d="M154.58,67c-.18-.9-.81-.82-1.29-.24a7.24,7.24,0,0,0-.65,2.43c-.41,1.84-.84,3.68-1.08,5.56v-.06c-.38,2.69-1.47,5.22-1.79,7.93v0c-.06.44-1.14,4.34-.87,4.34a.49.49,0,0,0,.15-.59v0c.2-1.48.84-2.91,1-4.42h0c.49-3,1.61-6,2.19-9,.21-1.11.65-5.71,1.66-6.25.83.8-.41,3.6-.61,4.54-.41,2-.77,3.94-1.17,5.9A66.64,66.64,0,0,1,150.48,85c-.14.45-.4,2.21-.83,2.41-.07,0-.63-.07-.53-.15-.09.07-.71-.38-.63.24s.84.76,1.25.62c1.44-.48,1.91-5.26,2.13-6.54.44-2.63,1.1-5.2,1.64-7.8.4-2,1.46-4.74,1.07-6.76Zm-.68-.27h0Zm-.22.23v0Zm-1.63,13.46Zm-.39-.33v0Z" style="fill: #2d3f51"/>
        <path d="M148.05,94.11c0-.56-1.27-.85-1.62-1l.07,0c-1-.42-1.26.35-1.82,1-.07.08-1.88,2.17-.82,2.17.23,0,.1-.78.2-1a4.66,4.66,0,0,1,1.55-1.48c.73-.38,1,.09,1.95.34,0,.46-2.41,2.14-1.56,2.44a8,8,0,0,0,2.05-2.58Zm-1.91-.46h0Zm-.37-.05v0Zm-1.1.58,0,0,0,0Zm-.59,1.17v0Z" style="fill: #2d3f51"/>
        <path d="M148.73,96.85c-.27-.93-1.4-.59-1.88-.12-.2.19-1.09,2.65-.21,2.4.16,0,.11-.23.1-.34v0c-.11-.8.22-2.29,1.34-1.92.14,0,.15.5.19.51.29,0,.79.52.45-.58Zm-2,1.21v0Z" style="fill: #2d3f51"/>
        <path d="M143.06,95c-.28-1-3.68-.1-4.28,0h0a77.28,77.28,0,0,0-9.86,2.24c-1.48.4-2.57,1.16-2.23,2.78.07.3.31,1.64.82,1.31s-.24-1-.3-1.36c-.44-2.6,4.91-3,6.71-3.38s3.86-.76,5.79-1c.42-.06,3.58.18,3.38-.56Zm-5.43.89h0Zm-.51.07h0Zm1.63-1h0Z" style="fill: #2d3f51"/>
        <path d="M155,102c-.09-1.33-1.64-2-2.66-2.46-.55-.28-3.72-2.37-3.87-1.57s6,2.1,5.9,4.09-4.83,3-6.34,3.38c-2.84.76-5.76,1.9-8.77,1.4-2.74-.46-5.38-2.29-7.73-3.7-.56-.34-3.6-2.7-4.15-2.28s3.92,2.94,4.4,3.24a22.49,22.49,0,0,0,7.06,3.18c3.22.65,6.54-.18,9.61-1.11,1.79-.54,6.73-1.57,6.55-4.17Zm-.91-1.45,0,0,0,0Zm-24.7,2,0,0,0,0Z" style="fill: #2d3f51"/>
        <path d="M144,101.71c-.4-.46-5-4-5.73-3.43-.79,0-3.21-.18-3,1.14.15.93,2.71,2,3.37,2.42,1.24.84,2.13,1.58,3.69,1.24.46-.1,2.36-.56,1.66-1.37Zm-.18.4c-.06.26-1.18.66-1.49.74a2.84,2.84,0,0,1-2.57-.59h0l0,0v0l-.24-.19,0,0a36.5,36.5,0,0,1-3.61-2.79,3.87,3.87,0,0,1,2.29-.48,10.56,10.56,0,0,0,2.23,1.25c.52.31,3.38,1.6,3.37,2Zm0,0v0Zm-.11-.15h0Zm0,.34h0Zm-2.4.69h0Zm-.55-.14h0Zm-1-.57h0Z" style="fill: #2d3f51"/>
        <path d="M165.17,168.78c-2-3.1-3.59-6.18-5.94-9.05-1.85-2.25-3.55-4.6-5.36-6.88-4.81-6.08-8.52-12.92-12.78-19.39-2.2-3.33-3.62-6.9-5.52-10.39a86.33,86.33,0,0,0-6.52-9.61,156.3,156.3,0,0,1-12.11-18.73c-1.83-3.4-3.89-6.68-5.61-10.13-.72-1.45-1.5-2.89-2.29-4.31a54.42,54.42,0,0,0-3.4-4.59,44.16,44.16,0,0,1-4.93-8c0-.08,0-1.13-.26-.21-.12.54,0,.42.23.86,1,1.64,1.64,2.77,2.6,4.44,1.85,3.23,4.27,6,6,9.28,1.51,2.82,3.07,5.56,4.63,8.35,3.83,6.83,8,13.33,12.22,19.91,2.35,3.63,5.1,7,7.43,10.61s3.67,8.09,6.21,11.71,4.42,7.51,7,11,4.83,7.06,7.47,10.46l0-.05c1.89,2.48,3.82,4.93,5.74,7.4l0-.06a48.35,48.35,0,0,1,3.82,6.07c.17.3.62,1.51.94,1.67s1,.1.52-.36ZM161,162.86v0Zm0,0v0Zm-3.42-5.11v0Zm-4.24-5.53h0Zm-6.14-8h0Z" style="fill: #2d3f51"/>
        <path d="M165.42,169.54c0-.4-.38-.51-.7-.44-.49.12-.3.94-.31,1.23-.06,1.1,0,2.21,0,3.31s-.05,2-.07,3a10.27,10.27,0,0,0-.2,2.43c.87,1.54,1.06-2.89,1.11-3.42a51.07,51.07,0,0,0,.22-6.06Z" style="fill: #2d3f51"/>
        <path d="M165,179.63a.37.37,0,0,0-.55-.19c-1.21-1.17-2-3-3-4.43-1.42-2.17-2.86-4.3-4.15-6.55-2.43-4.25-4.91-8.44-7.64-12.5-4.7-7-8.12-14.68-12.77-21.67-4.78-7.19-9.32-14.59-13.89-21.92-4.46-7.15-8.3-14.7-12.78-21.84-2.13-3.4-4.28-6.78-6.38-10.2-1.1-1.79-1.94-3.76-3.12-5.51-.37-.55-1.44-2.75-1.83-2.19s1,1.85,1.29,2.33c1.33,1.86,2.2,4.05,3.37,6,2.12,3.58,4.3,7.16,6.53,10.66,4.56,7.18,8.27,15,13,22,4.42,6.57,8.22,13.55,12.61,20.15,2.58,3.9,4.54,8.16,6.88,12.19,2.47,4.25,5.11,8.33,7.76,12.46,2.88,4.51,5.39,9.24,8.28,13.74,1.32,2.05,2.73,4,4.06,6.08.3.46.76,1.52,1.27,1.75.33.15,1.18.23,1-.43Zm-.63-.11Zm0,0,0,0,0,0Z" style="fill: #2d3f51"/>
        <path d="M111,93.76c-.2.27-.08,1.41-.11,1.79s-.23,1.21-.4,2.07l.74.48a31.36,31.36,0,0,0,.28-3.73C111.46,94.08,111.37,93.22,111,93.76Z" style="fill: #2d3f51"/>
        <path d="M211.41,162.3c-5.2,1.07-10.56,1.74-15.83,2.34s-10.39,1.7-15.58,2.47c-2.63.38-5.26.82-7.88,1.28-1,.17-2,.35-3,.49s-3.83.21-4.27,1,1.5.18,1.53.17c1.15-.24,2.31-.36,3.47-.52,2.87-.38,5.74-.84,8.61-1.28,10.81-1.67,21.72-3,32.47-5" style="fill: #2d3f51"/>
        <path d="M213.22,170.34c-11.59,2.15-23.07,4.92-34.65,7.12-3.2.6-6.39,1.33-9.6,1.87-1.06.18-3.35,0-4.14.76-1,.87,2.55,0,2.9,0h-.07c3.63-.4,7.25-1.35,10.85-2,3.41-.6,6.79-1.14,10.16-1.91,6.62-1.51,13.32-2.59,20-4" style="fill: #2d3f51"/>
        <path d="M171.14,180c-.69-1.19-1,1.78-1.06,2-.16,1.51-.2,3-.32,4.53s-.17,15-.25,16.53c-.06,1-.82,4.07-.25,4.83.92,1.22,1-1,1-1.39.08-1.47.13-2.94.17-4.42.06-2.87.27-17.78.57-20.63v.11c.05-.4.36-1.21.13-1.6Z" style="fill: #2d3f51"/>
        <path d="M163.18,181.77c0-.55.2-4.25-.38-4.25s-.33,3-.34,3.6c-.11,3.67-.14,10.4-.49,14-.06.63-.76,3.92.21,4s.61-2.77.66-3.33c.35-3.62.45-10.38.34-14Z" style="fill: #2d3f51"/>
        <path d="M186.93,176.88c-.84-.84-1.26,4.23-1.36,4.83-.39,2.28-.73,4.55-1.09,6.83a34.93,34.93,0,0,0-.57,6.28c0,.35-.2,1.22.44,1.21s.6-1.53.65-1.94v0c.41-3,.59-6.09.94-9.12.17-1.49.49-2.95.7-4.43.1-.64.78-3.21.29-3.7Z" style="fill: #2d3f51"/>
        <path d="M105.29,65.61c-.3-.31-3.68,0-4,.31-.87.9,2.74.29,3.22.22h0c.17,0,1.21-.12.79-.54Z" style="fill: #2d3f51"/>
        <path d="M150.23,62.06c-.39,0-3.62.33-2,.56a9.67,9.67,0,0,0,1.68-.11s1.1-.48.32-.45Z" style="fill: #2d3f51"/>
        <path d="M159.43,61.89a12.28,12.28,0,0,0-2.85.19c-1.77.67,1.1.33,1.75.32a43.73,43.73,0,0,0,6.35-.69m-2-.22h0Zm0,0h0Z" style="fill: #2d3f51"/>
      </g>
    </g>
  </g>
</svg>
