<svg xmlns="http://www.w3.org/2000/svg" viewBox="0 0 90.82 93.03">
  <title>rear camera people</title>
  <g id="Layer_2" data-name="Layer 2">
    <g id="Layer_3" data-name="Layer 3">
      <g>
        <g>
          <path d="M81.3,25c-.34-1.3-.5-3.59-.76-4.31-.65-1.76-4.6-6.41-6.71-5.77-1.91.59-1.86,6.7-4.56,7.92a3.11,3.11,0,0,1-3.87-.89c-1.41-1.84.36-4-.22-5.44-.35-.89-3.54-.16-5,.42a8.06,8.06,0,0,0-2.56,1.84c-.53,1.34.7.91,1.06,1.89.69,1.91-.62,4.63,0,6.51.39,1.19,1.72,1.26,1.64,2.78-.06,1.1-1.08,1.2-1.38,1.87-.89,2,.16,4.39-.64,6.55-.07.18-.64.25-.68.35-.26.6-.43,1.37-.73,2.1a14.86,14.86,0,0,1-1.73,2.4c-1.37,2.07-1.09,2.67,1.44,3.62a30,30,0,0,0,6.83,1.84c-.51-1.3,1.47-1.06,1.64-1.16a8.49,8.49,0,0,1,2-1c.57-.15.38.72,1.29.34,1.82-.74,1.88-4.06,4.09-4.49,1.86-.37,2.73,1.31,3.71,2.24-1.31,1.11-4.16,5.19-3.39,6s5,1.09,5.76.55c2.19-1.61,1.12-7.47,1.21-9.68.12-2.8,1.07-6.49,1.35-8.85C81.38,30.52,81.86,27.1,81.3,25Z" style="fill: #e44e3d"/>
          <path d="M4.78,59.16c-1.19-1.36-3.19,4.2-3.31,4.53a22.28,22.28,0,0,0-1,9.15c.17,2.21-.23,4.62.17,6.86.32,1.83,1,5.17,1.77,1.8.8-3.68-.21-8,.52-11.81C3.17,68.18,5.73,60.26,4.78,59.16Z" style="fill: #3b94cc"/>
          <path d="M55.1,81.07c-.42-2.24-1.07-6.18-2.84-7.14-.19-.1-1.48.31-2,0s-.81-2.94-1.1-3.62c-1.92-4.57-4.37-9.59-9.51-11.22-1-.33-3.07-1.22-4.22-.94-1.88.47-1,.88-1.15,2.07-.71,4.76-2.05,9.33-2.64,14.22.1-.81-.19,1.24-.28,1.59-1.49-2.38-.85-5.73-.34-8.29.44-2.19,2.09-6.36.46-8.41-2-2.52-.88,2.64-1.38,4C28.2,68.65,24.89,72.57,26,78.6c.4,2.13,1,4.08,1.17,6.35a50.94,50.94,0,0,1,.34,5.27c0,.53.48,4.56,1.08,1.92.72.65,2,.08,2.81.13s1.71.35,2.64.47c1.34.17,3,0,4.42.12,5.2.33,3-5.39,3.64-9.26,2.29,2.73,5.6,5.66,9.31,4.54C54.28,87.28,55.67,84.08,55.1,81.07Z" style="fill: #3b94cc"/>
        </g>
        <g>
          <path d="M40.74,42.41Z" style="fill: #2d3f51"/>
          <path d="M75.48,45h0Z" style="fill: #2d3f51"/>
          <path d="M70.63,9C70.33,9,69,9,69,9.48c-.16,0-.17.14-.15.25s1.19.19,1.4.1c1-.4-.75-.29-1-.32a6.15,6.15,0,0,1,1.47-.31C70.78,9.11,70.74,9.05,70.63,9Z" style="fill: #2d3f51"/>
          <path d="M66.15,9.87c.16,0,.66,0,.6-.28s-1.3-.16-1.4-.17c.19-.09,2,.13,1.26-.37-.53-.36-1.86.38-1.64.49C64.93,9.87,66,9.87,66.15,9.87Z" style="fill: #2d3f51"/>
          <path d="M66.79,11.87c-.15-.11-.35-.15-.48-.29s.79-1.32.08-.69-.35.89.22,1.14h0C66.73,12.08,67,12,66.79,11.87Z" style="fill: #2d3f51"/>
          <path d="M67.67,12.19s.91-.39.45-.38S67.46,12.29,67.67,12.19Z" style="fill: #2d3f51"/>
          <path d="M68.57,11.16c.89.3-.16.65,0,1s.66-.53.52-.85C68.82,10.61,68.43,11.12,68.57,11.16Z" style="fill: #2d3f51"/>
          <path d="M69.23,13.37c-.42-.08-3.72.12-3.74,0,.08.34,1.8.32,2.08.3a5.88,5.88,0,0,0,1.1-.12S69.65,13.45,69.23,13.37Z" style="fill: #2d3f51"/>
          <path d="M74.51,3.74h0Z" style="fill: #2d3f51"/>
          <path d="M64.33,5.52c.14-.07.14-.14,0-.2S64.2,5.45,64.33,5.52Z" style="fill: #2d3f51"/>
          <path d="M72,7.2h0Z" style="fill: #2d3f51"/>
          <path d="M66.18,48.19Z" style="fill: #2d3f51"/>
          <path d="M66.18,48.19h0Z" style="fill: #2d3f51"/>
          <path d="M65.44,49h0Z" style="fill: #2d3f51"/>
          <path d="M21.62,54.37h0l.4.08A1.9,1.9,0,0,0,21.62,54.37Z" style="fill: #2d3f51"/>
          <path d="M37.14,59l.09,0s0-.05,0-.07A.17.17,0,0,0,37.14,59Z" style="fill: #2d3f51"/>
          <path d="M90.82,55.32a.26.26,0,0,0-.24-.33c.16-.59-4.85-1.38-5.45-1.53-2.36-.59-4.73-1-7.08-1.72,2.06-1.46,1.14-3.4,2-5.4,1.08-2.55,2.51-4.93,3.78-7.37,1.12-2.16,1-5.22.64-7.56a11.2,11.2,0,0,0-1.15-3.16,9.85,9.85,0,0,0-2-2.73c.05-2.42-.45-6-2.59-7.42a13.05,13.05,0,0,1-2.36-2A4.72,4.72,0,0,0,75,14.87c-.38-.17-1.61-.55-2-.21-.11-.18-.58-.3-.76-.34.15-.33.32-.63.46-1v0a3.81,3.81,0,0,0,.17-.51c1.56.86,1.86-1.32,1.93-2.35.09.2.62.58.71.17,1-.57.72-2.26.74-3.22,0-2-.63-2.3-1.74-3.73h0l0,0h0A11.12,11.12,0,0,0,71.13.34,2.3,2.3,0,0,0,69.34.08c-.58.14-1.53.43-.93,1.13-1.12.35-1.93-.06-3.07.68a4.75,4.75,0,0,0-2.12,3.28c-.09.63-.45,5.78.72,4.31-.3,2.09-.52,4.42,1,6.15s6,1.08,7.14-.94c.2.18.52.17.73.3.4,2.06-.75,4.94-2.06,6.5-.89,1.07-2.37,2.12-3.86,1.88s-2-2.08-2.15-3.44a7.58,7.58,0,0,1,.14-2.42c0-.18.44-1.71,0-1.18a6.61,6.61,0,0,0-.42,2.12,8.49,8.49,0,0,0,.26,2.75c1,3.66,4.84,2.25,6.59,0l0,0c1-1.31,2.51-4.6,1.92-6.32a3.32,3.32,0,0,1,3,1.23l0,0A9.43,9.43,0,0,0,78,17.92a7.15,7.15,0,0,1,1.65,1.17c1.06,1.33,1.21,3.59,1.44,5.23h0a6.69,6.69,0,0,1,0,1c-.25-.12-.07.25,0,.31-.15,3.77.42,7.64-.79,11.26a22.51,22.51,0,0,1-4.58,7.81,2.84,2.84,0,0,0-3.68-2.46,32.41,32.41,0,0,0,2.34-4.44,16.87,16.87,0,0,0,.68-4.68,35.12,35.12,0,0,0,0-4.92c-.15-1.73-.39-1-.2.41v0a27.58,27.58,0,0,1-.28,7.8A11.23,11.23,0,0,1,73,40.25c-.25.38-1.64,2-1.5,2.38a.22.22,0,0,0-.08.23,10.1,10.1,0,0,1-3.52,4.27c-.7-1.26-1.43-.58-2.4-.14s-1.76.11-2.24,1.1c-2.92-.85-6-1.65-8.94-2.3q0-.9.15-1.8a12.49,12.49,0,0,0,2.19-2.48c.22-.29.63-2.63.36-2.63a21.38,21.38,0,0,0-.53,2.67c-.61.72-1.33,1.35-2,2,.11-1.08.22-2.17.39-3.24.06-.44.41-1.36.23-1.78.32,0,2.61.44,2.73.07,1.12.47.77-6,.82-6.68,1.71,1,2.69-4.78.13-4.16.08-2.41.68-5.4-.12-7.71.6-.41-1.21-.69-1.27-.7a5.84,5.84,0,0,1,3.6-2.7c.31-.09,4-.71,3.52-1.2-.07-.08-.15,0-.19.09l0,0a1.74,1.74,0,0,1-1.24.59h0l-.57.09h0c-2.06.27-4.4,1.11-5.36,3.14-2.29-.2-4.57-.4-6.86-.56-1.12-.08-2.24-.23-3.36-.26a4.94,4.94,0,0,0-1.8.09c-.22.11-1,.68-.51,1,0,2.54-.15,4.94-.31,7.45-.91,0-1,2.73-.39,3.16s0-.41,0-.5a4.44,4.44,0,0,1,.21-2.32l.16,0c0,1.62,0,3.23.07,4.84,0,1.2-.28,2.75,0,3.9-.36.36.65,1,.88,1.07-.11.08-.17.33-.21.43v0c-.67,1.6-1.36,3.1-3.16,3.42-.92.16-1.43.22-1.26,1.38h0v0h0v0a60.37,60.37,0,0,1-7-2.72c-.06-.19,0-.57-.22-.64.2-2,.88-5-1.45-5.87.5-.17,1.63-.33,1.33-1.06v0c-.24-.59-1.15-.46-1.63-.66-.72-.3-1.38-.79-2.14-1.11-2.94-1.22-5.47-1.14-8.55-.72h0c-3.2.41-6.15,1.43-8.13,4.13S10.08,39.85,9.41,43a13,13,0,0,1-.91,3.31c-.9,1.82-1,3.9-1.53,5.83a16.61,16.61,0,0,1-1.74,4,34.16,34.16,0,0,0-2.39,3.57,25.69,25.69,0,0,0-1.67,4.48c-.23,1-.48,1.93-.65,2.91A16.43,16.43,0,0,0,.41,69C0,72.89-.45,77.45.93,81.2c.11.29.77,2.58,1.16,2.54s-.57-2-.65-2.27a18.81,18.81,0,0,1-.92-5.68A32.7,32.7,0,0,1,1.87,63.85a21.94,21.94,0,0,1,1-2.47,6,6,0,0,1,1-1.54c.13-.14.74-.54.79-.67.31-.79-1.12.56-1.23.68A7.92,7.92,0,0,0,2.1,62.16v0c-.38.91-.63,1.8-.93,2.73A33,33,0,0,1,3,59.77H3c.88-2.05,2.49-3.67,3.44-5.71,1-2.2,1-4.68,1.83-6.93A18.93,18.93,0,0,0,9.21,45c.32-1.28.52-2.56.9-3.83.82-2.69,1.4-5.11,3.12-7.38h0c2.09-2.67,5-3.48,8.2-3.94h0a15.11,15.11,0,0,1,8.18.75,17.15,17.15,0,0,1,1.72.84c.47.24,1.6.22,1.9.68l0,0c.54.81-1.08.58-1.31,1,0,0-1.27-.36-1.27-.14A8.79,8.79,0,0,1,33,34c.59.74.5,2.21.48,3.1a8.76,8.76,0,0,1-1.76,5.69c0-.17.08-1.2-.17-1.2s-.09,1.25-.08,1.52c-.05.07-.12.18,0,.22.25,3-1,6.38.36,9.19.54,1.12,1.58,1.91,2.08,3,.21.45.23,2.65.37,2.65.4,0,0-2.47-.14-2.87A20.73,20.73,0,0,0,32.47,53a3.83,3.83,0,0,1-.82-2.39A15.27,15.27,0,0,1,32.8,48.5a7.17,7.17,0,0,0,.52-5c-.33-1.35.76-2.23.49-3.65,1.43.7,2.94,1.21,4.41,1.82h0c.84.36,1.69.69,2.55,1,0,.75-.3,2.12.75,2.16.12.18.9.49,1,.21a.94.94,0,0,0,.72.25c-.35,1.7,3.06-.38,3.37-1.06,1.59.41,3.27.78,4.83,1.25-.16.4-1.28,2.28-1,2.67.41.56.76-.93.82-1.06v0c.18-.42.32-.85.5-1.26h0l0-.06,0,0c0-.08.07-.15.1-.23h0c0-.1,0-.19,0-.28h0c0-.1,0-.09.06-.16h0c.06-.35.11-.69.16-1v.06c.06-.49,1-5.84.65-5.87s-1,5.24-1.1,5.88h0c0,.2-.06.39-.08.59v-.06c0,.11,0,.21,0,.32-1.58-.45-3.24-.76-4.83-1.16a3.29,3.29,0,0,0-.05-1.29c.14-.09.13-.79.18-1A4.74,4.74,0,0,1,47.76,40c.31-.39,2.43-1.73,2.44-2.12,1.53.25,3,.53,4.59.68-.33.41-.29,1.74-.35,2.24-.18,1.63-.45,3.3-.48,4.94l-.06,0a2.36,2.36,0,0,0,0,.29h0l0,.17.09,0a4.24,4.24,0,0,1-.2,1.51c-.16.4-.73.78-.73,1.24a23.37,23.37,0,0,0-4.35-.84,7.07,7.07,0,0,0-3.78,1.76h0c-1.93,1.49-.19,2.68,1.63,3.3a15.55,15.55,0,0,0,5.74,1.11c1.4-.09,4.14-1.32,4.71-2.77.7-1.76-2.54-2.31-3.67-2.51a5.67,5.67,0,0,0,1-2.72c2.94.71,6,1.43,8.86,2.28,0,.31.25.43.42.65-.57,1,.49.89,1.15.77-.38,1.29.88,1.36,1.74.82.35.73,1.66.26,2.13,0,.41,1.34,2,.38,2.6-.35,3.36.73,6.63,1.83,10,2.67,3,.76,6.21,1.07,9.15,2.06a156.55,156.55,0,0,1-13,15.19c-3.85-1.28-7.8-2.32-11.67-3.58-4-1.32-8.15-2.23-12.22-3.38.73-1.51,2.06-2.68,2.68-4.24.32-.83.31-2.77-1-1.72.08-.85-.68-1.86-1.57-1.32-.17-.9-1.37-1.1-2.08-.73a1.06,1.06,0,0,0-.41-.31c.23-.41-.71-.21-.77-.19a3.09,3.09,0,0,0-1.38,1.72c-.46-1-1.77,1.12-1.83,1.67-.14,1.21.42,2.34.55,3.53-1.39-.48-2.84-.74-4.23-1.25a4.11,4.11,0,0,1,.27.56c1.31.45,2.68.7,4,1.14,0,.21,0,.42,0,.63A17.42,17.42,0,0,0,44.48,62c-2.59-2.89-6.44-3.78-10.23-3.46a6.46,6.46,0,0,0-2.41-2c-.55-.34-2.28-1.28-1-.2,1.61,1.4,3.94,1.88,3.33,4.58-.48,2.08-1.66,3.94-2,6.08-.38,2.41-.22,4.9-.55,7.33v0c-.17.91-.39,1.8-.59,2.7a13.91,13.91,0,0,1-.87-5.92,43,43,0,0,1,1.33-5.46A14.07,14.07,0,0,0,32.24,61a3.09,3.09,0,0,0-1-2c-.2-.2-.88-1-1.11-.83-.05-.22-.05-.63-.33-.65s.23,1.65.24,1.73a7.88,7.88,0,0,1,.16,2.52,11.23,11.23,0,0,1-1.8,4.46,27.78,27.78,0,0,0-2.21,6.18,11.08,11.08,0,0,0-.43,5.48c.32,1.73.85,3.39.54,5.16-.12.73-1,2.47-.7,3.12.2.44.32-.16.39-.27a9,9,0,0,0,.59-2.37c.43-2-.11-3.75-.48-5.71-.47-2.51.25-4.53.81-6.94A16.17,16.17,0,0,1,27.78,68c.58-1.34,1.51-2.5,2-3.84a9.15,9.15,0,0,0,.36-5.82c.63.52,1.65,1.23,1.76,2.12v0c.25,2.28-.5,4.67-1.12,6.86a21.49,21.49,0,0,0-1,3.87,16.05,16.05,0,0,0,.34,4.1v0a9,9,0,0,0,.63,2.27c.24.57,0,.9.47,0,.87-1.74.86-4.29,1-6.2a24.79,24.79,0,0,1,1-6.7c.62-1.78,2-3.91,1.11-5.81a16.33,16.33,0,0,1,7,1.15v0l0,0a6.86,6.86,0,0,1,2.84,2.35h0c3.21,3.56,4.46,8.66,6.13,13a27.43,27.43,0,0,0,1.47,3.1c.19.37,1.42,2.6,1.58,2.2S51.89,78,51.63,77.48c-.53-1.06-1-2.12-1.39-3.22,1-.36,1.92.11,2.9.27.28,2.78,1.08,5.55,1.51,8.31,0,.24,0,1.9.32,1.57.67-.64-.31-3-.41-3.71v0c-.13-1-.36-2-.49-3h0c-.57-4.27-1.8-8.67-1-13,4.54,1.13,9,2.24,13.46,3.65,2.14.67,4.31,1.27,6.39,2.11.41.16,3.83,1.89,4.15,1.31.06-.1-9.89-3.56-10.9-3.88-4.32-1.35-8.64-2.4-13-3.49.05-.22.08-.45.14-.66,4.18,1.18,8.38,2.19,12.53,3.51,3.76,1.19,7.55,2.32,11.31,3.53,0,.67-.19,1.66.57,1.3.46-.22,1-1.12,1.35-1.52.59-.67,1.22-1.31,1.8-2,0,2-.24,3.94-.12,6a46.33,46.33,0,0,1-.21,6.34,49.61,49.61,0,0,0-.2,6.1c0,1.05,0,2.11,0,3.17,0,.38-.24,2.37.23,2,.29-.26.09-2.38.1-2.8,0-1.13,0-2.24,0-3.36a52.59,52.59,0,0,1,.31-5.61,38.39,38.39,0,0,0,.09-6c-.06-.71.35-5.86,0-6,.16-.18.32-.36.49-.53a.31.31,0,0,1,.3-.32c1.68-1.73,3.19-3.65,4.8-5.45.62-.7,1.24-1.4,1.82-2.14.36-.46,2.11-2,2.14-2.51C91,57.23,90.71,55.72,90.82,55.32ZM63.9,9a1.29,1.29,0,0,1-.38.48C62.9,7,63.1,3.7,65.44,2.12a4.22,4.22,0,0,1,2.27-.65c.55,0,.74.12,1-.28.06-.1-.33-.32-.24-.49s.88-.4,1.16-.45h0l.18,0h0A3,3,0,0,1,71.88,1h0A12.43,12.43,0,0,1,74.3,3.78c1.13,1.58,2,2,1.74,4.18v0c-.11.75.18,2.1-.58,2.56a.4.4,0,0,0-.18-.1h0c-.22-.09-.23-.43-.48-.44,0-.07,0-1.76-.39-1.21,0,0,.16,1.14.16,1.21-.26-.13-.62.07-.85.18-.26-.49-.3-.47-.59-.94s0-1.29-1-1.34c-.29-1.06-.5-.69-1.25-.09h0l0,0c.06-.23.14-1.6-.25-1.76-.09,0-.64,1.13-1.09,1.25A1,1,0,0,0,68.78,6c-.15,0-.22.42-.4.45s-.41-.16-.52-.13l-.54.24c-.71-.2-.59-1.13-1.06-1.42s-.52,1.49-.51,1.58c-.36-.19-.81-.47-.91-.89,0-.18.28-.76.14-.84s-.38.66-.38.77a12.41,12.41,0,0,0-.44,2.61v0c0,.22-.07.45-.11.67A.14.14,0,0,0,63.9,9Zm9.38.56Zm0,0h0ZM72.21,7.86h0S72.21,7.85,72.21,7.86Zm-.55,7c-1.24,1.55-4.09,1.84-5.82,1.17h0c-3.38-1.42-1.57-7.53-1.24-10.12.08.28.78,1,1.12,1,.56,0,.28-1,.46-1.53.17.53,1,1.82,1.52,1a.68.68,0,0,0,1.12-.24,1.39,1.39,0,0,1,.57.53c.06.17-.13.58-.08.65.44.54,1.23-.52,1.34-1,.22.61-.17,1.64.4,1.5.18,0,.47-.66.64-.64.35,0,.16.35.34.49a3.12,3.12,0,0,1,.57.47c.27.38.36,1.67.88,1.56-.17,1,.71.15,1.08.45,0,.87-.14,3.22-1.64,2.37,0-.22-.44,0-.28.2A6.53,6.53,0,0,1,71.66,14.86Zm-38,26.23c-.11.63-.59,1.13-.65,1.78a8.62,8.62,0,0,0,.38,1.87c.29,2-.8,3.86-1.73,5.54a15.76,15.76,0,0,1,.05-3.5,18.13,18.13,0,0,0,.08-3.68,8.38,8.38,0,0,0,1.67-3.38A3.59,3.59,0,0,1,33.64,41.09ZM58.8,28.35c1.32.2,1.14,1,1,2.26h0c0,.1,0,.21,0,.31h0c-.1.8-.5.4-1,.69,0-1.09,0-2.16.08-3.25Zm-12.39,16c-.27.45-2.19,1.86-2.76,1.51-1.23-.73,2.18-1.82,1.94-2.23-.06-.11-1,.57-.84.51.67-2.19-.48-.24-.29.17-.34.22-1,.42-1.13.84-1.16-.56-.49-.81-.25-2,.33-1.72-.92,1.35-.64,1.81-1.64-.24.07-2.44-.39-2.57s-.63,2.1-.61,2.31c-.8,0-.6-1.33-.58-1.9h0c-.46-1.46.79-1.46,1.79-1.6,0,.09,2.35.26,2.7.41h0A2,2,0,0,1,46.41,44.32Zm3.32-6.43c-1.49,1.11-3,2.31-3.22,4.31A3.09,3.09,0,0,0,43.76,41h0c-.17,0-.31-.09-.48-.14.69-.45,2.49-2.7,2.23-3.65,1.4.36,2.88.32,4.3.56Zm4.86.19c-1.58-.15-3.14-.43-4.71-.69-1.32-.21-3.89,0-4.83-1.06,0-.56-.19-1.38-.19-2,0-1.68-.09-3.36-.08-5s.23-3.18.3-4.78S45,21.22,45,19.57c.11-.13,0-.31.17-.45s1.24-.12,1.6-.1c1.35,0,2.71.21,4.06.28,2.35.14,5.23,0,7.48.73-.09.29.28.83.33,1.16a17.44,17.44,0,0,1,0,3.15c0,1.82-.25,3.62-.32,5.44s0,3.85,0,5.78a6.28,6.28,0,0,1-.16,2.33c0,.06-.44.54-.43.52C56.71,38.22,55.62,38.17,54.59,38.08Zm-.35,11.69c1.06.34,3.18.68,1.87,2a5.93,5.93,0,0,1-4.61,2,15.18,15.18,0,0,1-5.56-1.54c-.39-.21-1.18-.59-1.34-1.05-.1-.27.3-.57.08-.85,1.37-.88,2.91-1.91,4.59-1.7A28.29,28.29,0,0,1,54.24,49.77ZM80.09,38.91c1.75-4.14,1.12-8.68,1.25-13A12,12,0,0,1,84.43,35a10,10,0,0,1-.57,3.24,20.87,20.87,0,0,1-1.5,2.36c-1,1.75-1.56,3.75-2.53,5.54.06-1.84-.21-3.76,0-5.6h0A4.24,4.24,0,0,0,80,39.18Zm-4.8,5.23v0h0Zm0,0h0v0Zm-3.74-1.64v0Zm-8.11,6.23c-.13-.22.3-.48.17-.62a1.84,1.84,0,0,1,1.47-.79h.08a5.74,5.74,0,0,0-1,1h0s0,0,0,.06a1.82,1.82,0,0,0-.15.27.53.53,0,0,0-.21.34,1.29,1.29,0,0,0-.19-.21h0Zm1.31,1.2Zm6.18.5c-.28.27-1.24,1-1.67.83s-.24-.34-.44-.57a6.4,6.4,0,0,0,.83-.62h0c.06-.13.33-.31.43-.4h0c.19-.19.09-.26-.06-.33s-.9.78-1,.84c-.61.48-1.64,1.12-2.36.5.58-.44,1-1,1.57-1.47h0a.3.3,0,0,0,.08-.08l0,0c.29-.35-.77.42-.86.51a4.38,4.38,0,0,1-1.53,1.19c-1.06.31-.87-.22-1-.91a22.57,22.57,0,0,1,1.93-2.07c-.09-.16-.61.3-.68.35h0a7.18,7.18,0,0,0-1.34,1.56c-.52-.11-1.65.47-1.15-.48,0,.08-.08.25,0,.28s.27-.62.34-.75h0c-.06-.62,1.85-1.95,2.44-2,.78-.11.54.3,1.07.43a4.38,4.38,0,0,0,1,.07,10.15,10.15,0,0,1,1.79.59c.22.06.76.12,1,.21a5.22,5.22,0,0,1,.67.53c.13,0-.1-.42-.16-.46a1.23,1.23,0,0,0-1.31-.3c-.34-.65-1.14-.23-1.41-.57h0a.74.74,0,0,0-.77-.21A10.22,10.22,0,0,0,71.59,43c.2,0,.47-.33.71-.41a2.66,2.66,0,0,1,1.48.07C74.94,43,75.15,44,75.48,45c-.48.79-1,1.67-1.52,2.4A13.22,13.22,0,0,0,72,50.09l-.21,0c.07-.25-.26-.13-.35-.08l-.13,0a.57.57,0,0,0-.08.13h0a.32.32,0,0,1-.2.14.39.39,0,0,1-.17.14H71Zm5.82,1c-1.49-.38-3-.87-4.45-1.23a21,21,0,0,1,2.16-3c.46-.67.9-1.39,1.32-2.09.34.08,1.4-1.68,1.64-2a23.43,23.43,0,0,0,2.3-3.44c-.09,1.28-.06,2.55-.11,3.83,0,.64-.4,2.88,0,3.36a9.47,9.47,0,0,1-.23,3c-.31.92-.85,1.23-1.59,1.84ZM54.14,80.22h0ZM50.58,55h0Zm-3.1,12a17.92,17.92,0,0,0-2.76-4.63c1,.19,2,.57,3,.85a17.32,17.32,0,0,1,0,4.07h0c0,.1,0,.2,0,.3A3.14,3.14,0,0,0,47.48,67Zm5.4-3.3c-.9,3.3-.15,7.26.23,10.58a4.46,4.46,0,0,0-3-.3c-.79-2-1.53-4-2.28-6.06.41-.32.24-2.38.23-2.85a29.59,29.59,0,0,0-.24-3.52h0c-.14-1.07-.73-2.1-.59-3.19h0v0h0v0h0c.08-.57.55-1.83,1.39-1.55,0,.09.08.42.25.23.21.17,1.21-2.57,2-1.89-.13.13.37.39.44.52h0c.22.47,1.59-.44,1.93.75-.5.51.69,0,.83,0a.8.8,0,0,1,.74.78c0,.24-.21.69-.17.81.21.6.28,0,.61-.13,1.14-.37,1.13.28.65,1.34-.68,1.53-2.11,2.63-2.86,4.15l-.06,0A.57.57,0,0,1,52.88,63.65Zm37.31-6.18c-4,4.88-8.59,9.22-12.66,14l0-.66a.21.21,0,0,0,.1-.25,40,40,0,0,0,3.8-3.9l0,0c2.82-3.59,6.36-6.72,8.84-10.58,0,.27-.28,1,0,1.28Z" style="fill: #2d3f51"/>
          <path d="M44.89,49.85Z" style="fill: #2d3f51"/>
          <path d="M51.78,45.87h0Z" style="fill: #2d3f51"/>
          <path d="M45,25.91v0Z" style="fill: #2d3f51"/>
          <path d="M45.7,35.67c.16,0,0-6.31.08-7,.17-2.65-.1-5.26.07-7.9,1.4-.32,3,.42,4.36,0,.72-.22,1-.85,1.86-.54.39.14.65.55,1,.71a5.28,5.28,0,0,0,2,.15,6.06,6.06,0,0,1,2.55.31c-.44,1.12-.32,15.62-.41,15.62.42,0,.25-6.92.31-7.75.11-1.66.3-3.37.32-5a15.39,15.39,0,0,0,0-2.94c.28-.68-2.69-.54-2.86-.54a4.76,4.76,0,0,1-1.92-.21c-.47-.2-.77-.69-1.31-.76-.78-.09-1.21.54-1.91.68-.34.07-4.52-.37-4.4.21-.44.5-.1,2.35,0,3.08a25.73,25.73,0,0,1,0,4.3C45.46,28.76,45.25,35.8,45.7,35.67Z" style="fill: #2d3f51"/>
          <path d="M47.25,36.2h0Z" style="fill: #2d3f51"/>
          <path d="M56.35,37.51c.19,0,1.2.08.77-.37-.14-.14-1.17,0-1.38-.06-1.08-.11-2.61-.78-3.59,0h0c-.76.6-1.49-.35-2.11-.68a17,17,0,0,0-4.55-.45c0,.18,1.54.25,1.76.28h0a6.82,6.82,0,0,1,2.8.63c.56.32.89.8,1.63.71s.91-.49,1.56-.53A20.47,20.47,0,0,1,56.35,37.51Z" style="fill: #2d3f51"/>
          <path d="M82.23,72.17c0-1-.14-1.93-.16-2.9,0-.25.15-2.1-.35-1.46-.36.48,0,2.49.06,3.17a29.35,29.35,0,0,1,.06,3.11c-.25,4.59-.61,9.16-.56,13.77a30,30,0,0,0,0,3.67c.11.77.25,1,.5.17a11.08,11.08,0,0,0,0-2.64c0-1.28,0-2.56,0-3.84C82,80.89,82.39,76.49,82.23,72.17Z" style="fill: #2d3f51"/>
          <path d="M85,67.92c-.05-.4,0-3.37,0-3.36-.49,0-.41,2.26-.39,2.7.12,2.39.08,4.74,0,7.14-.07,2.58,0,5.15,0,7.73,0,2.32-.23,4.62-.19,6.93,0,.25-.06,2.69.23,2.61s.18-2.09.18-2.43c0-2.31.25-4.61.24-6.93,0-2.54-.16-5.09-.1-7.63A43.59,43.59,0,0,0,85,67.92Z" style="fill: #2d3f51"/>
          <path d="M21.1,29.67h0Z" style="fill: #2d3f51"/>
          <path d="M5.37,58.81c-.19-.05-.38,1.1-.23.57-.1,0-.12.11,0,.18-.45,1.6-.75,3-1,4.67a64.36,64.36,0,0,0-1.29,6.44c-.24,2.77-.51,5.58-.65,8.35-.11,2.15.11,4.38.07,6.55,0,1.18-.1,2.35-.15,3.53a8.26,8.26,0,0,0,0,2c.43,0,.26-.69.29-1.18.13-2.67.35-5.39.24-8.06A69.15,69.15,0,0,1,3,70C3.08,69.48,5.28,58.78,5.37,58.81Z" style="fill: #2d3f51"/>
          <path d="M53.29,86.86a6.12,6.12,0,0,1-4,1.07,6.51,6.51,0,0,1-4-1.12,10.13,10.13,0,0,1-2.58-3.46,2.67,2.67,0,0,1-.26-1.53c0-.08.36-1.11,0-1,.09-.58.28-1.88-.23-.5a7.51,7.51,0,0,0-.21,2.26,57.29,57.29,0,0,1-.29,5.85c-.06.48-.38,2.53-.1,3,.45.72.38-1.66.39-1.84,0-1.08.33-2.12.36-3.19A28.83,28.83,0,0,1,42.2,83a8.88,8.88,0,0,0,1.68,2.52l0,0a5.84,5.84,0,0,0,2.2,2.13h0l0,0h0a11.87,11.87,0,0,0,3.08.56h0a8.22,8.22,0,0,0,2,.08,3.55,3.55,0,0,0,1.77-.64C53.09,87.5,53.75,86.58,53.29,86.86Z" style="fill: #2d3f51"/>
          <path d="M46.06,87.61Z" style="fill: #2d3f51"/>
          <path d="M46.06,87.61Z" style="fill: #2d3f51"/>
          <path d="M47.24,58.29h0v0Z" style="fill: #2d3f51"/>
          <polygon points="47.74 67.24 47.74 67.24 47.73 67.25 47.74 67.24" style="fill: #2d3f51"/>
          <path d="M47.73,67.26h0Z" style="fill: #2d3f51"/>
          <path d="M55,61l0,0Z" style="fill: #2d3f51"/>
          <path d="M52.52,55.23h0Z" style="fill: #2d3f51"/>
        </g>
      </g>
    </g>
  </g>
</svg>
