<svg xmlns="http://www.w3.org/2000/svg" xmlns:xlink="http://www.w3.org/1999/xlink" viewBox="0 0 442.5 368.81">
  <defs>
    <clipPath id="clip-path" transform="translate(99.21 66.63)">
      <rect width="221.99" height="221.99" style="fill: none"/>
    </clipPath>
  </defs>
  <title>subject lighting 3</title>
  <g id="Layer_2" data-name="Layer 2">
    <g id="illustration">
      <g style="clip-path: url(#clip-path)">
        <rect width="412.93" height="357.82" style="fill: #e5e9eb"/>
        <path d="M156.22,46.55c-4.22-5.7-9.1-11-12-17.5a11.6,11.6,0,0,0-2.4-4.06c-2.08-1.89-5.47-1.63-7.86-.16l-.4.28c-4.2.51-8.66-1.52-13-2.42a25.45,25.45,0,0,0-23.67,7.68c-3,3.3-5,7.32-7,11.28q-3.68,7.26-7.34,14.52C81,59.27,79.4,62.45,79,65.89c-.23,1.9-.11,3.87-.72,5.69S76,75.07,74.08,74.86C76.9,79.1,75.68,85,72.62,89.12S65,95.86,60.7,98.54c-2.55,1.57-5.27,3.45-6,6.35-.54,2.13.12,4.36.49,6.52a25.3,25.3,0,0,1-7.06,21.9c-2.29,2.26-3.62,3.78-3.36,7.14.15,1.88.23,4.77,1.17,6.45,3,5.42,8.07-1.58,9.08-4.8.74-2.36,1.35-4.89,3-6.72,3.25-3.55,9.14-2.92,13.37-.64s7.71,5.87,12.09,7.87c2.83,1.29,6.53,1.73,8.78-.42a9.94,9.94,0,0,0,2.26-4.51c1.24-4.09,2.49-8.42,1.55-12.59-.57-2.53-1.93-5-1.54-7.57.29-1.94,1.55-3.57,2.61-5.23,9.45-14.72,5-34.69,12.23-50.61,3.73-8.22,10.3-14.75,16.26-21.62a4.37,4.37,0,0,0,.22.67,11.44,11.44,0,0,0,3.25,3.62,46.12,46.12,0,0,1,12.76,18.43c1,2.58,1.19,8.21,3.77,8.87,1.92.48,5.07-.4,7.06-.56l7.34-.57a5.2,5.2,0,0,0,2.55-.65c1.23-.83,1.52-2.5,1.53-4C164.16,58.79,160.44,52.24,156.22,46.55Z" transform="translate(99.21 66.63)" style="fill: #e5e9eb"/>
        <path d="M145.69,65.93a39.2,39.2,0,0,1-.47-4.2c0,.1,0,.2,0,.3.08-14.27,1.43-16.69-12.79-23.92-4.27.67-9.51,1.88-14.59.33-3.4-1.37-9-.22-6.72,5.16.35,2.12,3.63,4.53,1,6.89l.23-.23c-7.41,7.81-14.61,3.6-10.8,27.93-2.09,6-1.88,12.34-1.12,19.12l0-.24a33.66,33.66,0,0,1-.39,9.53l.15-.59c-2.24,8.7-.12,6,4.62,13.13l-.11-.44c.21,1.35,1.11,2.6,2,4.32l-.07-.12c.54,1.75,2.5,9.42,4.76,3.89.14.36.42,1.12,1.2,1.24h0a25.63,25.63,0,0,1,10,7.28c8.63.94,15.11,2,15-22.13l0,.36c0-4.94-2.24-10.41-.13-15.41,3.65,4.64,3.14-21.32,4.52-23.19C142.12,73.56,146.81,71.94,145.69,65.93Zm-32-24.19s0,0,0,0Z" transform="translate(99.21 66.63)" style="fill: #fbd8d3"/>
        <g>
          <path d="M135.27,104.55a10,10,0,0,0,.85,4.55l-.06-.11c2.12,3.48,3.35,8.36,1.6,12.76h0c0,1.93.64,2.85,2.41-.29,1.24,1.25,1.46-12.84,1.05-17.43l0,.32C141.7,102.66,135.69,88.46,135.27,104.55Zm4.2-1.24a3.64,3.64,0,0,1,.15.86C139.65,104,139.49,104.19,139.47,103.31Zm-2.67-1.45.06-.08-.06.27Zm-.09,1.19c0,.2,0,.39,0,1C136.71,103.83,136.54,104.17,136.71,103.05Z" transform="translate(99.21 66.63)" style="fill: #3b94cc"/>
          <path d="M192.77,209.29c-.82-4.84-1.58-5.31-1.79-13.58-.09-1.23-4.83-.08-9.33.28-2.2-2.36-1.63.71-4.48.3-1.74-2.09-1.81,1.44-4.07-.69-2-.31-.73,2.37-3.73.89-.86,0-.38.55-1.78.55-.92-.33-1.69-1.65-3.22.41-1.9-1-1.54-.88-3.59.31-1.8.44-1.2-1.74-4.36.46a1.62,1.62,0,0,0-2.92.13,1.7,1.7,0,0,0-2.83-.29c-1.45-2.07-2.27-1.93-4.25.48-.58-2-2.72-3.51-4.49-5.72-.32-9.1-.33-18.31-.21-27.9h0a28.85,28.85,0,0,0-.26-6.33l0,.33c-.59-4,1-8.81-.53-13.09h0a10,10,0,0,0-.86-1.42l.09.18c-1.47-2.35-2-5.15-3.07-8.23.64-.65.74-7.76-1.13-2.3-.65-1.33-4.65.68-6.37,4.18-8.69-5.55-5.41,2.12-11.74-4.68h0l-.27-.27.26.27c-8.14-11-7.73-3.53-11.51-10.11-1.79-1.85-2.21-5.12-4.73-8.25-.29-3-1.52-2.64-3.43-.6-4.77,5,.79,11.69-1.15,17.38l.17-.36c-5.86,8.68,1.94,6-8.92,11.69-1.62-2.29.3-2.55,1.7-5.4.92-7.26-3.61-.45-5.08,2.39-2.74-5.58-4.44-.27-6,2.58,1.25-2.8,1.37-5.42-4.57-5.88-.62-3.66-1.18-.24-3.85-4.69,1.21-2,.6-5.25-2.79-2.12.16-7-7.63-.49-9.64,3.05-3.51,6.5-3.1,13.89-4.89,21.31l.23-.89c-3,12.41-2.17,56.72,5.59,78.3l-.22-.85c2.94,11.09.79,7.94-.51,18.64-.1,3.36.66,15.4,4.79,13.68.39-2.45,18.64-3.22,21.5-3.79,21.26-.34,28.22-4.06,48.05-6.8,2.48.16,4.44-3.46,10.78-4.91l-.28.09c12-3.23,26.34-3.6,38.28-4.43,3.41-10.38,9.9-20.21,11.13-31.71l0,.23A20.74,20.74,0,0,0,192.77,209.29Zm-3.78-11a.94.94,0,0,1,0-.16H189C189,198.14,189,198.19,189,198.24Zm-4.78.35h0Zm-23.37,30.85-.05.54c0-.19,0-.38,0-.57Zm-43.34-7.78c.11-.51.23-1,.35-1.55,0,.37-.07.73-.22,1.88C117.59,221.88,117.55,221.77,117.5,221.66ZM84.72,226.4h0ZM65.41,201.09v0ZM100,207.81c0,.2-.09.39-.14.58,0-.22-.09-.44-.14-.66Zm17.12-6.28c.28-1.27.61-3,.93-4.58a9.48,9.48,0,0,1-1,4.87Zm21.41-20.62c-.08-.14-.23-.1,0-.41C138.57,180.63,138.57,180.77,138.56,180.91ZM93,177.14c-.07.26-.13.52-.2.78-.06-.61-.16-1.71-.33-2.74a2.25,2.25,0,0,0,.93.41C93.23,176.1,93.1,176.62,93,177.14ZM87,200.72c0,.92-.07,1.84-.11,2.77-.69-2,.23-4.94.32-7.44ZM60.88,185c-.22-1.83.53-4.06.8-6.36-.2,1.89-.44,4.18-.7,6.48Zm25.8,49.76c-.06.29,0,0-.13.73,0-.32-.06-.65-.09-1A2.62,2.62,0,0,0,86.68,234.79Zm4-8c0-1.44.11-3.2.17-5.08.1,1.85.13,4.27.16,6.54C90.6,228,90.55,227.68,90.65,226.79Zm5.89-3c0-.37,0-.73,0-1.1-.11.37.35,1.36-.11,2Zm7.46-9.72c.12-.2.12.1.65-.88,0,1.95.16,4.18.12,6.59a1.53,1.53,0,0,0-1.62-.09C103.4,217.83,103.67,216,104,214.09Zm6.74,8.44.69-4.26c-.09,2.27-.3,4.79-.5,7.42A5.47,5.47,0,0,1,110.74,222.53Zm22.4-2.81c.05.21,0,0-.09.5ZM61.63,205.85c.28.15.22.8.47,1.5C61.72,207.39,61.07,207.25,61.63,205.85ZM62,230.27c0-.18-.07-.35-.11-.53C62.06,229.85,62,229.72,62,230.27Zm18.18-.58c.09,1.2,1,2.38.55,4.08C79.56,233,80.2,231.33,80.14,229.69Zm-12-72.14c0-.06,0-.12,0-.17S68.27,157.44,68.13,157.55Zm15.8,91.09,0-.26a5.85,5.85,0,0,0,.8,1.49c-.23,0,0,0-1,.17ZM55.4,182.47a1.4,1.4,0,0,0,.68-.25c-.2,1.88.38,4.11-1.1,6.06.18-1.13-.16-3.27.19-5.86Zm7.68,76.16a1.36,1.36,0,0,0,.93-.11C64.2,258.56,63.61,259.75,63.08,258.63Zm120.35-60a2.33,2.33,0,0,0-.83.76c0-.22,0-.44-.06-.65ZM142,193.3l0,.25a2,2,0,0,0,0-.25Zm-4.87-57.09v0Zm-72.94-1.63c0,.29-.27.26-.75.52C63.65,134.92,63.9,134.75,64.16,134.58ZM184,232c-.15.3-.31.65-.76,1.5a6.84,6.84,0,0,0-.88-1.91,1.8,1.8,0,0,0,2-.45c-.16.33-.31.67-.48,1Zm6.9-21.55c-.08.8-.19,1.61-.26,2.41l0-.29a27.91,27.91,0,0,1-2.16,8.95,68.21,68.21,0,0,0,2.41-11.93A4.88,4.88,0,0,1,190.91,210.41Z" transform="translate(99.21 66.63)" style="fill: #3b94cc"/>
          <path d="M188.44,226.65l0,.08Z" transform="translate(99.21 66.63)" style="fill: #3b94cc"/>
        </g>
        <g>
          <path d="M213.75,239.75h0Z" transform="translate(99.21 66.63)" style="fill: #e5e9eb"/>
          <path d="M46.43,264.29h.17Z" transform="translate(99.21 66.63)" style="fill: #e5e9eb"/>
          <path d="M237.53,120.68v0Z" transform="translate(99.21 66.63)" style="fill: #e5e9eb"/>
          <path d="M142.53,72.63l.08-.11Z" transform="translate(99.21 66.63)" style="fill: #e5e9eb"/>
          <path d="M343.29,297.83q-2.55-38.1-8.13-75.92l.07,0c.12-.11.07-.17-.11-.19l0-.25-1.25.32c-5.23.64-23,4.75-25.22,4.26l.19,0c-.57.06-1.15.14-1.72.22l.19,0c-9.53,1.47-19.22,2.06-29.17,3.63l.13,0c-3.51.49-7.48.94-11.59,1.46l.18,0c-17.63,1.82-34.94,6.53-53,8.51-.3.41-11.84,1.76-15.57,3.41,1.56-3.33,3.13-7,4.82-10.87l-.05.13.15-.37-.05.13c3.48-6.9,5-14.89,8.51-22.27,1.95-1.69,5.29-8.24.5-13.41l0,.2c-3.11-8.46,10.4.86,14.83-8,1-16.62.58-32.84,1.31-49.89,9.34,5.18,12.12-9.84,9.26-18.12-1.11-1.68-1.06-5.27-6.93-4.29-.4,0-.73,0-1.81.16.22-12.38.48-24.85.84-37.78.81-12.32-4.44-10.12-28.45-9.44-12.76.29-25.13-.85-39.33.58-5.19,0-11-.68-16.45,1.56-.37-.88-4-.69-4.11,6.68h0c-1.45,14.24,0,28.72-.21,43.5-4.19.07-5,5.87-3.85,10.6.53,1.44-1.11,12.09,4.83,14.25-1.25,11.62-.83,24.36-.67,36.87-1.45,19.9.31,15.22,51.68,12.22H193a21.86,21.86,0,0,0,3.05-.49c0,.09,0,.06,0,.43-4.48.06-6.16,10.16-1.26,14.71-.41-.23-.61,2.54-2.39,6.61,0,0,0-.07,0-.11-1.52,4-2.8,8.15-4.65,12.53s-4.24,9-6.07,14l0,0,0,.07,0-.05c-.13.29-.24.58-.36.87-4.59-1.71-10-.7-15.62-.46h0c-10.36,1.09-22.7.73-31.52,7.52-9.42,2.19-20.4,3.09-30.56,4.8l.1,0c-9,1.53-18.37,3.14-27.85,4.5l.17,0c-9.6,1.64-19.37,3-29.64,3.84-47.61,12.8-43-3.31-38.1,37.78.57.31.88,0,1-.75C120.75,300.24,232,300.09,343.29,297.83ZM234.83,118.36h0l0,0Zm-97,21.19v0a.22.22,0,0,0,0,.08v0ZM194.36,197h0Z" transform="translate(99.21 66.63)" style="fill: #e5e9eb"/>
        </g>
        <g>
          <path d="M74,261.28c-9.88-13.84-16.09-31-19-48.35l0,.18c-4.72-25.1-5.67-52.06,1.78-77.2v0c1.53-3.86,4.52-5.92,9.61-8.68-1.6-1.33-11.13,3.43-12.26,14.51-1.18-9.5-.56-.23-8.84,3.7,2.87-9.54-7.47-2.42,7.15-13.44,1.83.53-4.44-12.21,9.16-16.47a.9.9,0,0,0,.56-1.16c-1.54-2.26-10.18,3-11.66,11.36-.62,3.63,3.89,4.64-3.07,8.1l.2-.08c-9,5.23-2.22,4.66-3.81,11.08-.4,1-.39.64-2.61,1.58-1.85,3.16,1.91,1.46,4.3.63,1.55.38,2.7,1.6,4.68,2.49.17.51,2.44-.9,1.91.63a89.71,89.71,0,0,0-1.86,13.71c-.54,2.39,1.26,5.51-1.15,7.1-3.48,1.5-8.76,9-5.13,14.41,2.28,4.33,6.34,8.07,7.45,13.47l-.06-.14c1.66,8.71,2.19,18,5,27.19,1.21,4.78,4.38,9.71,3.73,14.7-2.4,5.47-4.49,7.52-.85,14.3-.77,1.69-4.09,10.47.81,7.94-.84-2,.15-4,.93-6.6,2,1.46,2.79,1.11,7.36,4l-.06,0c.49.35,1,.09,2.54,1.17l-.08,0c.31.28,1,1,1.55.21.32.81,2.6,1.43,1.63-.42A.76.76,0,0,0,74,261.28ZM51.84,148.58c-2.14,1-3.2-1.62-5.54-1.83a20.61,20.61,0,0,0,6.48-5.63,12,12,0,0,1-.36,7.63C52.26,148.67,52.37,148.63,51.84,148.58Zm-.58,45.79c-1.16-3.38-6.36-6.8-7.5-12.54v0c-.23-2.4.84-5.2,2.65-7.74l-.07.09c.73-1.13,2.42-2.16,3.92-3.43.46,7.59,0,15.54,1,23.64Zm8.37,67.45v0Zm10.93-2.34A8.75,8.75,0,0,1,67,257.71h0c-7.34-3.18-11.62-6.32-5.94-16.36,2.45,6.24,6.51,11.9,9.78,18.28A1.37,1.37,0,0,0,70.56,259.48Z" transform="translate(99.21 66.63)" style="fill: #2c3e50"/>
          <path d="M161.4,227.94c4.52-4.06-4.17-4.56-7.51-4.05,1.29.3,10.88-11.56,7.63-11.59-3.83.85-4.55,15.78-17.75,9.66,30-18.91-5.28-14.42-4.29-11.6,15.29-.2,21.36-3.07,3.67,9.71-7.43,6.21,15.27,4.7,17.76,6.07-2.77,1.51-6.29,2.59-9.48,4.25l0,0c-7.88,5.09-34.68,4.14-47.61,1.23l.22.1c-3-.47-5.86-2.49-9.38-2.19-.56-.46-3.74,1.4-4.95,0-2.74-6.91-.79-3.11-6.28-9.56-3.34-28.85,4.35-52.48-1.57-72.11-2.59-1.66-1.1,3.37-.65,5.48,3.22,14.91-1.09,29.94-.36,45.35-.1-2.56-3-5.39-3.45-9.16v.13c-1.71-3.62,3.45-36.45-2.06-38-.84.53-.69.92-.21,2.38,2.86,9.07-1.19,5.65,1.35,20.42-.19,6-2.43,14.84,4.24,26.14-1.08,5.32.08,10.31.94,16.07,0,4.11-1,4.51,4.1,8.38,3.31,6.95-.15,3.79,10.42,12.78,5.43,6.14,2.09,9.25,8.77,18.69,6,2.09-.53-7-1.81-9.89l.08.17C101,240.91,97.79,235.34,92,231.57c4.45-.72,8.46,1.45,13.2,2.35a95,95,0,0,0,24.22,1.61C149.38,235.51,145.83,234.89,161.4,227.94Zm-.47-1.74s0,0,0,.06S160.94,226.26,160.93,226.2Zm0,0Z" transform="translate(99.21 66.63)" style="fill: #2c3e50"/>
          <path d="M167.17,219.08c3.87-4.35,10.74-7.9,15-12.33-.28-3.07-6.74,2.31-8.66,4.13l.08-.07c-1.66,1.33-3.71,2.87-5.72,4.55,0-.07.06-.15.1-.23l-.07.15c.85-1.5.87-3.17.2-5.34,7.94-2.25,9.63-9.65-.63-2.68-.16-.88-.19-2.15-.44-3.65l0,.14c-.68-1.15.14-10.2-2.93-5.58-.71,5,1.81,10.05,2,15.33l0,0c-7.15,10.74,1.84,1.73-1.39,10.41-.23,4.58,1.95,2.4-2.7,8.15-1.42,2.73-.73,6-1.6,9.32-1.22,1.37-.71,6.71,1.46,1.94l0,.12a16.86,16.86,0,0,1,.69-1.56l0,.09.1-.25,0,0c1.35-17.53,4-4.16,4.29-18A4.56,4.56,0,0,0,167.17,219.08Zm.33-11.7h0l.11.05Zm.07,0h0Z" transform="translate(99.21 66.63)" style="fill: #2c3e50"/>
          <path d="M193.6,212.32c.12-4.12-.94-8.3-1-12.85-.53-.65,1.57-5.05-1.07-3.76-1.71,3.11.64,10.53.51,15C191.18,214.46,192.75,223.72,193.6,212.32Z" transform="translate(99.21 66.63)" style="fill: #2c3e50"/>
          <path d="M71.32,131.72c.83,6.54,11.83,6.73,12.57,11.07A15,15,0,0,0,89.46,151a12.14,12.14,0,0,0,4.77,1.56c8.64.82,1.54,3.19,11.31,6.42,24.81,2.25-2.7,5.31,34.56,4.81.74.13,2.92.43,2.12-1.19-6.36-2-19,3.06-25.32-3.32-4.28-1.31-8.61-.9-13.27-2.65-.52-.33-1.46,0-2.74-2.49-1.63-4.72-9.23-1.29-12.35-6.71-8-14-.65-4-14.71-13.39C72.14,133.73,72,124.93,71.32,131.72Z" transform="translate(99.21 66.63)" style="fill: #2c3e50"/>
          <path d="M135.84,127.93c2,4,1.88-2.64,1.67-4.94,1-2.61,2.08-4.94,1.54-8.16,0-3.71-6.33-6.93-2.9-12.6.08-.08.07-.91-.6-.37-4.73,5,3.57,10.43,2,16.54C137,120.48,135.33,122,135.84,127.93Zm1.74.29v0Z" transform="translate(99.21 66.63)" style="fill: #2c3e50"/>
          <path d="M100.77,136c13.58,4,16.1,22.36,30.4,13.75.51.61,4.08,4,4.2,1.1-1.83,0-3.23-3.89-5.61-2.11-12.4,7.2-13.61-10.11-30-13.75C99.05,135.18,99.15,136.12,100.77,136Zm30.53,13.81-.06,0Zm-.06,0h0Z" transform="translate(99.21 66.63)" style="fill: #2c3e50"/>
          <path d="M95.46,141.86c-2.47,2.08,10.76,3.91,8.52,10.89-.58,2.7,3.37,2.27,5.81,3.25.49.08,4.19,3.12,2.41-.43-1.51-1.48-4-1.54-6.41-2.22C106.16,146.54,100.66,145.27,95.46,141.86Z" transform="translate(99.21 66.63)" style="fill: #2c3e50"/>
          <path d="M71,88.7c5.33-1.84,1.76-8.16,3.28-12.33,1.22-2.59,4.24-2.8,5.83-5.42,2-5.84-6.76-3,3.33-13.86,4.12-2.85,9.64-.78,9.6-10.21-.12-.75.86-2.66-.46-2.45-1.33,10,.31,7.42-9.42,11.47.75-2,3.63-1.7,5-4.92.54-5.84,1.09-13.13,7.12-16.59,1.18-.77-.68-3.15,2.31-5.1l-.12.1a27.54,27.54,0,0,1,26.89-5.76c3.2,2.66,5.58,1.71-.33-1.11-2-1.08-14.6-3-22.07,2.11-3.26,2.13-7.7,4.05-7.48,8.88-4,2.1-5.83,6.72-6.92,11.54-1,6.14,1.72,4.6-5.2,9.91-.31,2.33-2.16,3.65-3.77,6.16-4.31,4.07,2.6,6.19-.4,10.22-11.44,7-1.34,7.7-6.94,15.83C70.94,87.55,69.84,87.9,71,88.7Z" transform="translate(99.21 66.63)" style="fill: #2c3e50"/>
          <path d="M51.8,110.79c.32.78,1.88,1.28,3.25,1.37H55c3.75,1-3.23,3.76-2.5,5.63.22,0,.12.79,2.32-.79,10.65-10.64-13.27.78,7.1-19.44l-.14.11C71,89,74.69,93.27,76.75,85.54c-.24-1.07,4.71-6.24,2.16-6-8.79,16-.26,3.94-17.24,16.5l.14-.11C59,98.1,52,104.46,51.8,110.79Z" transform="translate(99.21 66.63)" style="fill: #2c3e50"/>
          <path d="M59.59,117.09c.22-.18,1.33-.67,1.49-1.24C60.86,116,59.75,116.52,59.59,117.09Z" transform="translate(99.21 66.63)" style="fill: #2c3e50"/>
          <path d="M78.2,118.71c-1.26,2.69-7.36,3.54-5.93,8.19.39,1.58,2.08,3.18,2.58,5.11-.57.41-.7,4.21,1.05,1.29,1.68-5.27-7.66-6.23,1.81-12.05,2-1.28,2.26-3.76,1.44-6.56-10.46-20.12,8.21-18,14.8-34.85,4.58-11-10.24-11.6,2.3-27.61.29-.51,1.51-1.51.35-1.77-4.91,6.22-3.2,3.47-7.3,13-12-1-5.7,14.26-5.52,8.41h0c-.65-.57-1.68-7.15,3.85-7.31l-.09,0,.22,0h-.13l.15,0h0l.12,0h-.08c.5-.26,1.09.36,2.26-1.08-.79,4.32,3.82,7.74,3.51,12.53C92.87,87.67,79,90.92,75.3,101.28,72.73,107.58,78.62,112.31,78.2,118.71Z" transform="translate(99.21 66.63)" style="fill: #2c3e50"/>
          <path d="M125.46,39.15c-.84-.39-18.27-3.44-16.55,2.08-.1,1.42,7.92,4.65,1.23,10.8-3.61,3.77-9.92,3.71-11.12,10.78-3.53,7.3,6.16,11.61.17,21.76-1.5,1.77,2.42,2.9.08,9.46-.41,3.07,2.28,6.82-.54,9.78h0c-2.43,3-.73,7.42-2.58,11.2-7.43,7.19,4.81,5.63-.24,16.26-1.09,1-5.82,9.14-2.74,12.38,2.11-.2-.92-5.11,3.77-10.71,3.47-4.07,2.24-9.63-1.27-13.87,1.5-1.51,3.36-3.74,3.38-6.64,2,2.41,4.54,5.1,5.85,8.56,1.27,2.35.78,6.66,3.82,8.24,1.23,1,4.64-2.34,10,5.85.87.71.72,2.81,3.34,2.41,4-2.52,7.78,4.21,11.18-2.95.52-.5.48-.32,2.89-1.45.42-.25,1.36-1.36.53-2.16-.46-.42-.25-.1-4.93,2.81-1.12.8-.06,3.34-3.71,2.57-2.49-.78-1-1.69-6.74-.23-1.55-1.51-1.68-3.93-6.61-7.24-11.89-2.77-1.9.12-12.88-15.07-5.12-4.26-1.52-7.11.38-12.35-.64-4.06-.4-8.3-.88-13,.93.87,2.12,1.41,4.81,3.38l-.1-.08c7.9,6.06,10.36,14.63,25.6,12,2.61-.06,3.53-3.92,6.74-6.76-1.49,2.44,6.71,9.86,2,2.43l.11.14c-1.1-1.27-1.36-3.2.22-6.07-.23-.2,3-4.55.43-3.42-.67.55-.8,4.44-5.65,8.95-1.72,1.43-1.26,4.52-6.83,4-3.17.2-7,1.46-9.87-1.71-5.1-2.74-8.11-8.26-16.76-13.66-.15,0-.68-.27-.81.46-3.1-3.07,2.51-5.18.8-12.83-8.88-24.14,19.15-17.81,10-32.7-7.15-5,11-2.93,15.47-2.31C130.09,40.45,132,38.9,125.46,39.15Zm-15,.63v0Zm0,0h0v0Zm0,0Z" transform="translate(99.21 66.63)" style="fill: #2c3e50"/>
          <path d="M98.29,73.79c0-.07.74-1.61-.18-1-1.55,2.37,1.21,6-.22,10.65-.22-.09.11-6.35-.94-5.22.66,7.19,1.33,5.12-3.28,13.51l0-.1c-13.08,8-1.76,16.87-11.56,30.13-.08.62-1.35.79-.32,3.69,4.51,8.2-5.25,6.88-1.8,9.59,2.33.75,5.36-4.18,4.3-7.39-.34-1.75-2.38-3.78-.45-5.74,8-8.84-1.06-23.64,9.15-28.6,4.32,17.67-3.22,6.78-3.33,23-.16,6.48,6.53,7.9,0,14.69-.68,1.47-4.89,4.13-3,5.27,16.22-13.25,1.64-11.22,6.18-26.73-.1-.28,3-2.48,3.58-7.85.08-2.54-1.39-4.47-2.56-7.34C93.74,90.28,100.21,91.09,98.29,73.79ZM96.44,88.31a9.08,9.08,0,0,1-1,1.75c.46-.83.94-2.06,1.62-3.24C96.88,87.21,96.81,87.4,96.44,88.31Z" transform="translate(99.21 66.63)" style="fill: #2c3e50"/>
          <path d="M83.49,125.36a1.16,1.16,0,0,1,.08.19A1.54,1.54,0,0,0,83.49,125.36Z" transform="translate(99.21 66.63)" style="fill: #2c3e50"/>
          <path d="M87.79,64.59h0Z" transform="translate(99.21 66.63)" style="fill: #2c3e50"/>
          <path d="M95.66,45.47c-4.53,6,1.42.33,4.11-1.41,1.6-1.16,4.52-.93,5.55-3.21-2.44-6.28,7.56-7,13.14-7.63h.06c17.2-2.12-10.74-2.19-14.14,3.28.11.29-1.35.65-.28,4.22C101.64,42.29,98,42.79,95.66,45.47Z" transform="translate(99.21 66.63)" style="fill: #2c3e50"/>
          <path d="M118,33.29h0Z" transform="translate(99.21 66.63)" style="fill: #2c3e50"/>
          <path d="M101.86,34.92c-3.07.63-8.12,5.81-.17,1.22,4.12,0-2.2-6.72,19.41-7.2,1.62-1-11.42-2.16-17.26,3.13h0c-.41.39-2,1.3-1.19,2.56C102.47,34.71,102.36,34.74,101.86,34.92Zm2.37-3.15-.09.07Z" transform="translate(99.21 66.63)" style="fill: #2c3e50"/>
          <path d="M104.11,31.86h0Z" transform="translate(99.21 66.63)" style="fill: #2c3e50"/>
          <path d="M130.47,26c.67.13,1.25-.38,2.38-.78h0c3.26-.88,8.74-1,10.89,4.68l-.07-.15c-.67,4.67,25.3,23.27,19.43,39.31v0c-.58.35,0,3.09.8,1,2.62-10.43-2.64-18.85-9.68-28-1.84-3.9-5.54-6.63-8.31-10.44-1.24-2.92-2.88-6.8-6.82-7.61C139,23.65,130,23.35,130.47,26Z" transform="translate(99.21 66.63)" style="fill: #2c3e50"/>
          <path d="M137.67,37.9c1.7-1.58,4.09,3.67,5.24,1.22C141.2,32.78,126.87,40.64,137.67,37.9Z" transform="translate(99.21 66.63)" style="fill: #2c3e50"/>
          <path d="M147.07,58c3.84,9,16.52-3.24,8.58.73-5.46,4-10.12-2.2-9.33-8.22-2.67-4-4.19-10.41-9.92-11.61-2.49,2.06,6.94.8,9.07,16.58-1.27-2-1.59,16.88.69,16.39,1.26-.41.16-2.33.09-15.17A8.1,8.1,0,0,1,147.07,58Z" transform="translate(99.21 66.63)" style="fill: #2c3e50"/>
          <path d="M135,28.86c-3.23-.22-6.27,4.81.25.73C135.21,29.45,135.55,29.27,135,28.86Z" transform="translate(99.21 66.63)" style="fill: #2c3e50"/>
          <path d="M141.79,34.18c-7.15-6.66-12.07,4.21-7.7.69C135.76,30.25,142.8,37.59,141.79,34.18Z" transform="translate(99.21 66.63)" style="fill: #2c3e50"/>
          <path d="M135.84,90c2-.94-2.78-1.77-6-1h.06c-.12-.07,0,.12-.55-.23l0,0c-1.39-1-3.61.23-6.15.66l.12,0-.79.11.11,0c-.77.2-5.73-.13-.93,1.6h0c1.93,1.18,3,3.56,7.41,3.33h0c3.92.8,3.09.27,6.67-4.44h0Zm-11.56.12c2.32-1,6-1.29,10.54-.49-.22,0-.53.35-2.71,1.14h0c-2.55.91-5.47.36-8.37-.52A5.19,5.19,0,0,1,124.28,90.1Zm10.23.23c-1,.79-1.15,3.6-3.14,3.72-3.3-.92-3.73,1.46-9.81-3.51,3.79-.16,6.81,2.94,13.08-.4h0l.06,0A1.82,1.82,0,0,0,134.51,90.33Z" transform="translate(99.21 66.63)" style="fill: #2c3e50"/>
          <path d="M117.28,87.31c3.58-2.67,6.38-7.56-.6,0,.13.14-2,4-.8,4.52a18.63,18.63,0,0,1,1-3.71l0,.06a1.54,1.54,0,0,0,.08-.19s0,0,0,0A3.39,3.39,0,0,1,117.28,87.31Z" transform="translate(99.21 66.63)" style="fill: #2c3e50"/>
          <path d="M137.37,91.79c.92,1.55,2.76-7.88.82-7.47-.41.76,1.08,3.3-.6,6.82v0l-.17.41v0A.55.55,0,0,0,137.37,91.79Z" transform="translate(99.21 66.63)" style="fill: #2c3e50"/>
          <path d="M122.88,80.3c-.54,1.28,4.36,2.41,1.51.53-.17-.27-.46-.16-.46-1.09C125.37,77,123.07,75.44,122.88,80.3Z" transform="translate(99.21 66.63)" style="fill: #2c3e50"/>
          <path d="M129.34,80.15c-2.48-1.73-2.24,2.84-.78.59.19.05.16-.12.94.43l-.08-.06C130.13,82,131.5,81.21,129.34,80.15Z" transform="translate(99.21 66.63)" style="fill: #2c3e50"/>
          <path d="M133,80.65c-1.21.47-2.9,2.27.76.06C134.63,83,136.23,77.84,133,80.65Z" transform="translate(99.21 66.63)" style="fill: #2c3e50"/>
          <path d="M136.43,79.5c.1.3-.43-4.13-1.27-2.55C136.12,77.64,135.06,83.86,136.43,79.5Z" transform="translate(99.21 66.63)" style="fill: #2c3e50"/>
          <path d="M123.78,68.09c.45.18-2.9,2.88-1.83,3.24.92.28,4.66-7.49,2-3.56v0C123.89,67.86,123.84,68,123.78,68.09Z" transform="translate(99.21 66.63)" style="fill: #2c3e50"/>
          <path d="M133.71,69.21c-.12.3,3.4,2,1.23.32C134.91,69.52,132.24,67.26,133.71,69.21Z" transform="translate(99.21 66.63)" style="fill: #2c3e50"/>
          <path d="M135.81,60.17c-.8-.44-3.94,3.31-.9,1.75.81-.8,2.76-1.44,7.86-1.83-1.49-.75-3.51-.43-6.3,0l.13,0Z" transform="translate(99.21 66.63)" style="fill: #2c3e50"/>
          <path d="M114,60.34c-.25,0-2.45,1.14-.74.52,4-2.4,8.21.48,11.92,1,1-1-5.52-3.38-10-1.92h0Z" transform="translate(99.21 66.63)" style="fill: #2c3e50"/>
          <path d="M142.68,66.63c.44,0,.95-.78,0-1.1l0,0c-1.15-1.5-8.44-2.22-9.27.86C136.75,66.68,137.39,70.26,142.68,66.63Zm0-1.12h0Zm-5.08-1h0a3.7,3.7,0,0,1,1,0h0a3.24,3.24,0,0,1,.75.16h0c.21.1-.08,0,.89.32-.39-.17,0,2.83-2.86,1.59l.06,0-.06,0h0c-.73-.45-1.08-.17-.79-1.89A6.14,6.14,0,0,1,137.59,64.56Zm4.67,1.72c-2.89,2.38-3.29,1.89-8.42-.35.32-.08.41-.24,2.44-1.05a3.56,3.56,0,0,0-.1.47v0c-.47,2.34,4.18,2.94,4.5,0a4.22,4.22,0,0,1,.88.61l-.05,0a2.45,2.45,0,0,0,.8.4Z" transform="translate(99.21 66.63)" style="fill: #2c3e50"/>
          <path d="M142,66.16l0,0Z" transform="translate(99.21 66.63)" style="fill: #2c3e50"/>
          <polygon points="236.8 131.19 236.8 131.19 236.81 131.19 236.8 131.19" style="fill: #2c3e50"/>
          <path d="M137.41,66.67h0Z" transform="translate(99.21 66.63)" style="fill: #2c3e50"/>
          <path d="M137.66,66c1.36,1.11,1.42-2.59,0-.81C137.66,65.24,137.29,65.29,137.66,66Zm.54-.49,0,0s0,0,0,0Z" transform="translate(99.21 66.63)" style="fill: #2c3e50"/>
          <path d="M115.21,68.38c2.48,1.25,4.51-.89,7.12-1.6,1.15,0-1.63-5.35-10.38-.15h0l0,0h0l-.11.05,0,0,0,0h0s-.28.12,0,.26C111.56,67.2,112.55,66.76,115.21,68.38Zm1.89-3.56a10.6,10.6,0,0,1,2.08,0c0,.06,0,.06,0,.33v0c1.18,2.49-4.5,3.09-2.88-.14Zm-2.19,3-.19-.08h0c-.58-.14-.4-.67-2.75-.9l1-.42h0a18.3,18.3,0,0,1,2.87-1.35c-2.26,2.62,4.75,4.09,3.8-.2A5.72,5.72,0,0,1,122,66.25a9.87,9.87,0,0,0-3,1.59h0A4.26,4.26,0,0,1,114.91,67.84Z" transform="translate(99.21 66.63)" style="fill: #2c3e50"/>
          <path d="M120.34,67.49Z" transform="translate(99.21 66.63)" style="fill: #2c3e50"/>
          <path d="M115,68.27l0,0Z" transform="translate(99.21 66.63)" style="fill: #2c3e50"/>
          <path d="M112.16,66.54h0Z" transform="translate(99.21 66.63)" style="fill: #2c3e50"/>
          <path d="M114.29,65.42h0Z" transform="translate(99.21 66.63)" style="fill: #2c3e50"/>
          <path d="M112.09,65.81c0-.09-2.25,1.31.23.1h0c1.79-.73,3.57-2.7,9.86-1.17-.69-.78-3.58-1.85-7.54-.23h0A15.21,15.21,0,0,0,112.09,65.81Z" transform="translate(99.21 66.63)" style="fill: #2c3e50"/>
          <polygon points="218.42 131.79 218.42 131.79 218.42 131.79 218.42 131.79" style="fill: #2c3e50"/>
          <path d="M117.35,66.23c.71.74,1.88-1.51.47-1.07C117.55,65,116.7,65.67,117.35,66.23Z" transform="translate(99.21 66.63)" style="fill: #2c3e50"/>
          <path d="M107.82,77.87c.42,3.29,3.45,6.92.69-.89-2.23-5.28-5.05-10.75-1.25-17.29-4.24,3.58-2.3,11.57.2,17.19l0-.11C107.49,77,107.43,76.74,107.82,77.87Z" transform="translate(99.21 66.63)" style="fill: #2c3e50"/>
          <path d="M116.88,112.06c-.33.39-.48-5.26-1.33-4C115.14,107.68,117.21,116.68,116.88,112.06Z" transform="translate(99.21 66.63)" style="fill: #2c3e50"/>
          <path d="M127.7,114c-.42-.2,2.71-6,1.53-6.42C129.06,107.12,125.54,115.54,127.7,114Z" transform="translate(99.21 66.63)" style="fill: #2c3e50"/>
          <path d="M114.65,125c2,.81-2.6-8.43-3.88-9.44C109.33,115.94,114.36,123.79,114.65,125Z" transform="translate(99.21 66.63)" style="fill: #2c3e50"/>
          <path d="M122.7,126.48c0-.12-1.13,1.76-2.55.62.1-.33-.82-3.33-.94-.84-.57,3.87,6.37,1.11,3.84-1.07C122.62,125.47,123.39,125.55,122.7,126.48Z" transform="translate(99.21 66.63)" style="fill: #2c3e50"/>
          <path d="M129.62,126.18c.19-3.26,2.72-9.66.93-9.32-1,5.16-2.81,11.1-2.72,16.1C129.13,133,129.06,127.93,129.62,126.18Z" transform="translate(99.21 66.63)" style="fill: #2c3e50"/>
          <path d="M70.6,97.28h0Z" transform="translate(99.21 66.63)" style="fill: #2c3e50"/>
          <path d="M66.75,105c.63-.38-12.53,12.5.35.67,2.8-4.44-9.57,1.94,3.5-8.39h0l.07-.05,0,0c6.44-5.49-12,6.65-5.75,7h-.1C65,104.51,67,104,66.75,105Z" transform="translate(99.21 66.63)" style="fill: #2c3e50"/>
          <path d="M68.63,114c.23-2.37,4-5.11,3.6-7.54a26.78,26.78,0,0,0-4.59,8.42c-.39.07,1.23,2.37-1.14,4.18-2.41,2.46-6.77.58-5.35,5.91-.13.2-.13.39-.89.75-1.16-.1-.77,4.21.35.86,2-1,1-1.92,1.18-4.37C65.28,120.37,69,120.71,68.63,114Z" transform="translate(99.21 66.63)" style="fill: #2c3e50"/>
          <path d="M50.05,176.64c-.94-.72-3.91,6.27-1.22,7.6.8-.49.15-1,0-3.14C48.46,179.76,50.49,178.13,50.05,176.64Z" transform="translate(99.21 66.63)" style="fill: #2c3e50"/>
          <path d="M187.65,220.18h0c-1.26-1.38-13.84-1.72-14.46,1.48,3.41-.84,7.21-2.21,11.32-1.63C184.87,220,189.82,222.44,187.65,220.18Z" transform="translate(99.21 66.63)" style="fill: #2c3e50"/>
          <path d="M184.5,230.31c.46,0-13.26-6.79-12.83-3.39,2.33,1,5.25.77,8.09,2.37C181,229.73,186.88,234.14,184.5,230.31Z" transform="translate(99.21 66.63)" style="fill: #2c3e50"/>
          <path d="M182,238.08c.27-1-11.64-6.19-10.5-3,2.12,1.06,4.65.5,7.07,2C178.85,237.18,184.87,241.82,182,238.08Z" transform="translate(99.21 66.63)" style="fill: #2c3e50"/>
          <path d="M172.15,241.1c-.06-.06-5-3.38-3.68-.57C169.32,240.61,175.76,245.39,172.15,241.1Z" transform="translate(99.21 66.63)" style="fill: #2c3e50"/>
          <path d="M77.88,227.81c.22.82,9.5,8,7.79,4-7.06-3.76-17.29-14.41-26.55-21.58-1.61.18,3.39,4,5,5.13C68.47,219.47,73,223.53,77.88,227.81Z" transform="translate(99.21 66.63)" style="fill: #2c3e50"/>
          <path d="M82.59,238.77c8.36-1.4-6.28-2.43-5.41,1.77C79,240.53,80.34,238.86,82.59,238.77Z" transform="translate(99.21 66.63)" style="fill: #2c3e50"/>
          <path d="M80.22,249.31c4.12-1.94,5.4-5.33,12.78-4.3C94.18,240.73,78.13,245.6,80.22,249.31Z" transform="translate(99.21 66.63)" style="fill: #2c3e50"/>
          <path d="M98.49,250.15C86.3,247.56,69.6,263.28,88,254a20.19,20.19,0,0,1,10.35-1.77A1.16,1.16,0,0,0,98.49,250.15Z" transform="translate(99.21 66.63)" style="fill: #2c3e50"/>
        </g>
        <g>
          <path d="M335.32,221.87c1.6-1.42-24,4.73-26.6,4.14l.18,0c-.57.06-1.14.14-1.72.22l.19,0c-9.53,1.47-19.22,2.06-29.16,3.63l.12,0c-3.5.49-7.48.94-11.59,1.46l.18,0c-17.64,1.83-35,6.54-53.08,8.52h0c-.36.51-16.91,2-15.12,4.18,6.53-1.4,14.18-2.57,21.45-3.69l-.18,0c15.7-1.84,31.13-6.28,47.38-7.74l-.18,0c13.77-1.77,28.14-3.36,42.37-5.27l-.18,0C317.55,225.76,328.26,226,335.32,221.87Z" transform="translate(99.21 66.63)" style="fill: #2c3e50"/>
          <path d="M230.6,123.31c.91.68-1.06,14.07,1.63,10.72.27-2.68,1.58-9.74-.42-14.1C230.1,119.53,230.24,121.23,230.6,123.31Z" transform="translate(99.21 66.63)" style="fill: #2c3e50"/>
          <path d="M147.33,134.72c.23-.24.31,7.66,2.46,6.55-1-4-2.59-8.75-1.14-13.53C149.39,125.11,146.69,127.67,147.33,134.72Z" transform="translate(99.21 66.63)" style="fill: #2c3e50"/>
          <path d="M188.81,125.46c3.25-.85-.08-4.84-5.69,3.29-2.78,4.56,1.62,14.36,8,10.65,2.39-1.11-14.67-2.67-2.3-13.94h0Z" transform="translate(99.21 66.63)" style="fill: #2c3e50"/>
          <path d="M196.54,157.18c2.74,10.13.23,22.33,5.28,32.07,7.38,3.4,5-5.38,4.24-11.19v0h0v0a.82.82,0,0,0,0-.1h0V178a180.53,180.53,0,0,1-2.84-19.19c-.58-1.32,1.14-5.1-1.75-7.7C201.52,151,196.32,149,196.54,157.18Zm8.17,31.53c-4.58,3.27-5.61-17.23-6.11-23.94.8-.35-2.89-11.65,0-10.65a67.58,67.58,0,0,1,4,16.26C202,171.68,206.74,185.09,204.71,188.71Zm-.49-15.79c0,.35.53,2.08,1.11,6.07-.38-2.16-.92-4.43-1.31-7.09C204.08,172.24,204.15,172.58,204.22,172.92Zm-6.15-20.16c5.07-3.85,3.31,3.92,4.9,12-.95-.72-1.12-11.14-5.08-11.75Z" transform="translate(99.21 66.63)" style="fill: #2c3e50"/>
          <path d="M183.14,240.07l0-.09Z" transform="translate(99.21 66.63)" style="fill: #2c3e50"/>
          <path d="M191.63,250.72a.82.82,0,0,1,0,.11Z" transform="translate(99.21 66.63)" style="fill: #2c3e50"/>
          <path d="M195.42,242.17l0,0Z" transform="translate(99.21 66.63)" style="fill: #2c3e50"/>
          <path d="M198.77,234l0-.07Z" transform="translate(99.21 66.63)" style="fill: #2c3e50"/>
          <path d="M181.1,254.29c-2.06,3.55,6.57,10.4,11.16-5.13l0,.1c.17-.4.16-.43.68-1.64v0c.05-.13.11-.25.16-.38l-.05.12.6-1.44h0a41.23,41.23,0,0,1,1.82-3.79l0,.08.05-.11h0c1-2.45,2.07-5,3.33-8.13h0l0-.12v0c2.15-5.86,5.86-11.76,6.81-18.58-4.7-7.62-10.41,6.86-12.5,11.63l0-.05c-1.75,3.76-3.19,8.56-5,12.84l0,0C186.09,244.48,182.76,248.91,181.1,254.29Zm23.42-39.46c.32.11.33,2.1-.31,3.9v0h0c-1.06,2.45-2.13,5.33-3.41,8.39v0c-.38,1-1,2.1-1.51,3.61h0c-1.78,3.43-3,7.31-4.78,11.29l.05-.11c-2.93,2.61-4.74,20.72-12.45,14.59-.38-2.68,4.27,3,8.68-9.08v0c.05-.1.09-.21.14-.32l0,.08a32.92,32.92,0,0,0,1.24-3.39h0l0-.08,0,.05a48.82,48.82,0,0,0,2.44-6.28v0c2.13-5.15,4.71-10.61,7-16.31a.61.61,0,0,1-.05.12c.32-1.25.65-.59,1.92-6.7A10.19,10.19,0,0,1,204.52,214.83Zm-17.4,29.61c2.1-4.42,3.8-9.11,5.73-14.32l0,.12c1.44-1.82,3.89-13.35,9.55-15.73-1.71,8.72-7.58,18.61-10.62,28.55l0-.08c0,.43-1.7.25-4.74,1.66l0-.06v0A1.11,1.11,0,0,1,187.12,244.44Zm-.49,1.08c1.15.26,2.83-1.1,4.59-1.2a26.63,26.63,0,0,1-1.33,3.6c-.06,0-.09,0-.38-.26l.05,0a7.52,7.52,0,0,0-3.22-1.63Zm-4,8.25c.64-2.12,1.87-3.76,3.1-6.4,6.3.33,2.07,7.33-3.31,7C182.48,254.16,182.54,254,182.62,253.77Z" transform="translate(99.21 66.63)" style="fill: #2c3e50"/>
          <path d="M195.26,240.16l.05-.11Z" transform="translate(99.21 66.63)" style="fill: #2c3e50"/>
          <path d="M204.21,218.73Z" transform="translate(99.21 66.63)" style="fill: #2c3e50"/>
          <path d="M191.84,230l0-.12Z" transform="translate(99.21 66.63)" style="fill: #2c3e50"/>
          <path d="M191.69,250.6l-.05.11Z" transform="translate(99.21 66.63)" style="fill: #2c3e50"/>
          <path d="M205.48,216.84s0,0,0,.11Z" transform="translate(99.21 66.63)" style="fill: #2c3e50"/>
          <path d="M192.12,243.78h0v0Z" transform="translate(99.21 66.63)" style="fill: #2c3e50"/>
          <path d="M153.81,246.33l-.21,0Z" transform="translate(99.21 66.63)" style="fill: #2c3e50"/>
          <path d="M140.39,247.68h0Z" transform="translate(99.21 66.63)" style="fill: #2c3e50"/>
          <path d="M206.15,269.41a5.69,5.69,0,0,0-.25-.69l.06.14a13.82,13.82,0,0,0-2.41-4.29h0c-.79-.87-.94-1.85-3.11-4h0c-.92-.5-1.9-3.64-5.82-7.85,1-2.79,2.1-5.59,3.44-9.1h0c1.64-3.46,3.28-7.34,5.06-11.4,0,0,0,.08,0,.13l.15-.37c0,.05,0,.09-.05.13,3.52-7,5.06-15.06,8.61-22.5,1.46-1.21-10.49-.54-14.06-.21,2.32-1.94,1.51-12.74-2.74-10.93,2.68,2.06,4.36,5.09,1.72,11.18.16.67-3.21-1.81-3.91-6.62l0,.12c.17-2.28.15-6.27,3.46-6.82,2.08,6.6,11.74-4.07,9.24,10.78-.08.42-.44,1.16.54,1.15,2.26-3.73,2.12-12.58-6.38-10.49-.91-19.14-10.29-84.11-1.16-.81-1.58-.55-1.48-7.49-2.57-13.25v.11c-2.46-12.16-1.78-26.39-5-38.36-2.95-.06-6.44,1.81-11.54-3.82-13.65-2-14.09,8.66-13.56-17.25.33-.41-.45-1.21-1.4-2.49,4.35-.72,9.9.64,14.08-2.28,2.88-3,4.53-4,12.61-3.61,4.63-.14,2.45-.66,8.35,3.15a13.42,13.42,0,0,0,6.65.49h0c2.07-.15,4.51,0,7.19-.34a22.21,22.21,0,0,1,1.41,15.91c-.11,2.93-2.34,4.3-6.41,4-.4-.24-1.74.86-2-1,2.41-1.29-.58-8.41-4.38-6.61-.15-25.84-36-5.71-17.73,10.58l-.07-.06c2.42,2.06,9.07,1.58.82-.92l0,0c-3.18-1.88-5.19-6.37-4.46-11.06h0c.37-7.82,18.36-18.22,20.38,2.13-.42.18-.19.15-1.22.05.82-4.91-9-7.37-11.74-2.63-3.31,3.56.77,10,6.31,7.5-.13.88,1,1.34-1.37,3.51.34,1.69,1.18,4.73,4.19,4.74,1.51.32,1.26-1.64,6.56-1.52-.63,2.24.08,5.27.51,8.14v-.08c.57,3.62.34,8.11,1.17,12.42v0c.1.93.21,1.37.64,4.56v0c1.65,9.1,2.61,18.47,4.75,28.14l0-.14c-.14.58.41,3.31,1.64,1.52,3.24,2.59,1.19,7.29-.18,10.59,1.14.75,5.79-6.38,0-12.64l0,.2c-3.11-8.46,10.41.86,14.83-8,1-16.62.58-32.84,1.31-49.89,9.35,5.18,12.13-9.87,9.25-18.15l0,0c-1.13-1.69-1-5.37-7.11-4.29l.18,0c-.41.06-.73,0-1.82.17.22-12.38.49-24.85.84-37.78.81-12.32-4.44-10.12-28.44-9.44-12.77.29-25.14-.85-39.34.58-5.19,0-11-.68-16.45,1.56-.37-.88-4-.69-4.11,6.68h0c-1.45,14.24.05,28.72-.21,43.5-4.18.07-5,5.87-3.85,10.6.53,1.44-1.11,12.09,4.83,14.25-1.25,11.62-.83,24.36-.66,36.87-1.46,19.9.31,15.22,51.67,12.22h0a21.86,21.86,0,0,0,3-.49c0,.09,0,.06.05.43-4.48.07-6.17,10.16-1.26,14.71-.42-.23-.62,2.55-2.4,6.61,0,0,0-.07,0-.11-1.52,4-2.81,8.17-4.66,12.57l0,0c-2,4.28-4.24,9-6.07,14l0,0,0,.07,0-.05c-.12.29-.24.58-.35.87-4.6-1.71-10-.7-15.63-.46h0c-10.36,1.08-22.7.72-31.52,7.51-9.42,2.19-20.4,3.09-30.56,4.8l.1,0c-9,1.53-18.37,3.14-27.85,4.5l.17,0c-9.64,1.64-19.44,3-29.75,3.85l.16,0C-1,277.09,3.64,261,8.54,302.06c3.64,2-3.12-20.67-1-28.55,12.65-2.32,25.32-4.82,38.34-7.91,24.34-2.47,48.8-6.81,73.47-10.35l-.12,0a143.43,143.43,0,0,0,14.59-2.42c-2.44,5.78,2,10.91,4.61,16.71,9.91,20.52,27.33,16.12,49.71,12.38l-.13,0C191.87,281.58,208.16,278.94,206.15,269.41Zm-9.42-92.75v0ZM137.9,139.55h0v0Zm53.82,8,0,.12,0-.14Zm0,0v0Zm4.93-30.25.11.09ZM213,138.89c-.05,0,0,0-.14.05Zm-6.64-2.41,0,0Zm0-.07h0v-.06A.13.13,0,0,1,206.41,136.41Zm-12.93-.54c-.58-.09-.56.09-2.28-1l.29.22c-4.22-2.63-.19-8.77,6.07-5.15l-.09-.11c.36.6,1.31.88,1.19,2.79-1.6.33-4.09.74-4.31,3.35A1.47,1.47,0,0,0,193.48,135.87Zm9.64,7c-5-1.3-4.25,4-8,0h0c-.38-.26-.14-1.22-.78-1.72,2.82-1.53.11-3.81,2.11-6.76,1.3-1,3.29-.52,5.18-1.09.83-.3,1.12-1.48,2.58-.42.53.86,3.19,2.91,1,5.08C204.47,138,207.38,141.38,203.12,142.86Zm24.28-3.66c-.67,14.21-.9,28.64-1.21,43.38-.59,10.6-1.2,8.58-14,9.09l.2,0a9,9,0,0,0-1.28.24c-1.71-8.51-2.71-16.93-4.39-26.15v0c-.89-6.89-1.28-14.65-2.78-21.77,5.26-2.39-2-3.13,9.29-3.62,1.64-1.56,9.76-1.25,14.29-1.57A.58.58,0,0,0,227.4,139.2Zm7.52-20.84h0l0,0Zm-4.69-.51c.86.22,3.6-.82,4.79.7l0-.1c2.13,3.17,2.51,7,2.19,11.54l0-.19c-1.17,3.66.28,9-6.79,8.57.5-1.85-6-1-9.31-.89h.11c-1.93.2-3.63.09-6.08.24,1.87-5.53,2.68-12.78-1.08-18.28C214.42,120.21,226.15,120.66,230.23,117.85Zm-88-23.14c2.25-31.51-12.66-21.43,73.24-24.79,4.11.94,9.71-2.34,12.24,2.42l0,0c2.24,2.28-.58,24.78-.61,45.61-7.8,1-12.7-.2-25.51.43-2.48-.29-3.93-3.29-6.67-3.84-5.79.23-12.58-1.42-17.13,4.08-1.37,2.46-10.55.5-15.22,2.88l.06,0c-4.18.09-8.3.93-13.14,1.09-1.75-1.14-4.4-.57-7.11.09C142.12,113.59,142.28,104.29,142.2,94.71Zm20.3,26.77-.1,0Zm-13.6,1.15h0Zm-7.06,22.72c-.05-.22-1,.18-2-2.55l0,0c-.24,0-3.88-16-.05-19.21,3.06,1.23-.8,1.72,7.1,0,1.13.51,12.49.16,16.88-1.32,2.86,1.85-.83,8.56,2,19.9a77.71,77.71,0,0,0-16.18,2C148.6,144.24,151.7,146.94,141.84,145.35Zm7.32,0,0,.05Zm46.49,48.17a74.09,74.09,0,0,1-9.13,1.11h0c-58.77,4.84-40.77,10.64-44-48,2,.09,5.65,1.18,7.47-.91-1.3-1.67,19.77-2.61,28.78-2.28,2,3.86,7,5.07,11.74,3.76,1.56,15.12,3.3,30.64,5.35,46.34A1.33,1.33,0,0,0,195.65,193.55ZM194.46,197ZM182,245.17c2.58-7.53,6.89-14.53,9.4-22.72l0,.1.3-.69a.25.25,0,0,1,0,.07c1.33-3.18,2.67-6.7,4-10.67,4.36-1.41,9.65-.93,15.14-1.29-2.59,3.88-1.92,8.38-8.26,21.23l.05-.13c-.63,1.47-1.71,3.6-2.49,5.62l.06-.14a157.88,157.88,0,0,0-7.22,17.7h0c-1.93,4.74-4.82,9.55-6.94,14.7-.22.22-2.05.91-2.08,0,1-3.92-3.43-9.75-7.11-3.92-1.36,1.12-.63,4.93-3.29,5.09-6,1.68-8.17-.06-5.56-8.55,0-.09,2.3-.28,6-.76.18.39-2.55,2.22-1.31,2.79C176.27,260.5,177.62,254.72,182,245.17Zm-16.36,18.68c-2.35.29-5.07,1.76-8,1,.46-1.27,3.4-1,6.13-1.3h0c.63-.08.46,0,2.43-.32-.28,0,.55.37-.72.68Zm-1.76-5.62.14,0h.06c1.12-.11,3.64-.25,5.57-.48h-.12c2.07-.23,3.77-.3,6.48-.61-.71,5-7.73,1-9.37,5a6.82,6.82,0,0,0-2,.23h0c-2.38.69-6.07-.81-7.94,2C153.81,260.23,150.81,259.27,163.85,258.23Zm41.37,14.37c-3.79,7.62-16.57,8-27.34,9.43-8.78.57-16.33,3.64-27.38-1.34-7.22-3.78-10-8.55-14.17-18.24-2.11-3.28-3.54-10.08,1.74-12.09,4.4-2.9,29.21-7,40.85-5.74h-.06l.16,0H179c.46,0,.81.29,2.16.46l-.12.29v0c-6.16,11.72.55,10.47-17.84,11.93h0l-.45.06.14,0c-2.51.73-12.34-1-9.33,4.87,2.21,2.45,1.76,5,11.46,2.79l-.13,0c.23,0,.37,0,1-.1-.79,3,0,8.62,5.61,6.46,2.5-.72,4,.49,5.11-4.39,2.6.34,10.07-3.15.77-1.5.52-1.68,4.43-3.25,5.22.93.2-.23-.66,6.76,4,2.85.84,0,4.83-9.24,7.5-15C197.46,260,205,264.9,205.22,272.6Z" transform="translate(99.21 66.63)" style="fill: #2c3e50"/>
          <path d="M163,258.35h0Z" transform="translate(99.21 66.63)" style="fill: #2c3e50"/>
          <path d="M164,258.2h0Z" transform="translate(99.21 66.63)" style="fill: #2c3e50"/>
          <path d="M170.08,264.61c.15-2.68-5-.27-1.3-.47.24.35.27.07.48,1.05.05.2.29,1.44-.64,4.43C170.39,271,170.66,266.35,170.08,264.61Zm-1,4h0Z" transform="translate(99.21 66.63)" style="fill: #2c3e50"/>
          <path d="M181.22,272.07c-1.77,1.84-3.86,3.71-7,.44C170.51,275.67,183.48,277,181.22,272.07Z" transform="translate(99.21 66.63)" style="fill: #2c3e50"/>
          <path d="M170.66,274.05c-1.54-3.46-2.37,1.69,0,1.8C170.66,275.67,171.27,275.51,170.66,274.05Z" transform="translate(99.21 66.63)" style="fill: #2c3e50"/>
          <path d="M142.62,72.63l.09-.11Z" transform="translate(99.21 66.63)" style="fill: #2c3e50"/>
          <path d="M155.77,79.39c-.75,0-.44.48-1.17,1.88-1,.55-3.4,1-2.24-2.36.35-.23,3.17-1.81.38-1.62C146.23,80.48,156.43,87.31,155.77,79.39Z" transform="translate(99.21 66.63)" style="fill: #2c3e50"/>
          <path d="M149.28,74.05c-.26,2.4,11.64,1.41,8.43-1.19,0,1.34-4.1,2.36-7,1.32C150.49,74.08,148.6,71.61,149.28,74.05Z" transform="translate(99.21 66.63)" style="fill: #2c3e50"/>
          <path d="M143.47,83.8c4.84-5.59,5,6.31,4.62,10.22-.51,2.31,1.13,7.51-3.19,7.1,4.31,7.6,7.31-22,.08-19.54l.05,0-.07,0h0C144.84,81.34,141.27,83.94,143.47,83.8Z" transform="translate(99.21 66.63)" style="fill: #2c3e50"/>
          <path d="M144.85,85.76c-1.94-2.64-.62,8.4.53,4.22C144.93,90.15,144.79,88.28,144.85,85.76Z" transform="translate(99.21 66.63)" style="fill: #2c3e50"/>
          <path d="M145.58,98.64c1-1.17-1.11-.33-.81-1.52,0,0,0,.09,0,.14-.34-.09,1-5.06-.63-4.31C144.24,93.45,142.19,100,145.58,98.64Zm-.86-.91,0,0,0,0Z" transform="translate(99.21 66.63)" style="fill: #2c3e50"/>
        </g>
      </g>
    </g>
  </g>
</svg>
