<svg xmlns="http://www.w3.org/2000/svg" xmlns:xlink="http://www.w3.org/1999/xlink" viewBox="0 0 442.5 368.81">
  <defs>
    <clipPath id="clip-path" transform="translate(97.55 66.63)">
      <rect width="221.99" height="221.99" style="fill: none"/>
    </clipPath>
  </defs>
  <title>subject lighting 2</title>
  <g id="Layer_2" data-name="Layer 2">
    <g id="illustration">
      <g style="clip-path: url(#clip-path)">
        <rect width="412.93" height="357.82" style="fill: #fff"/>
        <path d="M157.88,46.55c-4.22-5.7-9.1-11-12-17.5a11.6,11.6,0,0,0-2.4-4.06c-2.08-1.89-5.47-1.63-7.86-.16l-.4.28c-4.19.51-8.66-1.52-13-2.42a25.45,25.45,0,0,0-23.67,7.68c-3,3.3-5,7.32-7,11.28L84.22,56.17c-1.57,3.1-3.16,6.28-3.59,9.72-.23,1.9-.11,3.87-.71,5.69s-2.27,3.49-4.17,3.28C78.57,79.1,77.34,85,74.28,89.12s-7.59,6.74-11.92,9.42c-2.55,1.57-5.27,3.45-6,6.35-.55,2.13.11,4.36.48,6.52a25.3,25.3,0,0,1-7.06,21.9c-2.29,2.26-3.62,3.78-3.36,7.14.15,1.88.23,4.77,1.17,6.45,3,5.42,8.07-1.58,9.08-4.8.74-2.36,1.35-4.89,3-6.72,3.25-3.55,9.14-2.92,13.38-.64s7.7,5.87,12.08,7.87c2.83,1.29,6.53,1.73,8.78-.42a9.94,9.94,0,0,0,2.26-4.51c1.24-4.09,2.49-8.42,1.55-12.59-.57-2.53-1.93-5-1.54-7.57.29-1.94,1.55-3.57,2.61-5.23,9.45-14.72,5-34.69,12.23-50.61,3.73-8.22,10.3-14.75,16.26-21.62a5.82,5.82,0,0,0,.22.67,11.44,11.44,0,0,0,3.25,3.62,46,46,0,0,1,12.76,18.43c1,2.58,1.19,8.21,3.77,8.87,1.92.48,5.07-.4,7.06-.56l7.34-.57a5.2,5.2,0,0,0,2.55-.65c1.23-.83,1.52-2.5,1.53-4C165.82,58.79,162.1,52.24,157.88,46.55Z" transform="translate(97.55 66.63)" style="fill: #c8c8c7"/>
        <path d="M147.35,65.93a39.2,39.2,0,0,1-.47-4.2c0,.1,0,.2,0,.3.08-14.27,1.43-16.69-12.79-23.92-4.27.67-9.51,1.88-14.58.33-3.41-1.37-9.06-.22-6.73,5.16.35,2.12,3.63,4.53,1,6.89l.23-.23c-7.41,7.81-14.61,3.6-10.8,27.93-2.09,6-1.88,12.34-1.12,19.12l0-.24a33.3,33.3,0,0,1-.39,9.53l.15-.59c-2.24,8.7-.11,6,4.62,13.13l-.11-.44c.22,1.35,1.12,2.6,2,4.32l-.07-.12c.54,1.75,2.5,9.42,4.76,3.89.14.36.42,1.12,1.2,1.24h0a25.63,25.63,0,0,1,10,7.28c8.63.94,15.12,2,15-22.13l0,.36c0-4.94-2.23-10.41-.12-15.41,3.64,4.64,3.13-21.32,4.51-23.19C143.79,73.56,148.47,71.94,147.35,65.93Zm-32-24.19s0,0,0,0Z" transform="translate(97.55 66.63)" style="fill: #f6bab4"/>
        <g>
          <path d="M136.93,104.55a10,10,0,0,0,.85,4.55l-.06-.11c2.12,3.48,3.35,8.36,1.6,12.76h0c0,1.93.64,2.85,2.41-.29,1.24,1.25,1.46-12.84,1.05-17.43l0,.32C143.36,102.66,137.35,88.46,136.93,104.55Zm4.2-1.24a4,4,0,0,1,.16.86C141.31,104,141.16,104.19,141.13,103.31Zm-2.67-1.45.06-.08-.06.27Zm-.09,1.19c0,.2,0,.39,0,1C138.37,103.83,138.2,104.17,138.37,103.05Z" transform="translate(97.55 66.63)" style="fill: #3b94cc"/>
          <path d="M194.43,209.29c-.82-4.84-1.57-5.31-1.79-13.58-.09-1.23-4.83-.08-9.32.28-2.21-2.36-1.64.71-4.48.3-1.75-2.09-1.82,1.44-4.08-.69-2-.31-.73,2.37-3.72.89-.87,0-.39.55-1.79.55-.92-.33-1.68-1.65-3.22.41-1.9-1-1.54-.88-3.59.31-1.8.44-1.2-1.74-4.36.46a1.62,1.62,0,0,0-2.92.13,1.7,1.7,0,0,0-2.83-.29c-1.45-2.07-2.27-1.93-4.25.48-.58-2-2.72-3.51-4.49-5.72-.32-9.1-.33-18.31-.21-27.9h0a28.24,28.24,0,0,0-.26-6.33l0,.33c-.59-4,1-8.81-.53-13.09h0a10,10,0,0,0-.86-1.42l.09.18c-1.47-2.35-2-5.15-3.07-8.23.64-.65.74-7.76-1.13-2.3-.65-1.33-4.65.68-6.37,4.18-8.69-5.55-5.41,2.12-11.74-4.68h0l-.27-.27.26.27c-8.14-11-7.73-3.53-11.5-10.11-1.8-1.85-2.21-5.12-4.73-8.25-.3-3-1.53-2.64-3.44-.6-4.77,5,.79,11.69-1.15,17.38l.18-.36c-5.87,8.68,1.93,6-8.93,11.69-1.62-2.29.3-2.55,1.7-5.4.92-7.26-3.61-.45-5.07,2.39-2.75-5.58-4.44-.27-6,2.58,1.26-2.8,1.37-5.42-4.57-5.88-.62-3.66-1.18-.24-3.85-4.69,1.22-2,.6-5.25-2.79-2.12.16-7-7.63-.49-9.64,3.05-3.51,6.5-3.09,13.89-4.89,21.31l.23-.89c-3,12.41-2.17,56.72,5.59,78.3l-.22-.85c2.94,11.09.79,7.94-.5,18.64-.11,3.36.65,15.4,4.78,13.68.39-2.45,18.64-3.22,21.5-3.79,21.26-.34,28.22-4.06,48.05-6.8,2.48.16,4.44-3.46,10.78-4.91l-.28.09c12-3.23,26.34-3.6,38.28-4.43,3.42-10.38,9.9-20.21,11.13-31.71l0,.23A20.74,20.74,0,0,0,194.43,209.29Zm-3.78-11c0-.05,0-.11,0-.16h0C190.66,198.14,190.65,198.19,190.65,198.24Zm-4.78.35h0ZM162.5,229.44l0,.54,0-.57Zm-43.34-7.78c.11-.51.23-1,.35-1.55,0,.37-.07.73-.22,1.88C119.25,221.88,119.21,221.77,119.16,221.66ZM86.38,226.4h0Zm-19.3-25.31,0-.05Zm34.61,6.72c0,.2-.09.39-.14.58,0-.22-.08-.44-.13-.66Zm17.12-6.28c.28-1.27.61-3,.93-4.58a9.48,9.48,0,0,1-1,4.87Zm21.41-20.62c-.08-.14-.23-.1,0-.41C140.23,180.63,140.23,180.77,140.22,180.91Zm-45.59-3.77c-.07.26-.13.52-.2.78-.05-.61-.16-1.71-.33-2.74a2.3,2.3,0,0,0,.93.41C94.89,176.1,94.76,176.62,94.63,177.14Zm-5.94,23.58c0,.92-.07,1.84-.11,2.77-.69-2,.24-4.94.32-7.44ZM62.55,185c-.23-1.83.52-4.06.79-6.36-.2,1.89-.44,4.18-.7,6.48Zm25.79,49.76c-.06.29,0,0-.13.73l-.09-1A2.62,2.62,0,0,0,88.34,234.79Zm4-8c0-1.44.11-3.2.17-5.08.1,1.85.13,4.27.17,6.54C92.26,228,92.21,227.68,92.31,226.79Zm5.89-3,.06-1.1c-.12.37.34,1.36-.12,2Zm7.47-9.72c.11-.2.11.1.64-.88,0,1.95.16,4.18.12,6.59a1.53,1.53,0,0,0-1.62-.09C105.06,217.83,105.33,216,105.67,214.09Zm6.73,8.44.69-4.26c-.09,2.27-.3,4.79-.5,7.42A5.47,5.47,0,0,1,112.4,222.53Zm22.4-2.81c0,.21,0,0-.08.5C134.75,220.06,134.78,219.89,134.8,219.72ZM63.29,205.85c.28.15.22.8.47,1.5C63.39,207.39,62.73,207.25,63.29,205.85Zm.33,24.42c0-.18-.07-.35-.11-.53C63.72,229.85,63.65,229.72,63.62,230.27Zm18.18-.58c.09,1.2,1,2.38.55,4.08C81.22,233,81.86,231.33,81.8,229.69Zm-12-72.14c0-.06,0-.12,0-.17S69.93,157.44,69.79,157.55Zm15.8,91.09,0-.26a5.85,5.85,0,0,0,.8,1.49c-.23,0,0,0-1,.17ZM57.06,182.47a1.47,1.47,0,0,0,.69-.25c-.21,1.88.38,4.11-1.11,6.06.18-1.13-.16-3.27.19-5.86Zm7.68,76.16a1.36,1.36,0,0,0,.93-.11C65.87,258.56,65.27,259.75,64.74,258.63Zm120.36-60a2.33,2.33,0,0,0-.84.76c0-.22,0-.44-.06-.65Zm-41.46-5.35,0,.25,0-.25Zm-4.88-57.09v0Zm-72.94-1.63c.05.29-.27.26-.75.52C65.31,134.92,65.56,134.75,65.82,134.58ZM185.67,232c-.15.3-.31.65-.76,1.5a6.84,6.84,0,0,0-.88-1.91,1.8,1.8,0,0,0,2-.45c-.16.33-.31.67-.47,1Zm6.91-21.55c-.08.8-.2,1.61-.27,2.41l0-.29a28.14,28.14,0,0,1-2.15,8.95,69.16,69.16,0,0,0,2.4-11.93A5.6,5.6,0,0,1,192.58,210.41Z" transform="translate(97.55 66.63)" style="fill: #3b94cc"/>
          <path d="M190.1,226.65l0,.08Z" transform="translate(97.55 66.63)" style="fill: #3b94cc"/>
        </g>
        <g>
          <path d="M215.41,239.75h0Z" transform="translate(97.55 66.63)" style="fill: #c4d0d4"/>
          <path d="M48.1,264.29h.16Z" transform="translate(97.55 66.63)" style="fill: #c4d0d4"/>
          <path d="M239.19,120.68v0Z" transform="translate(97.55 66.63)" style="fill: #c4d0d4"/>
          <path d="M144.19,72.63l.09-.11Z" transform="translate(97.55 66.63)" style="fill: #c4d0d4"/>
          <path d="M345,297.83q-2.55-38.1-8.13-75.92l.07,0c.12-.11.07-.17-.1-.19a2.17,2.17,0,0,1,0-.25l-1.24.32c-5.24.64-23.05,4.75-25.22,4.26l.18,0c-.57.06-1.15.14-1.72.22l.19,0c-9.53,1.47-19.22,2.06-29.16,3.63l.12,0c-3.5.49-7.48.94-11.59,1.46l.18,0c-17.63,1.82-34.94,6.53-53,8.51-.3.41-11.84,1.76-15.57,3.41,1.56-3.33,3.13-7,4.82-10.87l-.05.13.15-.37-.05.13c3.48-6.9,5-14.89,8.51-22.27,1.95-1.69,5.3-8.24.5-13.41l0,.2c-3.11-8.46,10.4.86,14.83-8,1-16.62.58-32.84,1.31-49.89,9.34,5.18,12.12-9.84,9.26-18.12-1.11-1.68-1.06-5.27-6.93-4.29-.4,0-.73,0-1.81.16.22-12.38.49-24.85.84-37.78.81-12.32-4.44-10.12-28.44-9.44-12.77.29-25.14-.85-39.34.58-5.19,0-11-.68-16.45,1.56-.37-.88-4-.69-4.11,6.68h0c-1.45,14.24,0,28.72-.21,43.5-4.18.07-5,5.87-3.85,10.6.53,1.44-1.11,12.09,4.83,14.25-1.25,11.62-.83,24.36-.66,36.87-1.46,19.9.31,15.22,51.67,12.22h-.05a21.86,21.86,0,0,0,3.05-.49c0,.09,0,.06,0,.43-4.48.06-6.17,10.16-1.27,14.71-.41-.23-.61,2.54-2.39,6.61,0,0,0-.07,0-.11-1.52,4-2.8,8.15-4.65,12.53s-4.24,9-6.06,14l0,0,0,.07,0-.05c-.12.29-.24.58-.35.87-4.6-1.71-10-.7-15.63-.46h0c-10.36,1.09-22.7.73-31.52,7.52-9.42,2.19-20.4,3.09-30.56,4.8l.1,0c-9,1.53-18.37,3.14-27.85,4.5l.17,0c-9.6,1.64-19.36,3-29.64,3.84-47.6,12.8-43-3.31-38.1,37.78.57.31.89,0,1-.75C122.41,300.24,233.69,300.09,345,297.83ZM236.49,118.36h0l0,0Zm-97,21.19v0a.22.22,0,0,0,0,.08v0ZM196,197h0Z" transform="translate(97.55 66.63)" style="fill: #c8c8c7"/>
        </g>
        <g>
          <path d="M75.65,261.28c-9.88-13.84-16.09-31-19-48.35l0,.18c-4.72-25.1-5.67-52.06,1.78-77.2v0C60,132.07,62.94,130,68,127.25c-1.59-1.33-11.13,3.43-12.26,14.51-1.18-9.5-.56-.23-8.84,3.7,2.87-9.54-7.47-2.42,7.15-13.44,1.83.53-4.44-12.21,9.16-16.47a.9.9,0,0,0,.56-1.16c-1.54-2.26-10.18,3-11.66,11.36-.62,3.63,3.89,4.64-3.07,8.1l.2-.08c-9,5.23-2.22,4.66-3.81,11.08-.4,1-.39.64-2.61,1.58-1.85,3.16,1.92,1.46,4.3.63,1.55.38,2.71,1.6,4.68,2.49.17.51,2.44-.9,1.91.63a89.71,89.71,0,0,0-1.86,13.71c-.54,2.39,1.26,5.51-1.15,7.1-3.48,1.5-8.75,9-5.13,14.41,2.28,4.33,6.34,8.07,7.45,13.47l-.06-.14c1.67,8.71,2.19,18,5,27.19,1.21,4.78,4.38,9.71,3.73,14.7-2.4,5.47-4.49,7.52-.85,14.3-.77,1.69-4.09,10.47.81,7.94-.84-2,.15-4,.93-6.6,2,1.46,2.79,1.11,7.36,4l-.06,0c.49.35,1,.09,2.54,1.17l-.08,0c.31.28,1,1,1.55.21.32.81,2.6,1.43,1.63-.42A.76.76,0,0,0,75.65,261.28ZM53.5,148.58c-2.14,1-3.2-1.62-5.53-1.83a20.83,20.83,0,0,0,6.48-5.63,12.07,12.07,0,0,1-.36,7.63C53.92,148.67,54,148.63,53.5,148.58Zm-.57,45.79c-1.17-3.38-6.37-6.8-7.51-12.54v0c-.23-2.4.84-5.2,2.65-7.74l-.07.09c.73-1.13,2.42-2.16,3.92-3.43.46,7.59,0,15.54,1,23.64Zm8.36,67.45v0Zm10.93-2.34a8.75,8.75,0,0,1-3.53-1.77h0c-7.33-3.18-11.62-6.32-5.93-16.36,2.44,6.24,6.5,11.9,9.77,18.28A1.37,1.37,0,0,0,72.22,259.48Z" transform="translate(97.55 66.63)" style="fill: #2c3e50"/>
          <path d="M163.06,227.94c4.52-4.06-4.17-4.56-7.51-4.05,1.29.3,10.89-11.56,7.63-11.59-3.83.85-4.55,15.78-17.75,9.66,30-18.91-5.28-14.42-4.29-11.6,15.29-.2,21.36-3.07,3.67,9.71-7.43,6.21,15.27,4.7,17.76,6.07-2.77,1.51-6.29,2.59-9.48,4.25l0,0c-7.87,5.09-34.68,4.14-47.61,1.23l.22.1c-3-.47-5.86-2.49-9.38-2.19-.56-.46-3.74,1.4-4.94,0-2.74-6.91-.8-3.11-6.29-9.56-3.34-28.85,4.35-52.48-1.57-72.11-2.58-1.66-1.1,3.37-.65,5.48,3.22,14.91-1.09,29.94-.36,45.35-.1-2.56-3-5.39-3.45-9.16v.13c-1.71-3.62,3.45-36.45-2.06-38-.84.53-.69.92-.21,2.38,2.86,9.07-1.19,5.65,1.35,20.42-.19,6-2.43,14.84,4.24,26.14-1.08,5.32.08,10.31.94,16.07,0,4.11-1,4.51,4.1,8.38,3.31,6.95-.15,3.79,10.42,12.78,5.43,6.14,2.09,9.25,8.77,18.69,6,2.09-.53-7-1.8-9.89l.07.17c-2.32-5.87-5.49-11.44-11.31-15.21,4.45-.72,8.46,1.45,13.2,2.35a95.08,95.08,0,0,0,24.22,1.61C151,235.51,147.5,234.89,163.06,227.94Zm-.47-1.74s0,0,0,.06S162.6,226.26,162.59,226.2Zm0,0Z" transform="translate(97.55 66.63)" style="fill: #2c3e50"/>
          <path d="M168.83,219.08c3.87-4.35,10.74-7.9,15-12.33-.28-3.07-6.73,2.31-8.66,4.13l.09-.07c-1.67,1.33-3.72,2.87-5.73,4.55,0-.07.06-.15.1-.23l-.07.15c.85-1.5.88-3.17.2-5.34,7.94-2.25,9.63-9.65-.63-2.68-.16-.88-.19-2.15-.44-3.65l0,.14c-.68-1.15.14-10.2-2.93-5.58-.71,5,1.81,10.05,2,15.33l0,0c-7.15,10.74,1.84,1.73-1.39,10.41-.23,4.58,2,2.4-2.69,8.15-1.43,2.73-.74,6-1.61,9.32-1.22,1.37-.71,6.71,1.46,1.94l0,.12a16,16,0,0,1,.7-1.56l0,.09.11-.25,0,0c1.35-17.53,4-4.16,4.29-18A4.56,4.56,0,0,0,168.83,219.08Zm.34-11.7h0l.1.05Zm.06,0h0Z" transform="translate(97.55 66.63)" style="fill: #2c3e50"/>
          <path d="M195.26,212.32c.12-4.12-.93-8.3-1-12.85-.53-.65,1.57-5.05-1.07-3.76-1.71,3.11.64,10.53.51,15C192.85,214.46,194.42,223.72,195.26,212.32Z" transform="translate(97.55 66.63)" style="fill: #2c3e50"/>
          <path d="M73,131.72c.83,6.54,11.83,6.73,12.57,11.07A15,15,0,0,0,91.12,151a12.14,12.14,0,0,0,4.77,1.56c8.64.82,1.54,3.19,11.31,6.42,24.81,2.25-2.7,5.31,34.56,4.81.74.13,2.92.43,2.13-1.19-6.37-2-19,3.06-25.33-3.32-4.27-1.31-8.61-.9-13.27-2.65-.51-.33-1.46,0-2.73-2.49-1.64-4.72-9.24-1.29-12.36-6.71-8-14-.65-4-14.71-13.39C73.8,133.73,73.66,124.93,73,131.72Z" transform="translate(97.55 66.63)" style="fill: #2c3e50"/>
          <path d="M137.5,127.93c2,4,1.88-2.64,1.67-4.94,1-2.61,2.08-4.94,1.54-8.16,0-3.71-6.33-6.93-2.9-12.6.09-.08.07-.91-.59-.37-4.74,5,3.56,10.43,2,16.54C138.63,120.48,137,122,137.5,127.93Zm1.74.29v0Z" transform="translate(97.55 66.63)" style="fill: #2c3e50"/>
          <path d="M102.44,136c13.57,4,16.09,22.36,30.39,13.75.51.61,4.08,4,4.2,1.1-1.83,0-3.22-3.89-5.61-2.11-12.4,7.2-13.6-10.11-30-13.75C100.71,135.18,100.81,136.12,102.44,136ZM133,149.77l-.06,0Zm-.06,0Z" transform="translate(97.55 66.63)" style="fill: #2c3e50"/>
          <path d="M97.12,141.86c-2.47,2.08,10.76,3.91,8.52,10.89-.58,2.7,3.37,2.27,5.81,3.25.49.08,4.2,3.12,2.41-.43-1.51-1.48-4-1.54-6.41-2.22C107.82,146.54,102.32,145.27,97.12,141.86Z" transform="translate(97.55 66.63)" style="fill: #2c3e50"/>
          <path d="M72.64,88.7c5.33-1.84,1.76-8.16,3.28-12.33,1.22-2.59,4.24-2.8,5.83-5.42,2-5.84-6.76-3,3.33-13.86,4.12-2.85,9.64-.78,9.61-10.21-.13-.75.86-2.66-.47-2.45-1.32,10,.31,7.42-9.42,11.47.76-2,3.63-1.7,5-4.92.54-5.84,1.1-13.13,7.13-16.59,1.18-.77-.69-3.15,2.31-5.1l-.13.1A27.54,27.54,0,0,1,126,23.63c3.2,2.66,5.58,1.71-.33-1.11-2-1.08-14.59-3-22.07,2.11-3.26,2.13-7.7,4.05-7.47,8.88-4,2.1-5.84,6.72-6.93,11.54-1,6.14,1.72,4.6-5.2,9.91-.31,2.33-2.15,3.65-3.76,6.16-4.32,4.07,2.59,6.19-.41,10.22-11.44,7-1.34,7.7-6.94,15.83C72.6,87.55,71.5,87.9,72.64,88.7Z" transform="translate(97.55 66.63)" style="fill: #2c3e50"/>
          <path d="M53.47,110.79c.32.78,1.87,1.28,3.24,1.37h-.08c3.75,1-3.23,3.76-2.5,5.63.22,0,.13.79,2.32-.79,10.65-10.64-13.26.78,7.1-19.44l-.14.11c9.24-8.62,12.94-4.39,15-12.12-.24-1.07,4.71-6.24,2.17-6-8.8,16-.27,3.94-17.24,16.5l.13-.11C60.66,98.1,53.7,104.46,53.47,110.79Z" transform="translate(97.55 66.63)" style="fill: #2c3e50"/>
          <path d="M61.25,117.09c.22-.18,1.33-.67,1.49-1.24C62.52,116,61.41,116.52,61.25,117.09Z" transform="translate(97.55 66.63)" style="fill: #2c3e50"/>
          <path d="M79.86,118.71c-1.26,2.69-7.36,3.54-5.93,8.19.39,1.58,2.08,3.18,2.58,5.11-.57.41-.7,4.21,1,1.29,1.68-5.27-7.66-6.23,1.81-12.05,1.95-1.28,2.26-3.76,1.44-6.56-10.45-20.12,8.21-18,14.8-34.85,4.58-11-10.24-11.6,2.3-27.61.29-.51,1.52-1.51.35-1.77-4.91,6.22-3.2,3.47-7.3,13-12-1-5.7,14.26-5.52,8.41h0c-.65-.57-1.68-7.15,3.86-7.31l-.1,0,.22,0H89.3l.16,0h0l.12,0h-.08c.5-.26,1.09.36,2.26-1.08C91,67.83,95.56,71.25,95.25,76,94.53,87.67,80.69,90.92,77,101.28,74.39,107.58,80.28,112.31,79.86,118.71Z" transform="translate(97.55 66.63)" style="fill: #2c3e50"/>
          <path d="M127.13,39.15c-.85-.39-18.28-3.44-16.56,2.08-.1,1.42,7.92,4.65,1.23,10.8-3.61,3.77-9.92,3.71-11.12,10.78-3.53,7.3,6.16,11.61.17,21.76-1.5,1.77,2.42,2.9.08,9.46-.41,3.07,2.28,6.82-.54,9.78h0c-2.43,3-.73,7.42-2.58,11.2-7.43,7.19,4.81,5.63-.24,16.26-1.09,1-5.82,9.14-2.74,12.38,2.11-.2-.92-5.11,3.77-10.71,3.48-4.07,2.24-9.63-1.27-13.87,1.5-1.51,3.37-3.74,3.38-6.64,2,2.41,4.54,5.1,5.86,8.56,1.26,2.35.78,6.66,3.81,8.24,1.23,1,4.64-2.34,10,5.85.87.71.73,2.81,3.34,2.41,4-2.52,7.79,4.21,11.18-2.95.53-.5.48-.32,2.89-1.45.42-.25,1.36-1.36.53-2.16-.46-.42-.25-.1-4.93,2.81-1.12.8-.06,3.34-3.71,2.57-2.49-.78-1-1.69-6.74-.23-1.55-1.51-1.68-3.93-6.61-7.24-11.89-2.77-1.89.12-12.88-15.07-5.12-4.26-1.52-7.11.38-12.35-.64-4.06-.4-8.3-.88-13,.93.87,2.12,1.41,4.81,3.38l-.1-.08c7.91,6.06,10.36,14.63,25.6,12,2.61-.06,3.53-3.92,6.74-6.76-1.49,2.44,6.71,9.86,2,2.43l.11.14c-1.1-1.27-1.35-3.2.22-6.07-.23-.2,3-4.55.43-3.42-.67.55-.8,4.44-5.64,8.95-1.72,1.43-1.26,4.52-6.84,4-3.17.2-7,1.46-9.87-1.71-5.1-2.74-8.11-8.26-16.76-13.66-.15,0-.68-.27-.81.46-3.1-3.07,2.51-5.18.8-12.83-8.88-24.14,19.15-17.81,10-32.7-7.15-5,11-2.93,15.47-2.31C131.75,40.45,133.61,38.9,127.13,39.15Zm-15,.63v0Zm0,0h0v0Zm0,0Z" transform="translate(97.55 66.63)" style="fill: #2c3e50"/>
          <path d="M100,73.79c0-.07.74-1.61-.18-1-1.55,2.37,1.21,6-.22,10.65-.22-.09.12-6.35-.94-5.22.66,7.19,1.34,5.12-3.28,13.51a.42.42,0,0,0,0-.1c-13.08,8-1.75,16.87-11.56,30.13-.08.62-1.35.79-.32,3.69,4.51,8.2-5.25,6.88-1.79,9.59,2.32.75,5.35-4.18,4.29-7.39-.33-1.75-2.38-3.78-.45-5.74,8-8.84-1.06-23.64,9.15-28.6,4.32,17.67-3.22,6.78-3.33,23-.16,6.48,6.53,7.9,0,14.69-.68,1.47-4.89,4.13-3,5.27C104.59,123,90,125.06,94.54,109.55c-.1-.28,3-2.48,3.58-7.85.09-2.54-1.39-4.47-2.56-7.34C95.4,90.28,101.87,91.09,100,73.79ZM98.1,88.31a9.08,9.08,0,0,1-1,1.75c.47-.83.94-2.06,1.62-3.24C98.54,87.21,98.47,87.4,98.1,88.31Z" transform="translate(97.55 66.63)" style="fill: #2c3e50"/>
          <path d="M85.15,125.36a1.16,1.16,0,0,1,.08.19A1.54,1.54,0,0,0,85.15,125.36Z" transform="translate(97.55 66.63)" style="fill: #2c3e50"/>
          <path d="M89.46,64.59h0Z" transform="translate(97.55 66.63)" style="fill: #2c3e50"/>
          <path d="M97.32,45.47c-4.53,6,1.42.33,4.11-1.41,1.6-1.16,4.52-.93,5.55-3.21-2.44-6.28,7.56-7,13.14-7.63h.06c17.2-2.12-10.73-2.19-14.14,3.28.11.29-1.35.65-.28,4.22C103.3,42.29,99.68,42.79,97.32,45.47Z" transform="translate(97.55 66.63)" style="fill: #2c3e50"/>
          <path d="M119.65,33.29h0Z" transform="translate(97.55 66.63)" style="fill: #2c3e50"/>
          <path d="M103.52,34.92c-3.07.63-8.12,5.81-.17,1.22,4.12,0-2.2-6.72,19.42-7.2,1.62-1-11.43-2.16-17.27,3.13h0c-.4.39-2,1.3-1.19,2.56C104.13,34.71,104,34.74,103.52,34.92Zm2.37-3.15-.09.07Z" transform="translate(97.55 66.63)" style="fill: #2c3e50"/>
          <path d="M105.77,31.86h0Z" transform="translate(97.55 66.63)" style="fill: #2c3e50"/>
          <path d="M132.13,26c.67.13,1.25-.38,2.38-.78h0c3.26-.88,8.74-1,10.89,4.68l-.06-.15c-.68,4.67,25.29,23.27,19.42,39.31v0c-.58.35,0,3.09.8,1,2.62-10.43-2.64-18.85-9.67-28-1.84-3.9-5.55-6.63-8.32-10.44-1.24-2.92-2.88-6.8-6.82-7.61C140.63,23.65,131.65,23.35,132.13,26Z" transform="translate(97.55 66.63)" style="fill: #2c3e50"/>
          <path d="M139.33,37.9c1.7-1.58,4.09,3.67,5.24,1.22C142.86,32.78,128.54,40.64,139.33,37.9Z" transform="translate(97.55 66.63)" style="fill: #2c3e50"/>
          <path d="M148.74,58c3.83,9,16.51-3.24,8.57.73-5.45,4-10.12-2.2-9.33-8.22-2.66-4-4.19-10.41-9.92-11.61-2.49,2.06,6.94.8,9.08,16.58-1.28-2-1.6,16.88.68,16.39,1.26-.41.16-2.33.09-15.17A7.53,7.53,0,0,1,148.74,58Z" transform="translate(97.55 66.63)" style="fill: #2c3e50"/>
          <path d="M136.71,28.86c-3.24-.22-6.28,4.81.25.73C136.87,29.45,137.21,29.27,136.71,28.86Z" transform="translate(97.55 66.63)" style="fill: #2c3e50"/>
          <path d="M143.45,34.18c-7.15-6.66-12.07,4.21-7.7.69C137.42,30.25,144.46,37.59,143.45,34.18Z" transform="translate(97.55 66.63)" style="fill: #2c3e50"/>
          <path d="M137.5,90c2-.94-2.78-1.77-6-1h.07c-.13-.07,0,.12-.56-.23l0,0c-1.39-1-3.61.23-6.15.66l.12,0-.79.11.12,0c-.77.2-5.74-.13-.94,1.6h0c1.93,1.18,3,3.56,7.41,3.33h0c3.92.8,3.09.27,6.67-4.44h0Zm-11.56.12c2.33-1,6-1.29,10.54-.49-.22,0-.53.35-2.71,1.14h0c-2.56.91-5.48.36-8.38-.52A5.19,5.19,0,0,1,125.94,90.1Zm10.23.23c-1,.79-1.15,3.6-3.14,3.72-3.3-.92-3.73,1.46-9.81-3.51,3.79-.16,6.82,2.94,13.08-.4h0l.06,0A1.82,1.82,0,0,0,136.17,90.33Z" transform="translate(97.55 66.63)" style="fill: #2c3e50"/>
          <path d="M118.94,87.31c3.58-2.67,6.38-7.56-.6,0,.13.14-2,4-.8,4.52a18.08,18.08,0,0,1,1-3.71l0,.06a1.54,1.54,0,0,0,.08-.19.17.17,0,0,1,0,0A4,4,0,0,1,118.94,87.31Z" transform="translate(97.55 66.63)" style="fill: #2c3e50"/>
          <path d="M139,91.79c.93,1.55,2.76-7.88.82-7.47-.41.76,1.08,3.3-.6,6.82v0c0,.14-.11.27-.17.41v0A.55.55,0,0,0,139,91.79Z" transform="translate(97.55 66.63)" style="fill: #2c3e50"/>
          <path d="M124.54,80.3c-.54,1.28,4.36,2.41,1.51.53-.17-.27-.46-.16-.46-1.09C127,77,124.73,75.44,124.54,80.3Z" transform="translate(97.55 66.63)" style="fill: #2c3e50"/>
          <path d="M131,80.15c-2.48-1.73-2.24,2.84-.78.59.19.05.16-.12.94.43l-.08-.06C131.8,82,133.16,81.21,131,80.15Z" transform="translate(97.55 66.63)" style="fill: #2c3e50"/>
          <path d="M134.66,80.65c-1.21.47-2.9,2.27.76.06C136.29,83,137.89,77.84,134.66,80.65Z" transform="translate(97.55 66.63)" style="fill: #2c3e50"/>
          <path d="M138.09,79.5c.11.3-.43-4.13-1.27-2.55C137.78,77.64,136.73,83.86,138.09,79.5Z" transform="translate(97.55 66.63)" style="fill: #2c3e50"/>
          <path d="M125.44,68.09c.46.18-2.9,2.88-1.83,3.24s4.66-7.49,2-3.56v0C125.55,67.86,125.5,68,125.44,68.09Z" transform="translate(97.55 66.63)" style="fill: #2c3e50"/>
          <path d="M135.37,69.21c-.12.3,3.4,2,1.23.32C136.57,69.52,133.9,67.26,135.37,69.21Z" transform="translate(97.55 66.63)" style="fill: #2c3e50"/>
          <path d="M137.47,60.17c-.8-.44-3.94,3.31-.9,1.75.81-.8,2.76-1.44,7.86-1.83-1.49-.75-3.51-.43-6.3,0l.13,0Z" transform="translate(97.55 66.63)" style="fill: #2c3e50"/>
          <path d="M115.63,60.34c-.25,0-2.44,1.14-.74.52,4-2.4,8.21.48,11.92,1,1-1-5.51-3.38-10-1.92h0C116.51,60,116.35,60.08,115.63,60.34Z" transform="translate(97.55 66.63)" style="fill: #2c3e50"/>
          <path d="M144.34,66.63c.44,0,.95-.78,0-1.1l0,0c-1.15-1.5-8.44-2.22-9.27.86C138.42,66.68,139.05,70.26,144.34,66.63Zm0-1.12h0Zm-5.08-1h0a3.7,3.7,0,0,1,1,0h0a3.24,3.24,0,0,1,.75.16h0c.21.1-.07,0,.89.32-.39-.17,0,2.83-2.85,1.59l0,0-.06,0h0c-.73-.45-1.08-.17-.79-1.89A6.43,6.43,0,0,1,139.25,64.56Zm4.67,1.72c-2.88,2.38-3.29,1.89-8.42-.35.32-.08.41-.24,2.44-1.05a3.56,3.56,0,0,0-.1.47v0c-.47,2.34,4.19,2.94,4.5,0a4.22,4.22,0,0,1,.88.61l-.05,0a2.45,2.45,0,0,0,.8.4Z" transform="translate(97.55 66.63)" style="fill: #2c3e50"/>
          <path d="M143.7,66.16l0,0Z" transform="translate(97.55 66.63)" style="fill: #2c3e50"/>
          <polygon points="236.8 131.19 236.8 131.19 236.81 131.19 236.8 131.19" style="fill: #2c3e50"/>
          <path d="M139.07,66.67h0Z" transform="translate(97.55 66.63)" style="fill: #2c3e50"/>
          <path d="M139.32,66c1.36,1.11,1.42-2.59,0-.81C139.32,65.24,139,65.29,139.32,66Zm.54-.49,0,0s0,0,0,0Z" transform="translate(97.55 66.63)" style="fill: #2c3e50"/>
          <path d="M116.87,68.38c2.48,1.25,4.51-.89,7.12-1.6,1.15,0-1.63-5.35-10.38-.15h0l0,0h0l-.12.05,0,0-.05,0h0s-.28.12,0,.26C113.22,67.2,114.21,66.76,116.87,68.38Zm1.89-3.56a10.6,10.6,0,0,1,2.08,0c0,.06,0,.06,0,.33v0c1.18,2.49-4.5,3.09-2.88-.14Zm-2.19,3-.19-.08h0c-.58-.14-.4-.67-2.75-.9l1-.42h0a17.47,17.47,0,0,1,2.87-1.35c-2.27,2.62,4.74,4.09,3.79-.2a5.72,5.72,0,0,1,2.26,1.35,9.87,9.87,0,0,0-3,1.59h0A4.28,4.28,0,0,1,116.57,67.84Z" transform="translate(97.55 66.63)" style="fill: #2c3e50"/>
          <path d="M122,67.49Z" transform="translate(97.55 66.63)" style="fill: #2c3e50"/>
          <path d="M116.67,68.27l0,0Z" transform="translate(97.55 66.63)" style="fill: #2c3e50"/>
          <path d="M113.82,66.54h0Z" transform="translate(97.55 66.63)" style="fill: #2c3e50"/>
          <path d="M116,65.42h0Z" transform="translate(97.55 66.63)" style="fill: #2c3e50"/>
          <path d="M113.76,65.81c0-.09-2.25,1.31.23.1h0c1.79-.73,3.57-2.7,9.86-1.17-.69-.78-3.58-1.85-7.54-.23h0A14.79,14.79,0,0,0,113.76,65.81Z" transform="translate(97.55 66.63)" style="fill: #2c3e50"/>
          <polygon points="218.42 131.79 218.42 131.79 218.42 131.79 218.42 131.79" style="fill: #2c3e50"/>
          <path d="M119,66.23c.7.74,1.87-1.51.46-1.07C119.21,65,118.36,65.67,119,66.23Z" transform="translate(97.55 66.63)" style="fill: #2c3e50"/>
          <path d="M109.49,77.87c.41,3.29,3.44,6.92.69-.89-2.24-5.28-5.06-10.75-1.26-17.29-4.24,3.58-2.29,11.57.2,17.19l-.05-.11C109.15,77,109.09,76.74,109.49,77.87Z" transform="translate(97.55 66.63)" style="fill: #2c3e50"/>
          <path d="M118.54,112.06c-.33.39-.48-5.26-1.33-4C116.8,107.68,118.87,116.68,118.54,112.06Z" transform="translate(97.55 66.63)" style="fill: #2c3e50"/>
          <path d="M129.37,114c-.43-.2,2.7-6,1.52-6.42C130.72,107.12,127.2,115.54,129.37,114Z" transform="translate(97.55 66.63)" style="fill: #2c3e50"/>
          <path d="M116.31,125c2,.81-2.6-8.43-3.88-9.44C111,115.94,116,123.79,116.31,125Z" transform="translate(97.55 66.63)" style="fill: #2c3e50"/>
          <path d="M124.36,126.48c0-.12-1.13,1.76-2.55.62.1-.33-.82-3.33-.94-.84-.57,3.87,6.37,1.11,3.84-1.07C124.28,125.47,125.05,125.55,124.36,126.48Z" transform="translate(97.55 66.63)" style="fill: #2c3e50"/>
          <path d="M131.28,126.18c.19-3.26,2.72-9.66.93-9.32-1,5.16-2.81,11.1-2.72,16.1C130.79,133,130.72,127.93,131.28,126.18Z" transform="translate(97.55 66.63)" style="fill: #2c3e50"/>
          <path d="M72.26,97.28h0Z" transform="translate(97.55 66.63)" style="fill: #2c3e50"/>
          <path d="M68.41,105c.63-.38-12.53,12.5.35.67,2.8-4.44-9.57,1.94,3.5-8.39h0l.07-.05,0,0c6.44-5.49-12,6.65-5.75,7h-.09C66.62,104.51,68.71,104,68.41,105Z" transform="translate(97.55 66.63)" style="fill: #2c3e50"/>
          <path d="M70.29,114c.24-2.37,4-5.11,3.6-7.54a27,27,0,0,0-4.59,8.42c-.39.07,1.23,2.37-1.14,4.18-2.4,2.46-6.76.58-5.35,5.91-.13.2-.12.39-.89.75-1.15-.1-.77,4.21.35.86,2-1,.95-1.92,1.18-4.37C67,120.37,70.69,120.71,70.29,114Z" transform="translate(97.55 66.63)" style="fill: #2c3e50"/>
          <path d="M51.71,176.64c-.94-.72-3.9,6.27-1.21,7.6.79-.49.14-1,0-3.14C50.12,179.76,52.15,178.13,51.71,176.64Z" transform="translate(97.55 66.63)" style="fill: #2c3e50"/>
          <path d="M189.32,220.18h0c-1.26-1.38-13.84-1.72-14.46,1.48,3.41-.84,7.21-2.21,11.32-1.63C186.53,220,191.48,222.44,189.32,220.18Z" transform="translate(97.55 66.63)" style="fill: #2c3e50"/>
          <path d="M186.16,230.31c.46,0-13.26-6.79-12.83-3.39,2.33,1,5.25.77,8.09,2.37C182.63,229.73,188.54,234.14,186.16,230.31Z" transform="translate(97.55 66.63)" style="fill: #2c3e50"/>
          <path d="M183.67,238.08c.27-1-11.65-6.19-10.51-3,2.12,1.06,4.65.5,7.07,2C180.51,237.18,186.53,241.82,183.67,238.08Z" transform="translate(97.55 66.63)" style="fill: #2c3e50"/>
          <path d="M173.81,241.1c-.06-.06-5-3.38-3.67-.57C171,240.61,177.42,245.39,173.81,241.1Z" transform="translate(97.55 66.63)" style="fill: #2c3e50"/>
          <path d="M79.54,227.81c.22.82,9.5,8,7.79,4-7.06-3.76-17.28-14.41-26.55-21.58-1.61.18,3.39,4,5,5.13C70.13,219.47,74.7,223.53,79.54,227.81Z" transform="translate(97.55 66.63)" style="fill: #2c3e50"/>
          <path d="M84.25,238.77c8.36-1.4-6.27-2.43-5.41,1.77C80.62,240.53,82,238.86,84.25,238.77Z" transform="translate(97.55 66.63)" style="fill: #2c3e50"/>
          <path d="M81.88,249.31C86,247.37,87.29,244,94.66,245,95.84,240.73,79.79,245.6,81.88,249.31Z" transform="translate(97.55 66.63)" style="fill: #2c3e50"/>
          <path d="M100.15,250.15C88,247.56,71.26,263.28,89.66,254A20.19,20.19,0,0,1,100,252.21,1.15,1.15,0,0,0,100.15,250.15Z" transform="translate(97.55 66.63)" style="fill: #2c3e50"/>
        </g>
        <g>
          <path d="M337,221.87c1.6-1.42-24,4.73-26.6,4.14l.18,0c-.57.06-1.14.14-1.72.22l.19,0c-9.53,1.47-19.22,2.06-29.16,3.63l.13,0c-3.51.49-7.49.94-11.59,1.46l.18,0c-17.65,1.83-35,6.54-53.08,8.52h0c-.36.51-16.91,2-15.12,4.18,6.54-1.4,14.18-2.57,21.45-3.69l-.18,0c15.7-1.84,31.13-6.28,47.38-7.74l-.18,0c13.77-1.77,28.14-3.36,42.38-5.27l-.19,0C319.21,225.76,329.92,226,337,221.87Z" transform="translate(97.55 66.63)" style="fill: #2c3e50"/>
          <path d="M232.26,123.31c.92.68-1.06,14.07,1.64,10.72.26-2.68,1.58-9.74-.43-14.1C231.76,119.53,231.9,121.23,232.26,123.31Z" transform="translate(97.55 66.63)" style="fill: #2c3e50"/>
          <path d="M149,134.72c.23-.24.31,7.66,2.46,6.55-1-4-2.59-8.75-1.14-13.53C151.05,125.11,148.35,127.67,149,134.72Z" transform="translate(97.55 66.63)" style="fill: #2c3e50"/>
          <path d="M190.47,125.46c3.25-.85-.08-4.84-5.69,3.29-2.78,4.56,1.62,14.36,8,10.65,2.38-1.11-14.68-2.67-2.31-13.94h0Z" transform="translate(97.55 66.63)" style="fill: #2c3e50"/>
          <path d="M198.21,157.18c2.73,10.13.22,22.33,5.27,32.07,7.38,3.4,5-5.38,4.24-11.19v0h0v0a.82.82,0,0,0,0-.1h0V178a183.13,183.13,0,0,1-2.84-19.19c-.57-1.32,1.15-5.1-1.75-7.7C203.18,151,198,149,198.21,157.18Zm8.17,31.53c-4.59,3.27-5.62-17.23-6.12-23.94.8-.35-2.88-11.65,0-10.65a67.12,67.12,0,0,1,4,16.26C203.63,171.68,208.4,185.09,206.38,188.71Zm-.5-15.79c0,.35.54,2.08,1.11,6.07-.38-2.16-.92-4.43-1.31-7.09C205.74,172.24,205.81,172.58,205.88,172.92Zm-6.15-20.16c5.07-3.85,3.32,3.92,4.9,12-.94-.72-1.12-11.14-5.08-11.75Z" transform="translate(97.55 66.63)" style="fill: #2c3e50"/>
          <path d="M184.8,240.07a.41.41,0,0,0,0-.09A.36.36,0,0,1,184.8,240.07Z" transform="translate(97.55 66.63)" style="fill: #2c3e50"/>
          <path d="M193.3,250.72l-.05.11Z" transform="translate(97.55 66.63)" style="fill: #2c3e50"/>
          <path d="M197.08,242.17l0,0Z" transform="translate(97.55 66.63)" style="fill: #2c3e50"/>
          <path d="M200.43,234a.25.25,0,0,0,0-.07Z" transform="translate(97.55 66.63)" style="fill: #2c3e50"/>
          <path d="M182.76,254.29c-2,3.55,6.58,10.4,11.16-5.13l0,.1c.18-.4.16-.43.68-1.64v0c0-.13.11-.25.16-.38l-.05.12.6-1.44h0a41.23,41.23,0,0,1,1.82-3.79l0,.08,0-.11h0c1-2.45,2.08-5,3.33-8.13h0l0-.12v0c2.15-5.86,5.86-11.76,6.82-18.58-4.7-7.62-10.42,6.86-12.51,11.63l0-.05c-1.75,3.76-3.19,8.56-5,12.84l0,0C187.75,244.48,184.43,248.91,182.76,254.29Zm23.42-39.46c.32.11.33,2.1-.31,3.9v0l0,0h0c-1.05,2.45-2.13,5.33-3.41,8.39v0c-.37,1-1,2.1-1.51,3.61h0c-1.79,3.43-3.05,7.31-4.78,11.29,0,0,0-.08,0-.11-2.93,2.61-4.74,20.72-12.45,14.59-.38-2.68,4.27,3,8.68-9.08v0c.05-.1.09-.21.14-.32l0,.08a33.17,33.17,0,0,0,1.23-3.39h0l0-.08,0,.05a47.31,47.31,0,0,0,2.44-6.28v0c2.13-5.15,4.71-10.61,7-16.31a.61.61,0,0,1-.05.12,27.67,27.67,0,0,0,1.93-6.7A11.1,11.1,0,0,1,206.18,214.83Zm-17.4,29.61c2.11-4.42,3.8-9.11,5.73-14.32l0,.12c1.44-1.82,3.89-13.35,9.55-15.73-1.71,8.72-7.58,18.61-10.62,28.55l0-.08c0,.43-1.7.25-4.74,1.66l0-.06v0A1.11,1.11,0,0,1,188.78,244.44Zm-.49,1.08c1.15.26,2.83-1.1,4.59-1.2a26.63,26.63,0,0,1-1.33,3.6,4.26,4.26,0,0,1-.37-.26l0,0a7.52,7.52,0,0,0-3.22-1.63Zm-4,8.25c.65-2.12,1.87-3.76,3.1-6.4,6.3.33,2.07,7.33-3.31,7Z" transform="translate(97.55 66.63)" style="fill: #2c3e50"/>
          <path d="M196.92,240.16a.62.62,0,0,0,.05-.11Z" transform="translate(97.55 66.63)" style="fill: #2c3e50"/>
          <path d="M205.87,218.73Z" transform="translate(97.55 66.63)" style="fill: #2c3e50"/>
          <path d="M193.5,230l.05-.12Z" transform="translate(97.55 66.63)" style="fill: #2c3e50"/>
          <path d="M193.35,250.6l0,.11Z" transform="translate(97.55 66.63)" style="fill: #2c3e50"/>
          <path d="M207.14,216.84s0,0,0,.11Z" transform="translate(97.55 66.63)" style="fill: #2c3e50"/>
          <path d="M193.78,243.78h0v0Z" transform="translate(97.55 66.63)" style="fill: #2c3e50"/>
          <path d="M155.47,246.33l-.21,0Z" transform="translate(97.55 66.63)" style="fill: #2c3e50"/>
          <path d="M142.06,247.68h0Z" transform="translate(97.55 66.63)" style="fill: #2c3e50"/>
          <path d="M207.81,269.41a5.69,5.69,0,0,0-.25-.69l.06.14a13.82,13.82,0,0,0-2.41-4.29h0c-.79-.87-.94-1.85-3.11-4h0c-.92-.5-1.9-3.64-5.82-7.85,1-2.79,2.1-5.59,3.44-9.1h0c1.64-3.46,3.28-7.34,5.06-11.4,0,0,0,.08-.05.13l.15-.37a.5.5,0,0,1-.05.13c3.52-7,5.07-15.06,8.62-22.5,1.45-1.21-10.5-.54-14.07-.21,2.32-1.94,1.51-12.74-2.74-10.93,2.68,2.06,4.36,5.09,1.73,11.18.15.67-3.22-1.81-3.91-6.62v.12c.17-2.28.15-6.27,3.46-6.82,2.09,6.6,11.75-4.07,9.25,10.78-.09.42-.45,1.16.53,1.15,2.27-3.73,2.13-12.58-6.38-10.49-.91-19.14-10.29-84.11-1.16-.81-1.58-.55-1.48-7.49-2.57-13.25v.11c-2.46-12.16-1.78-26.39-5-38.36-2.95-.06-6.43,1.81-11.54-3.82-13.65-2-14.09,8.66-13.56-17.25.33-.41-.45-1.21-1.39-2.49,4.34-.72,9.89.64,14.07-2.28,2.88-3,4.53-4,12.61-3.61,4.63-.14,2.45-.66,8.35,3.15a13.42,13.42,0,0,0,6.65.49h0c2.07-.15,4.51,0,7.19-.34a22.21,22.21,0,0,1,1.41,15.91c-.1,2.93-2.33,4.3-6.41,4-.4-.24-1.74.86-2-1,2.41-1.29-.58-8.41-4.38-6.61-.14-25.84-36-5.71-17.73,10.58l-.07-.06c2.42,2.06,9.07,1.58.82-.92l0,0c-3.18-1.88-5.18-6.37-4.46-11.06h0c.37-7.82,18.36-18.22,20.38,2.13-.42.18-.19.15-1.22.05.82-4.91-9-7.37-11.74-2.63-3.31,3.56.78,10,6.31,7.5-.13.88,1,1.34-1.37,3.51.34,1.69,1.18,4.73,4.19,4.74,1.51.32,1.26-1.64,6.56-1.52-.62,2.24.08,5.27.51,8.14v-.08c.57,3.62.35,8.11,1.17,12.42v0c.1.93.22,1.37.65,4.56v0c1.65,9.1,2.61,18.47,4.75,28.14l0-.14c-.14.58.42,3.31,1.64,1.52,3.24,2.59,1.19,7.29-.18,10.59,1.14.75,5.79-6.38,0-12.64l0,.2c-3.11-8.46,10.41.86,14.83-8,1-16.62.58-32.84,1.31-49.89,9.35,5.18,12.13-9.87,9.25-18.15l0,0c-1.13-1.69-1-5.37-7.11-4.29l.18,0c-.41.06-.73,0-1.82.17.22-12.38.49-24.85.84-37.78C232.2,66.48,227,68.68,203,69.36c-12.77.29-25.14-.85-39.34.58-5.19,0-11-.68-16.44,1.56-.38-.88-4-.69-4.12,6.68h0c-1.45,14.24.06,28.72-.21,43.5-4.18.07-5,5.87-3.85,10.6.53,1.44-1.11,12.09,4.83,14.25-1.25,11.62-.83,24.36-.66,36.87-1.46,19.9.31,15.22,51.67,12.22h-.05a21.86,21.86,0,0,0,3.05-.49c0,.09,0,.06,0,.43-4.48.07-6.17,10.16-1.26,14.71-.42-.23-.62,2.55-2.4,6.61a.54.54,0,0,1,.05-.11c-1.53,4-2.81,8.17-4.67,12.57l0,0c-2,4.28-4.24,9-6.07,14l0,0,0,.07,0-.05c-.12.29-.24.58-.35.87-4.6-1.71-10-.7-15.62-.46h0c-10.36,1.08-22.7.72-31.52,7.51-9.42,2.19-20.4,3.09-30.55,4.8l.09,0c-9,1.53-18.36,3.14-27.85,4.5l.17,0c-9.64,1.64-19.44,3-29.75,3.85l.16,0C.69,277.09,5.31,261,10.2,302.06c3.64,2-3.12-20.67-1-28.55,12.66-2.32,25.32-4.82,38.34-7.91,24.34-2.47,48.8-6.81,73.47-10.35l-.12,0a143.43,143.43,0,0,0,14.59-2.42c-2.44,5.78,2,10.91,4.61,16.71,9.91,20.52,27.33,16.12,49.71,12.38l-.13,0C193.53,281.58,209.82,278.94,207.81,269.41Zm-9.42-92.75v0Zm-58.83-37.11h0v0Zm53.82,8,0,.12,0-.14Zm0,0v0Zm4.92-30.25.11.09Zm16.38,21.59c-.05,0,0,0-.14.05Zm-6.64-2.41,0,0Zm0-.07h0v-.06A.13.13,0,0,1,208.07,136.41Zm-12.92-.54c-.59-.09-.57.09-2.29-1l.29.22c-4.22-2.63-.19-8.77,6.07-5.15l-.09-.11c.37.6,1.31.88,1.2,2.79-1.61.33-4.09.74-4.32,3.35A1.44,1.44,0,0,0,195.15,135.87Zm9.63,7c-5-1.3-4.25,4-8,0h0c-.37-.26-.14-1.22-.78-1.72,2.83-1.53.12-3.81,2.11-6.76,1.3-1,3.29-.52,5.18-1.09.83-.3,1.12-1.48,2.58-.42.53.86,3.19,2.91,1,5.08C206.14,138,209.05,141.38,204.78,142.86Zm24.28-3.66c-.67,14.21-.9,28.64-1.21,43.38-.59,10.6-1.2,8.58-14,9.09l.2,0a9.3,9.3,0,0,0-1.28.24c-1.71-8.51-2.7-16.93-4.39-26.15v0c-.89-6.89-1.27-14.65-2.77-21.77,5.25-2.39-2.05-3.13,9.28-3.62,1.64-1.56,9.76-1.25,14.29-1.57A.58.58,0,0,0,229.06,139.2Zm7.52-20.84h0l0,0Zm-4.69-.51c.86.22,3.6-.82,4.8.7l-.05-.1c2.13,3.17,2.51,7,2.19,11.54l0-.19c-1.17,3.66.28,9-6.79,8.57.51-1.85-6-1-9.31-.89h.11c-1.93.2-3.63.09-6.08.24,1.87-5.53,2.68-12.78-1.07-18.28C216.08,120.21,227.81,120.66,231.89,117.85Zm-88-23.14c2.25-31.51-12.66-21.43,73.24-24.79,4.11.94,9.71-2.34,12.24,2.42l0,0c2.24,2.28-.58,24.78-.61,45.61-7.79,1-12.7-.2-25.51.43-2.48-.29-3.93-3.29-6.67-3.84-5.79.23-12.57-1.42-17.13,4.08-1.37,2.46-10.55.5-15.22,2.88l.06,0c-4.18.09-8.3.93-13.14,1.09-1.75-1.14-4.4-.57-7.1.09C143.78,113.59,144,104.29,143.86,94.71Zm20.31,26.77-.11,0Zm-13.6,1.15h0Zm-7.07,22.72c0-.22-1,.18-2-2.55l0,0c-.24,0-3.87-16-.05-19.21,3.06,1.23-.8,1.72,7.1,0,1.13.51,12.49.16,16.88-1.32,2.86,1.85-.82,8.56,2,19.9a77.71,77.71,0,0,0-16.18,2C150.26,144.24,153.36,146.94,143.5,145.35Zm7.32,0,0,.05Zm46.49,48.17a74.09,74.09,0,0,1-9.13,1.11h0c-58.77,4.84-40.77,10.64-44-48,2,.09,5.65,1.18,7.47-.91-1.3-1.67,19.77-2.61,28.78-2.28,2,3.86,7,5.07,11.74,3.76,1.56,15.12,3.3,30.64,5.35,46.34A1.41,1.41,0,0,0,197.31,193.55ZM196.12,197Zm-12.49,48.21c2.59-7.53,6.89-14.53,9.41-22.72l0,.1.3-.69,0,.07c1.32-3.18,2.66-6.7,4-10.67,4.35-1.41,9.64-.93,15.13-1.29-2.59,3.88-1.92,8.38-8.26,21.23l.05-.13c-.63,1.47-1.71,3.6-2.49,5.62l.06-.14a157.88,157.88,0,0,0-7.22,17.7h0c-1.93,4.74-4.82,9.55-6.94,14.7-.22.22-2,.91-2.08,0,1-3.92-3.43-9.75-7.11-3.92-1.36,1.12-.63,4.93-3.28,5.09-6,1.68-8.17-.06-5.57-8.55,0-.09,2.3-.28,6-.76.18.39-2.55,2.22-1.31,2.79C177.93,260.5,179.28,254.72,183.63,245.17Zm-16.36,18.68c-2.35.29-5.07,1.76-8,1,.46-1.27,3.4-1,6.13-1.3h0c.63-.08.46,0,2.44-.32-.29,0,.54.37-.72.68Zm-1.76-5.62.15,0h.05c1.12-.11,3.64-.25,5.58-.48h-.13c2.08-.23,3.77-.3,6.48-.61-.71,5-7.73,1-9.37,5a6.76,6.76,0,0,0-2,.23h0c-2.39.69-6.08-.81-8,2C155.47,260.23,152.47,259.27,165.51,258.23Zm41.37,14.37c-3.79,7.62-16.56,8-27.34,9.43-8.78.57-16.32,3.64-27.38-1.34-7.22-3.78-10-8.55-14.17-18.24-2.11-3.28-3.54-10.08,1.74-12.09,4.4-2.9,29.21-7,40.85-5.74h-.06l.16,0h-.05c.46,0,.81.29,2.16.46l-.12.29v0c-6.16,11.72.55,10.47-17.84,11.93h0l-.45.06.14,0c-2.51.73-12.34-1-9.32,4.87,2.2,2.45,1.75,5,11.46,2.79l-.14,0c.23,0,.37,0,1-.1-.8,3,0,8.62,5.6,6.46,2.5-.72,4,.49,5.11-4.39,2.6.34,10.07-3.15.77-1.5.52-1.68,4.43-3.25,5.22.93.2-.23-.65,6.76,4,2.85.84,0,4.83-9.24,7.5-15C199.12,260,206.64,264.9,206.88,272.6Z" transform="translate(97.55 66.63)" style="fill: #2c3e50"/>
          <path d="M164.68,258.35h0Z" transform="translate(97.55 66.63)" style="fill: #2c3e50"/>
          <path d="M165.7,258.2h0Z" transform="translate(97.55 66.63)" style="fill: #2c3e50"/>
          <path d="M171.74,264.61c.15-2.68-5-.27-1.3-.47.24.35.27.07.48,1.05.05.2.29,1.44-.64,4.43C172.05,271,172.32,266.35,171.74,264.61Zm-1,4h0Z" transform="translate(97.55 66.63)" style="fill: #2c3e50"/>
          <path d="M182.88,272.07c-1.77,1.84-3.86,3.71-7,.44C172.17,275.67,185.14,277,182.88,272.07Z" transform="translate(97.55 66.63)" style="fill: #2c3e50"/>
          <path d="M172.32,274.05c-1.54-3.46-2.37,1.69,0,1.8C172.32,275.67,172.94,275.51,172.32,274.05Z" transform="translate(97.55 66.63)" style="fill: #2c3e50"/>
          <path d="M144.28,72.63l.09-.11Z" transform="translate(97.55 66.63)" style="fill: #2c3e50"/>
          <path d="M157.44,79.39c-.76,0-.44.48-1.18,1.88-1,.55-3.4,1-2.24-2.36.35-.23,3.17-1.81.39-1.62C147.89,80.48,158.09,87.31,157.44,79.39Z" transform="translate(97.55 66.63)" style="fill: #2c3e50"/>
          <path d="M150.94,74.05c-.26,2.4,11.64,1.41,8.43-1.19,0,1.34-4.09,2.36-7,1.32C152.15,74.08,150.26,71.61,150.94,74.05Z" transform="translate(97.55 66.63)" style="fill: #2c3e50"/>
          <path d="M145.14,83.8c4.83-5.59,5,6.31,4.61,10.22-.51,2.31,1.13,7.51-3.19,7.1,4.31,7.6,7.32-22,.08-19.54l.05,0-.07,0h0C146.5,81.34,142.93,83.94,145.14,83.8Z" transform="translate(97.55 66.63)" style="fill: #2c3e50"/>
          <path d="M146.51,85.76c-1.94-2.64-.62,8.4.53,4.22C146.59,90.15,146.45,88.28,146.51,85.76Z" transform="translate(97.55 66.63)" style="fill: #2c3e50"/>
          <path d="M147.24,98.64c1-1.17-1.1-.33-.81-1.52,0,0,0,.09,0,.14-.34-.09,1-5.06-.62-4.31C145.9,93.45,143.85,100,147.24,98.64Zm-.86-.91s0,0,0,0l0,0Z" transform="translate(97.55 66.63)" style="fill: #2c3e50"/>
        </g>
      </g>
    </g>
  </g>
</svg>
