<svg xmlns="http://www.w3.org/2000/svg" xmlns:xlink="http://www.w3.org/1999/xlink" viewBox="0 0 647.42 514.99">
  <defs>
    <linearGradient id="linear-gradient" x1="-6530.24" y1="2338.69" x2="-6432.01" y2="2338.69" gradientTransform="translate(6344.38 -2256.36)" gradientUnits="userSpaceOnUse">
      <stop offset="0" stop-color="#fff"/>
      <stop offset="1" stop-color="#010202"/>
    </linearGradient>
    <linearGradient id="linear-gradient-2" x1="-727.88" y1="82.34" x2="-629.65" y2="82.34" gradientTransform="translate(908.16)" xlink:href="#linear-gradient"/>
    <linearGradient id="linear-gradient-3" x1="-6539.36" y1="2289.9" x2="-6432.01" y2="2289.9" gradientTransform="translate(6353.5 -2158.76)" xlink:href="#linear-gradient"/>
    <linearGradient id="linear-gradient-4" x1="-735.25" y1="131.14" x2="-629.65" y2="131.14" gradientTransform="translate(908.16)" xlink:href="#linear-gradient"/>
    <clipPath id="clip-path" transform="translate(298.43 0.18)">
      <rect width="330.5" height="311.39" style="fill: none"/>
    </clipPath>
    <mask id="mask" x="112.57" y="68.01" width="98.42" height="29.01" maskUnits="userSpaceOnUse">
      <g transform="translate(298.43 0.18)">
        <rect x="-185.86" y="67.83" width="98.23" height="29.01" transform="translate(-273.48 164.67) rotate(180)" style="fill: url(#linear-gradient)"/>
      </g>
    </mask>
    <mask id="mask-2" x="478.71" y="68.01" width="101.41" height="29.01" maskUnits="userSpaceOnUse">
      <g transform="translate(298.43 0.18)">
        <rect x="180.28" y="67.83" width="98.23" height="29.01" style="fill: url(#linear-gradient-2)"/>
      </g>
    </mask>
    <mask id="mask-3" x="112.57" y="116.81" width="107.35" height="29.01" maskUnits="userSpaceOnUse">
      <g transform="translate(298.43 0.18)">
        <rect x="-185.86" y="116.63" width="107.35" height="29.01" transform="translate(-264.37 262.27) rotate(180)" style="fill: url(#linear-gradient-3)"/>
      </g>
    </mask>
    <mask id="mask-4" x="471.34" y="116.81" width="105.6" height="29.01" maskUnits="userSpaceOnUse">
      <g transform="translate(298.43 0.18)">
        <rect x="172.91" y="116.63" width="105.6" height="29.01" style="fill: url(#linear-gradient-4)"/>
      </g>
    </mask>
    <symbol id="increase" data-name="increase" viewBox="0 0 28 34.92">
      <path d="M26.58,15.26,3.45.55C1.55-.66,0,.19,0,2.45v30c0,2.25,1.55,3.1,3.45,1.89L26.58,19.66C28.47,18.45,28.47,16.47,26.58,15.26ZM17.28,19H12.82v4.47a1.49,1.49,0,0,1-3,0V19H5.38a1.49,1.49,0,0,1,0-3H9.84V11.51a1.49,1.49,0,0,1,3,0V16h4.46a1.49,1.49,0,0,1,0,3Z" style="fill: #fff"/>
    </symbol>
    <symbol id="reduce" data-name="reduce" viewBox="0 0 28 34.92">
      <path d="M24.55.55,1.42,15.26c-1.89,1.21-1.89,3.19,0,4.4L24.55,34.37c1.9,1.21,3.45.36,3.45-1.89v-30C28,.19,26.45-.66,24.55.55ZM21.64,18.93H9.87a1.47,1.47,0,1,1,0-2.94H21.64a1.47,1.47,0,1,1,0,2.94Z" style="fill: #fff"/>
    </symbol>
    <symbol id="cancel" data-name="cancel" viewBox="0 0 28 28">
      <g id="Rounded">
        <path d="M23.9,4.1a14,14,0,1,0,0,19.8A14,14,0,0,0,23.9,4.1Zm-6.85,15L14,16l-3.05,3a1.44,1.44,0,0,1-2,0h0a1.44,1.44,0,0,1,0-2L12,14,8.92,11a1.44,1.44,0,0,1,0-2h0a1.44,1.44,0,0,1,2,0L14,12l3.05-3.05a1.44,1.44,0,0,1,2,0h0a1.44,1.44,0,0,1,0,2L16,14l3,3.05a1.44,1.44,0,0,1,0,2h0A1.44,1.44,0,0,1,17.05,19.08Z" style="fill: #fff"/>
      </g>
    </symbol>
    <symbol id="female_7" data-name="female 7" viewBox="0 0 136 41">
      <rect x="0.5" y="0.5" width="135" height="40" rx="19.42" style="fill: #fff;stroke: #fff;stroke-miterlimit: 10"/>
      <g>
        <text transform="translate(33.7 30.44)" style="font-size: 30px;fill: #2a81ba;font-family: Roboto-Light, Roboto;font-weight: 300"><tspan style="letter-spacing: -0.01171875em">f</tspan><tspan x="9.58" y="0">emale</tspan></text>
        <path d="M23.19,35.5H17.9V26.78H13.36l3.89-11.7a3.37,3.37,0,0,1,3.2-2.31h.18a3.39,3.39,0,0,1,3.2,2.3l3.9,11.71H23.19ZM20.54,12.24a3.37,3.37,0,1,1,3.37-3.37A3.37,3.37,0,0,1,20.54,12.24Z" style="fill: #2a81ba"/>
      </g>
    </symbol>
    <symbol id="male_6" data-name="male 6" viewBox="0 0 136 41">
      <text transform="translate(45.2 30.44)" style="font-size: 30px;fill: #fff;font-family: Roboto-Light, Roboto;font-weight: 300">male</text>
      <path d="M35.14,35.5H28.4V24.6H26.22V16.14a3.38,3.38,0,0,1,3.37-3.37H34a3.38,3.38,0,0,1,3.38,3.37V24.6H35.14Zm-5.81-.93h4.89V23.67H36.4V16.14A2.45,2.45,0,0,0,34,13.69H29.59a2.45,2.45,0,0,0-2.44,2.45v7.53h2.18Zm2.44-22.33a3.37,3.37,0,1,1,3.37-3.37A3.38,3.38,0,0,1,31.77,12.24Zm0-5.81a2.44,2.44,0,1,0,2.45,2.44A2.44,2.44,0,0,0,31.77,6.43Z" style="fill: #fff"/>
      <rect x="0.5" y="0.5" width="135" height="40" rx="19.42" style="fill: none;stroke: #fff;stroke-miterlimit: 10"/>
    </symbol>
  </defs>
  <title>biometrics sliding</title>
  <g id="Layer_2" data-name="Layer 2">
    <g id="illustration">
      <g style="clip-path: url(#clip-path)">
        <g>
          <rect width="629.77" height="170.84" style="fill: #2a81ba"/>
          <g>
            <text transform="translate(45.64 87.96)" style="font-size: 24.600379943847656px;fill: #fff;font-family: Roboto-Light, Roboto;font-weight: 300">age</text>
            <rect x="318.88" y="64.22" width="52.34" height="32.8" rx="15.12" style="fill: #fff;stroke: #fff;stroke-miterlimit: 10;stroke-width: 0.91239821131564px"/>
            <text transform="translate(331.42 89.6)" style="font-size: 24.600379943847656px;fill: #2a81ba;font-family: Roboto-Light, Roboto;font-weight: 300">55</text>
            <text transform="translate(284.07 89.87)" style="font-size: 24.600379943847656px;fill: #fff;font-family: Roboto-Light, Roboto;font-weight: 300">54</text>
            <text transform="translate(249.25 89.87)" style="font-size: 24.600379943847656px;fill: #fff;font-family: Roboto-Light, Roboto;font-weight: 300">53</text>
            <text transform="translate(214.44 89.87)" style="font-size: 24.600379943847656px;fill: #fff;font-family: Roboto-Light, Roboto;font-weight: 300">52</text>
            <g style="mask: url(#mask)">
              <g>
                <text transform="translate(183.72 89.87)" style="font-size: 24.600379943847656px;fill: #fff;font-family: Roboto-Light, Roboto;font-weight: 300">51</text>
                <text transform="translate(148.91 89.87)" style="font-size: 24.600379943847656px;fill: #fff;font-family: Roboto-Light, Roboto;font-weight: 300">50</text>
                <text transform="translate(114.1 89.87)" style="font-size: 24.600379943847656px;fill: #fff;font-family: Roboto-Light, Roboto;font-weight: 300">49</text>
              </g>
            </g>
            <g style="mask: url(#mask-2)">
              <g>
                <text transform="translate(518.03 89.87)" style="font-size: 24.600379943847656px;fill: #fff;font-family: Roboto-Light, Roboto;font-weight: 300">60</text>
                <text transform="translate(552.85 89.87)" style="font-size: 24.600379943847656px;fill: #fff;font-family: Roboto-Light, Roboto;font-weight: 300">61</text>
                <text transform="translate(483.22 89.87)" style="font-size: 24.600379943847656px;fill: #fff;font-family: Roboto-Light, Roboto;font-weight: 300">59</text>
              </g>
            </g>
            <text transform="translate(448.4 89.87)" style="font-size: 24.600379943847656px;fill: #fff;font-family: Roboto-Light, Roboto;font-weight: 300">58</text>
            <text transform="translate(413.59 89.87)" style="font-size: 24.600379943847656px;fill: #fff;font-family: Roboto-Light, Roboto;font-weight: 300">57</text>
            <text transform="translate(378.77 89.87)" style="font-size: 24.600379943847656px;fill: #fff;font-family: Roboto-Light, Roboto;font-weight: 300">56</text>
            <use width="28" height="34.92" transform="translate(575.39 66.3) scale(0.82)" xlink:href="#increase"/>
            <use width="28" height="34.92" transform="translate(91.76 66.3) scale(0.82)" xlink:href="#reduce"/>
          </g>
          <g>
            <text transform="translate(18.39 136.75)" style="font-size: 24.600379943847656px;fill: #fff;font-family: Roboto-Light, Roboto;font-weight: 300">height</text>
            <g>
              <rect x="318.88" y="113.02" width="52.34" height="32.8" rx="15.12" style="fill: #fff;stroke: #fff;stroke-miterlimit: 10;stroke-width: 0.91239821131564px"/>
              <text transform="translate(324.6 138.39)" style="font-size: 24.600379943847656px;fill: #2a81ba;font-family: Roboto-Light, Roboto;font-weight: 300">170</text>
            </g>
            <text transform="translate(271.42 138.67)" style="font-size: 24.600379943847656px;fill: #fff;font-family: Roboto-Light, Roboto;font-weight: 300">169</text>
            <text transform="translate(223.96 138.67)" style="font-size: 24.600379943847656px;fill: #fff;font-family: Roboto-Light, Roboto;font-weight: 300">168</text>
            <g style="mask: url(#mask-3)">
              <g>
                <text transform="translate(176.5 138.67)" style="font-size: 24.600379943847656px;fill: #fff;font-family: Roboto-Light, Roboto;font-weight: 300">167</text>
                <text transform="translate(129.04 138.67)" style="font-size: 24.600379943847656px;fill: #fff;font-family: Roboto-Light, Roboto;font-weight: 300">166</text>
              </g>
            </g>
            <g style="mask: url(#mask-4)">
              <g>
                <text transform="translate(520.17 138.67)" style="font-size: 24.600379943847656px;fill: #fff;font-family: Roboto-Light, Roboto;font-weight: 300">174</text>
                <text transform="translate(472.71 138.67)" style="font-size: 24.600379943847656px;fill: #fff;font-family: Roboto-Light, Roboto;font-weight: 300">173</text>
              </g>
            </g>
            <text transform="translate(425.25 138.67)" style="font-size: 24.600379943847656px;fill: #fff;font-family: Roboto-Light, Roboto;font-weight: 300">172</text>
            <text transform="translate(377.79 138.67)" style="font-size: 24.600379943847656px;fill: #fff;font-family: Roboto-Light, Roboto;font-weight: 300">171</text>
            <use width="28" height="34.92" transform="translate(575.39 115.1) scale(0.82)" xlink:href="#increase"/>
            <use width="28" height="34.92" transform="translate(91.76 115.1) scale(0.82)" xlink:href="#reduce"/>
          </g>
          <g>
            <use width="28" height="28" transform="translate(573.11 19.47) scale(0.82)" xlink:href="#cancel"/>
            <text transform="translate(528.37 35.87)" style="font-size: 16.40026092529297px;fill: #fff;font-family: Roboto-Bold, Roboto;font-weight: 700;letter-spacing: -0.009289105258383478em">r<tspan x="5.83" y="0" style="letter-spacing: -0.000059545546528099225em">eset</tspan></text>
            <text transform="translate(48.04 42.96)" style="font-size: 24.600379943847656px;fill: #fff;font-family: Roboto-Light, Roboto;font-weight: 300">sex</text>
            <use width="136" height="41" transform="translate(225.32 16.19) scale(0.82)" xlink:href="#female_7"/>
            <use width="136" height="41" transform="translate(94.05 16.19) scale(0.82)" xlink:href="#male_6"/>
          </g>
        </g>
        <g>
          <g>
            <path d="M140.49,271.19l.1.06Z" transform="translate(298.43 0.18)" style="fill: #e5e9eb"/>
            <path d="M150.29,256.66l.33-1Z" transform="translate(298.43 0.18)" style="fill: #e5e9eb"/>
            <path d="M146,79.55c.14.38,0,.11.33.84Z" transform="translate(298.43 0.18)" style="fill: #e5e9eb"/>
            <path d="M349,426.41c-3.1-16.61-13.05-31.87-16.74-49.57l0,.19c-2-7.47-3.7-15.84-5.36-24.22.05.22.1.43.14.65a197.19,197.19,0,0,0-4.58-32.06l.08.37c-1.58-1.67-5.74-48.64-11.15-40.68-8.8-15-18.82-30.1-33.23-41.12-4.72-8.11-9-16.39-17.15-22.37l.67.55c-15.51-10.68-35.59-13-54.19-19.54-6.6-4.74-6.64-14.89-9.93-23l.11.27c-3.13-6-6.06-12.48-10.35-19l.65,1c-3.55-5.53-6.07-11.69-10.35-18l.06.08c-2.81-6.59-6-7.56-9.93-15l.29.43c-2.35-4-5.41-7.79-7.43-13.41l.07.17c-.66-1.74-1.6-3.72-2.85-6.3.07.17.13.34.2.5-1.65-4.31-3.82-9.91-7-14.7l.21.32c-.8-1.53-.3-.56-2.73-6.48l.23.57c-3.28-7-9.82-28.7-17.92-10-2.74,6.69-7.4,6-7.38,25.1,0-.2,0-.4.08-.6-.39,4.09-.89,7.83.8,12.62l0-.24c5.28,18.92,11.9,38.66,18.87,58.32v0c5.25,13.54,10.3,28.09,10.82,43.87l0-.52a58,58,0,0,0,.42,6.35v-.3c-.2,8.63-1.86,18.38-1.08,27.52-5.79,14.36-4.4,12.12-4.52,30.22-2.06-3.32-5.33-6.84-10.37-7.62l.29.08c-.48,0-.72-.54-3.83-.9H135c-7.35-1.29-20.23,3.53-14.81,24-3.48,19.25,4,53.73,23.22,91.17-.14-.34-.27-.68-.41-1,4.78,17.72,17.89,31,28.29,46.95-.23-.36-.47-.71-.71-1.07,17.44,26.73,36.84,52,54.53,79.48l-1.19-1.77c.86,1.94,3.94,5.41,6.56,2.7,3.09,6.66,8.4,5.5,8.87-2.55,3.16,3.38,8.4,5.81,9.84-2.31,4.55,3,7.22-2.41,7.64-7.55,4.7,5.29,8.79.57,9.53-5.26,4,5.21,10.05,6.84,11.94-2.3,2.37,2.33,6.08.91,6.88-2.94,2,2.74,5.81,3.25,7.46-1.6,2.44,3,8.87,12.59,13.37,5a19.62,19.62,0,0,0,2.28-8.16c4.48,7.75,10.33,2.58,10.5-5.32,3.68,3.1,6.62-3.62,6.36-7.27,10.3,5.32,4.41-15.49,8.51-20.78,3.8,8.09,9.28,2.09,8.56-5.33C350.07,448.77,347.26,431.34,349,426.41ZM297.94,446.3c-.31-3.23-.79-7.61-1.17-11.66C296.78,437.26,300.29,443.88,297.94,446.3Zm-38-167.09c.13.09,0,0,.12.39ZM183,427.87a4.83,4.83,0,0,0,.66-1c.08.64,1.29,2.06,1.31,3.42C184.29,429.46,183.64,428.67,183,427.87Zm111.79-54.45c-1-1.59-.88-3.87-.56-6.87C294.38,368.39,294.56,370.73,294.78,373.42ZM253.9,336.66c-3-6.74-2.59-17.71-3.74-25.58,1.57,8.41,1.19,17.5,4.26,26.32C254.25,337.15,254.08,336.9,253.9,336.66Zm-13.15.43c-.11-1-.28-2.31-.55-4.1C240.16,333.74,241,335.48,240.75,337.09Zm-8.23,24c.06,2.17.24,4.36.4,6.54C233.06,366.11,230.39,362.9,232.52,361.07Zm-12.2,72.69c-.77-1.63-2.22-4.2-3.27-6.58,3.54,6.48,4.61,1.1,5.92,11.92C222.1,437.32,221.22,435.53,220.32,433.76Zm106-90.34c0-.08,0,0-.05-.23Zm-11.07-59.16c0-.14,0,0-.08-.41ZM152.71,267.94a92.13,92.13,0,0,1,2.44-10.15c-1,4.91-.27,11.75-2,16.93C153.09,272.92,152.63,270.5,152.71,267.94Zm-28.92,15.15h0l0,0ZM162.51,404c0-1-2.71-1.42-1.07-3.16.79,1.61,1.74,3.38,2.92,5.81l-.12-.17a1.18,1.18,0,0,1,.16.26C163.78,405.8,163.14,404.89,162.51,404Zm18,39.75h0Zm116.32,25.69c-.43-.35-.32-.8.61-1.83l.24,2.88C297.4,470.13,297.12,469.78,296.84,469.42Z" transform="translate(298.43 0.18)" style="fill: #e5e9eb"/>
            <path d="M223.86,507.75l0-.05,0,.08S223.87,507.78,223.86,507.75Z" transform="translate(298.43 0.18)" style="fill: #e5e9eb"/>
          </g>
          <g>
            <path d="M278.94,240.5c0-.08,0-.06-.16-.38C278.83,240.25,278.89,240.38,278.94,240.5Z" transform="translate(298.43 0.18)" style="fill: #2c3e50"/>
            <path d="M165.48,117.47a1,1,0,0,0,.09.22Z" transform="translate(298.43 0.18)" style="fill: #2c3e50"/>
            <path d="M346.63,409.89c-11.21-24-13.94-51.4-20.34-78l.06.43c-2.68-15.5-3.91-31.77-7.27-48.35-1-3.22-4.23-4.14-7.28-9.21-10.63-18.6-10.64-17.84-29.11-33.85-4-7.67-10.49-28.83-35.33-32.71-9.59-1.79-19.07-2.08-28.69-6.77l.3.13c-12.72-5.74-7.63,7.69-35.31-56.21-2.31-5.05-4.38-4.12-17.79-26.88-4.05-9.3-7.69-19.46-13.51-28.95-.44-8.23-15.17-36.2-22.17-15.94,0-2.62-20.52,20.3-2.13,54.7,4.33,18.09,8.33,36.7,16.5,54.53l-.14-.32c5.75,15.65,13.82,49.48,3.87,75.35-1.62,4.71-2.55,10.38-.76,16.07-9.29-5.15-27.65-7.27-31.09,7.73-.54,4.28,3,8.58,1.44,13.33-5.74,17.93,6.68,37.8,8.81,60.22,9.78,17.89,14.71,38,28,54.68l-.21-.28c13.32,19.38,26.26,38.83,40.6,58.9,5.19,9.28,10.29,15.88,17.85,24.53,1.28,1.06,9.14,17.65,11.22,14.43-5.37-11.7-15.08-20.63-22.33-32.24-9.15-17.3-23.08-32-32.59-50.12-8.88-12.45-19.75-23.68-25.22-39.41,0,.11.09.21.13.32-5-13.93-16.24-26.47-16.91-42.8v0c-3.11-17.68-17.27-42-.8-57.14-.43-.65-1.2-.55-3.76,1.64,2.16-4.3-2.32-11,3.91-14.15l-.28.21c1.13-1.68,22.85-3.8,25,12.83-.94-1-3-3.48-8.73-3.69h.2c-7.83,1.09,2.11-.85,8.31,7.93.24,1-.29,6.37.41,11.55,2.11,2.81-2.08,48.72,2.14,23.71,2.43-14.19-.49-28.4.39-43.5-.5-22.6,2.77-44.16.53-67.34-2.66-29.05-16.31-47-23.89-88.3-7.32-16.35-12.38-32.69-.33-50.72-.2.37,1.75,12.21,5.07,11.58,3.91.76,8.11,3.07,13.47,3.26,2.48-1.37-.08-2.15-3.86-2.46-1,.19-5.83-3.72-9.6-1.78-10.59-19.07,6.27-29.21,14.47,2.58.31,3.77,1.88,1.08,9.42,18.28,4.8,13.62,13.54,25.69,22.57,38.54,3.07,11.57,10.78,21.51,14.55,33.71v-.09c4.28,10.19,4.13,20.37,21,24.53h0c13.53,8.14,32.42,3.34,45.8,14.16l-.1-.07c.35.28,0,0,1.45,1.1l-.09-.07c3.38,3,7.28,6.19,9.58,11.31-.06-.13-.11-.26-.17-.4,2,4.23,4.64,9.38,7.37,14.92a49.06,49.06,0,0,1,11.66,8.47c9.34,8.91,13,21.41,22.73,30.93,3.67,17.68,5.07,35.93,8.81,55.1v0C324.06,336,341.92,424.86,346.63,409.89ZM118.28,281.45c.42-1.23-.85-1.27,2.45-4.62-.64,3.6,1,8.09-1.25,12.33C119.3,288,118.91,286.72,118.28,281.45Zm32.4-1.69c.71-6.2-5.92-4.68,1.51-27.83.25,9.59-1.25,19.22-.88,29.73Z" transform="translate(298.43 0.18)" style="fill: #2c3e50"/>
            <path d="M182.34,450.21l-.22-.28C182.19,450,182.26,450.12,182.34,450.21Z" transform="translate(298.43 0.18)" style="fill: #2c3e50"/>
            <path d="M286.94,369.33C274,337,262.24,303.22,243.4,272.48l.12.22c-4.6-6.55-9.19-14.06-15.83-20.29-6.3-6.22-21.48-17.21-2.45.35l-.17-.18c21.12,21.75,40.29,70.12,58.74,116C283.71,370.34,289.39,376.73,286.94,369.33Z" transform="translate(298.43 0.18)" style="fill: #2c3e50"/>
            <path d="M303,345.48c-.12-.36-.23-.74-.33-1.11,0,0,0,.07,0,.1s0,0,0-.19v0c-2.68-25.5-9.09-51.78-16.63-76.62-2.3,1.09,7.28,29.89,9.3,46.14C294.68,312.81,302.88,358.18,303,345.48Z" transform="translate(298.43 0.18)" style="fill: #2c3e50"/>
            <path d="M302.69,344.37l0-.06Z" transform="translate(298.43 0.18)" style="fill: #2c3e50"/>
            <path d="M249.75,227.1c-.16-3.66-16.41-4.2-8.05-1,14.17-2,11.94,31.9,21.18,39.43,1-5.86-3.77-13.15-5-20.2C255.37,239.59,255.73,232,249.75,227.1Z" transform="translate(298.43 0.18)" style="fill: #2c3e50"/>
            <path d="M251.57,228.93l.05,0Z" transform="translate(298.43 0.18)" style="fill: #2c3e50"/>
            <path d="M169,135.62c9.84,3.23-6-8.69-13.6,1.12,2.85.88,1.58-3.65,12.13-1.59l-.22-.06Z" transform="translate(298.43 0.18)" style="fill: #2c3e50"/>
            <path d="M177.74,143.7a.41.41,0,0,1-.11-.07Z" transform="translate(298.43 0.18)" style="fill: #2c3e50"/>
            <path d="M177.63,143.63h0Z" transform="translate(298.43 0.18)" style="fill: #2c3e50"/>
            <path d="M155.07,144.72c7.58-1,7.07-4.17,18.86-.62h-.06c1.18,0,9.68,4.81,3.69-.5l0,0C171.46,140.89,161.08,139.22,155.07,144.72Z" transform="translate(298.43 0.18)" style="fill: #2c3e50"/>
            <path d="M163.16,152.88c7.81-5.14,29.62,10.88,19.43,1.34l0,0C180,152.12,165.77,148.53,163.16,152.88Z" transform="translate(298.43 0.18)" style="fill: #2c3e50"/>
          </g>
        </g>
        <path d="M114.47,37.37V25.89L98.39,42,114.47,58V46.56H160.4V58L176.47,42,160.4,25.89V37.37Z" transform="translate(298.43 0.18)" style="fill: #fff"/>
      </g>
    </g>
  </g>
</svg>
