<svg xmlns="http://www.w3.org/2000/svg" viewBox="0 0 13.86 12">
  <title>caution</title>
  <g id="Layer_2" data-name="Layer 2">
    <g id="Layer_3" data-name="Layer 3">
      <g>
        <path d="M6.93,2.47l4.79,8.3H2.14l4.79-8.3M6.93,0,0,12H13.86L6.93,0Z" style="fill: #2c3e50"/>
        <path d="M6.25,9.82a.75.75,0,0,1,0-.26.9.9,0,0,1,.14-.2.69.69,0,0,1,.22-.14.79.79,0,0,1,.28,0,.86.86,0,0,1,.28,0,.64.64,0,0,1,.21.14.66.66,0,0,1,.14.2.7.7,0,0,1,0,.52.66.66,0,0,1-.14.2.64.64,0,0,1-.21.14.86.86,0,0,1-.28,0,.79.79,0,0,1-.28,0,.69.69,0,0,1-.22-.14.9.9,0,0,1-.14-.2A.75.75,0,0,1,6.25,9.82ZM7.43,8.51h-1L6.28,4.25h1.3Z" style="fill: #2c3e50"/>
      </g>
    </g>
  </g>
</svg>
