<svg xmlns="http://www.w3.org/2000/svg" viewBox="0 0 92.44 29.07">
  <title>logo</title>
  <g id="Layer_2" data-name="Layer 2">
    <g id="Layer_3" data-name="Layer 3">
      <g>
        <path d="M28.55,10.38v14.2H26.88V10.38Z" style="fill: #3b94cc"/>
        <path d="M32,11.12a1.09,1.09,0,1,1-1.08,1.08A1.06,1.06,0,0,1,32,11.12Zm.84,4.2v9.26H31.18V15.32Z" style="fill: #3b94cc"/>
        <path d="M34.71,15.6h1.63v-.71c0-2.12.91-4,3.49-4a3.47,3.47,0,0,1,2,.48l-.61,1.28a2.7,2.7,0,0,0-1.3-.28c-1.56,0-1.86.78-1.86,2.49v.71H40.5v1.46H38v7.52H36.34V17.06H34.71Z" style="fill: #3b94cc"/>
        <path d="M49.51,23.26a4.78,4.78,0,0,1-3.66,1.51,3.81,3.81,0,0,1-2.84-1,4.68,4.68,0,0,1-1.13-3.56A6,6,0,0,1,43,16.3a3.75,3.75,0,0,1,3-1.21c2.67,0,3.66,1.79,3.66,4,0,.29,0,.78-.06,1.13l-5.94,0c0,1.89.34,3.1,2.25,3.1a3.82,3.82,0,0,0,2.75-1.12ZM47.87,18.9c0-1.5-.31-2.41-1.95-2.41s-2.17,1-2.26,2.43Z" style="fill: #3b94cc"/>
        <path d="M53.94,10.38v14.2H52.27V10.38Z" style="fill: #3b94cc"/>
        <path d="M57.58,11.12A1.09,1.09,0,1,1,56.5,12.2,1.06,1.06,0,0,1,57.58,11.12Zm.84,4.2v9.26H56.74V15.32Z" style="fill: #3b94cc"/>
        <path d="M68.68,15.32v9.56c0,2.13-.8,4.19-4.27,4.19A5.19,5.19,0,0,1,61,28l.87-1.26a4.11,4.11,0,0,0,2.69.84c2.19,0,2.55-1,2.55-2.77V23a3.25,3.25,0,0,1-3,1.78,2.75,2.75,0,0,1-2.36-1.1,5.86,5.86,0,0,1-.91-3.6,5.52,5.52,0,0,1,1.1-3.8,3.32,3.32,0,0,1,2.62-1.1,2.87,2.87,0,0,1,2.67,1.39l0-1.2Zm-2.58,7.2a4.39,4.39,0,0,0,1-3,3.08,3.08,0,0,0-.76-2.3,2.31,2.31,0,0,0-1.65-.61c-1.69,0-2.12,1.28-2.12,3.47s.41,3.23,1.81,3.23A2.3,2.3,0,0,0,66.1,22.52Z" style="fill: #3b94cc"/>
        <path d="M72.91,10.38V17.1a3,3,0,0,1,3-2c1.69,0,2.7,1.14,2.7,3.09v6.4H76.89V18.47c0-1.2-.32-1.85-1.3-1.85-1.34,0-2.68,1.24-2.68,4.73v3.23H71.24V10.38Z" style="fill: #3b94cc"/>
        <path d="M86.61,24.47a6.61,6.61,0,0,1-1.85.24c-2.29,0-2.75-1-2.75-3.21V17H80.32V15.48H82V12.81l1.65-.2v2.87h2.82V17H83.66v4.46c0,1.3.1,1.83,1.34,1.83a6.79,6.79,0,0,0,1.47-.18Z" style="fill: #3b94cc"/>
        <path d="M11,25.23l-.6-.65c-.18-.18-2.16-2.33-4.33-5.2-2.16,2.83-4.15,5-4.34,5.2l-.55.61L0,24.07l.56-.6c1.07-1.16,2.81-3.2,4.53-5.48C2.85,14.84.69,11.13.34,8.14,0,4.89,1,2.94,2,1.88A5.53,5.53,0,0,1,6.1,0C8.23,0,10,1.46,11,3.75,12,1.45,13.78,0,16,0a5.49,5.49,0,0,1,4,1.84,8,8,0,0,1,1.7,6.29c-.31,3-2.48,6.73-4.73,9.88,1.71,2.28,3.45,4.3,4.51,5.46l.56.6-1.21,1.12-.55-.61c-.19-.2-2.17-2.36-4.33-5.18-2.17,2.87-4.16,5-4.34,5.19ZM7.13,18c1.57,2.12,3.09,3.9,3.9,4.81.82-.91,2.34-2.68,3.92-4.78A35.21,35.21,0,0,1,11,11.42,34.57,34.57,0,0,1,7.13,18ZM16,1.64c-2.39,0-4.12,2.7-4.12,6.41,0,2.13,1.91,5.45,4.12,8.56,2-2.87,3.85-6.11,4.11-8.64a6.42,6.42,0,0,0-1.28-5A3.79,3.79,0,0,0,16,1.64Zm-9.87,0A4,4,0,0,0,3.18,3,6.09,6.09,0,0,0,2,8c.29,2.53,2.13,5.77,4.13,8.63,2.2-3.09,4.1-6.41,4.1-8.53C10.21,4.4,8.44,1.64,6.1,1.64Z" style="fill: #3b94cc"/>
        <path d="M90.15,10.67A2.24,2.24,0,0,1,92.44,13a2.29,2.29,0,1,1-4.58,0A2.23,2.23,0,0,1,90.15,10.67Zm0,4.05A1.6,1.6,0,0,0,91.81,13a1.66,1.66,0,1,0-3.32,0A1.58,1.58,0,0,0,90.14,14.72Zm.12-2.92c.55,0,.93.19.93.69a.64.64,0,0,1-.54.68c.39.06.46.36.55,1h-.62c-.1-.6-.17-.8-.42-.8h-.38v.8h-.6V11.8Zm-.48,1.12H90c.36,0,.56-.06.56-.36s-.1-.26-.37-.26h-.42Z" style="fill: #3b94cc"/>
        <path d="M67.38,2.74H68V2.47C68,1.68,68.34,1,69.31,1a1.32,1.32,0,0,1,.73.18l-.23.48a1,1,0,0,0-.49-.1c-.58,0-.69.29-.69.93v.27h.93v.55h-.93V6.11H68V3.29h-.62Z" style="fill: #3b94cc"/>
        <path d="M72.33,1.06a.39.39,0,0,1,.4.4.39.39,0,0,1-.4.41.41.41,0,0,1-.41-.41A.4.4,0,0,1,72.33,1.06Zm.31,1.57V6.11H72V2.63Z" style="fill: #3b94cc"/>
        <path d="M75.72,2.63v.69a1,1,0,0,1,1-.77.84.84,0,0,1,.42.1l-.18.58a.67.67,0,0,0-.3-.06c-.6,0-.88.77-.88,1.6V6.11h-.62V2.63Z" style="fill: #3b94cc"/>
        <path d="M81,3.34a1.21,1.21,0,0,0-.77-.25c-.36,0-.59.12-.59.42,0,.69,1.79.39,1.79,1.65,0,.75-.67,1-1.33,1a1.5,1.5,0,0,1-1.15-.41l.32-.42a1.18,1.18,0,0,0,.88.32c.37,0,.65-.1.65-.48,0-.75-1.79-.42-1.79-1.64,0-.67.57-1,1.28-1a1.44,1.44,0,0,1,1,.37Z" style="fill: #3b94cc"/>
        <path d="M85.75,6.07a2.25,2.25,0,0,1-.69.09c-.86,0-1-.39-1-1.2V3.25h-.63V2.7H84v-1l.62-.07V2.7H85.7v.55H84.64V4.92c0,.49,0,.69.51.69a2.67,2.67,0,0,0,.55-.07Z" style="fill: #3b94cc"/>
      </g>
    </g>
  </g>
</svg>
