<svg xmlns="http://www.w3.org/2000/svg" xmlns:xlink="http://www.w3.org/1999/xlink" viewBox="0 0 200.59 26.07">
  <defs>
    <symbol id="low" data-name="low" viewBox="0 0 16.5 16.5">
      <circle cx="8.25" cy="8.25" r="7.5" style="fill: none;stroke: #fff;stroke-miterlimit: 10;stroke-width: 1.5px"/>
    </symbol>
    <symbol id="medium" data-name="medium" viewBox="0 0 16.5 16.5">
      <path d="M15.58,8.21V9H.78a7.51,7.51,0,0,0,15-.8Z" style="fill: #fff"/>
      <circle cx="8.25" cy="8.25" r="7.5" style="fill: none;stroke: #fff;stroke-miterlimit: 10;stroke-width: 1.5px"/>
    </symbol>
    <symbol id="good" data-name="good" viewBox="0 0 16.5 16.5">
      <circle cx="8.25" cy="8.25" r="7.5" style="fill: #fff;stroke: #fff;stroke-miterlimit: 10;stroke-width: 1.5px"/>
    </symbol>
  </defs>
  <title>sqi</title>
  <g id="Layer_2" data-name="Layer 2">
    <g id="Layer_2-2" data-name="Layer 2">
      <g>
        <rect width="200.59" height="26.07" style="fill: #e44f3d"/>
        <g>
          <g>
            <path d="M29.39,17h-.7V8h.7Z" style="fill: #fff"/>
            <path d="M30.91,13.74a3.74,3.74,0,0,1,.2-1.28,2.86,2.86,0,0,1,.57-1,2.55,2.55,0,0,1,.89-.67,2.77,2.77,0,0,1,1.16-.24,2.83,2.83,0,0,1,1.18.24,2.55,2.55,0,0,1,.89.67,2.86,2.86,0,0,1,.57,1,4,4,0,0,1,.2,1.28v.19a4,4,0,0,1-.2,1.28,3,3,0,0,1-.57,1,2.65,2.65,0,0,1-.89.66,2.78,2.78,0,0,1-1.17.24,2.7,2.7,0,0,1-2.06-.9,3.12,3.12,0,0,1-.57-1,3.78,3.78,0,0,1-.2-1.28Zm.7.19a3.53,3.53,0,0,0,.14,1,2.48,2.48,0,0,0,.41.83,2,2,0,0,0,.67.56,1.91,1.91,0,0,0,.91.21,1.88,1.88,0,0,0,.91-.21,2,2,0,0,0,.67-.56,2.48,2.48,0,0,0,.41-.83,3.53,3.53,0,0,0,.14-1v-.19a3.64,3.64,0,0,0-.14-1,2.58,2.58,0,0,0-.41-.83,2.18,2.18,0,0,0-.67-.57,2,2,0,0,0-.92-.21,1.87,1.87,0,0,0-.9.21,2.18,2.18,0,0,0-.67.57,2.58,2.58,0,0,0-.41.83,3.64,3.64,0,0,0-.14,1Z" style="fill: #fff"/>
            <path d="M39.53,15.54l.11.54.14-.57,1.52-4.85h.6l1.5,4.81.17.67.13-.62L45,10.66h.73L43.89,17h-.6l-1.63-5-.08-.34-.07.35-1.6,5h-.6l-1.84-6.34h.72Z" style="fill: #fff"/>
          </g>
          <use width="16.5" height="16.5" transform="translate(6.82 5.25)" xlink:href="#low"/>
        </g>
        <g>
          <g>
            <path d="M79.4,10.66l0,1a2.35,2.35,0,0,1,.36-.47,2,2,0,0,1,.47-.36,2.56,2.56,0,0,1,.56-.24,2.71,2.71,0,0,1,.66-.08,2.36,2.36,0,0,1,1.19.29,1.65,1.65,0,0,1,.71.94,2.87,2.87,0,0,1,.37-.49,2.28,2.28,0,0,1,.48-.39,2.63,2.63,0,0,1,.6-.25,2.34,2.34,0,0,1,.71-.1,3,3,0,0,1,.88.13,1.63,1.63,0,0,1,.66.42,1.93,1.93,0,0,1,.4.72,3.36,3.36,0,0,1,.14,1.06V17h-.7V12.86a2.78,2.78,0,0,0-.11-.83,1.22,1.22,0,0,0-.32-.53,1.07,1.07,0,0,0-.49-.27,2.39,2.39,0,0,0-.62-.08,1.87,1.87,0,0,0-.78.16,2.39,2.39,0,0,0-.57.39,2,2,0,0,0-.36.54,2,2,0,0,0-.15.56V17h-.7V12.81a2.5,2.5,0,0,0-.11-.79,1.31,1.31,0,0,0-.32-.51,1.26,1.26,0,0,0-.49-.28,2.47,2.47,0,0,0-.63-.08,1.71,1.71,0,0,0-.7.13,1.69,1.69,0,0,0-.53.33,1.72,1.72,0,0,0-.37.48,3,3,0,0,0-.24.56V17h-.7V10.66Z" style="fill: #fff"/>
            <path d="M91.85,17.12a2.71,2.71,0,0,1-1.14-.24,2.51,2.51,0,0,1-.9-.64,3,3,0,0,1-.59-1A3.6,3.6,0,0,1,89,14v-.25a4,4,0,0,1,.22-1.33,3.15,3.15,0,0,1,.6-1,2.58,2.58,0,0,1,.86-.65,2.47,2.47,0,0,1,1-.23,2.44,2.44,0,0,1,1.07.22,2.22,2.22,0,0,1,.79.6,2.78,2.78,0,0,1,.48.92,4,4,0,0,1,.16,1.17v.43H89.71V14a2.84,2.84,0,0,0,.16,1,2.29,2.29,0,0,0,.44.8,2,2,0,0,0,.69.54,2,2,0,0,0,.88.19,2.26,2.26,0,0,0,1-.2,2.37,2.37,0,0,0,.78-.66l.44.34a3.67,3.67,0,0,1-.37.43,2.15,2.15,0,0,1-.48.36,2.67,2.67,0,0,1-.62.24A3.1,3.1,0,0,1,91.85,17.12Zm-.12-6a1.78,1.78,0,0,0-.74.15,1.73,1.73,0,0,0-.6.44,2.09,2.09,0,0,0-.43.67,3.44,3.44,0,0,0-.23.88h3.81V13.2a2.89,2.89,0,0,0-.13-.77,2.08,2.08,0,0,0-.35-.66,1.69,1.69,0,0,0-.56-.46A1.71,1.71,0,0,0,91.73,11.14Z" style="fill: #fff"/>
            <path d="M95.32,13.77a4.56,4.56,0,0,1,.17-1.33,3,3,0,0,1,.48-1,2.18,2.18,0,0,1,.77-.65,2.33,2.33,0,0,1,1-.23,2.3,2.3,0,0,1,1.15.27,2.21,2.21,0,0,1,.8.75V8h.7v9h-.66l0-.85a2.21,2.21,0,0,1-.81.71,2.54,2.54,0,0,1-1.18.26,2.12,2.12,0,0,1-1-.24,2.32,2.32,0,0,1-.77-.66,3.21,3.21,0,0,1-.48-1,4.47,4.47,0,0,1-.17-1.31Zm.71.12a4.31,4.31,0,0,0,.11,1,2.38,2.38,0,0,0,.34.83,1.76,1.76,0,0,0,.57.55,1.7,1.7,0,0,0,.83.2,2.17,2.17,0,0,0,.65-.09,1.77,1.77,0,0,0,.52-.24,1.67,1.67,0,0,0,.39-.36,2,2,0,0,0,.28-.46v-3a3,3,0,0,0-.25-.47,2,2,0,0,0-.38-.39,1.73,1.73,0,0,0-.52-.28,2.25,2.25,0,0,0-.67-.1,1.68,1.68,0,0,0-.84.2,1.64,1.64,0,0,0-.58.56,2.3,2.3,0,0,0-.34.83,4.23,4.23,0,0,0-.11,1Z" style="fill: #fff"/>
            <path d="M102.23,8.82a.48.48,0,0,1,.12-.33.49.49,0,0,1,.36-.14.48.48,0,0,1,.35.14.44.44,0,0,1,.13.33.45.45,0,0,1-.13.34.48.48,0,0,1-.35.13.43.43,0,0,1-.48-.47Zm.82,8.18h-.7V10.66h.7Z" style="fill: #fff"/>
            <path d="M109,16.2a2,2,0,0,1-.79.67,2.8,2.8,0,0,1-1.23.25,2.57,2.57,0,0,1-.85-.14,1.53,1.53,0,0,1-.65-.41,1.9,1.9,0,0,1-.43-.75,3.52,3.52,0,0,1-.15-1.1V10.66h.7v4.07a2.6,2.6,0,0,0,.12.85,1.39,1.39,0,0,0,.31.55,1.28,1.28,0,0,0,.47.29,1.77,1.77,0,0,0,.56.09,2.43,2.43,0,0,0,.75-.1,1.92,1.92,0,0,0,.56-.26,1.6,1.6,0,0,0,.38-.4,2.1,2.1,0,0,0,.24-.5V10.66h.71V17h-.68Z" style="fill: #fff"/>
            <path d="M112.19,10.66l0,1a2.84,2.84,0,0,1,.37-.47,1.79,1.79,0,0,1,.46-.36,2.56,2.56,0,0,1,.56-.24,2.84,2.84,0,0,1,.66-.08,2.4,2.4,0,0,1,1.2.29,1.63,1.63,0,0,1,.7.94,3.5,3.5,0,0,1,.37-.49,2.34,2.34,0,0,1,.49-.39,2.69,2.69,0,0,1,1.31-.35,3,3,0,0,1,.88.13,1.66,1.66,0,0,1,.65.42,1.94,1.94,0,0,1,.41.72,3.68,3.68,0,0,1,.14,1.06V17h-.71V12.86a2.49,2.49,0,0,0-.11-.83,1.31,1.31,0,0,0-.31-.53,1.13,1.13,0,0,0-.49-.27,2.47,2.47,0,0,0-.63-.08,1.94,1.94,0,0,0-.78.16,2.14,2.14,0,0,0-.56.39,1.6,1.6,0,0,0-.36.54,1.51,1.51,0,0,0-.15.56V17h-.71V12.81a2.25,2.25,0,0,0-.11-.79,1.2,1.2,0,0,0-.32-.51,1.22,1.22,0,0,0-.48-.28,2.47,2.47,0,0,0-.63-.08,1.76,1.76,0,0,0-.71.13,1.69,1.69,0,0,0-.53.33,1.92,1.92,0,0,0-.37.48,2.45,2.45,0,0,0-.23.56V17h-.71V10.66Z" style="fill: #fff"/>
          </g>
          <use width="16.5" height="16.5" transform="translate(56.98 5.25)" xlink:href="#medium"/>
        </g>
        <g>
          <g>
            <path d="M157,11.69a2.67,2.67,0,0,1,.38-.49,2.86,2.86,0,0,1,.48-.38,2.56,2.56,0,0,1,.56-.24,2.67,2.67,0,0,1,.64-.08,2.49,2.49,0,0,1,.85.13,1.5,1.5,0,0,1,.64.41,1.78,1.78,0,0,1,.4.72,3.68,3.68,0,0,1,.13,1.07V17h-.69V12.82a2.71,2.71,0,0,0-.11-.82,1.25,1.25,0,0,0-.3-.52,1,1,0,0,0-.47-.29,2,2,0,0,0-.62-.08,1.87,1.87,0,0,0-.68.12,2.15,2.15,0,0,0-.54.34,2.32,2.32,0,0,0-.4.48,3.2,3.2,0,0,0-.27.56V17h-.7V8h.7Z" style="fill: #fff"/>
            <path d="M162.8,8.78a.47.47,0,0,1,.13-.34.54.54,0,0,1,.7,0,.48.48,0,0,1,.14.34.5.5,0,0,1-.84.33A.44.44,0,0,1,162.8,8.78Zm.82,8.17h-.7V10.61h.7Z" style="fill: #fff"/>
            <path d="M165.25,13.73a5,5,0,0,1,.16-1.34,3.28,3.28,0,0,1,.49-1,2.08,2.08,0,0,1,.77-.65,2.14,2.14,0,0,1,1-.23,2.34,2.34,0,0,1,1.16.27,2.26,2.26,0,0,1,.81.76l0-.92h.66v6.23a3.23,3.23,0,0,1-.18,1.11,2.6,2.6,0,0,1-.52.83,2.22,2.22,0,0,1-.8.52,2.89,2.89,0,0,1-1.05.18,2.6,2.6,0,0,1-.61-.07,2.82,2.82,0,0,1-.6-.2,2.57,2.57,0,0,1-.54-.34,1.83,1.83,0,0,1-.45-.47L166,18a2.62,2.62,0,0,0,.82.7,2.14,2.14,0,0,0,1,.22,2.24,2.24,0,0,0,.8-.14,1.51,1.51,0,0,0,.59-.4,1.63,1.63,0,0,0,.36-.63,2.49,2.49,0,0,0,.13-.85v-.74a2.13,2.13,0,0,1-.8.69,2.51,2.51,0,0,1-1.16.25,2.18,2.18,0,0,1-1.79-.9,3.23,3.23,0,0,1-.49-1,4.82,4.82,0,0,1-.16-1.3Zm.71.12a4.23,4.23,0,0,0,.11,1,2.5,2.5,0,0,0,.34.83,1.6,1.6,0,0,0,1.4.75,2.24,2.24,0,0,0,.66-.09,1.73,1.73,0,0,0,.9-.61,2.35,2.35,0,0,0,.28-.46v-3a2.42,2.42,0,0,0-.26-.47,2,2,0,0,0-.37-.4,1.86,1.86,0,0,0-1.19-.37,1.58,1.58,0,0,0-.84.2,1.61,1.61,0,0,0-.58.55,2.59,2.59,0,0,0-.34.83,4.31,4.31,0,0,0-.11,1Z" style="fill: #fff"/>
            <path d="M172.88,11.69a2.67,2.67,0,0,1,.38-.49,2.86,2.86,0,0,1,.48-.38,2.56,2.56,0,0,1,.56-.24,2.67,2.67,0,0,1,.64-.08,2.49,2.49,0,0,1,.85.13,1.44,1.44,0,0,1,.64.41,1.78,1.78,0,0,1,.4.72,3.65,3.65,0,0,1,.14,1.07V17h-.7V12.82a2.71,2.71,0,0,0-.11-.82,1.25,1.25,0,0,0-.3-.52,1,1,0,0,0-.47-.29,2,2,0,0,0-.61-.08,1.73,1.73,0,0,0-1.22.46,2.37,2.37,0,0,0-.41.48,3.2,3.2,0,0,0-.27.56V17h-.69V8h.69Z" style="fill: #fff"/>
          </g>
          <use width="16.5" height="16.5" transform="translate(134.47 5.21)" xlink:href="#good"/>
        </g>
      </g>
    </g>
  </g>
</svg>
