<?xml version="1.0" standalone="no"?>
<!DOCTYPE svg PUBLIC "-//W3C//DTD SVG 20010904//EN"
 "http://www.w3.org/TR/2001/REC-SVG-20010904/DTD/svg10.dtd">
<svg version="1.0" xmlns="http://www.w3.org/2000/svg"
 width="2116.000000pt" height="2114.000000pt" viewBox="0 0 2116.000000 2114.000000"
 preserveAspectRatio="xMidYMid meet">

<g transform="translate(0.000000,2114.000000) scale(0.100000,-0.100000)"
fill="#000000" stroke="none">
<path d="M4 21127 c-7 -19 1 -6567 9 -6607 3 -19 11 -80 17 -135 33 -292 129
-635 261 -933 335 -757 967 -1383 1732 -1717 323 -140 710 -241 1057 -274 55
-5 830 -8 1820 -7 1573 2 1735 3 1838 19 669 102 1213 336 1715 738 140 113
413 390 521 529 375 483 587 976 688 1600 l22 135 3 3333 3 3332 -1100 0
-1100 0 0 -3170 c0 -2184 -3 -3201 -11 -3267 -51 -462 -395 -865 -852 -997
-182 -53 -112 -51 -1782 -51 -1453 0 -1566 1 -1647 18 -490 100 -846 438 -966
917 -15 59 -17 357 -22 3305 l-5 3240 -1098 2 c-869 2 -1099 0 -1103 -10z"/>
<path d="M11450 16295 l0 -4845 1105 0 1105 0 0 1841 0 1840 29 -23 c55 -44
2158 -1710 2706 -2144 209 -166 724 -574 1145 -908 l765 -606 1420 0 c823 0
1415 4 1410 9 -6 5 -273 217 -595 472 -938 742 -3284 2601 -3925 3109 -176
139 -607 481 -957 758 -351 278 -637 506 -635 507 4 3 2762 2173 3017 2374
129 102 339 267 465 366 127 100 367 289 535 421 328 259 1174 924 1752 1378
197 155 357 284 358 289 0 4 -638 7 -1418 7 l-1418 0 -719 -567 c-396 -311
-1204 -947 -1795 -1412 -591 -465 -1313 -1034 -1605 -1263 -291 -230 -531
-412 -533 -405 -1 6 -3 829 -5 1827 l-2 1815 -1102 3 -1103 2 0 -4845z"/>
<path d="M3135 9683 c-453 -37 -860 -149 -1246 -342 -929 -466 -1607 -1358
-1814 -2386 -73 -363 -70 -271 -70 -2110 0 -1533 1 -1660 18 -1795 38 -303
108 -591 208 -856 62 -163 207 -455 299 -602 503 -802 1326 -1369 2231 -1537
283 -52 44 -49 3622 -52 l3307 -3 0 1105 0 1105 -3252 2 -3253 3 -94 28 c-457
134 -788 510 -866 982 -14 90 -16 250 -12 1665 3 1431 5 1571 20 1633 47 190
125 356 232 499 138 183 341 330 560 405 165 56 -36 53 3451 53 l3214 0 0
1105 0 1105 -3257 -2 c-1792 -1 -3276 -3 -3298 -5z"/>
<path d="M14522 9675 c-1105 -111 -2063 -721 -2621 -1669 -219 -373 -388 -873
-426 -1261 -4 -38 -10 -81 -13 -95 -4 -14 -8 -1516 -9 -3338 l-3 -3312 1102 2
1103 3 2 1095 3 1095 2637 3 2638 2 0 -1097 0 -1098 1103 -3 1102 -2 -1 3242
c-1 1784 -5 3290 -10 3348 -53 662 -288 1263 -703 1800 -95 122 -332 369 -461
480 -455 389 -1011 654 -1606 765 -270 50 -207 48 -2014 51 -1348 2 -1717 -1
-1823 -11z m3382 -2205 c495 -70 908 -455 1005 -937 24 -120 23 -58 22 -1190
l-1 -933 -2635 0 -2636 0 4 1053 3 1052 22 78 c141 488 558 836 1062 885 126
12 3063 4 3154 -8z"/>
</g>
</svg>
