<svg xmlns="http://www.w3.org/2000/svg" xmlns:xlink="http://www.w3.org/1999/xlink" viewBox="0 0 24 24">
  <defs>
    <linearGradient id="linear-gradient" x1="12" y1="20.09" x2="12" y2="3.4" gradientUnits="userSpaceOnUse">
      <stop offset="0" stop-color="#3496D9"/>
      <stop offset="1" stop-color="#3da0e3"/>
    </linearGradient>
  </defs>
  <title>logo mark</title>
  <g id="Layer_2" data-name="Layer 2">
    <g id="Layer_3" data-name="Layer 3">
      <g>
        <rect width="24" height="24" rx="5.71" style="fill: url(#linear-gradient)"/>
        <path d="M12,19.78l-.39-.42c-.11-.12-1.41-1.51-2.82-3.39-1.4,1.85-2.7,3.26-2.82,3.39l-.36.39L4.83,19l.36-.39c.69-.76,1.83-2.08,2.94-3.57-1.45-2-2.85-4.46-3.08-6.4a5,5,0,0,1,1-4.08A3.63,3.63,0,0,1,8.79,3.37,3.61,3.61,0,0,1,12,5.81a3.57,3.57,0,0,1,3.22-2.44,3.59,3.59,0,0,1,2.64,1.2A5.22,5.22,0,0,1,19,8.66c-.2,1.95-1.61,4.38-3.07,6.43,1.11,1.48,2.24,2.79,2.93,3.54l.36.4-.78.72L18,19.36c-.12-.13-1.41-1.53-2.81-3.37-1.42,1.86-2.72,3.25-2.83,3.37Zm-2.54-4.7c1,1.37,2,2.53,2.54,3.12.53-.59,1.52-1.74,2.55-3.11A23,23,0,0,1,12,10.8,22.9,22.9,0,0,1,9.46,15.08ZM15.21,4.44c-1.55,0-2.68,1.75-2.68,4.17,0,1.38,1.25,3.55,2.68,5.57,1.31-1.87,2.51-4,2.68-5.63a4.19,4.19,0,0,0-.84-3.27A2.47,2.47,0,0,0,15.21,4.44Zm-6.42,0A2.58,2.58,0,0,0,6.9,5.3a4,4,0,0,0-.79,3.25C6.3,10.19,7.5,12.3,8.8,14.16c1.43-2,2.67-4.17,2.67-5.55C11.47,6.23,10.32,4.44,8.79,4.44Z" style="fill: #fff"/>
      </g>
    </g>
  </g>
</svg>
