<svg xmlns="http://www.w3.org/2000/svg" xmlns:xlink="http://www.w3.org/1999/xlink" viewBox="0 0 339.44 343.68">
  <defs>
    <clipPath id="clip-path" transform="translate(0 0)">
      <rect width="339.44" height="343.68" style="fill: none"/>
    </clipPath>
    <clipPath id="clip-path-2" transform="translate(0 0)">
      <path d="M231.31,71.62c-.24,4.18-.56,8.3-.42,12.48.27,8.49-.44,17.09-.71,25.58-.05,1.86-.17,3.72-.3,5.58-.09,1.39-.82,3.92-.47,5.25-2.07-.69-3.86-2-5.81-3a6.19,6.19,0,0,0-3.92-.72c-1.52.17-2.42.51-3.63-.62-2.13-2-2.61-4-5.63-5-1.25-.44-2.5-.76-3.7-1.3a9.88,9.88,0,0,0-1.8-.8c0-.12,0-.24,0-.31-.09-4.08-.09-52.08-.71-55.61.63.47,4.68,1.49,5.38,1.72,3.17,1.05,3.6,1.37,6.63,0,2.73-1.21,2.56,1,4.6,2.65,2.29,1.76,5.2,1.64,7.86,2.45.21.06,1.74.84,2.6,1.11a.49.49,0,0,0-.09.15c0,.12.46,3.86.45,4.3C231.58,67.58,231.42,69.6,231.31,71.62Z" style="fill: none"/>
    </clipPath>
    <clipPath id="clip-path-3" transform="translate(0 0)">
      <path d="M225.63,94.78c-5.54-2.39-11-4.84-16.55-7.3q-.11-14.6-.32-29.19c6,1.85,12,3.77,17.88,5.83C226.26,74.34,226,84.56,225.63,94.78Z" style="fill: none"/>
    </clipPath>
  </defs>
  <title>operator and subject</title>
  <g id="Layer_2" data-name="Layer 2">
    <g id="illustration">
      <g>
        <g id="Artwork_22" data-name="Artwork 22">
          <g style="clip-path: url(#clip-path)">
            <path d="M135.34,81.83l.4.2Z" transform="translate(0 0)" style="fill: #3b94cc"/>
            <path d="M136.36,82.33h0" transform="translate(0 0)" style="fill: #3b94cc"/>
            <path d="M198.37,104.91l.22,0,.18,0-.4.06" transform="translate(0 0)" style="fill: #3b94cc"/>
            <path d="M202.13,99.9a50.66,50.66,0,0,1-10.75-10.63l.18.27c-1.64-2.42-10.66-10.07-12.93-10.23C175.72,73.1,163.41,60.68,157,60.76c-1.32-.87-2-1.57-3.8-1.16a6.58,6.58,0,0,1-2.42-2.09,1.78,1.78,0,0,0-.51-1.14h0c-1.84-2.12-3.64,1.3-2.67,3v0a3.37,3.37,0,0,0-1.12,1.86,10.44,10.44,0,0,0-1,1.73c-1.12,1.09-2.35,2.19-2.4,3.91-.45,1.17.24,4.91,1,6.19-.1.65-.18,1.31-.25,2a10.06,10.06,0,0,0-.78,6.48,30.41,30.41,0,0,0-.42,3.55,65.09,65.09,0,0,1-6.31-2.75h0c-5-2.46-9-6.39-13.88-9a7.36,7.36,0,0,0-2.93-2.9,8.8,8.8,0,0,0-3-5.9c1.15-2.58,2.06-11-1.07-13,.45-3.13-2.58-1.24-3.31.2-1.51,1.45-2.6,6.56-3.08,8.54-5.37,2.52-14.17,7.19-17.61,12.28a2,2,0,0,0-.61.81c-1.92.19-2.29,3.22-.56,4.06a1.45,1.45,0,0,0,.51.31c1,2.13,2.29,2.31,3,4.58a6,6,0,0,1-.07,1.53,33.54,33.54,0,0,0-3.42,4.9c-1.54,1.31-1.59,3.49-1,5.27a10,10,0,0,0,.16,2.44A2.64,2.64,0,0,0,89,99.67a3.59,3.59,0,0,0,.11.57c-.17.68-.69,1.08-.92,1.76-1.18,1.72-1.2,5.48-1.2,7.59a2.53,2.53,0,0,0-.13.22c-1.51.86-9.08,4.8-5,6.24a2.39,2.39,0,0,0,.75.67c.16,4.88,5.74,10.36,9.69,12,3.41,3.23,6.39,3.15,9.27,7.05,2.24,3,3.4,7,5,10.33.09,1.49.69,2.88.89,4.36v-.14a6.84,6.84,0,0,0,.74,2.77,3.12,3.12,0,0,0,.09.44c-.73,1.15-.6,3.44-.13,4.77a2,2,0,0,0,0,.49,11.4,11.4,0,0,0-.41,2.3c-1.69,3.9-1.28,8.35,3.43,5.47,2.86-1.75,4.4-9.77,6.27-13.1,2.4,1.09,4.72,2.68,7.46,1.87,3.27.78,5.23,2.07,8.56.41,3.65,1.44,8.44-1.61,11.71-2.69,2.7.28,7.25-2.55,9.4-4.63l1.45-.7-.63.31a8.08,8.08,0,0,1,.85-.37c6.74,3.05,4.69-9.17,2-12.22-4-13.88.2-20.16,4.84-33.23a75.61,75.61,0,0,0,9,5.51c2.11,2,4.43,5.15,7.53,5.6,2.89,2.61,5.83,3.28,8.84.41,1.43,2.11,5.4,2.15,3.87-1.26.07-1.46-.08-3,1-4l-.43.39c2.07-1.85,2.92-3.46,5.57-3.93l-.22,0,.4-.06-.18,0c.86-.1,2.15-.09,3.29-.31a36.08,36.08,0,0,0,.34-4.64l-.09,0M91.79,105.19a7.64,7.64,0,0,0-.14-1.07l.24-.29c0,.36,0,.71,0,1.07l-.12.29m51.49-23c0,.08.05.16.08.25a.73.73,0,0,1-.08-.25m4.36,69.87h0l.28-.13-.27.13" transform="translate(0 0)" style="fill: #3b94cc"/>
            <path d="M182.9,220.63c-1.69-8.84-11.75-12.87-19.21-9.18.88-4.59-11.66-14.27-16.28-13.29-1-.51-2.17-1.15-3.37-.8a57.89,57.89,0,0,1-6.58-4.06c-5.15-6.15-13.62-8.09-19.52-12.47-3.74-2.77-6.25-10.51-12.48-10.3a5.45,5.45,0,0,0-5.82-.44c-1.61-.09-3.27-.93-4.84.06a6.4,6.4,0,0,0-2.49-2c-2.41-2.39-6.78-1.83-9.88-2.64.41-3.28-2-7-5.62-6.45a67.53,67.53,0,0,1-8.15-4.8c-1.69-1.18-3.86-4.74-6.34-5.06-4.56-.58-9,3.14-6,8.22A6.88,6.88,0,0,0,54.8,162c-1-4.82-2.15-11.67-7.92-13.05-5.3-1.27-10.62,2-10.71,7.83A12.84,12.84,0,0,0,34,169.11c-12.42-6.63-5.67,13.77-5.25,19.41a5.69,5.69,0,0,0,1.07,5.14A6.67,6.67,0,0,0,32.42,199c2.64,7.78,19.23,15.59,25.42,17.41,7.66,2.26,15.58,4.08,23.15,6.66,2.88,2,3.55,4.58,6.19,6.75a8,8,0,0,0,2.58,3.11c.53,2.4.87,4.7,1.28,7.13a8.45,8.45,0,0,0,0,2.13c-.95,2.36-1.67,5.94,1.19,7.32a18.4,18.4,0,0,0,1.92,1.73c2.67,4.15,5.1,8.35,7.85,12.43l-.47-.7c4.87,7.31,7.63,11,16,8.78,6.66-1.79,13.24-6.33,18.56-10.43,14.51-11.17,30.87-21.85,44.53-34l0,0a6.67,6.67,0,0,0,2.33-6.7m-54.1-34.31c-.25-.21-.5-.44-.74-.66l.74.66m-88.9,3.75a13.93,13.93,0,0,0,.49,1.31,5,5,0,0,0-.82-1.17l.33-.14m.62,1.6a1.11,1.11,0,0,1-.07-.16c0,.06,0,.13.08.18h0m74.93,67.17v0l0,.17a1.21,1.21,0,0,1,0-.14" transform="translate(0 0)" style="fill: #3b94cc"/>
            <path d="M109.94,59.88c-.68-1.15-23.23,15-22,15.9.06,0,9.5-7.3,10.59-7.93,1.32-.78,12.16-6.7,11.42-8M107.53,61l0,0,0,0" transform="translate(0 0)" style="fill: #2d3f51"/>
            <path d="M117.54,59.48a23.31,23.31,0,0,0-.06-2.51v0a13.12,13.12,0,0,0-1.67-5.09c-1.71-2.45-.11,1.75.26,2.64v0l0,.09h0a68.48,68.48,0,0,1,1.24,6.85c.36,0,.22-1.73.21-2m-1.16-4.29v0m-.29-.58a.08.08,0,0,0,0,0,.08.08,0,0,1,0,0m-.18-2.43s0,0,0,0,0,0,0,0M117.48,57s0,0,0,0,0,0,0,0" transform="translate(0 0)" style="fill: #2d3f51"/>
            <path d="M123.53,88.93c-.48-1.72-.66-3.53-1.19-5.24A56,56,0,0,0,119,76.58c-1.91-4-5-7.37-6.76-11.42h0c-.93-2.2-2-4.17-2-6.62,0-3.26,1.42-5.4,2.68-8.26.15-.32,1.31-1.8.18-1.43-.68.23-2.11,3.37-2.34,3.85a13.11,13.11,0,0,0-1.36,7v-.06s0,.07,0,.11,0,0,0,0c1,6.49,6.32,11.7,9,17.5,1.56,3.4,3.06,6.26,3.87,9.95a15.12,15.12,0,0,0,.39,2.09c.31.24,1.12.5.89-.29" transform="translate(0 0)" style="fill: #2d3f51"/>
            <path d="M148.88,115.08a176,176,0,0,0-1.53-18.34s0,.07,0,.1c-.53-4-2.22-9.9-6.13-12s-10.1,1.27-13.63,2.66c-.37.15-5.73,2.13-3.79,2.36,1.75.2,5.09-2,6.71-2.61,4-1.52,9.24-3.94,12.41.09l-.05-.07c3.15,4.08,3.7,8.67,4.37,13.65h0c.8,6,1.29,13,.38,19-.46,3.06-2,5.41-3,8.26a9.88,9.88,0,0,0-.85,3.2c0,.83.7,1.92.81,2.8.45,3.46-.33,7.91-1.27,11.25-.58,2.06-.5,4.43.68,1.44a34.43,34.43,0,0,0,1.65-8.85c.21-2.05.46-5.31-1-7,1.43-5.46,4.44-10,4.24-15.9m-2.34-19.14v0m-.36-4,0,0,0,0m-2.35,51a.17.17,0,0,1,0,.07.17.17,0,0,0,0-.07m-2.51-57.12,0,0,0,0" transform="translate(0 0)" style="fill: #2d3f51"/>
            <path d="M160.73,68c-.3-1.67-4.39-4-5.55-5.23a39.44,39.44,0,0,1-3.57-4.38c-.56-.84-1.58-4-2.52-4.28-2.57-.78,2.19,6.26,2.8,7,2.38,2.71,5.12,4.7,7.73,7.13-3.52,3.78-8,6.48-12,9.74a14.38,14.38,0,0,0-4.2,5.61c-.25.64-1,3.3-.56,3.7s.85.32,1-.4a0,0,0,0,0,0,0c.73-5.33,4.46-7.89,8.51-11,1.4-1.07,8.74-5.89,8.39-7.89m-1,0s0,0,0,0a.08.08,0,0,0,0,0m-4.92-5.71,0-.06Zm-4.1,13.3,0,0,0,0m8.3-9.38.07.06Zm.07.06a.1.1,0,0,1,.05,0,.1.1,0,0,0-.05,0" transform="translate(0 0)" style="fill: #2d3f51"/>
            <path d="M144.46,70.2c-.14-1.11-.23-4.41-.88-5.18-1.08-1.28-.71,1.18-.7,1.4.28,3.69.65,6.74.14,10.45-.18,1.25-1.18,8.54-.33,8.65.67.09,1-6.52,1-7a0,0,0,0,0,0,0c.38-2.84,1.1-5.41.74-8.31m-1,4.25v0m0-4.74v0Z" transform="translate(0 0)" style="fill: #2d3f51"/>
            <path d="M117.14,58.05a.36.36,0,0,0,0,.71.36.36,0,0,0,0-.71" transform="translate(0 0)" style="fill: #2d3f51"/>
            <path d="M140.4,85.26c-.44-1.57-5.92-3.86-7.05-4.56A83.81,83.81,0,0,1,126,75.2c-4.85-3.82-9.66-9.33-8.76-16h0v0c0-.17,0-.34.07-.51h0c.18-1.37-.49-.47-.74.12-.63,1.47-.26,3.84.15,5.29A19.34,19.34,0,0,0,123,74l-.09-.07,1.84,1.45-.09-.07.11.08,0,0a95.38,95.38,0,0,0,10.16,7.32c.58.33,5.81,3.85,5.47,2.6m-8.74-5.67a.18.18,0,0,0-.07,0,.18.18,0,0,1,.07,0m-1.74-.34,0,0,0,0m-.69-1.5,0,0Zm-11-12.18v0m-.89-7v0m0,.11v0m-.05.39v0Zm0,.15v0m-.06,2.94a.28.28,0,0,0,0-.09.28.28,0,0,1,0,.09" transform="translate(0 0)" style="fill: #2d3f51"/>
            <path d="M142,64.89c-.72-.43-.88.65-.93,1a.88.88,0,0,1,0-.16c-.55,3.88-1.88,8.74-5.5,10.88a10.45,10.45,0,0,1-4,1.23c-1.19.16-4.67.42-1.69.92,8,1.35,11.56-7,12.31-13.28v0c0-.25.08-.48-.24-.67m-2.68,7.22,0,.06,0-.06m-7.71,5.78h0" transform="translate(0 0)" style="fill: #2d3f51"/>
            <path d="M176.5,79.74c-1-2.39-1.72-4.71-3.32-6.83s-4-3.58-6-5.32a46.75,46.75,0,0,0-12.5-7.75l.06,0c-.67-.29-3.85-2.06-4.57-1.8-1.66.61,3.05,2.27,3.43,2.43l-.12,0a47.86,47.86,0,0,1,10.51,6h0c4.27,3.33,8.61,6.73,10.76,11.83h0c.12.27.75,2.36,1.42,2.07.22-.1.45-.36.34-.62m-6.72-8.38-.09-.07.09.07m-5.88-5,0,0,0,0m-12-7.63-.07,0,.07,0m2.69,1,.07,0-.07,0" transform="translate(0 0)" style="fill: #2d3f51"/>
            <path d="M185.46,87.66c-.44-1-1-1.83-1.44-2.81,0,0,0,.09,0,.13a18.55,18.55,0,0,0-6-7.6c-1.08-.77-3.2-2.29-4.47-2.55-2-.41-.94.46.35,1.26a23.89,23.89,0,0,1,7.21,6c1.22,1.58,1.65,3.48,2.77,5.07.26.38,2.17,1.89,1.51.45" transform="translate(0 0)" style="fill: #2d3f51"/>
            <path d="M193.21,108a8.89,8.89,0,0,0-1.16,6.13c.14.82,1.61,4.85,2.06,2,.08-.52-.69-1.83-.76-2.41a8.4,8.4,0,0,1,.19-3.35,9.42,9.42,0,0,1,3.29-4.62,9.26,9.26,0,0,1,4.58-1.56c.05-.35.11-.71.17-1.07a10.38,10.38,0,0,0-8.37,4.93" transform="translate(0 0)" style="fill: #2d3f51"/>
            <path d="M200.35,97c-2.71-3.5-6.66-5.4-9.45-8.74a13.24,13.24,0,0,0-5.39-3.84c-.91-.41-5.2-3.07-3.14-.75,1.73,1.93,5,2.31,6.91,4.31.9.94,1.49,2.21,2.44,3.08.77.71,1.81,1,2.64,1.65l-.11-.08a27.48,27.48,0,0,1,5.38,4.71l-.06-.09A28.62,28.62,0,0,0,202.1,100c.05-.34.1-.68.13-1a17.17,17.17,0,0,1-1.88-2" transform="translate(0 0)" style="fill: #2d3f51"/>
            <path d="M191.84,115.73c-3-2.92-4.88-.22-8.21-.65-3.76-.48-6.74-3.42-9.68-5.52s-4.69-5-7.62-6.93a21,21,0,0,0-3.92-2.35c-.58-.22-1.95-1-1.38.56.43,1.18,2.33,1.45,3.43,2a18.33,18.33,0,0,1,4.63,3.68,52.87,52.87,0,0,0,7.18,6c2.67,1.93,6.37,4.36,9.79,3.39,1.21-.34,2.09-1.27,3.43-.9.59.17,1,.94,1.5,1,.11,0,1.64.41.85-.34m-6.17-.69-.1,0,.1,0m-1.45.16h0" transform="translate(0 0)" style="fill: #2d3f51"/>
            <path d="M161.5,102.69c-.06-1.76-.12-3.71-.47-1.85s0,1.79-.38,3.54a52.27,52.27,0,0,1-3,9.69c-2.82,6.21-1.9,14.25-.36,20.74a75.45,75.45,0,0,0,2.6,9.26c.18.47-.08,1.67.81,1.66s.33-1.95.15-2.43a65.71,65.71,0,0,1-3.56-19.73c-.4-8.33,2.58-10.84,4-18.62Zm-2.71,33.58,0,0,0,0" transform="translate(0 0)" style="fill: #2d3f51"/>
            <path d="M116.49,49.55c-.39-.23-.62.35-.85.53l0,0c-.49.36-1.27-.11-1.64-.39l.07.06c-1.71-1.32-3.08-3.49-4.42-5.2h0c-1.6-2.08-6.85-8.92-.82-8.8,2.35.05,3.53,1.18,4.71,3,.22.35.71,1.68,1.28,1.65,1-.06-.45-1.6-.56-1.85a.36.36,0,0,1,0,.09c-1.1-2.61-4.92-5.12-7.73-3.35s-.45,5.81,1,7.72,3,4.27,4.8,6.19c.72.77,2,2.09,3.21,1.66.32-.12,1.53-.88.82-1.29m-2.87-10.77s0,0,0,0,0,0,0,0m-3.94,5.7,0,0,0,0M108,43.37l0,0,0,0" transform="translate(0 0)" style="fill: #2d3f51"/>
            <path d="M115.57,45.07a13.45,13.45,0,0,0-.68-1.82,13,13,0,0,0-1.41-3.42c-.82-1.09-5.71-4-5.87-.72,0,1,1.4-.78,2-.88,1.15-.19,2.52.94,3.19,1.73,1.24,1.47,1.39,3.42,2.22,5a.58.58,0,0,1-.35-.13l.09,0c-1.62-.69-2-1-2.27-2.8-.05-.35.36-2.69-.66-1.31-.86,1.16,0,3.45,1,4.23.38.29,2.86,1.22,2.74.11m-.38-.16h0m-.88-2h0M112.86,40l0,0,0,0m-.79-.79,0,0,0,0" transform="translate(0 0)" style="fill: #2d3f51"/>
            <path d="M108.84,7.18c-.79-1.35-3.75,5.35-4,6.14-1.26,4.22-1.73,7.59-.71,11.93.61,2.58,1.41,5.11,2.22,7.63.18.56.53,3,1.35,2.89.61-.07-.84-3.56-1-3.92a.36.36,0,0,0,0,.09c-1.46-3.59-2.94-8.83-2.64-12.67a24.12,24.12,0,0,1,2.65-8.68c.24-.44,2.38-2.86,2.06-3.41m-4.59,15.21s0-.05,0-.08,0,.06,0,.08" transform="translate(0 0)" style="fill: #2d3f51"/>
            <path d="M148.19,26c-.25-5.73-3.17-11.85-6.78-16.24-3.3-4-7.57-6.33-12.3-8.32h0l-.08,0h0l-.1,0,.07,0C124.86-.32,122-.41,117.47.85a15,15,0,0,0-4.54,2c-.37.26-5.08,4.54-4.31,5A52.46,52.46,0,0,1,115,2.21l-.06,0a1.73,1.73,0,0,1,.24-.1l-.06,0c3.55-1.4,8-2.44,11.66-1,3.47,1.32,7.72,3.14,10.61,5.49,5.07,4.13,8.79,11.57,9.65,17.92a.68.68,0,0,0,0-.14c0,.13,0,.25,0,.37v0s0,.09,0,.13h0c.09.67,0,4.18.36,4.22,1,.11.74-2.41.71-3M147.13,25s0-.07,0-.11,0,.07,0,.11M133.41,4.22h0m-6.53-3.08h0m2.18.31.05,0-.05,0" transform="translate(0 0)" style="fill: #2d3f51"/>
            <path d="M117.3,35.56c0-.82,0-8.64-1.91-7.39-.75-2.37.42-5.4.93-7.66.59-2.59-.6-3.89-1.44-6.19-.9-2.49-1.37-3.48-3.48-5.16-.32-.25-.9-1.14-1.26-1.12-1,.05-.38,1.12-.08,1.56,1.09,1.63,2.85,1.59,3.55,3.75.59,1.8,2.09,3.86,2.17,5.73.08,2.14-1.11,4.61-1.26,6.83,0,.54-.26,4.39,1.3,3,1.52,2.93.49,7.86.48,11,0,1.38.11,3.22.9,1.44.52-1.16.11-4.56.1-5.74m-1-18.08s0,0,0,0,0,0,0,0M116,28.7a0,0,0,0,1,0,0,0,0,0,0,0,0,0m-.91-13.76a.36.36,0,0,1,0-.09.36.36,0,0,0,0,.09m-.55,10.56v0" transform="translate(0 0)" style="fill: #2d3f51"/>
            <path d="M148.59,24.93c-.24-.86-1.24-1.36-1.67-2.14a28,28,0,0,1-1.12-3.58c-.83-2.2-2.13-5-3.85-6.66-.74-.71-2.07-1.82-3.14-1.09-.47.33-.29,1.06-.65,1.35-1.33,1-4.11,1-5.76,1.72l.1,0c-2.31,1-6.52.7-9,.42h0l-.33,0h.11c-2.48-.4-4.6-1-7-1.57-.52-.13-2-.54-2.47-.1-.82.82,1.91.85,2.23.92,4.83,1,10.74,2.79,15.79,1.54,1.16-.29,2.21-.95,3.38-1.25s2.49-.25,3.53-1.08c.42-.33.27-1.08.8-1.23.94-.26,1.93,1.35,2.35,1.94,1.74,2.44,2.56,5.33,3.45,8.12.32,1,.87,2.7,2,3.09.37.13,1.58.8,1.27-.33m-4.08-8.34s0,0,0,0,0,0,0,0m-12.29-2,0,0,0,0" transform="translate(0 0)" style="fill: #2d3f51"/>
            <path d="M125.09,40.85c-.76-1.28-4.33-2-5.7-2.54a63.87,63.87,0,0,0-6.1-2.27c-1.35-.41-3.48-.69-1.49.43,1.59.9,3.8,1.29,5.52,2l-.11,0c1.74.73,3.46,1.54,5.2,2.3.22.09,3.53,1.56,2.68.11m-7-2.05h0" transform="translate(0 0)" style="fill: #2d3f51"/>
            <path d="M138.84,37.68c-.29-2.35-7-1.26-8.57-.85-1,.25-7.15,3.17-5.74,5-.68.69,1,3.31,1.25,3.94,1.09,2.24,2.16,2.69,4.73,2.24,2.1-.36,4.79-1,6.18-2.75a13.35,13.35,0,0,0,2.15-7.55m-.74.74c0,5.11-3.1,8.73-8.22,9.11-1.88.14-2.26-.21-2.92-1.77-.34-.79-1-4-1.86-4.15,1.23-3,4.2-4.33,7.32-4.54,1.54-.1,5.68-.92,5.68,1.35m-2.61,7.11,0,0,0,0M128,47.39h0" transform="translate(0 0)" style="fill: #2d3f51"/>
            <path d="M138.94,38.2a.36.36,0,0,0,0,.71.36.36,0,0,0,0-.71" transform="translate(0 0)" style="fill: #2d3f51"/>
            <path d="M141.15,37.84c-.69-.24-4,.35-2.92,1.1.07.05,4-.72,2.92-1.1" transform="translate(0 0)" style="fill: #2d3f51"/>
            <path d="M153.28,36.57c-.48-6.89-11.38-.28-11.6-1.13,0-.11,8.27-1.31,9-1.41h-.07c3-.38,1.76,4.3,1.13,6-.92,2.55-2.65,3.1-5.19,3.45h.08c-2.16.27-2.45-1.17-3.35-2.94-.43-.85-1.11-4.41-1.7-4.6-2.25-.69.28,4.79.61,5.32,1.72,2.69,2.47,3.06,5.66,2.62h-.06c3.64-.47,5.73-3.74,5.49-7.36m-.77.46v0m0-1.16v0m-2.11-2.36h0m-4.85,10.72h0" transform="translate(0 0)" style="fill: #2d3f51"/>
            <path d="M153.43,34.26c-.49-1-2.54-1.72-3.51-2.15-2.25-1-3.21-.66-.58.5.92.41,2.56,1.92,3.48,2,.05,0,1.11.68.61-.39m-.6.44v0a0,0,0,0,1,0,0" transform="translate(0 0)" style="fill: #2d3f51"/>
            <path d="M149.8,42.15a42.39,42.39,0,0,0-1-7.09,19.8,19.8,0,0,1-.22-4.8c0-.23.13-2.88-.65-1.66s-.08,5.3.16,6.52c.59,3.05,1.51,5.9,1.09,9.07,0,0,0,0,0-.06-.37,2.78-.08,5.5-.62,8.26S147,59.63,145.21,62c-4,5.23-10.15,2-14.84,0-1-.43-5.27-3.26-3.08-.36,1.5,2,5.24,2.85,7.37,3.85a9.26,9.26,0,0,0,8.15-.16c2.82-1.35,3.64-3.47,4.74-6.18l-.06.14c.18-.41.33-.83.5-1.24a.5.5,0,0,0-.05.13,24.37,24.37,0,0,0,1.62-9.64c-.1-2.17.32-4.22.24-6.37m-.62,10.35v0m-.49-1.16v0m-4.12,11.51,0,0,0,0" transform="translate(0 0)" style="fill: #2d3f51"/>
            <path d="M145.31,53.7c-.15-.26-2.9,1.49-3.69,1.65-.57.11-5.88.37-5.88.64s2.38,0,2.65-.05h0c1.4-.18,3.13.34,4.45-.14.47-.17,2.65-1.7,2.43-2.09m-6.88,2.23h0" transform="translate(0 0)" style="fill: #2d3f51"/>
            <path d="M145.06,56.08c-.08-.12-3,1-3.36,1.08h.1c-.45.05-2.49-.44-2.59-.06-.44,1.57,6.88.76,5.85-1m-4.33,1h0m-.6-.08h0Z" transform="translate(0 0)" style="fill: #2d3f51"/>
            <path d="M144.74,53.51c-.08-.29-6.71,1.64-6.63,1.92s3.11-.58,3.54-.64h-.07c.56-.08,3.25-.95,3.16-1.29m-2.92.78h0" transform="translate(0 0)" style="fill: #2d3f51"/>
            <path d="M139.05,50c-.14-.48-2.57-.55-3-1.72-.16-.49.71-3.61-.46-1.6-.73,1.25-.2,2.14.77,2.93.36.29,2.92,1.41,2.64.39m-1.9-.6,0,0,0,0" transform="translate(0 0)" style="fill: #2d3f51"/>
            <path d="M145,45.11c-.12-1.46-1.39-2.5-1.93-3.78l0,.1c-.24-.57-1.14-2.25-1.34-.78-.07.57,1,1.89,1.31,2.32l-.05-.06c1.17,1.56,2.7,5.83-.91,5.35h.06c-1-.13-3-.81-3.55.41-1,2.23,1.14.2.61.32,2.61-.56,6.1,0,5.76-3.88m-.57,1.83v0m-.4-2.3,0,0,0,0m-.06,3.16h0Zm-1-4.92,0,0,0,0" transform="translate(0 0)" style="fill: #2d3f51"/>
            <path d="M136.58,36.1c-1.87-.76-3.48-1.71-5.59-1.55-.78.06-6.79,1.69-6.73,1.92s6.6-.7,7.5-.76a8.71,8.71,0,0,1,3.14.2c.39.11,2.51.52,1.68.19m-6.31-1.44h0m-4.55,1.71h0" transform="translate(0 0)" style="fill: #2d3f51"/>
            <path d="M147.53,29.62c-.23-.84-3.81,1.1-4.14,1.35l.12-.09c-.2.15-1.94,1.79-1.6,2.12.13.14,5.82-2.65,5.62-3.38" transform="translate(0 0)" style="fill: #2d3f51"/>
            <path d="M147.23,34.9c-.36-.21-1.64,1.64-2,1.74-.55.17-2.94-.84-3.1-.25-.36,1.33,3.67.47,4.28-.15.15-.15,1.25-1.07.78-1.34m-.33.11v0" transform="translate(0 0)" style="fill: #2d3f51"/>
            <path d="M133.85,37.83c-.1-1.42-6.34.81-6.54,1.76s3,1.64,3.69,1.51c1.09-.2,2.94-2,2.85-3.27m-.44.23c-.46,2.72-3.42,3.16-5.15,1.31a17.69,17.69,0,0,1,5.11-1.71.78.78,0,0,1,0,.4m0-.4,0,0,0,0m0,0,0,0Zm0,0h0Zm-1.16,2.73,0,0,0,0m-.43-.11h0m-.33.29h0m-3.06-1.25h0" transform="translate(0 0)" style="fill: #2d3f51"/>
            <path d="M142.55,35.2a.36.36,0,0,0,0,.71.36.36,0,0,0,0-.71" transform="translate(0 0)" style="fill: #2d3f51"/>
            <path d="M146.12,33.68a11.14,11.14,0,0,0-2.79.67c-.52.29-2.41,1.66-1.1,1.81.41.05.71-.69,1.07-.84.53-.22,1.69-.41,2.13-.63.29-.15,1,.23,1.19-.15s.14-1-.5-.86" transform="translate(0 0)" style="fill: #2d3f51"/>
            <path d="M145.6,35.5c-.24-1-1.61-.3-1.16.42s1.32.21,1.16-.42m-.68.14h0a.13.13,0,0,0,0-.06.13.13,0,0,1,0,.06" transform="translate(0 0)" style="fill: #2d3f51"/>
            <path d="M131.32,38.89c-1.26-.37-.08,1.43.12.51a.29.29,0,0,0-.12-.51" transform="translate(0 0)" style="fill: #2d3f51"/>
            <path d="M131.72,39c-.27-1-1.3.07-.79.24-.13.39,1,.42.79-.24m-.38.1h0" transform="translate(0 0)" style="fill: #2d3f51"/>
            <path d="M131.82,39c-.24-.6-.91-.2-1.21,0-.64.4,1.77,1.43,1.21,0m-.5.24v0a.36.36,0,0,1-.18,0l0,0h0l0,0h.1Zm0,0h0Zm-.14.05h0Z" transform="translate(0 0)" style="fill: #2d3f51"/>
            <path d="M110.12,113.89c-.37-2.65-1.81-5-1.76-7.75,0-1.12,1.4-4.9.87-5.56-1-1.29-1.59,3.2-1.73,3.87a10.48,10.48,0,0,0,.34,5.85,20.24,20.24,0,0,1,1.17,5c.09,1.44-1.27,5.56-.56,6.66,1.34,2.08,1.4-2.53,1.48-3.22a18.89,18.89,0,0,0,.19-4.81" transform="translate(0 0)" style="fill: #2d3f51"/>
            <path d="M111.85,126.76c-.5-4.51-5.21-6.46-7.8-9.8l.08.1c-.18-.24-2.16-3.9-2.14-1.75,0,1.49,2.43,3.92,3.45,4.93,3,3,5.49,3.88,5.3,8.54-.09,2.4,0,4.83-.17,7.22,0,.45-.38,3.56.82,2.05,1-1.28.25-5.19.32-6.64a30.12,30.12,0,0,0,.14-4.65M108.72,123l0,0,0,0" transform="translate(0 0)" style="fill: #2d3f51"/>
            <path d="M114,135c-.79-1.37-2.91,2.4-3.17,2.7a6.22,6.22,0,0,1-2,1.56c-.47.23-2.53.33-2.78.78-1.41,2.45,4.09.17,4.83-.58.5-.5,3.31-4.09,3.09-4.46" transform="translate(0 0)" style="fill: #2d3f51"/>
            <path d="M115,135.12a14.79,14.79,0,0,0-2.78-5.63c-.64-.87-1-1.78-.83.26s2.33,3.74,2.45,6.06c.08,1.67-.26,3.56-.32,5.19-1.9,1.85-3.48,2.61-2.19,5.75.18.43.64,1.59,1.19,1.61.84,0,1.4-1.19.36-1.32a3.42,3.42,0,0,1-.86-2.66c.24-1.7,1.37-1.29,2.19-2.51.66-1,0-1.38.14-2.44.15-1.5.92-2.73.65-4.31m-1.44,5.81a.08.08,0,0,1,0,0l0,0" transform="translate(0 0)" style="fill: #2d3f51"/>
            <path d="M113.15,148.28c-.93-.26-.77,1.21-1.17,1.6s-4.62.91-2.87,2.27c.69.53,3.28-.54,3.87-1.25.37-.44,1.14-2.35.17-2.62m-1.24,1.66,0,0,0,0" transform="translate(0 0)" style="fill: #2d3f51"/>
            <path d="M118.86,151.7c-.9-.9-5.39-2.29-6.45-1.35s4.12,1.39,5.06,1.79c-2.78,2.16-4,5-5.4,8.15-.63,1.38-1.24,2.8-1.81,4.21-.23.57-1.82,4,.13,3.19.84-.34,1.88-4.42,2.19-5.17.65-1.57,1.27-3.16,2-4.71.45-1,4.61-5.82,4.32-6.11m-.5-.24h0" transform="translate(0 0)" style="fill: #2d3f51"/>
            <path d="M171.54,184.72c-.75-.21-.58,1-1.1,1.24-1,.45-1.69,0-2.65-.41-3.33-1.56-6.8-3.11-10-4.83s-5.92-3.85-9.54-4.73a101.44,101.44,0,0,0-11.74-1.91h.07c-2.26-.31-4.5-.74-6.77-1h.08a59.11,59.11,0,0,1-13.62-3.8c-1.06-.4-9.61-4.26-9.57-2.34,0,.07,9.65,3.36,10.76,3.81,4.68,1.87,9.2,2.51,14.17,3.13h-.07c3,.41,5.9.91,8.86,1.3h0a47.41,47.41,0,0,1,9.8,2.1c3.1,1.16,5.78,3.46,8.78,4.88s6,3.4,9,4.6a3.18,3.18,0,0,0,2.41.25c.46-.18,2.37-1.93,1.13-2.26M120,170.93l0,0,0,0m20.38,4.22Z" transform="translate(0 0)" style="fill: #2d3f51"/>
            <path d="M175.4,181.19c-1.17,0-.32,3.29-2.77,3h0c-1.08-.16-1.62-1.45-2.61-1.6-1.45-.22,1.83,1.86,2.65,1.93,2.09.22,4.27-3.33,2.73-3.33m-1.35,2.73,0,0,0,0m-2.34-.06h0" transform="translate(0 0)" style="fill: #2d3f51"/>
            <path d="M178.49,177.83c-.37-1.31-1.08,2.31-1.13,2.37-1.08,1.42-1.61.48-2.79-.43-1.5-1.16-3-1.17-.84.46,1.59,1.19,3.19,2.22,4.19-.16a.14.14,0,0,0,0,.06,3.8,3.8,0,0,0,.59-2.3" transform="translate(0 0)" style="fill: #2d3f51"/>
            <path d="M180.79,175.48c0-.44,0-1.36-.66-1.11-.39.15.16.88.07,1.17-.42,1.27-.41,1.83-1.81,1.43-.37-.11-3.65-3.33-2.95-1.24s5.48,2.89,5.35-.25" transform="translate(0 0)" style="fill: #2d3f51"/>
            <path d="M182.51,170.32c-.18-.87-5.88-2.4-6.54-2.62a46,46,0,0,0-5.38-1.45c-2.48-.49-4.81-.31-7.22-.61h0c-2.85-.4-5.59.58-8.27-.54l.08,0c-4.33-1.85-9.29-2.63-13.78-4a95.79,95.79,0,0,1-15-5.78c-2-1-4-1.82-5.93-2.72-.78-.36-3.23-1.65-2.15.07.57.9,3.09,1.34,4.12,1.76,2.31.94,4.5,2.14,6.8,3.11l-.08,0a157.37,157.37,0,0,0,17.52,6c2.5.72,5.11,1.16,7.59,2,3.13,1,5.88.26,9.14.69h-.08c1.53.21,3,.15,4.58.36h0a44,44,0,0,1,10.28,2.68h0l.08,0,0,0c1.13.5,2.38.81,3.49,1.33-.26.66-2.4,1.72-2.28,2.06.39,1,3.31-1.14,3.09-2.29m-.85.22,0,0,0,0m-13.95-4.75h0m0,0h0m-4.24-.14h0m-4.4.48h0m-.69-.42h0m-19.68-5.48h0m-16.68-6h0m45.89,12.29h0m10.32,2.68Z" transform="translate(0 0)" style="fill: #2d3f51"/>
            <path d="M180.44,174.23c-.41-1.74-2.45-3.68-3.92-4.57-.63-.39-5.18-2.28-5.38-1.56.07-.25,4.42,1.82,5,2.4,1,.94,1.67,2.16,2.61,3.15.13.14,2,1.95,1.65.58" transform="translate(0 0)" style="fill: #2d3f51"/>
            <path d="M228.75,142.08c-.45-2.64-2.4-5.22-3.87-7.38a29.3,29.3,0,0,0-5.42-6.51c-3.54-2.9-5-6.54-6.88-10.47l-1.19-.38a18.75,18.75,0,0,0,2.15,3.78h0c1,1.31,1,3,2,4.36a14.63,14.63,0,0,0,2.67,2.72.46.46,0,0,0-.07-.07A24.54,24.54,0,0,1,223,133h0c.65.86,5.86,9.36,5.59,9.43a.27.27,0,0,0,.19-.33m-15.17-20.91s0,0,0,0,0,0,0,0m9.91,11.59,0,0,0,0m1.81,3.6,0,0Zm2.69,4.51h0Zm.49.25h0" transform="translate(0 0)" style="fill: #2d3f51"/>
            <path d="M202.86,124.55c-.49-.28-5.42,5.84-5.71,6.31a12.62,12.62,0,0,0-1.56,4.75,9.72,9.72,0,0,0,0,2.85c0-.05.85,3.64,1.39,2.73.11-.2-1.14-3.75-1.06-4.55a12.05,12.05,0,0,1,1.74-5.29l0,0c.34-.41.68-.84,1-1.26l-.07.08c.24-.3,5.12-5.18,4.31-5.65m-6.93,13.74v0" transform="translate(0 0)" style="fill: #2d3f51"/>
            <path d="M203,124.5a27.88,27.88,0,0,0-3.28-3.55l.09.07c-.74-.57-8.76-6.22-9.1-5.29-.18.5,7.38,5,8,5.5v0l2.08,1.6h0c.47.39,1.11,1.57,1.53,1.79.06,0,1.34.57.71-.09m-2.75-2.09,0,0,0,0m-1.5-1.15h0l0,0Z" transform="translate(0 0)" style="fill: #2d3f51"/>
            <path d="M202.13,133.71c-.95-.26-1.62,3.75-1.71,4.06a4.31,4.31,0,0,1-2.47,2.88h0c-.21.08-1.17.18-1.17.48,0,.92,3.87-2,4.16-2.63.18-.36,1.07-4.81,1.17-4.78m-3.73,6.67h0" transform="translate(0 0)" style="fill: #2d3f51"/>
            <path d="M205.73,134.85s-4.4.56-4.32.3c-.38,1.32,4.67.3,4.32-.3" transform="translate(0 0)" style="fill: #2d3f51"/>
            <path d="M212.13,132.93c-.64-1.12-.69,2.55-.71,2.79-.08,1.54-.57,3-.78,4.57a.07.07,0,0,1,0,0c-.25,1.76.9,6.49-1.92,6.13h0c-2.35-.34-1.79-1.8-1.78-3.74a58.26,58.26,0,0,0-.53-7c-.15-1.25-.77-5.06-.76-2,0,1.73.82,3.28.86,5,0,1.92-.85,5-.06,6.77.51,1.16,2.49,2.2,3.72,1.29.86-.63.86-3.09,1-4,.23-1.83.54-3.65.76-5.47.12-1,.64-3.61.22-4.32m-.8,7.73v0M210,146.34h0m0,0Zm-2.89-.56,0,0,0,0m0-.05h0Zm0,0,0,0,0,0m1.66.63h0" transform="translate(0 0)" style="fill: #2d3f51"/>
            <path d="M217,147.11c-.22-.37-2.59.19-3.07-.16-.76-.57-.63-1.83-.54-2.69a36.34,36.34,0,0,0-.3-9.36.28.28,0,0,1,0,.09c-.15-1.16-1.4-4.35-1.27-1.56.07,1.74,1.1,3.63,1.16,5.53s-.19,4-.09,6a2.6,2.6,0,0,0,1.07,2.39c.17.11,3.54.65,3-.24m-.55,0h0m-2.69-.24h0m-.19-5.94a0,0,0,0,1,0,0,0,0,0,0,0,0,0" transform="translate(0 0)" style="fill: #2d3f51"/>
            <path d="M218.25,137.19c0-.6-.57-6.24-.8-6.3-1.18-.32.21,5,.27,5.53a.17.17,0,0,0,0-.07,19.93,19.93,0,0,1-.32,4.93s0-.06,0-.09c-.23,1.71.14,4-.51,5.56l0-.08a.5.5,0,0,0-.09.61c.88.9,1.07-3.88,1.1-4.34.1-1.93.31-3.82.31-5.75" transform="translate(0 0)" style="fill: #2d3f51"/>
            <path d="M222.39,145.27c-.47-.27-2.09,1.65-3.3,0-1.05-1.42.42-4.35-.45-6.07-.35-.69-.93-.66-.94,0a4.82,4.82,0,0,1,.8,1.08c.33,1.27-.16,2.58-.07,3.88s.18,1.87,1.45,2.32c.42.14,3.68-.51,2.51-1.19" transform="translate(0 0)" style="fill: #2d3f51"/>
            <path d="M223,142.9a37.62,37.62,0,0,1-.51-4.85c0-1.22.44-2.38.15-3.6-.21-.85-2.5-4.53-1.94-2.11.22.92,1.33,1.53,1.52,2.64a23.58,23.58,0,0,1-.17,3.55c0,.45.23,7.12.35,7.16.61.16.64-2.39.6-2.79m-.69-.58v0" transform="translate(0 0)" style="fill: #2d3f51"/>
            <path d="M228.8,142.12c-.38-1-.74,1.12-1.19,1.18h0c-1.83.21-2.55-2.14-3.42-3.4-.43-.62-2.31-3.84-2-1.71.16,1,1.59,2.54,2.13,3.38.68,1.06,1.11,2.14,2.54,2.21.77,0,2.35-.51,1.92-1.66m-6.23-3.39a.14.14,0,0,1,0-.06.14.14,0,0,0,0,.06m5,4.57h0" transform="translate(0 0)" style="fill: #2d3f51"/>
            <path d="M168.84,106.39a.36.36,0,0,0,0,.71.36.36,0,0,0,0-.71" transform="translate(0 0)" style="fill: #2d3f51"/>
            <path d="M179.61,157.41c-2-1.25-3.74-2.81-5.7-4.09-1.73-1.13-3.84-1.35-5.68-2.26-2.43-1.2-4.59-2.88-6.94-4.19-.88-.49-4.44-2.17-2.62-.33.61.62,2.41,1.16,3.22,1.7s1.77,1.25,2.69,1.83a28.16,28.16,0,0,0,5.91,3c3.74,1.31,6.83,4.42,10.23,6.53,1.48.92,3.05,1.83,4.66,2.7-.36-.71-.71-1.42-1-2.11-1.6-.91-3.18-1.84-4.72-2.8" transform="translate(0 0)" style="fill: #2d3f51"/>
            <path d="M178.07,194.55a27.11,27.11,0,0,0-3.73-5.43c-.42-.43-5-3.49-4.11-1.29.2.52,2,1,2.43,1.43a13.91,13.91,0,0,1,2.56,2.64c.44.6,1.33,3,2,3.13.26.07,1.27.31.81-.48m-5.29-5.2-.07,0,.07,0" transform="translate(0 0)" style="fill: #2d3f51"/>
            <path d="M211.25,204.3c-.49,1.21-1.71,3.34-1.46,4.68.49,2.63,1.61-1.93,1.86-2.6.16-.43.34-.87.52-1.32a11.88,11.88,0,0,0-.78-1.1Z" transform="translate(0 0)" style="fill: #2d3f51"/>
            <path d="M160.29,146c-.24-.85-9.76,3.95-11.11,4.53l.1-.05a119.23,119.23,0,0,1-19.47,5.89c-.59.14-2.48.39-1.3,1.12.75.46,4.51-.75,5.44-.94a53.08,53.08,0,0,0,10.23-3.22l0,0,.11,0-.06,0c1.75-.72,16.61-5.42,16.09-7.33m-.26.62s0,0-.05,0l.05,0m-15.84,6.71h0" transform="translate(0 0)" style="fill: #2d3f51"/>
            <path d="M75,65.71a22.23,22.23,0,0,0-1.48-7.12c-.64-1.81-1.63-4.25-1.15-6.18.17-.7,2.2-2.49,1.33-2.73-2-.54-2.37,3-2.36,4.07,0,2.46,1,4.61,1.67,6.91a25.6,25.6,0,0,1,.72,8.46,27.09,27.09,0,0,1-.88,7.45c-.8,2.4-2.37,4.52-3,7-.59,2.09,0,4.78-2.14,6.16S63.31,89,61.3,88.11c-1.66-.69-2.9-.36-1.19,1a11.62,11.62,0,0,0,5.74,2.2c4.81-.08,4.25-5.49,5.42-8.63.93-2.48,2.4-4.65,3-7.27a41.51,41.51,0,0,0,.78-9.7" transform="translate(0 0)" style="fill: #2d3f51"/>
            <path d="M107.69,147.78c-2.27-3.08-2.56-7.13-4.25-10.5a16.19,16.19,0,0,0-6.33-6.69c-2.51-1.48-5.08-2.15-7.1-4.39-2.91-3.24-5-7.2-7.87-10.5A21.72,21.72,0,0,0,72.45,109c-4.39-1.39-9-1.29-12.88-4.13-2.3-1.7-5.07-4.66-5.42-7.65s1.56-6.17,2.92-8.77c1.55-2.95,3.35-5.8,3.7-9.19.11-1-1.37-10.45-3.45-9.24-.83.48,1.92,6.17,1.92,7.68,0,4.18-2.63,7.76-4.46,11.31-1.6,3.09-3.28,6.45-2.12,10s4.06,6.32,7.07,8.17,6.65,2.21,10.11,3.11A20.06,20.06,0,0,1,80,116.36c2.71,3,4.75,6.35,7.08,9.58,2.59,3.59,5.94,4.66,9.53,7,3.75,2.39,5.22,5.74,6.53,9.85a19.34,19.34,0,0,0,1.91,4.9c.28.42,1,1.6,1.69,1.56s1.47-.72,1-1.43m-49.32-74,0-.05Zm2.36,5.84s0,.07,0,.11l0-.22s0,.07,0,.11" transform="translate(0 0)" style="fill: #2d3f51"/>
            <path d="M105.29,163.84c-2.6-2.16-1-6.41-4.08-8.74-3.29-2.46-6.59-2.68-8.3-7-1.41-3.5-2.26-6.17-5.36-8.63-3.62-2.86-7.94-4.56-12-6.65-3.57-1.84-6.92-4.61-7.63-8.73-.75-4.34-1.48-8-4.16-11.62-4.6-6.22-13.31-10.48-15.1-18.57-1.62-7.27,6.52-15,3.14-22-1.34-2.79-.26,1.49-.18,2.56a13.39,13.39,0,0,1-.86,5.3c-1.16,3.49-3.08,6.52-3.57,10.22-1.2,9.21,7.49,14.87,13.07,20.71a18.19,18.19,0,0,1,5.07,9.86c.73,4.37.68,7.3,4.06,10.56,3.9,3.76,9.33,5.31,13.92,8.05,4,2.38,5.83,4.86,7.42,9.16a11.2,11.2,0,0,0,4.11,5.7c1.75,1.21,4.38,1.55,5.85,3.08s1.11,3.91,1.74,5.82c.25.74.84,2.2,1.7,2.44s2.2-.66,1.17-1.51" transform="translate(0 0)" style="fill: #2d3f51"/>
            <path d="M52.8,137.23c-3.5-2.85-4.62-5.59-5.37-9.92-.7-4-3.1-7.24-5.78-10.22-2.46-2.74-5-4.89-6.27-8.48s-1.75-7.26-3.16-10.75c-2.76-6.84-6-13.83-2-21,3.23-5.83,7.36-12.28,4.23-19.15-1.35-2.95-3.35-5.25-2.81-8.71a7.56,7.56,0,0,1,2.15-4.21c.52-.52,4.35-2.69,1.94-2.85-1.05-.06-3.38,2.58-3.89,3.3a9.9,9.9,0,0,0-1.72,5.21c-.19,3.8,2.52,6.29,3.48,9.75.79,2.84,0,6.05-.89,8.77-1.08,3.25-3.53,5.54-4.9,8.62C25,84,27.08,90.76,29.84,96.75c1.74,3.78,2.54,7.72,3.7,11.69,1.35,4.62,4.8,7.32,7.8,10.86a21.21,21.21,0,0,1,3.78,5.75c.91,2.34.78,4.91,1.69,7.28a11.86,11.86,0,0,0,2.78,4.2c.43.44,1.45,1.72,2,1.86s2.3-.23,1.16-1.16" transform="translate(0 0)" style="fill: #2d3f51"/>
            <path d="M74.64,50c-1.1-7.48-9.45-11.19-15.93-12.93C50.53,34.87,41.42,32.37,33,34.92c-6.69,2-14.39,5.13-19.88,9.49C9.88,47,8.37,50,6.87,53.83c-1.34,3.41-3,6.72-4.22,10.17-2.72,7.67-3.72,17.1-1.2,24.89a19.14,19.14,0,0,1,1.41,5.49c0,2.09-.94,4-1.45,5.93a20,20,0,0,0,.7,13.32c.29.66,1.42,3.6,2.56,3,.93-.52-.84-2.43-1.09-2.91a18.91,18.91,0,0,1-1.16-12.49C3,98.41,4.23,95.87,3.74,93c-.72-4.33-2.44-8-2.45-12.51,0-9.15,3.09-16.81,6.33-25.17,1.52-3.91,3-7.31,6.43-10s7.32-4.27,11.12-5.88l0,0,.17-.07-.05,0,.16-.07-.1,0,1.07-.45-.07,0,.17-.07h0A37.31,37.31,0,0,1,42,35.64c5.5.12,10.62,1.49,15.92,2.84,4.73,1.2,8.53,2.74,12.25,6a11.55,11.55,0,0,1,3.17,3.48c.25.54.2,2.49.67,2.55s.68,0,.61-.48M4.14,60.53l0,.08,0-.08M2,103.5v0M26.45,38.9l-.07,0,.09,0h0" transform="translate(0 0)" style="fill: #2d3f51"/>
            <path d="M9.84,125.9c-.38-2.55-2.31-4.53-2.67-7-.45-3.07,1.38-5.9,2.13-8.75a24.49,24.49,0,0,0,.44-7.35c-.07-1.55.25-8.27-1-9.16-1.58-1.15-.6,4-.57,4.37a42.21,42.21,0,0,1-.11,9.6c-.43,2.84-1.94,5.32-2.48,8.12-.58,3,.21,4.78,1.44,7.41,2.42,5.18-1.77,10.26-2.81,15.45-.55,2.72-.53,4.92.9,7.31.41.67,2.78,4.62,3.22,4.71,2.9.53-.57-3.94-1.07-4.67a7.34,7.34,0,0,1-1.44-5.66A31.64,31.64,0,0,1,8.27,132c.84-2,1.89-3.92,1.57-6.13m-4,14.37,0,.15s0-.1,0-.15" transform="translate(0 0)" style="fill: #2d3f51"/>
            <path d="M16.1,167.85c-.25-5.25-5.08-8.2-6.09-13.11-1.06-5.1,3.72-8.36,4.71-13.11,1.06-5.15-.33-10.77-1.31-15.84-.05-.31-.92-5.61-1.87-3.9-.61,1.1,1,5.6,1.19,6.94.71,4.57,1.7,9.56.16,14.07s-5.5,6.79-4.41,12c1,4.94,6.12,8.2,6,13.42,0,1.06-1.58,4.91-.39,5.39,1.44.57,2.06-5,2-5.88m-3.29-38.52s0-.09,0-.13,0,.09,0,.13" transform="translate(0 0)" style="fill: #2d3f51"/>
            <path d="M27.27,195.5c-.3-2.13-.78-4.82-2.54-6.29s-4.53-1.45-6.38-3c-2.91-2.48-1.05-5.85-2.7-8.84-2-3.52-6.76-6.86-6.78-11.18,0-2.07,1.23-3.81,2.15-5.57.69-1.31,1.5-3.69-.38-1.85a14.31,14.31,0,0,0-2.86,6.17c-.42,2.25.41,4.09,1.59,6,1.31,2.1,2.94,4,4.3,6,1.54,2.32.94,3.56,1.29,6.13.65,4.88,4.86,4.79,8.2,6.84,1.78,1.1,2,2.85,2.6,4.77,0,.16.17,2,1,1.65a.69.69,0,0,0,.46-.81m-6.65-8.05-.09,0,.09,0m-4-3.63,0,0,0,0m-1.55-4.08v0" transform="translate(0 0)" style="fill: #2d3f51"/>
            <path d="M35.73,140.23a7.17,7.17,0,0,1-1.15-6.65,12.65,12.65,0,0,0,.63-5.42c-.75-5.37-4-8.25-8.16-11.24-3.56-2.55-5.07-5.14-6-9.41-1.18-5.19-2.44-10.08-5.32-14.64-1.21-1.94-2.75-3.8-3.41-6-.57-2-.18-3.82,0-5.8.36-3.26-.71-2-1.07.49a15.11,15.11,0,0,0,.16,6.79c1.54,4.89,4.61,9,5.82,14.11,1.11,4.65,1.3,9.43,4.34,13.35a3,3,0,0,0-.22-.28c3.76,4.87,10.36,5.73,11.72,12.52.62,3.13-1.32,5.85-.85,8.92a7.29,7.29,0,0,0,1.71,3.72c.63.59,2.72,1,1.8-.43M22.37,112l-.12-.27.12.27M12.25,81.48v0m0,.1v0Z" transform="translate(0 0)" style="fill: #2d3f51"/>
            <path d="M30.66,184.55c-.17-4.18-3.86-6.83-4.07-10.94-.24-4.82,3.61-9.08,3-13.85-.37-2.86-2.74-5-4.23-7.31a22.64,22.64,0,0,1-3.07-6.68c-1-3.93.24-7.64,1.87-11.22,1-2.13.57-3.49-.79-.94a23,23,0,0,0-2.53,7.12c-.78,4.85,1,9.56,3.62,13.58,1.32,2,3.28,3.81,3.3,6.36s-1.54,5.23-2.26,7.68A13.61,13.61,0,0,0,25,176c.63,2.18,2.31,3.75,3.16,5.8,1.08,2.6.21,4.84-.5,7.4s-.8,6.28.56,8.8c.61,1.14,1.86,2,2.1.08.14-1.15-.95-3-1.09-4.19-.38-3.32,1.55-6.11,1.42-9.37" transform="translate(0 0)" style="fill: #2d3f51"/>
            <path d="M41.11,178.15c-.36-3.91-2.11-8.4-5.84-10-.91-.39-3.2-2.1-4.07-2-3.37.53,2.21,3.33,2.78,3.57,3.58,1.5,5.34,6,5.14,9.85,0,.89-1.67,5.06.73,4.23,1.37-.48,1.36-4.69,1.26-5.72" transform="translate(0 0)" style="fill: #2d3f51"/>
            <path d="M44.88,139.27c-.19-2.33-1.54-6.84-2.94-8.73-.63-.85-1.6-1.74-1.83,0-.17,1.24,1.58,4.1,2,5.26,1.33,3.71,1.16,6.43-1.82,9.24-2.44,2.31-5.26,4-5.71,7.67-.16,1.29-.14,7,1.38,7.61,1.91.8,1-1.94.81-2.64a13.12,13.12,0,0,1-.37-4.32c.55-6,9-7.28,8.49-14" transform="translate(0 0)" style="fill: #2d3f51"/>
            <path d="M57.64,158.14c-.26-3.84-1.61-7-5.39-8.48a47.28,47.28,0,0,0-6.65-1.58c-.62-.13-5-1.48-4,.69.5,1,5.17,1.43,6.3,1.7,1.72.41,3.75.74,5.15,1.92,1.6,1.34,1.55,3.05,2,4.9.2.78.07,1.61,1,1.91a1.12,1.12,0,0,0,1.54-1.06" transform="translate(0 0)" style="fill: #2d3f51"/>
            <path d="M99.05,167.81c-.45-1.65-4.14.22-5.11.45a14.69,14.69,0,0,1-7.36.12c-2.59-.76-3.52-2.07-3.88-4.65-.35-2.43-.85-3.44-3.24-4.23a32.35,32.35,0,0,1-11.66-6.75,21.16,21.16,0,0,0-4.17-2.9c-.62-.31-5.71-2.84-4.8-.46.4,1,4.85,2.17,6,3,1.52,1.12,2.78,2.59,4.21,3.82a22.76,22.76,0,0,0,5.75,3.89c1.48.63,3.84.72,5.12,1.59,1.52,1,.69,3.54,1.43,5.14,1,2,3.15,3.13,5.23,3.61,1.22.29,13.26.31,12.44-2.67" transform="translate(0 0)" style="fill: #2d3f51"/>
            <path d="M83.62,229c-4.2,0-9.11-1.84-13.18-2.81s-8.53-1.58-12.52-3.21a79.73,79.73,0,0,1-23-14.56,52.65,52.65,0,0,1-6.62-7.3c-1.05-1.36-2.09-2.71-3.11-4.1s-3-3.21-3.4-4.85c-.18-.77,1-3.46-.62-3.13s-.3,4,.17,4.8a85,85,0,0,0,6.17,8.24l-.1-.12c3.09,4,6.68,7.19,10.33,10.73,4.26,4.13,10.23,7.13,15.47,9.93,5.63,3,11.7,4,17.85,5.4,3.3.74,6.6,1.37,9.94,1.89.54.08,1.91.56,2.46.29.37-.17,1.38-1.19.14-1.2M23.7,195.09l0-.05,0,.05" transform="translate(0 0)" style="fill: #2d3f51"/>
            <path d="M90.9,240.24c-.13-5.74-1.21-13.34-6.61-16.55-3.29-1.95-6.71-2.33-10.38-3.08-3.85-.79-7.45-2.36-11.34-3.06-5.5-1-11.89-2.7-16.43-6.14-5.48-4.15-12.09-8.9-15.36-15.11-1.82-3.44-2.53-2.35-.85.79a33.86,33.86,0,0,0,7.12,8.66c5.14,4.82,9.9,9,16.62,11.33,3.56,1.23,7.13,1.75,10.76,2.66,3.21.8,6.23,2.08,9.52,2.6,6.58,1.06,12,2.23,14.22,9.22a28.39,28.39,0,0,1,1.29,8.59c0,2.35.71,3.93-1.54,4.56-.9.25-3.2.76-1.42,1.95.57.39,2.55-.07,3.11-.44,1.81-1.21,1.33-4.11,1.29-6m-9-16.09-.05,0,.05,0" transform="translate(0 0)" style="fill: #2d3f51"/>
            <path d="M89.08,246.38c-2.67-.16-5.31-1.82-7.65-2.95-2.72-1.32-5.37-2.77-8.19-3.9-6.62-2.63-12.58-4.56-18.33-8.95-10-7.59-18.23-17.79-25.81-27.67l.07.09-.13-.17,0,0a46.86,46.86,0,0,1-3.72-5.24c-.63-1.06-2.3-5.35-3.31-5.66-2.17-.67,0,2.82.37,3.4a60.19,60.19,0,0,0,3.94,6.6c2.67,3.63,5.14,7.44,8.05,10.88s6.17,6.38,9.07,9.75c6.16,7.15,14.24,13.3,23.18,16.46a139.7,139.7,0,0,1,14,6.05A25.64,25.64,0,0,0,87,247.6c.47.08,1.62.45,2.1.17s1.19-1.32,0-1.39" transform="translate(0 0)" style="fill: #2d3f51"/>
            <path d="M117.13,301.07c-.28-1-6.15,1.37-7.44,1.47-3.67.26-5.26-1.41-7.83-3.74a76.6,76.6,0,0,1-13.18-16.18c-2.66-4.32-5.44-8.48-8-12.86-3-5.06-5.31-9.75-9.23-14.19C63.83,247,57,237.8,50,228.68c-.73-1-1.8-2.71-2.8-3.27-1.22-.7-2.2-.74-1.7,1,.33,1.16,2.28,2.67,3,3.69.88,1.32,1.62,2.72,2.51,4,3.54,5.12,8.18,9.3,11.92,14.28,4.12,5.49,9.58,10,12.86,16.1,2.78,5.15,5.35,10.74,8.94,15.38l0,0c5.2,7,9.36,14.71,16,20.51,2.47,2.14,4.21,3.93,7.63,4,1.38,0,9.37-1,8.75-3.22M93,291.57l0-.05,0,.05m-1.55-4.87,0,0,0,0M85.66,278l0-.06,0,.06" transform="translate(0 0)" style="fill: #2d3f51"/>
            <path d="M78.85,270.48a.35.35,0,0,0,0,.7.35.35,0,0,0,0-.7" transform="translate(0 0)" style="fill: #2d3f51"/>
            <path d="M201,269.24c-.12-1.1-.44-2.94-1.23-3.78s-2.45-1.35-2.92.28c-.33,1.09.74,2.16,1.07,3.15a8.78,8.78,0,0,1-.72,6.56c-3.54,6.34-13.29,9.73-19.65,11.88-18.06,6.11-35.85,13.42-53.38,20.85l.2-.09c-6.82,2.77-15.84,5.65-22.46,1.15C95.67,305,92,298.45,88.59,292c-1.64-3.14-3.06-6.41-4.72-9.55s-3.48-5.82-3.9-9.28c-.09-.7.39-3.35-.22-3.71-1.72-1-1.44,2.2-1.4,3.06.17,3.74,1.72,6.7,3.44,9.94,5.81,10.91,12.12,30.07,26.91,30.76,8.62.39,17.06-4,24.8-7.18,8.35-3.4,16.88-6.61,25.31-9.82,9.05-3.45,18.67-5.63,27.42-9.82,6.59-3.15,15.69-8.53,14.72-17.13M156.68,297l-.1,0,.1,0" transform="translate(0 0)" style="fill: #2d3f51"/>
            <path d="M121.37,296.83c-.58-4.86-3.15-9.66-5.59-13.84-2.35-4-4.65-8.12-7.33-11.93s-5-8.06-7.61-12.05-6.18-9-10.32-11.56C88.16,246,87,247.16,89.11,249a31.42,31.42,0,0,1,4,4.08,94.5,94.5,0,0,1,9.21,12.32c5,8.32,11,16.05,14.76,25.06,0-.09-.08-.17-.11-.26a30.82,30.82,0,0,1,2,5.56c.41,1.95-.26,2.28-.88,3.93s.05,2.56,1.63,1.33a5.23,5.23,0,0,0,1.64-4.16" transform="translate(0 0)" style="fill: #2d3f51"/>
            <path d="M223.37,243.78c-.63-2.31-2.82,2.4-3,2.77a41.78,41.78,0,0,1-3.45,5.26c-2.55,3.13-6,4.15-9,6.68-1.12,1-1.95,2.21-3,3.18-1.6,1.41-3.56,1.91-5.52,2.66-4.14,1.58-8.22,3.36-12.34,5-8.26,3.28-15.72,8.81-23.69,12.79-4.11,2.07-8.08,4.61-12.3,6.44a93.87,93.87,0,0,1-11.91,3.95,47.67,47.67,0,0,1-11.83,1.76c-1.55,0-3.74.19-5.18-.53-.68-.34-3.1-3.85-3.68-1.89-.29,1,1.72,2.77,2.43,3.22,1.67,1.06,4,1,5.94,1.07a42.29,42.29,0,0,0,12.7-1.68,113.4,113.4,0,0,0,12.06-4.11c4-1.66,7.61-4.06,11.47-6,7.68-3.77,14.81-8.69,22.52-12.35,7.52-3.57,16.73-5.08,22.69-11.07,2.72-2.73,6.23-4.24,8.94-7a28.61,28.61,0,0,0,4.25-5.78c.57-1,2.28-3.25,2-4.44m-24.24,22.6-.06,0ZM150.9,288.62l-.09,0,.09,0" transform="translate(0 0)" style="fill: #2d3f51"/>
            <path d="M259.1,289.12c-.47-1.71-7.19,4.88-7.76,5.43a48.79,48.79,0,0,1-6.92,5.49c-4.75,3.15-9.93,5.69-15.75,4.44-3-.65-3.87-1.32-5.26-4a44.22,44.22,0,0,1-3.9-9.35c-1.48-5.78-2.86-11.91-3.92-17.77a32.9,32.9,0,0,0-2.36-7.75c-.6-1.33-4.48-7.71-6-6.28-1,1,3.52,5.81,4.1,7.18a37.75,37.75,0,0,1,2.08,8.44c.58,3.29,1.95,6.34,2.75,9.57.69,2.78,1.05,5.58,1.87,8.34a50.65,50.65,0,0,0,3.23,7.45c1.57,3.25,2.36,4.69,5.89,5.46,6.46,1.41,11.93-.41,17.39-4a49.21,49.21,0,0,0,7.34-5.83c.85-.82,7.62-5.32,7.19-6.86" transform="translate(0 0)" style="fill: #2d3f51"/>
            <path d="M182.51,224.37c-1.14-2-7.92,5.76-8.82,6.61a72.29,72.29,0,0,1-8.53,6.55c-6.2,4.28-12.86,7.75-18.88,12.28-4.41,3.33-7.87,5.88-13.71,5.24a33.63,33.63,0,0,1-12.66-4.58c-7.25-4.18-15.23-8.39-21.88-13.47h0a38.17,38.17,0,0,0-4.62-3.27c-1-.57-3.87-2.35-5-2-1.55.42.55,1.26.85,1.42a45.3,45.3,0,0,1,5,2.6c5.43,3.69,10.87,7.3,16.51,10.69,5.48,3.3,11,6.82,17.18,8.81,6.7,2.18,12.46.85,17.94-3.37l-.09.07c6.46-5,13.76-8.42,20.43-13.1a72.44,72.44,0,0,0,8.14-6.23c1-.91,8.63-7.45,8.18-8.21m-33.24,23.22-.1.07.1-.07m-3.07,4-.07.05.07-.05m-.78.6-.08.05Z" transform="translate(0 0)" style="fill: #2d3f51"/>
            <path d="M183.27,221.53c-.61-2.37-2.5-4.22-3.41-6.46a9,9,0,0,0-4-5c-2.53-1.54-5.19-1.19-7.93-.47-2.55.66-2.91.87-4.5,2.8-1.78,2.14-4.93,3.51-7.34,4.85a37,37,0,0,1-7.84,3.24c-4.94,1.38-10.42,1.38-14.67-1.88l.13.1c-10.91-8.45-17-22-24.66-33.12-3.51-5.06-6.92-10.51-11.41-14.79-.35-.33-2.62-2.73-3-1.95-.29.53,1.11,1.3,1.37,1.54a51,51,0,0,1,6,6.74c8.33,10.65,14,23.12,22.46,33.66,4.63,5.74,9.13,11.14,16.93,11.73,6.87.51,13.89-2.85,19.6-6.36,1.88-1.15,2.7-2.52,4.13-4,1.16-1.16,3.54-1.61,5.17-1.85,4.23-.63,7,1.75,8.52,5.47.78,1.9,2.27,3.48,2.93,5.42.5,1.47-.05,1.45-.22,2.38-.11.62-1.22,1.64.61,1.2,1.45-.36,1.47-2.19,1.19-3.28m-1.21,1.06a.22.22,0,0,0,0-.08.22.22,0,0,1,0,.08m-42-.25h0M102.64,178v0M95,169.54l0,0,0,0" transform="translate(0 0)" style="fill: #2d3f51"/>
            <path d="M141.34,221.65c-1.69-4-6.78-6.94-9.55-10.24-2.64-3.14-5-6.54-7.39-9.86-2.83-3.91-4.79-8.26-7.2-12.41a60.84,60.84,0,0,0-10.78-13.6,41.25,41.25,0,0,0-5.86-4.5c-1-.67-2.1-1.26-3.15-1.87-.24-.14-2.73-1.62-1.87-.17.75,1.26,4.32,2.51,5.58,3.42a40.84,40.84,0,0,1,5.68,5.07,77.21,77.21,0,0,1,9.34,12.39c2.49,4.08,4.53,8.42,7.31,12.33,2.32,3.26,4.59,6.58,7.14,9.67,1.94,2.35,4.22,4.28,6.36,6.43,1,1,2,2.75,3.15,3.44.11.06,1.73,1.07,1.24-.1M109,180l0,0Z" transform="translate(0 0)" style="fill: #2d3f51"/>
            <path d="M153.05,215.36c-.29-2-.85-4.27-2.24-5.72-1.63-1.69-4-1.43-6.14-1.63-4.54-.43-9.14-.58-12.87-3.58-2.3-1.85-3.77-4.82-5.49-7.2-1.4-1.93-2.8-3.82-4.12-5.81a106.18,106.18,0,0,0-8.73-10.66,62.77,62.77,0,0,0-10.89-9.9c-1.21-.87-3.67-3.09-5.21-3.11s2.3,2,2.69,2.23c7.43,4.84,13.8,11.93,19.24,18.87l-.07-.09c5.15,6.57,8.79,16.52,17.32,19.21a28.88,28.88,0,0,0,6.42.89c1.88.15,4.79-.19,6.36.82,1.83,1.19,1.64,3.25,2.41,5,.15.34.17,1.7.93,1.37a.58.58,0,0,0,.39-.68m-14.3-7.94h0M119.42,189l0,0,0,0m0-.06h0m-16.89-17.22h0" transform="translate(0 0)" style="fill: #2d3f51"/>
            <path d="M158.72,214.94c-2.08-1.09-4.59.29-6.54.95a12.85,12.85,0,0,1-9-.14l.07,0a25.28,25.28,0,0,1-5.42-3.42l0,0-.08-.07h0l-.06-.05.08.06-.25-.19h0l-.12-.1h0c-1.18-.91-3.26-3.62-4.74-4-1.8-.45.65,1.37,1.22,1.9,2.4,2.2,4.74,4.74,7.66,6.27a14.52,14.52,0,0,0,10.54.9,25.13,25.13,0,0,1,4.82-1.33c.21,0,3.33-.07,1.78-.89m-13,1.51h0M137.37,212h0m.41.32h0m0,0h0m0,0,0,0,0,0m5.45,3.44.07,0Z" transform="translate(0 0)" style="fill: #2d3f51"/>
            <path d="M143.34,207.7c-2.73-4.27-5.46-9.16-9.35-12.49s-8.94-5.94-13.47-8.4c-.93-.51-2.15-1.39-3.25-1.4-1.58,0-.7.26,0,.72,2,1.35,4.57,2.43,6.7,3.75,4.66,2.87,9.25,5.51,12.68,9.88a.94.94,0,0,1-.09-.12c1.43,1.87,2.6,3.92,3.93,5.86.33.48,1.44,2.59,2,2.7.22.05,1.4.35.85-.5m-.8-1.13a.18.18,0,0,0,0-.07.18.18,0,0,1,0,.07m-10.31-11.33-.06,0Z" transform="translate(0 0)" style="fill: #2d3f51"/>
            <path d="M122.51,182.6c-1.1-1.3-3.43-2.29-4.83-3.27-1.92-1.36-4.05-2.55-5.87-4-.63-.51-7.65-7.8-8.21-6.85,0,0,8.16,7.91,8.82,8.4,2.26,1.71,4.64,3.35,7,4.92.58.38,1.57,1.41,2.26,1.43.3,0,1.47.19.83-.59" transform="translate(0 0)" style="fill: #2d3f51"/>
            <path d="M163.36,209.09c-.05-3.51-5-5.05-7.33-6.9l.06.05a35.38,35.38,0,0,0-4.58-3.71c-2.17-1.25-4.64-1.68-7-2.34-4.56-1.28-7.34-3.51-10.55-6.84-2.69-2.79-6.4-5.74-10.44-5.93a35.28,35.28,0,0,0-4.48.12c-2.21.2.62.76,1.66.85,3.89.31,6.78.94,10,3.48s5.4,6.1,9.1,8c3.49,1.75,7.53,2,10.94,3.81a26.83,26.83,0,0,1,4.13,3.15c1.9,1.54,4.66,2.54,6.36,4.24,1.11,1.11,1.08,2.25.65,3.84-.3,1.14-3.17,4.83-2.72,5.71.93,1.83,4.29-6.25,4.27-7.49M125.3,184.84a.05.05,0,0,1,0,0,.05.05,0,0,0,0,0m-1.35-.4h0m-3-.74h0Z" transform="translate(0 0)" style="fill: #2d3f51"/>
            <path d="M187.58,216.6c-.19-2.44-1.2-3.17-2.52-5s-1.35-3.6-3.56-4.63-3.84.12-5.87-.14c-1.18-.15-1.73-1.18-3.09-1.34-2-.23-3.36,1.78-5.29,1.87-.54,0-5.86-2-5.89-.54,0,.45,4.58,1.29,5.33,1.37,2.16.23,3.69-1.79,5.69-1.58,1.66.18,2.07,1.26,3.92,1.18s3.56-.6,5.22.4,2.35,3.18,3.49,4.65,1.92,2.94,1.26,4.81a12.28,12.28,0,0,0-.84,2.48c-.1.6.33.79,0,1.34s-4.19,2.35-1,1.84c2.47-.4,1.68-2.24,1.91-3.73.17-1.16,1.33-1.71,1.23-3m-1-.07a.09.09,0,0,0,0-.05.09.09,0,0,1,0,.05" transform="translate(0 0)" style="fill: #2d3f51"/>
            <path d="M221.11,221.23c-1.38-2.49-8.66-1.1-10.61-.82h0c-2.19.3-4.4.5-6.59.79h0c-5.07.68-10.06,1.68-15.13,2.38h.08c-.64.08-7.29.71-7.12,1.3s21.56-2.55,23.1-2.72c2.93-.34,5.9-.7,8.84-.85a21.62,21.62,0,0,1,4.62.16c.24,0,3.58,1.16,2.81-.23m-10.45-.84h0m0,0h0m-.07,0h0m-.13,0h0m-25,4h0" transform="translate(0 0)" style="fill: #2d3f51"/>
            <path d="M158.24,192.93c-.94-.94-5.54.23-6.75.35-3.53.36-7.11.1-10.65.16-.48,0-3.78-.25-3.2.69.48.78,3.73.24,4.67.24a78.56,78.56,0,0,0,10.63-.29h-.1c.23,0,6.27-.28,5.4-1.16" transform="translate(0 0)" style="fill: #2d3f51"/>
            <path d="M213.2,220.57a29.76,29.76,0,0,0-1.54-4l.05.12c-2.71-6.47-2.53-14.81-9.44-18.7-7.16-4-14.93-4.09-22.91-3.69-8.2.41-15.93-.24-23.81,2.38-1.32.44-2.65.82-4,1.19-.44.11-2.62.49-1.12,1,1.33.47,4.44-.89,5.79-1.28a43.4,43.4,0,0,1,6.34-1.64h-.05c6.16-.8,12.59-.45,18.81-.8s12.44-.1,18.25,2.56c5.22,2.39,7.67,6.86,9.11,12.28a58.57,58.57,0,0,0,2.12,7.14c.23.57.75,3.21,1.35,3.65.25.19,1.33.83,1-.22m-2.21-3v0" transform="translate(0 0)" style="fill: #2d3f51"/>
            <path d="M170.64,194.88c-.41-1.51-5.47-2-6.71-2.12-.75-.07-7.63-.17-6.62.86.65.66,5.76.15,6.95.31.68.08,6.67,2,6.38.95M158,193.79h0" transform="translate(0 0)" style="fill: #2d3f51"/>
            <path d="M211.8,268.48c-1.56-2.67-12.54,3.52-12,4.74s6.23-2.47,6.87-2.76c.94-.43,5.64-1,5.08-2" transform="translate(0 0)" style="fill: #2d3f51"/>
            <path d="M258.6,311.51c-.32-1.15-14.86,4.91-15.91,5.23-3.06.95-6.09,1.92-9.2,2.7s-7.72.91-10.08-1.49-.83-5.81.21-8.5l-.05.12.12-.28-.05.12c.14-.31,2.71-5.57,1.1-5-.7.27-1.62,3.66-1.89,4.35-1.57,3.94-3,8.76,1.9,10.88,3.72,1.62,7.54,1,11.31.07s15.52-4.81,19.07-6.31l-.16.07.38-.16h0l.1,0h0l.09,0h0c.61-.26,3.41-.75,3.13-1.79m-3,1.75-.07,0,.07,0m-1.54-.73-.08,0,.08,0m-22.28,7.26h0m-8.37-1.86,0,0,0,0m-1.24-4.05v0Zm-.21-2.16s0,0,0,0,0,0,0,0m33.53,1.58,0,0,0,0h0" transform="translate(0 0)" style="fill: #2d3f51"/>
            <path d="M212.46,342.24c-4.51-10.82-8.13-21.92-12.37-32.83-2-5-3.67-10.08-5.27-15.23C194,291.42,193,288.69,192,286c-.34-1-2.09-5.36-1.93-2.44,0,.82,1,2.19,1.22,3,.45,1.43.86,2.85,1.35,4.26,1,2.78,1.81,5.59,2.71,8.39,1.77,5.46,3.8,10.8,5.83,16.16s3.66,10.83,5.71,16.17c1.08,2.82,2.18,5.63,3.32,8.43.18.44.82,2.93,1.32,3s1.19-.07.92-.71m-21.71-57.35,0-.06,0,.06" transform="translate(0 0)" style="fill: #2d3f51"/>
            <path d="M202.71,343c-3.16-10.29-7.05-20.39-10.13-30.72-.68-2.28-7.4-26.71-8.88-26.21-1,.35.41,2.17.7,2.86a49,49,0,0,1,2.07,6.94c1.46,5.49,3.16,10.85,4.78,16.3,3.06,10.27,6,21.05,10.19,30.94l-.06-.15c.3.71,1.66,1.12,1.33,0" transform="translate(0 0)" style="fill: #2d3f51"/>
            <path d="M109.56,314.46a.35.35,0,0,0,0,.7.35.35,0,0,0,0-.7" transform="translate(0 0)" style="fill: #2d3f51"/>
            <path d="M110.15,312.93c-.89-1.52-1.43,4.45-1.47,5.12-.14,2.63-.38,5.25-.51,7.89a81.83,81.83,0,0,1-1.16,8.8c-.16,1-1.71,6.54-.89,7.06s1.64-5.25,1.75-5.92c.46-2.79.92-5.6,1.11-8.43s.4-5.5.65-8.27c.11-1.24,1.11-5.24.52-6.25" transform="translate(0 0)" style="fill: #2d3f51"/>
            <path d="M118.84,311.72c-1.17,0-1.14,14.69-1.17,16.35,0,1.46-1.2,13-.26,13.26,1.1.35,1.45-12.2,1.45-13.54s.28-16.07,0-16.07" transform="translate(0 0)" style="fill: #2d3f51"/>
            <path d="M89.17,294.43c-1.15-.67-8.52,20-9.89,22-8.34.05-2.35-9.25-1.16-13.58,1.84-6.73,2.36-13.91,5-20.38l0,.06a.61.61,0,0,0,0-.12l0,.05c.34-.79-.2-.94-.78-.67-.76.36-1.52,4-1.76,4.86-.83,2.91-1.36,5.8-2,8.76a83.29,83.29,0,0,1-2.19,9.11c-1,2.85-2.79,6.21-2.92,9.21-.12,2.52,3.61,4.84,6,3.8,2-.86,2.55-4.95,3.24-6.89.77-2.15,7.43-15.65,6.44-16.23m-4.51,8.86s0,0,0,0,0,0,0,0m-1.49-20.81h0" transform="translate(0 0)" style="fill: #2d3f51"/>
            <path d="M94.11,82c-.15-2.71-3-4.35-4.88-5.92-2.19-1.87-3.13-2.49-3.62-5.28-.86-4.84-3.51-9.23-5.84-13.5a27.16,27.16,0,0,0-4.23-6c-.26-.27-1-1.56-1.36-.87-.23.37,1.94,2.68,2.24,3.1a73.22,73.22,0,0,1,7.25,13.12l0-.09c.92,2.2.47,4.83,1.44,6.9.65,1.39,2.34,2.29,3.52,3.2,1.58,1.23,4.58,2.79,4.88,5,.21,1.56-1.27,3.36-2.26,4.45s-2.42,1.43-3.52,2.31c-.88.7-1.26,1.25.55,1.06,2.61-.27,6-5.12,5.87-7.44m-1.37-2,0,0,0,0m-4.34,8.1,0,0,0,0" transform="translate(0 0)" style="fill: #2d3f51"/>
            <path d="M87.46,84.3c-1.63-1-1.14,5.3-1,5.92v.08a.15.15,0,0,0,0-.07A26.83,26.83,0,0,1,86.78,97c-.06.43-1.27,3.86-.63,4,1.68.46,1.08-9.88,1-10.81-.07-.63.31-6,.33-6m-.34,1.44s0,0,0,.05,0,0,0-.05m-.71,4.48Z" transform="translate(0 0)" style="fill: #2d3f51"/>
            <path d="M89.86,94a26.16,26.16,0,0,0-.71-4.38c-.1-.21.2-1.13-.46-.63-1.48,1.11,1.13,4.75.41,6.34-.21.46-2.87,2-1.42,2.29S90,95,89.86,94" transform="translate(0 0)" style="fill: #2d3f51"/>
            <path d="M89,99.78c0-1-1.87-3.19-1.89-2.17s2.09,1.06,1.32,2.91h0c-1,2.2-1.76,2.28-1.35,4.88.29,1.88.62,4-1.12,5.36-1,.81-2.58.93-3.83,1.22-.39.09-4.14.76-3.24,1.46.66.51,3.59-.7,4.38-.91,1.94-.52,3.56-1.15,4.26-3.2s-.38-3.54-.3-5.4c.08-1.66,1.79-2.48,1.77-4.15m-.37-.07v0m-.2-.76v0m-1.12,7.43v0Z" transform="translate(0 0)" style="fill: #2d3f51"/>
            <path d="M60.5,90.59a2.28,2.28,0,0,0-3.81.54c-.6,1.36.54,1.93.63,3.25s-1,2.39-.39,3.89c.1.25.68,1.56,1.1,1.28s-.45-1.37-.48-1.56c-.16-1.22.39-1.82.44-3s-.89-2.13-.73-3c.2-1.16,1.34-1.32,2.26-1.46-.05,0,1.58,1,1,.11" transform="translate(0 0)" style="fill: #2d3f51"/>
            <path d="M61.47,97c-.39-2.43-.61.84-1,1.23-.36-.39-.53-2.13-1.11-2s.14,2.31.65,2.48C61,99,61.63,98,61.47,97m-1,1.25h0m0,0s0,0,0,0h0l0,0m0,0h0m0,0s0,0-.05,0h.05" transform="translate(0 0)" style="fill: #2d3f51"/>
            <path d="M64.76,99.22c-.05-.76,0-3.11-1.05-2.88-.44.09.27,3.16.25,3.46,0,.51-1.23,3.24,0,2.67.82-.39.88-2.59.83-3.25" transform="translate(0 0)" style="fill: #2d3f51"/>
            <path d="M92.59,84.09c-.62-1.06-3,2.4-2.43,3.38s2.62-3.06,2.43-3.38" transform="translate(0 0)" style="fill: #2d3f51"/>
            <path d="M85.05,75.58c-.34-.2-1.12,1.54-1.19,1.64l0-.07c-.64.81-4.32,2.91-1.71,2.45.86-.14,3.79-3.48,2.85-4m-.52.57v0Zm-1.62,2,0,0,0,0" transform="translate(0 0)" style="fill: #2d3f51"/>
            <path d="M84.82,80a1.82,1.82,0,0,1-.81-.35l0,0-.07,0h0c-.77-.31-3.56-.37-2.18.45.48.28,3.64,0,3-.1" transform="translate(0 0)" style="fill: #2d3f51"/>
            <path d="M108.9,160.41c-.15-1.27-.9-2.41-1-3.66-.08-1.73.72-3.2.33-5-.16-.8-1.14-5.31-2.11-4.88s.19,2.57.4,3.26c1,3,.27,5.7.9,8.64a6.56,6.56,0,0,1-.27,4.31c-.62,1.39-1.8,2.4-1.87,4,0,.92.71,2.15.4,3.07s-1.75,1.57-2.18,2.62c-.27.65-.56,1.9,0,2.54,1.59,1.73,1.42-.84,1.69-1.42a18.76,18.76,0,0,1,1.6-2.18c.87-1.33.51-2,.31-3.49-.36-2.84,2.09-4.78,1.74-7.8" transform="translate(0 0)" style="fill: #2d3f51"/>
            <path d="M145.21,252.8c-.54-1.93-2.45,1.76-2.67,2-1.19,1.52-2.9,2.58-4.29,3.91a44.59,44.59,0,0,1-9.33,7.32,58.14,58.14,0,0,1-9.93,3.72,25.75,25.75,0,0,1-4.27.82c-1,.16-5.69,1-6.12,2.11-.81,2,1.84.43,2.79.05,2.08-.83,4.08-.91,6.22-1.41a57.66,57.66,0,0,0,10.32-3.68A38.62,38.62,0,0,0,139,260c1.35-1.31,6.8-4.94,6.18-7.24m-12.65,10.92-.05,0,.05,0" transform="translate(0 0)" style="fill: #2d3f51"/>
            <path d="M204.85,108.57c-.09-4.22-.13-55.24-.82-55.24-.43,0,.15,24.26.13,26.35,0,2.65-.61,29.53.41,29.53.37,0,.28-.46.28-.64" transform="translate(0 0)" style="fill: #2d3f51"/>
            <path d="M231.91,62.54c0-.32-.41-1.56-.89-1.28a36,36,0,0,1,.44,4.28c-.06,2-.22,4-.33,6-.23,4.15-.55,8.25-.42,12.42.28,8.46-.43,17-.7,25.48-.06,1.86-.17,3.71-.3,5.56-.09,1.38-.82,3.92-.47,5.25.13.46,0,1.31.65.5.83-1.07.32-4.69.39-6,.41-8.16.54-16.35,1.05-24.51.3-4.79-.11-9.55.09-14.34.18-4.25,1.18-9.21.49-13.41m-2.48,56.25v0Zm-.17,1.41s0,0,0,0,0,0,0,0" transform="translate(0 0)" style="fill: #2d3f51"/>
            <path d="M229.29,120.3c-2.09-.69-3.88-2-5.83-3a6.17,6.17,0,0,0-3.91-.72c-1.51.17-2.41.51-3.62-.62-2.11-2-2.59-3.94-5.6-5-1.25-.43-2.49-.76-3.69-1.29-.08,0-2.64-1.53-2.28-.45.53,1.59,5.4,2.17,6.76,2.81,2.56,1.21,2.77,4.26,5.11,5.54,1.54.86,2.79,0,4.34-.07a9.47,9.47,0,0,1,4.08,1.37c1,.53,2,1.28,3.11,1.73.17.07,1.37.81,1.63.5s.49-.62-.1-.81m-.71-.29,0,0,0,0" transform="translate(0 0)" style="fill: #2d3f51"/>
            <path d="M231.68,61.08c-.52-1.89-3.64-1.86-5.18-2.17-2.09-.41-4.46-1-6-2.53s-2.13-3-4.61-2.2c-2,.61-2.69,1.25-4.91.34l.11,0c-.76-.32-6.17-2.66-7-1.52-.26.36,4.67,1.59,5.44,1.85,3.16,1,3.59,1.37,6.6,0,2.75-1.22,2.54,1.07,4.65,2.68l-.08-.06c2.28,1.77,5.19,1.65,7.85,2.46.3.09,3.32,1.66,3.16,1.07m-1.78-.69h0m-11.55-5.73s0,0,0,0,0,0,0,0m-8.29.44h0l-.06,0h0l.06,0m-.1,0h0l-.06,0,.05,0m-2.08-1.48-.11,0h0l.08,0m-.08,0h0" transform="translate(0 0)" style="fill: #2d3f51"/>
            <path d="M236.86,78.37c0-4.88-2.44-8.91-1.19-14a23.22,23.22,0,0,0,1.05-4.67,4.74,4.74,0,0,0-.62-3.16c-.33-.4-2.18-1.6-2.68-1-3.59-2-7.89-3-11.81-4.11-2.44-.71-4.89-1.34-7.36-2-.6-.15-8.62-2.9-9.62-2.19-5.35-1.76-3.22,11.32-3.11,14.11.12,3.35.38,6.7.48,10.06.27,9.25.54,18.76,0,28-.12,2-2.21,12.67.14,13.22.92,1.06,2.87,1.71,4.1,2.37,2.18,1.18,4.43,2.14,6.62,3.3,4.66,2.46,9.51,4.95,14.36,7h0c.92.42,4.88,2.69,5.64,1.4,3.09-1.17,1.78-11.61,2.16-14.42h0c.69-4.22.19-8.6.75-12.83v0a.09.09,0,0,0,0,0c.17-1.3.12-5.55-.56-2a53,53,0,0,0-.52,8c-.2,4.75-.57,9.47-.73,14.21-.06,1.54.44,5-.91,6-1.62,1.12-4.38-.72-5.83-1.36-3.65-1.62-7.17-3.5-10.76-5.24-2.28-1.11-4.5-2.23-6.83-3.24-1.56-.67-3.06-1.51-4.56-2.31-.5-.27-2-1.42-2.61-1.45-1.42-1.41-.29-6.73-.14-8.46.29-3.42.34-6.79.34-10.21,0-6.11-.18-12.2-.09-18.31.08-5.74-.44-11.46-.61-17.2-.07-2.48-1.28-7.16.56-9.29,1.09-1.28,2.12-.68,3.5-.29,2.77.78,5.6,1.32,8.38,2.07,1.06.29,19.22,5.87,19.35,5.54,1.86.6,2.38.79,2.56,2.94s-.51,3.59-1.09,5.41a16.87,16.87,0,0,0,.24,9.24,20.48,20.48,0,0,1,.84,4.64c0,1.57-.7,3.5-.29,5,.2.74.18,1.55.76.41s.16-4.11.16-5.22" transform="translate(0 0)" style="fill: #2d3f51"/>
            <path d="M202.64,72.59c-.93-1.58-2.43,2.34-2.46,2.85-.1,1.92.25,4,.29,6,0,1.29-.09,2.69,1.21,3.44.61.35,1.21.12.45-.47h0c-1.91-1.46-.89-5.77-1-8,0-.48-.3-1.56-.06-2.07s1.91-1.12,1.53-1.77m-1.58,1.88v0m-.59,7v0m-.15-4.68v0" transform="translate(0 0)" style="fill: #2d3f51"/>
            <path d="M241.42,92.42c0-2.68.66-7.84-1.39-9.74-.42-.39-4.53-2.06-3.75-.53.43.84,3.06.62,3.78,1.67,1.13,1.68.74,7.42.5,9.3l0-.11c0,.22-.06.44-.08.66v-.06a1.46,1.46,0,0,1-1,1.34l.06,0a3.61,3.61,0,0,1-.71.21h0c-1.27.17-3.78,1.3-5.08.76s-.61-1.67-.4-3.21c.3-2.19.95-4.7.43-6.9-.16-.63-.25-1.58-1-1.67s.1,1.83.13,2c.51,2.32-2.23,9.43.31,10.49,1.35.57,4.46-.41,5.66-.86,1.64-.62,2.53-1.42,2.52-3.32" transform="translate(0 0)" style="fill: #2d3f51"/>
            <path d="M237.32,83.41c-.87,0-5.13.2-4.86,1.27.13.53,5.18-.52,5.18-1l-.32-.32" transform="translate(0 0)" style="fill: #2d3f51"/>
            <path d="M239.51,89.64c0-1.29-.84-4.13-2.67-2.42-.55,0-.87,5.9.07,6.48.52.33,1.93-.24,2.3-.65.65-.73.31-2.53.3-3.41m-.62.44a5.39,5.39,0,0,1-.32,2.52,4.93,4.93,0,0,1-1.33.21,20.58,20.58,0,0,0,.14-5,3.51,3.51,0,0,1,1.16-.09,6.8,6.8,0,0,1,.35,2.33m-.23-2a.11.11,0,0,1,0,0,.43.43,0,0,1,0,0m-.06,4.48h0m-.08-4.85h0m0,0s0,0,0,0l0,0" transform="translate(0 0)" style="fill: #2d3f51"/>
            <path d="M249.82,99.63c-2.15-3.27-5.68,1.33-4.46,3.94,1.6,3.42,6.22-1.27,4.46-3.94m-.36,1.65-.06.38s0-.06,0-.09c-.62,4.48-6,1.55-2.5-2,1.2.33,2.8-.36,2.54,1.73m-1.61,2.48,0,0,0,0m-1.67-3.07s0,0,0,.06a.14.14,0,0,1,0-.06" transform="translate(0 0)" style="fill: #2d3f51"/>
            <path d="M243,102.93l-.14-.06c-1.58-2-3-1.62-1.84-4.67.39-1,.91-2.63-.7-3.2-.53-.18-.64,0-.59.5s1.19.79,1.16,1.55c0,.39-.71,1-.89,1.21l.07-.09a3.19,3.19,0,0,0,.27,4.08,4.48,4.48,0,0,0,1.54,1.16c.3.1,2.36.27,1.12-.48" transform="translate(0 0)" style="fill: #2d3f51"/>
            <path d="M248.09,98.14c-1.39-1.25-2.81-2.4-4.2-3.64-.43-.37-3.3-2.57-2.35-1.34l0-.07c1,1.33,2.52,2.13,3.73,3.25a17.41,17.41,0,0,0,1.59,1.72s2.3,1,1.28.08m-5.32-4.64,0,0Z" transform="translate(0 0)" style="fill: #2d3f51"/>
            <path d="M244.91,98.66c-.47-.47-3.57-1.83-2.65-.42.38.57,3.31,1.08,2.65.42m-1.71-.92,0,0,0,0" transform="translate(0 0)" style="fill: #2d3f51"/>
            <path d="M243.17,103.72c-.2-.48-.66-.42-.73.11v0c-.48,4-2,8.07-3,12-1.32,5.44-3,11.22-3.65,16.76a.09.09,0,0,1,0-.05.22.22,0,0,0,0,.08v0c-.56,4-1.94,9.79-4.4,13l.05-.07c-1.86,2.4-7.2,7.18-3.51,10h0c1.59,1.23.07-.74-.12-1.06a2.64,2.64,0,0,1,0-3.36c1.66-2.64,4.12-4.51,5.34-7.47v0c2.65-6.44,3.84-13.76,5.32-20.58.77-3.51,1.69-7,2.5-10.46.58-2.48,2.56-6.4,2.18-8.92m0,0h0m-6.7,28.16v0Zm-3.1,11.37,0,.07Zm-1.2,1.19s0,0,0,0,0,0,0,0m0,0s0,0,0,0,0,0,0,0m-.37.66,0,0,0,0m-.81,1,0,0,0,0m-1.88,2.49,0,0,0,0m-.76,1.87v0M227.15,153v0m8.63-20.35h0" transform="translate(0 0)" style="fill: #2d3f51"/>
            <path d="M249.22,103.49c-1.06-1-1.47,2.73-1.52,3-.43,2.33-1.11,4.65-1.42,7,0,0,0,0,0-.08-.46,3.26-1.49,6.41-1.93,9.66h0c-.25,1.73-.5,3.45-.7,5.19a.22.22,0,0,0,0-.08c-.82,6.31-3.28,12.34-4.09,18.67v0c-.5,3.6-1.13,8-4.65,10.1-1.51.9-2,.39-3.65-.31l.08,0c-.89-.38-4.32-2.45-2.34-.58a9.42,9.42,0,0,0,4.41,2.1c1.84.15,3.1-1.68,4.22-3,2-2.37,1.88-4.33,2.23-7.18a.43.43,0,0,0,0,.05l.12-.86v0c1.12-8.14,3.74-16,4.91-24.19a123.94,123.94,0,0,1,2.69-12.13c.32-1.24,2.47-6.48,1.63-7.33m-4.56,21.09v0Zm-1,3.74v0M239,151.06a0,0,0,0,0,0,0,0,0,0,0,1,0,0m0,0a.11.11,0,0,1,0,.05.11.11,0,0,0,0-.05m-7.58,6.21-.06,0,.06,0m8.18-10.53v0" transform="translate(0 0)" style="fill: #2d3f51"/>
            <path d="M246.09,106.64c-.28-1.42-1.29-1.3-2.05-.37s-.84,2.92-1,3.86c-.65,2.94-1.32,5.87-1.72,8.85a.28.28,0,0,0,0-.09c-.6,4.28-2.34,8.31-2.84,12.63a.09.09,0,0,1,0-.05c-.1.7-1.82,6.91-1.39,6.91a.78.78,0,0,0,.23-.94v0c.32-2.36,1.33-4.62,1.64-7h0c.77-4.77,2.55-9.48,3.48-14.26.34-1.76,1-9.09,2.64-9.94,1.32,1.27-.65,5.73-1,7.23-.65,3.12-1.23,6.26-1.86,9.39-.83,4.17-1.34,8.34-2.65,12.4-.23.72-.65,3.52-1.34,3.83-.1.05-1-.1-.84-.22-.14.1-1.13-.61-1,.36.1.82,1.34,1.22,2,1,2.29-.77,3.05-8.37,3.39-10.41.71-4.19,1.75-8.28,2.61-12.43.65-3.13,2.34-7.54,1.71-10.76m-1.08-.42h0m-.36.36s0,0,0,0,0,0,0,0M242.06,128h0Zm-.63-.51v0" transform="translate(0 0)" style="fill: #2d3f51"/>
            <path d="M235.69,149.81c-.05-.88-2-1.34-2.58-1.57l.11,0c-1.56-.67-2,.56-2.9,1.64-.11.14-3,3.45-1.3,3.45.37,0,.16-1.23.32-1.53a7.66,7.66,0,0,1,2.46-2.35c1.18-.6,1.55.15,3.12.55,0,.73-3.84,3.4-2.49,3.88.32.11,3.29-3.48,3.26-4.12m-3-.72-.06,0,.06,0m-.58-.08,0,0,0,0m-1.75.92,0,0,0,0m-1,1.87v0" transform="translate(0 0)" style="fill: #2d3f51"/>
            <path d="M236.78,154.19c-.44-1.48-2.23-.94-3-.21-.32.31-1.74,4.22-.34,3.84.25-.07.18-.37.15-.54a.64.64,0,0,1,0,.07c-.17-1.27.36-3.64,2.14-3,.23.08.24.8.29.8.46,0,1.26.83.73-.91m-3.18,1.91v0" transform="translate(0 0)" style="fill: #2d3f51"/>
            <path d="M227.74,151.28c-.44-1.59-5.85-.17-6.81,0l.1,0-.15,0h0a119.19,119.19,0,0,0-15.7,3.56c-2.34.64-4.09,1.84-3.54,4.43.11.47.5,2.61,1.31,2.08.65-.42-.39-1.63-.48-2.16-.71-4.15,7.82-4.72,10.68-5.38,3-.7,6.14-1.22,9.22-1.63.66-.09,5.7.28,5.37-.88m-8.63,1.4h0m-.82.11h0m2.59-1.53h0" transform="translate(0 0)" style="fill: #2d3f51"/>
            <path d="M246.74,162.35c-.14-2.12-2.62-3.1-4.24-3.92-.87-.44-5.91-3.77-6.16-2.49s9.51,3.34,9.4,6.5c-.12,3.32-7.69,4.74-10.09,5.38-4.53,1.22-9.18,3-14,2.23-4.37-.73-8.58-3.65-12.31-5.89-.9-.54-5.74-4.29-6.61-3.63s6.24,4.69,7,5.16c3.43,2.12,7.25,4.26,11.24,5.07,5.13,1,10.41-.29,15.31-1.77,2.85-.86,10.71-2.5,10.42-6.64M245.29,160l0,0,0,0M206,163.3l-.05,0,.05,0" transform="translate(0 0)" style="fill: #2d3f51"/>
            <path d="M229.23,161.92c-.63-.74-7.92-6.35-9.12-5.46-1.26-.05-5.12-.29-4.77,1.82.25,1.47,4.32,3.14,5.37,3.85,2,1.33,3.39,2.51,5.88,2,.72-.16,3.75-.89,2.64-2.18m-.29.63c-.09.43-1.88,1.06-2.37,1.18a4.49,4.49,0,0,1-4.08-.94h0l-.05,0h0l-.39-.3.05,0a62,62,0,0,1-5.75-4.44,6.22,6.22,0,0,1,3.66-.77c.84.88,2.51,1.38,3.54,2,.84.49,5.39,2.53,5.37,3.25m0,0v0m-.18-.23h0m-.07.52h0m-3.83,1.1h0Zm-.87-.22h0m-1.53-.91,0,0,0,0" transform="translate(0 0)" style="fill: #2d3f51"/>
            <path d="M262.94,268.69c-3.14-4.94-5.71-9.84-9.45-14.4-2.94-3.58-5.66-7.32-8.53-10.95-7.66-9.69-13.57-20.58-20.36-30.87-3.5-5.3-5.74-11-8.78-16.54s-6.73-10.35-10.37-15.3a248.38,248.38,0,0,1-19.29-29.82c-2.9-5.42-6.19-10.64-8.93-16.12-1.15-2.31-2.38-4.62-3.65-6.86-1.51-2.7-3.63-4.82-5.4-7.31-3.1-4.35-5.68-7.91-7.85-12.78-.06-.14-.08-1.81-.41-.34-.19.85,0,.67.36,1.36,1.57,2.62,2.62,4.42,4.13,7.07,3,5.14,6.81,9.56,9.6,14.77,2.41,4.49,4.9,8.86,7.38,13.29,6.09,10.88,12.7,21.23,19.46,31.7,3.73,5.78,8.1,11.1,11.82,16.9s5.85,12.87,9.89,18.65,7,12,11.08,17.55,7.69,11.23,11.88,16.65l-.06-.08c3,4,6.09,7.85,9.15,11.78l-.07-.09a76.3,76.3,0,0,1,6.09,9.67c.26.47,1,2.39,1.48,2.65.35.18,1.57.16.83-.58m-6.58-9.42,0,0,0,0m0,0,0,0,0,0m-5.44-8.14,0,0,0,0m-6.76-8.79,0,0,0,0m-9.78-12.7,0,0,0,0" transform="translate(0 0)" style="fill: #2d3f51"/>
            <path d="M263.35,269.91c0-.65-.61-.83-1.12-.7-.78.19-.47,1.5-.49,2-.09,1.75,0,3.52-.08,5.27-.07,1.57-.08,3.13-.12,4.7,0,.68-.62,3.3-.31,3.86,1.38,2.45,1.69-4.59,1.76-5.43a79.76,79.76,0,0,0,.36-9.65" transform="translate(0 0)" style="fill: #2d3f51"/>
            <path d="M262.69,286a.58.58,0,0,0-.88-.29c-1.91-1.87-3.25-4.8-4.71-7.05-2.25-3.46-4.55-6.85-6.6-10.43-3.88-6.77-7.81-13.44-12.17-19.91-7.48-11.09-12.93-23.37-20.32-34.49-7.61-11.46-14.84-23.22-22.12-34.9-7.1-11.38-13.22-23.4-20.35-34.77-3.39-5.41-6.81-10.8-10.15-16.23-1.76-2.86-3.09-6-5-8.77-.6-.89-2.3-4.38-2.92-3.49s1.51,2.93,2.05,3.7c2.12,3,3.51,6.46,5.37,9.6,3.37,5.69,6.85,11.38,10.4,17,7.26,11.43,13.16,23.85,20.72,35.09,7,10.47,13.09,21.58,20.07,32.09,4.12,6.2,7.23,13,11,19.41,3.93,6.76,8.14,13.25,12.35,19.83C244,259.49,248,267,252.62,274.19c2.09,3.26,4.35,6.42,6.46,9.67.47.73,1.2,2.42,2,2.8.51.23,1.86.36,1.58-.7m-1-.16Zm-.05,0-.05.05.05-.05" transform="translate(0 0)" style="fill: #2d3f51"/>
            <path d="M176.64,149.27c-.32.42-.12,2.24-.17,2.84s-.37,1.94-.63,3.3c.4.25.79.5,1.17.77a50,50,0,0,0,.45-6c0-.46-.15-1.82-.82-1" transform="translate(0 0)" style="fill: #2d3f51"/>
            <path d="M336.55,258.38c-8.27,1.7-16.8,2.77-25.19,3.72s-16.54,2.7-24.81,3.93c-4.18.62-8.37,1.31-12.54,2-1.58.28-3.15.56-4.74.79-1.38.2-6.1.33-6.81,1.52s2.4.28,2.45.27c1.83-.38,3.67-.57,5.52-.82,4.57-.61,9.14-1.34,13.7-2.05,17.21-2.65,34.58-4.78,51.69-8" transform="translate(0 0)" style="fill: #2d3f51"/>
            <path d="M339.44,271.18C321,274.61,302.72,279,284.27,282.5c-5.09,1-10.17,2.13-15.27,3-1.69.29-5.34.08-6.6,1.21-1.56,1.39,4.07.06,4.63,0h-.13c5.78-.64,11.55-2.14,17.28-3.16,5.43-1,10.8-1.82,16.18-3.05,10.53-2.41,21.2-4.12,31.78-6.3" transform="translate(0 0)" style="fill: #2d3f51"/>
            <path d="M272.45,286.52c-1.1-1.89-1.64,2.84-1.68,3.25-.26,2.4-.33,4.81-.52,7.21s-.27,23.91-.4,26.33c-.09,1.59-1.3,6.46-.39,7.68,1.46,1.94,1.58-1.6,1.61-2.21.13-2.35.23-4.69.28-7,.09-4.56.42-28.31.92-32.85l0,.19c.09-.64.58-1.93.21-2.56" transform="translate(0 0)" style="fill: #2d3f51"/>
            <path d="M259.77,289.37c0-.88.32-6.76-.6-6.77s-.52,4.87-.54,5.75c-.17,5.83-.22,16.55-.77,22.36-.1,1-1.21,6.24.33,6.29,1.35,0,1-4.41,1.05-5.31.55-5.77.71-16.52.53-22.32" transform="translate(0 0)" style="fill: #2d3f51"/>
            <path d="M297.58,281.6c-1.33-1.35-2,6.72-2.16,7.68-.61,3.63-1.17,7.25-1.73,10.88a54.92,54.92,0,0,0-.91,10c0,.56-.32,2,.71,1.93s.94-2.44,1-3.09v.06c.66-4.82.95-9.69,1.5-14.52.28-2.37.78-4.69,1.12-7,.15-1,1.23-5.1.45-5.88" transform="translate(0 0)" style="fill: #2d3f51"/>
            <path d="M167.63,104.45c-.49-.49-5.86,0-6.35.5-1.38,1.43,4.36.45,5.13.35h0c.28,0,1.92-.19,1.27-.85" transform="translate(0 0)" style="fill: #2d3f51"/>
            <path d="M239.16,98.8c-.62,0-5.76.52-3.19.89a16.31,16.31,0,0,0,2.68-.18c-.07,0,1.76-.77.51-.71" transform="translate(0 0)" style="fill: #2d3f51"/>
            <path d="M253.81,98.52c-1.34.13-3.27-.17-4.54.31-2.81,1.06,1.75.53,2.79.5a67.36,67.36,0,0,0,10.11-1.09m-3.25-.35h0m-.08,0h0" transform="translate(0 0)" style="fill: #2d3f51"/>
          </g>
        </g>
        <g style="clip-path: url(#clip-path-2)">
          <g>
            <path d="M225.62,95.06c-5.54-2.39-11-4.85-16.54-7.31-.06-9.72-.18-19.44-.31-29.16,6,1.85,11.95,3.78,17.86,5.84C226.25,74.64,225.94,84.85,225.62,95.06Z" transform="translate(0 0)" style="fill: #fff"/>
            <g style="clip-path: url(#clip-path-3)">
              <g>
                <g>
                  <path d="M207,88.9h0Z" transform="translate(0 0)" style="fill: #2c3e50"/>
                  <path d="M228.88,104v0Z" transform="translate(0 0)" style="fill: #2c3e50"/>
                  <path d="M229,101.66c.2-4.16-1.14-7.59-1.6-5-.14.79-1.51,3.13-1.81,3.1s-1.33-.26-1.37-.26a3,3,0,0,1-.36-.63,8.28,8.28,0,0,1-.26-.86c-.1-.55-.2-1.88-.29-2.56,0-.23-.42-3.83-.57-3.92a8.25,8.25,0,0,1-.7-1c-.21-.32-.92-1.31-.92-1.31l-.89.13,0-.2c-.81,7.75-6.23,2-5.68-1.93.16-1.08-1.75.45-1.88.5s-.73.92-.86,1-.41,1.09-.48,1.14-.41,1-.53,1.11l-.34.27s-.14-1.9-.56-1.66c-.19.1-.91.7-1,.77a2.35,2.35,0,0,1-.24.11.7.7,0,0,1,0-.2,4,4,0,0,0-.22-.9,3.83,3.83,0,0,1-.09-.74c.09-.58-.2-.93-.58-.75a12.23,12.23,0,0,0-1.18,1.82l0-.07c-.16.37-.35.79-.51,1.09a4.15,4.15,0,0,0-.35,1.34,10,10,0,0,0,.14,2.94c.17.2.72,1.12.79,1.15a5.32,5.32,0,0,1,.47.87,8,8,0,0,0,1,1.92,3.23,3.23,0,0,1,.37.37,1.5,1.5,0,0,1,.09.18,4.59,4.59,0,0,0,1.47,2.22c.41.42,1.61,2,1.78,2.14s1.57,1.09,1.67,1.11,1.39.56,1.53.56a7.75,7.75,0,0,1,.91.26c.76.32,2.68-1.69,2.92-1.89a1.58,1.58,0,0,0,.19,0,1.85,1.85,0,0,0,.81.48c.3.21,1.46,1.45,1.61,1.49.34.1,1.56.17,1.68.19s.79.48.93.51c.49.14,1.71-.6,1.84-.59.37,0,1.72-1,1.91-1s.9-.21,1-.91h0A5.47,5.47,0,0,0,229,101.66Z" transform="translate(0 0)" style="fill: #2c3e50"/>
                </g>
                <g>
                  <polygon points="215.03 82.23 215.03 82.23 215.03 82.23 215.03 82.23" style="fill: #2c3e50"/>
                  <path d="M217.61,62.12v0Z" transform="translate(0 0)" style="fill: #2c3e50"/>
                  <path d="M217.62,62.14Z" transform="translate(0 0)" style="fill: #2c3e50"/>
                  <path d="M216,62.68h0Z" transform="translate(0 0)" style="fill: #2c3e50"/>
                  <path d="M211.27,82.42v0Z" transform="translate(0 0)" style="fill: #2c3e50"/>
                  <path d="M212.34,83.87v0Z" transform="translate(0 0)" style="fill: #2c3e50"/>
                  <path d="M223.7,98.24c-.66-1.4,0-2.56.18-3.84a6.73,6.73,0,0,0-.22-2.21,2.38,2.38,0,0,1,.15-1.8,2.68,2.68,0,0,0,.16-1.87,8,8,0,0,0-.77-2.11c-.31-.62-.13-1.51-.34-2.25a6.84,6.84,0,0,0-.88-1.47l0-.07,0-.08,0-.19h0c0-.3-.28,0-.33,0a1.7,1.7,0,0,0-.24.67,3.24,3.24,0,0,0,.06,1.54,3.28,3.28,0,0,1-.17,1.73,2.74,2.74,0,0,0,.49,2c.14.17,1.08,1,.81.14-.07-.2-.33-.29-.44-.41a1.73,1.73,0,0,1-.41-.65c-.29-.8.16-1.32.2-2a4.62,4.62,0,0,0-.21-1.26,4.27,4.27,0,0,1,0-1.05,3.19,3.19,0,0,1,.82,1.71c0,.4,0,.77,0,1.17s.42.92.42,1.11l0,0a5.17,5.17,0,0,1,.61,2.32,7.46,7.46,0,0,1-.5,1.72c-.12.4-.5,1.14-.65,1.79A5.19,5.19,0,0,1,222,94.6a5.08,5.08,0,0,1-.92.83c-.36.35-.38,1-.64,1.49-.56,1-1.74.29-2.55.2a4.1,4.1,0,0,1-2.9-1.2,7.84,7.84,0,0,1-.61-1.07,7.78,7.78,0,0,1-.18-2s.52.61.81.87.54.84.9,1.13a2.83,2.83,0,0,0,2.37.61,4.73,4.73,0,0,0,1.93-.43,1.2,1.2,0,0,0,.45-1c.05-.55-.12-1.17-.06-1.71a3.3,3.3,0,0,1,.56-1.36c.08-.14.62-.81.45-1.14s-1.19,1.66-1.27,2c-.21,1,.33,2.32-.4,2.7a5,5,0,0,1-2.09.35,2.45,2.45,0,0,1-2.07-.83,6.61,6.61,0,0,0-.65-1,4.29,4.29,0,0,1-1-1.19,16,16,0,0,1-.69-2.44,8,8,0,0,0-.25-1.52c-.08-.15-.18-.26-.25-.11s.08.43.06.47a5.33,5.33,0,0,0,.11.94,26.83,26.83,0,0,0,.78,3.07,9.31,9.31,0,0,1,.14,2,2.78,2.78,0,0,1-1.3-1,6.24,6.24,0,0,1-.36-1,7,7,0,0,0-.52-1,3.48,3.48,0,0,1-.45-1.94,3.5,3.5,0,0,0,0-1.07c-.1-.28-.19-.22-.23,0a7.12,7.12,0,0,0,0,2.16,6.29,6.29,0,0,0,.75,1.73c.36.7.39,1.39.91,1.89s1.06.49,1.29.94a12.31,12.31,0,0,0,.74,1.24.42.42,0,0,0,.16.14,2.5,2.5,0,0,1,.71.55c.05.11.53,1.2.64,1.5a7.25,7.25,0,0,1,.38,2.18c0,1.53.06,3,0,4.44a1.28,1.28,0,0,0,.07.64c.1.15.2.09.24,0a5,5,0,0,0,0-1.08c0-.36,0-.72,0-1.09,0-.72,0-1.45,0-2.19a11,11,0,0,1-.09-1.71,5.93,5.93,0,0,1,1.63-1.93c.23-.08,1.2.36,1.74,0a1.3,1.3,0,0,0,.57-.77,3.24,3.24,0,0,1,.38-1.06c.21-.27.51-.36.74-.59a2.8,2.8,0,0,0,.55-.82,21.49,21.49,0,0,0,.76-2.69,8.6,8.6,0,0,1,.29,2,9.1,9.1,0,0,1-.29,1.66,4.5,4.5,0,0,0-.17,1.86,2.75,2.75,0,0,0,.29.82c0,.07.11.24.17.25S223.78,98.42,223.7,98.24ZM218,98a15.67,15.67,0,0,1-1.18,1.35c-.06,0-.77-2.06-.77-2.06s2.1.45,2.11.47S218.08,97.94,218,98Z" transform="translate(0 0)" style="fill: #2c3e50"/>
                  <path d="M227.83,97.67a8.08,8.08,0,0,0-.65-2.91,18.11,18.11,0,0,1-.65-2.61,2.32,2.32,0,0,1-.05-1.22,3.42,3.42,0,0,0-.08-1.38A10.88,10.88,0,0,1,226,88a7.5,7.5,0,0,1,.06-1.58,6,6,0,0,0-.35-3.2,3.22,3.22,0,0,1-.41-1.1,1.55,1.55,0,0,1,.32-1,3.2,3.2,0,0,0,.24-2.6,22.18,22.18,0,0,0-1.22-2.56,14.36,14.36,0,0,1-.63-2.23,23.06,23.06,0,0,0-.18-2.62,14.92,14.92,0,0,0-1-2.36c-.4-.87-1.05-2.69-1.05-2.69a3.49,3.49,0,0,0-.15-.46c-.27-.49-.37-1.29-.63-1.92a6.63,6.63,0,0,0-1-2c-.66-.73-2.25.55-2.25.55l0-.07h0c-1.15-2.84-3.38-.7-4.22.63a2.81,2.81,0,0,0-.36,1.08,4.7,4.7,0,0,1-.66,1.5A6,6,0,0,0,212,69a6.9,6.9,0,0,1,.14,1.67,10.69,10.69,0,0,1-.52,1.54,5.35,5.35,0,0,0,0,1.75,1.25,1.25,0,0,1-.37,1.07,3.68,3.68,0,0,0-.58,1.53,6,6,0,0,0-.2,1.8,3.69,3.69,0,0,1,0,1.55,4.73,4.73,0,0,0-.24,1.75,2.5,2.5,0,0,1-.46,1.74c-.28.34-.6.56-.87.89a2,2,0,0,0-.24,1.58,1.88,1.88,0,0,1-.31,1.27A8,8,0,0,0,207,88.24a6.79,6.79,0,0,0-.57,1.21c-.08.23-.16.49-.24.73a2.71,2.71,0,0,0-.21.68c0,.23,0,.31.16.24s.2-.62.26-.8a7.56,7.56,0,0,1,.48-1.22,6.25,6.25,0,0,1,.72-1,2.69,2.69,0,0,1,.71-.62,3,3,0,0,0,.44-.8,1.91,1.91,0,0,0,0-.88,1.68,1.68,0,0,1,.7-1.72,2.57,2.57,0,0,0,.88-2,10.54,10.54,0,0,1,0-1.27c.06-.38.27-.57.34-.93a5.48,5.48,0,0,0-.08-1.26,5.3,5.3,0,0,1,0-1,6.51,6.51,0,0,1,.5-2c.14-.26.35-.38.48-.67a2.76,2.76,0,0,0,.08-1.24,6.36,6.36,0,0,1,.54-2.53,3.78,3.78,0,0,1,.12,1.49,8.6,8.6,0,0,0-.4,1.15,8.09,8.09,0,0,0,0,1.56,2.28,2.28,0,0,1-.31,1.18,2.24,2.24,0,0,0-.29,1.38,13.62,13.62,0,0,1,.11,1.4c0,1.13-.14,3.25-.14,3.25v0a5.3,5.3,0,0,1-.17,1.87c-.16.56-.53.77-.7,1.32,0,.15-.14,1.64,0,1.52a5.87,5.87,0,0,0,0-.94,2,2,0,0,1,.23-.79c.12-.23.29-.38.41-.61a3.19,3.19,0,0,0,.25-.84,19.52,19.52,0,0,0,.16-2.07c.06-.7.25-1.29.34-2s-.14-1.63-.08-2.37.61-1.13.51-2.21a9.31,9.31,0,0,1,.24-2.43,3.67,3.67,0,0,1,.15,1.09,7.76,7.76,0,0,0-.26,2.22,7.29,7.29,0,0,0,.27,1.23,1.41,1.41,0,0,1,0,.91,3.38,3.38,0,0,0,0,2,4,4,0,0,1,0,2.36c-.16.53-.42,1.14-.78,1.3-.08,0-.34,0-.4.08-.13.27.27.27.34.26.67-.13,1.22-2.58,1.22-2.58a6.38,6.38,0,0,1,0,2.32c-.12.26-.27.47-.39.71a3.06,3.06,0,0,0-.27,1.07,1.36,1.36,0,0,1-.89,1.15,5.29,5.29,0,0,0-.66.51c-.08.06-.43.25-.21.46s.62-.46.7-.52.43-.25.65-.39a1.07,1.07,0,0,0,.51-.64c.11-.33.11-.76.24-1.07.28-.68.77-.88.91-1.8a4.5,4.5,0,0,0,0-1.16c-.07-.47-.17-1.54-.17-1.54s.26.92.4,1.4.18.82.28,1.23a3.87,3.87,0,0,1,.17,1.2c0,.2-.13.85.17.75s.19-.82.17-1.08a9.77,9.77,0,0,0-.25-1.17,10,10,0,0,0-.32-1.31,3.57,3.57,0,0,1-.33-1.33c0-.15,0-.31,0-.45s-.19-.69-.37-.58a4,4,0,0,0-.42,1.16,4.07,4.07,0,0,1-.19-1.53,4.13,4.13,0,0,0,.27-1.42c-.06-.52-.29-1-.36-1.52a10,10,0,0,1,0-1.64l0,.44V75a6.3,6.3,0,0,0,.65,2.28c.14.14.1.87.15,1.25a7.84,7.84,0,0,0,.25,1.09,9.35,9.35,0,0,1,.59,1.69c0,.13.11,1.6.15,1.94.07.67.1,1.32.14,2a12.48,12.48,0,0,1,0,1.84,19.76,19.76,0,0,0,0,2,5.27,5.27,0,0,0,.33,1.35,9.64,9.64,0,0,1,.71,1.56c.16.58.24,1,.66,1.23s.82,0,1.12.34.39.59.69.6a.94.94,0,0,0,.71-.36c.51-.58.59-2.67.59-2.67v0l0-.14v0a7.69,7.69,0,0,1,.64-1.41s.1-1.79.14-2.07c.08-.75.23-1.45.3-2.22s.14-1.41.27-2.09a4.38,4.38,0,0,0-.08-1,7.33,7.33,0,0,1,.4-1.2c.15-.41.27-.25.47-.5a3.18,3.18,0,0,0,.31-1.43,4.54,4.54,0,0,1,.27-1.1,8,8,0,0,0-.17-3.49c-.24-.22,0-1.75-.25-2.68s-.34-1.62-.56-2.42a46.1,46.1,0,0,0-1.84-4.73,4,4,0,0,1,1.25,1.39,14.33,14.33,0,0,1,.45,2.24,4,4,0,0,0,.37,1c.23.41.54.58.77,1a5.53,5.53,0,0,1,.39,2.32v0a4.87,4.87,0,0,0,.76,2.32c.15.19.24.24.12-.1s-.34-.61-.47-1c-.48-1.3,0-2.81-.8-3.89a3.93,3.93,0,0,1-.84-1.15,9,9,0,0,1-.38-2,3.63,3.63,0,0,0-1.76-2.33,8.14,8.14,0,0,1-1-.79s0-.25,0-.36a1,1,0,0,1,.18-.61.91.91,0,0,1,1.2.19,4.82,4.82,0,0,1,.7,1.13c.29.56.75,1,.95,1.43.65,1.27,1.26,3.2,2,4.7a5.43,5.43,0,0,1,.52,2.61c0,1,.66,2.12.57,2.54a1.8,1.8,0,0,0,.11.41,4.36,4.36,0,0,1,0,2.43,13.93,13.93,0,0,1-1.07,1.92,2.92,2.92,0,0,0-.18,2.17c.25.89.74,1.61,1,2.44s.05,1.69.42,2.48.93,1.36.62,2.27a2.72,2.72,0,0,0-.32,1.15,3.27,3.27,0,0,0,.4,1.27,6.61,6.61,0,0,1,.9,2.23,14,14,0,0,0,.19,1.43,2.72,2.72,0,0,1,.06,1.26,6.42,6.42,0,0,1-1.2,2,8.33,8.33,0,0,0,.52-4.11,14.07,14.07,0,0,0-.67-1.75,5.86,5.86,0,0,1-.24-1,6.66,6.66,0,0,0-.2-.89c-.08-.13-.19-.89-.28-.35a9.5,9.5,0,0,0,.17,1.33,3,3,0,0,1,0,1c-.08.37-.27.6-.33,1a9.47,9.47,0,0,0,.08,2.18,5.07,5.07,0,0,1-.23,2.15,6.52,6.52,0,0,0-.43.83c-.08.31.06.62.28.57s.41-.61.51-.87a4,4,0,0,0,.26-1.15,17.37,17.37,0,0,0-.13-2.68,3,3,0,0,1,.06-1.09c.09-.33.23-1,.23-1a7.81,7.81,0,0,1,.78,3,8.63,8.63,0,0,1-.37,1.61c-.07.24-.16.48-.21.74s-.1.28,0,.42.18,0,.18,0-.27.84,0,.77c.1,0,.25-.69.35-.85a5.52,5.52,0,0,0,1.08-1.93,3.38,3.38,0,0,0-.09-1.44,7,7,0,0,1-.15-1,8.63,8.63,0,0,0-.78-2.32l0,0a3.68,3.68,0,0,1-.56-1.46c0-.5.25-.77.35-1.17a2.59,2.59,0,0,0-.14-1.47c-.19-.53-.64-.94-.68-1.53a6.82,6.82,0,0,0-.3-2.73,7.14,7.14,0,0,1-1-2.49c0-1,.66-1.57,1-2.23a8.81,8.81,0,0,0,.34-2.76,8.1,8.1,0,0,1,1.11,3.14,2.06,2.06,0,0,1-.2,1.17,2,2,0,0,0-.5,1.13c-.1,1,.62,1.62.77,2.59a31.44,31.44,0,0,1-.1,3.39c.06,1,.62,1.86.56,2.79a4.29,4.29,0,0,0-.12,1.2c.08.51.26,1,.34,1.5a6.66,6.66,0,0,0,.33,1.35,14.21,14.21,0,0,1,.54,1.33,4.93,4.93,0,0,1,.07,2.71,6.1,6.1,0,0,1-.65.95c-.07.1-.35.36-.35.53,0,.35.14.18.24.08A3.27,3.27,0,0,0,227.83,97.67ZM212.59,71.3v-.07a8,8,0,0,0,.36-1.46,11.75,11.75,0,0,1,.14-1.53s.09,3.75.09,3.75l-.58-.56S212.59,71.34,212.59,71.3Zm7.64,12.25c-.12.78-.13,1.68-.17,2.49a19.75,19.75,0,0,1-.09,2.19,9,9,0,0,0-.22,1.19c-.06.41-.27.5-.42.78a10.63,10.63,0,0,0-.5,2.51c-.14.57-.63,1.21-1.07.66a1.48,1.48,0,0,0-.69-.6c-.24-.09-.71-.06-.89-.37l0-.06a10.79,10.79,0,0,0-.57-1.5,5.51,5.51,0,0,1-.65-1.28s0,0,0-.06a2.9,2.9,0,0,0,0-.39s0-.09,0-.14c.05-.52,0-1.11,0-1.65s0-1.25-.08-1.9c-.1-1.27-.34-3.88-.34-3.88s.72,1.86,1.18,2.66a3.52,3.52,0,0,0,2.05,1.46,1.29,1.29,0,0,0,1.42-.21,13,13,0,0,0,1.2-2.26S220.25,83.42,220.23,83.55Zm-1.87-19.46a1.77,1.77,0,0,1,.61.52l.06.08c.34.16.76,1.57,1,2.28.29.88.56,1.81.82,2.71.13.46.21.93.32,1.4s.27.81.37,1.24.32,2.57.4,2.58.37-.16.47.39a3.85,3.85,0,0,1-.21,1.7,14.42,14.42,0,0,0-.48,1.62c-.08.5,0,1.37-.31,1.59s-.31.09-.43.38-.23.76-.36,1.12a12.44,12.44,0,0,1-.64,1.48c-.25.48-.45,1-.73,1.48a1.22,1.22,0,0,1-.77.63,2.93,2.93,0,0,1-2-.65,1.85,1.85,0,0,1-.73-.7,15.46,15.46,0,0,1-.78-1.69,28.54,28.54,0,0,1-1-2.68,11.12,11.12,0,0,1-.37-1.91,1.08,1.08,0,0,0-.38-.78c-.31-.34-.32-1.58-.38-2.13a14,14,0,0,1-.26-2.19c0-.2,0-.53,0-.75a.45.45,0,0,1,.1-.21,0,0,0,0,1,0,0,3.65,3.65,0,0,1,.46.66,3.46,3.46,0,0,0,.07-.78c0-.41,0-.81,0-1.21,0-.93,0-1.93.08-2.79,0-.12,0-.26,0-.38a8.27,8.27,0,0,1,.35-1.24h0v0h0c.08-.27,0-.62.15-.87a1.31,1.31,0,0,1,.57-.59,3.12,3.12,0,0,1,1.29-.58c.35-.07.7-.09,1.05-.13A2.87,2.87,0,0,1,218.36,64.09Zm-4.91,2.11a3.84,3.84,0,0,1,.3-1.24,4.9,4.9,0,0,1-.11.73C213.59,65.88,213.5,66,213.45,66.2ZM221.11,65c-.55-.69-.89-1.88-1.52-2.4a1.1,1.1,0,0,0-1.15-.16c-.19.11-.31,1.25-.31,1.25a3.8,3.8,0,0,0-1-.35,7.22,7.22,0,0,0-1.22.2,7.4,7.4,0,0,0-2.08,1.21s0-.36,0-.58h0a1.87,1.87,0,0,1,.92-.85,2.08,2.08,0,0,1,1.27-.27,2.26,2.26,0,0,1,.65.15c.08,0,.5.33.4-.07s-1.13-.47-1.33-.48a2.09,2.09,0,0,0-2.09,1.22c-.07.2-.06.44-.15.64a3.59,3.59,0,0,0-.31.62,14.14,14.14,0,0,0,0,1.84c0,.19-.05.48-.09.68-.1.5-.5.57-.52,1.38a6.63,6.63,0,0,1-.31,1.59s-.19-1.61-.25-2.39a5,5,0,0,1,.3-2.21,12.25,12.25,0,0,1,.68-1.3c.21-.45.19-1.11.42-1.57a5.06,5.06,0,0,1,1-1.23,2.84,2.84,0,0,1,1.17-.84,1.49,1.49,0,0,1,1.31.19,1.69,1.69,0,0,1,.47.57l.33.48a1.66,1.66,0,0,0,.22-.33.74.74,0,0,1,.49-.45,1.39,1.39,0,0,1,1.18.21,13.58,13.58,0,0,1,1.58,3.3Z" transform="translate(0 0)" style="fill: #2c3e50"/>
                  <path d="M209.63,92.23a16.81,16.81,0,0,1-.8-2.36c0-.2.16-1.1,0-1.11s-.22.77-.2,1a19.46,19.46,0,0,0,.82,2.48,1.11,1.11,0,0,1,0,.51s-.16.32,0,.37S209.69,92.48,209.63,92.23Z" transform="translate(0 0)" style="fill: #2c3e50"/>
                  <path d="M209.34,87.87a1.18,1.18,0,0,1,.4-.55s.39-.26.26-.43-.79.59-.82.92.73,1.86.82,1.71C210.21,89.16,209.23,88.35,209.34,87.87Z" transform="translate(0 0)" style="fill: #2c3e50"/>
                  <path d="M210.85,90.7a3.24,3.24,0,0,0,0-1.12c-.14-.19-.13.78-.13.87,0,.81-.67.85-.87.72s-.15.06-.08.21.35.08.43.07C210.55,91.42,210.81,91.36,210.85,90.7Zm-1,.48Z" transform="translate(0 0)" style="fill: #2c3e50"/>
                  <path d="M211.41,94.44a8.38,8.38,0,0,0-.37-1.35,3.25,3.25,0,0,1,0-1,5.42,5.42,0,0,0,.08-1.16c0-.1,0-.43-.13-.32s0,.41,0,.53a5.93,5.93,0,0,0,0,2.38,4.86,4.86,0,0,1,.25,1c0,.12,0,.39.14.37S211.41,94.57,211.41,94.44Z" transform="translate(0 0)" style="fill: #2c3e50"/>
                  <path d="M223,94.19c-.19-.09-.53.75-.63,1a3.86,3.86,0,0,0-.4,1.44,6.3,6.3,0,0,0,.14,1.55c0,.25.19,1.34.39,1.41s-.05-1-.09-1.25a5.82,5.82,0,0,1-.15-1.7,3.72,3.72,0,0,1,.47-1.34C222.75,95.13,223.28,94.33,223,94.19Z" transform="translate(0 0)" style="fill: #2c3e50"/>
                  <path d="M219.06,81.32l-.06,0-.94-.72a3,3,0,0,0-1-.36c-.22-.06-.42-.43-.75-.44a2.18,2.18,0,0,0-1.09.23c-.08.06,0,.22,0,.22h.13c.23,0,.88,1.69,1.48,2.13a1,1,0,0,0,1,.15c.35-.17.62-.83.85-.87.06,0,.26,0,.32-.07S219.12,81.37,219.06,81.32Zm-2.9-1.24c.28,0,.77.14.77.25l0,0c.24.26.39,0,.64.16a10.78,10.78,0,0,1,1.13.84s-2.75-1.21-2.75-1.21Zm2.4,1.51c-.46.48-.86.84-1.5.47a7.26,7.26,0,0,1-1.43-1.83s.84.39.84.39h0a13.88,13.88,0,0,0,2.12,1Z" transform="translate(0 0)" style="fill: #2c3e50"/>
                  <path d="M215.84,76.51c0-.09.28-.79.07-.61a1.73,1.73,0,0,0-.13,1.28c.05.14.47.78.48.43,0-.13-.29-.39-.34-.5A.91.91,0,0,1,215.84,76.51Z" transform="translate(0 0)" style="fill: #2c3e50"/>
                  <path d="M218.25,78.22h0c0,.14-.24.06-.21.28s.37,0,.42-.13a1.36,1.36,0,0,0,.05-.76,5.52,5.52,0,0,0-.28-.91c-.07-.12-.12,0-.08.1a2.26,2.26,0,0,1,.09.41c0,.09.08.26.08.26h0a1.84,1.84,0,0,1,.06.34v0A.78.78,0,0,1,218.25,78.22Z" transform="translate(0 0)" style="fill: #2c3e50"/>
                  <path d="M216.28,77.31s.09,0,.1,0a.35.35,0,0,1,.12.1c.17.28.16,0,.07-.22C216.36,76.8,216,77,216.28,77.31Z" transform="translate(0 0)" style="fill: #2c3e50"/>
                  <path d="M217.34,77.84c.09.09.1-.18.13-.24h0s.19.27.24.18,0-.36-.1-.43a.15.15,0,0,0-.21,0S217.21,77.74,217.34,77.84Z" transform="translate(0 0)" style="fill: #2c3e50"/>
                  <path d="M214.32,70a1.32,1.32,0,0,1,1.05.37c.24.2.48.63.7.77s.08-.24,0-.37a4.64,4.64,0,0,0-.66-.57h0a2,2,0,0,0-1-.35C214.1,69.83,213.74,70.12,214.32,70Z" transform="translate(0 0)" style="fill: #2c3e50"/>
                  <path d="M218.58,71.28h0Z" transform="translate(0 0)" style="fill: #2c3e50"/>
                  <path d="M217.85,71.59c-.17.13-.06.46.12.31a1.5,1.5,0,0,1,1.13-.38c.12,0,1.16.59,1.1.73.05-.12-.61-.79-.69-.84a1,1,0,0,0-.93-.13h0A2,2,0,0,0,217.85,71.59Z" transform="translate(0 0)" style="fill: #2c3e50"/>
                  <path d="M218.57,71.29h0Z" transform="translate(0 0)" style="fill: #2c3e50"/>
                  <path d="M215.36,72.85a3.08,3.08,0,0,0,.56-.18,4.53,4.53,0,0,0-1-1.14c-.12,0-1.07.3-.94.57,0,.05.05,0,.06,0a6.94,6.94,0,0,0,.49.57A1.07,1.07,0,0,0,215.36,72.85Zm-.65-.25a4.14,4.14,0,0,1-.58-.61,2.4,2.4,0,0,1,.38-.27s.28.92.28.92Zm.23-.84c0,.13,0,.42-.11.41l-.05,0h0a1.63,1.63,0,0,1,0-.44,1.33,1.33,0,0,1,.21,0S214.94,71.74,214.94,71.76Zm.23,1h-.07s.19-.77.19-.77.37.51.53.66h0A2.77,2.77,0,0,1,215.17,72.72Z" transform="translate(0 0)" style="fill: #2c3e50"/>
                  <path d="M220.1,74a1.55,1.55,0,0,0-1.45-.69h0s-.39.25-.38.28a4.43,4.43,0,0,0,1.11.85c.26.09.73-.13.81-.11S220.13,74,220.1,74ZM219,73.41v0a.17.17,0,0,1,0-.07h0Zm0,.22v-.06A.13.13,0,0,0,219,73.63Zm.64-.16,0,0s0,0,0,0a.38.38,0,0,0-.09-.15Zm-.49-.31.12,0a1.3,1.3,0,0,0,.08.27s.05.25,0,.29-.09,0-.12-.05a.55.55,0,0,1-.08-.31,1,1,0,0,0,0-.24ZM219,74l-.61-.48s.36-.23.36-.23h0a1.49,1.49,0,0,1,.32-.16l0,0c-.11,0,.09.94.09.94Zm1.06.1a2.29,2.29,0,0,1-.66.14l.36-.66s.34.49.34.51Z" transform="translate(0 0)" style="fill: #2c3e50"/>
                  <path d="M218.65,73.29Z" transform="translate(0 0)" style="fill: #2c3e50"/>
                  <path d="M219.16,74.3h0Z" transform="translate(0 0)" style="fill: #2c3e50"/>
                  <path d="M213.06,72.79h0Z" transform="translate(0 0)" style="fill: #2c3e50"/>
                  <path d="M213.32,75.23a6.22,6.22,0,0,1-.2-1.3,10.38,10.38,0,0,1-.14-1.32s.08.18.08.18h0v0h0c.21.94.15-.41-.11-.4s0,1.1,0,1.3h0a5.79,5.79,0,0,1,.13.68c0,.21,0,.43,0,.64C213.2,75.42,213.58,75.66,213.32,75.23ZM213,72.6h0Z" transform="translate(0 0)" style="fill: #2c3e50"/>
                  <path d="M221.35,79.05c.18.43.27-.46.27-.61s-.05-.42,0-.62.17-.59.12-.77c-.12-.51-.27.46-.28.61,0,.41,0,1.19,0,1.19S221.22,78.75,221.35,79.05Z" transform="translate(0 0)" style="fill: #2c3e50"/>
                </g>
              </g>
            </g>
            <path d="M217.3,85.74a4.82,4.82,0,0,1-2.2-2.3c-.32-.59-.93-1.8-1.43-6.24l-.06-.56a.89.89,0,0,0-.11-.36,9.21,9.21,0,0,1-.62-2.52c-.12-.79-.17-1.78.17-2a.58.58,0,0,0,.17-.46c0-.57,0-1.14.05-1.75.17-2.72.26-5,1.4-6.14a2.58,2.58,0,0,1,2.93-.52,4.89,4.89,0,0,1,2.91,2.52c1.11,2,1.14,4.39,1.24,7.31,0,.66,0,1.27,0,1.84a1,1,0,0,0,.16.61,3.39,3.39,0,0,1,.12,2.19,5.27,5.27,0,0,1-.69,2.07.43.43,0,0,0-.13.27c0,.17,0,.35-.07.52-.61,4.11-1.26,4.78-1.6,5.1A1.92,1.92,0,0,1,217.3,85.74Z" transform="translate(0 0)" style="fill: none;stroke: #3c94cc;stroke-miterlimit: 10;stroke-width: 0.458721758028298px"/>
            <path d="M231.75,61.27c-9.06-3.22-18.35-5.93-27.65-8.38,0,1.72.06,2.58.09,4.3,9.19,2.76,18.38,5.65,27.36,9C231.62,64.26,231.66,63.27,231.75,61.27Z" transform="translate(0 0)" style="fill: #3496D9"/>
          </g>
          <path d="M220.88,57.6l-.06-.05h0S220.86,57.57,220.88,57.6Z" transform="translate(0 0)" style="fill: #2d3f51"/>
          <path d="M210.15,55.08h0Z" transform="translate(0 0)" style="fill: #2d3f51"/>
          <polygon points="210.1 55.05 210.1 55.05 210.1 55.05 210.1 55.05" style="fill: #2d3f51"/>
          <path d="M210.05,55h0L210,55Z" transform="translate(0 0)" style="fill: #2d3f51"/>
          <path d="M210.1,55.05l0,0,0,0Z" transform="translate(0 0)" style="fill: #2d3f51"/>
        </g>
        <g>
          <path d="M124.14,97.52l4.62-1.86v4.82l4.42-1.61v6l-4.82,1.61v4.82l-4.15,1.34V107s-4.42,1.74-4,1.47,0-5.76,0-5.76l3.84-1.34Z" transform="translate(0 0)" style="fill: #fff"/>
          <path d="M124.38,98.1,129,96.23l-1-.44v4.82c0,.51.65.57,1,.44l4.42-1.6-1-.44c0,1.83.35,4,0,5.81,0-.15.83-.47-.05-.32a11.42,11.42,0,0,0-1.56.52l-2.7.9a.78.78,0,0,0-.51.72c0,1.24.49,3.59,0,4.7.46-1-.34-.32-1.26,0l-2.38.77,1,.44V106.9c0-.51-.65-.57-1-.44-1.26.49-2.52,1.07-3.82,1.44l.8.5c-.09-.78.38-3.43,0-4.79a2,2,0,0,1-.06-.9c-.34,1-.43.34.48.27a13.36,13.36,0,0,0,2.84-1,.79.79,0,0,0,.51-.71l.13-3.88c0-.85-1.47-.52-1.5.27l0,1.62c0,.49-.22,2.31.11,1.86s-1.22.23-1.6.36l-1.92.68a.76.76,0,0,0-.51.71c.14,1.88-.18,4,0,5.78a.63.63,0,0,0,.79.5,44.2,44.2,0,0,0,4.21-1.56l-1-.44v5.62c0,.53.65.55,1,.44l4.15-1.34a.76.76,0,0,0,.51-.71v-2.41a6.53,6.53,0,0,0,0-1.53c-.21-.8.44-.88-.41-.2,1.08-.86,3.39-1.13,4.72-1.57a.77.77,0,0,0,.51-.71v-6c0-.51-.65-.56-1-.43l-4.42,1.6,1,.44V95.52c0-.5-.65-.58-1-.44L123.9,97A.63.63,0,1,0,124.38,98.1Z" transform="translate(0 0)" style="fill: #2c3e50"/>
        </g>
      </g>
    </g>
  </g>
</svg>
