<svg xmlns="http://www.w3.org/2000/svg" viewBox="0 0 54.84 39.08">
  <title>ce</title>
  <g id="Layer_2" data-name="Layer 2">
    <g id="Layer_3" data-name="Layer 3">
      <g>
        <path d="M21.48,33.19V39c-.63.06-1.28.1-1.93.1A19.54,19.54,0,1,1,19.55,0a17.56,17.56,0,0,1,1.93.1V5.89a13.79,13.79,0,1,0,0,27.3Z" style="fill: #2c3e50"/>
        <path d="M39.44,16.56H50.72v6H39.44a13.76,13.76,0,0,0,15.4,10.66V39c-.64.06-1.29.1-1.94.1A19.54,19.54,0,0,1,52.9,0a17.87,17.87,0,0,1,1.94.1V5.89a14,14,0,0,0-1.94-.14A13.81,13.81,0,0,0,39.44,16.56Z" style="fill: #2c3e50"/>
      </g>
    </g>
  </g>
</svg>
