<svg xmlns="http://www.w3.org/2000/svg" viewBox="0 0 125 40"><defs><style>.cls-1{fill:#2c3e50;}</style></defs><g id="Layer_2" data-name="Layer 2"><g id="Layer_3" data-name="Layer 3"><path class="cls-1" d="M58.58,40H0V0H58.58ZM1.45,38.43H57.13V1.57H1.45Z"/><path class="cls-1" d="M125,40H57.52V0H125ZM59.19,38.43h64.14V1.57H59.19Z"/><path class="cls-1" d="M26.52,9.63v3.7H16.81v4.28h8.91V21H16.81v4.9h9.92v3.7h-14v-20Z"/><path class="cls-1" d="M41.25,15a4.39,4.39,0,0,0-.9-1.11,4.11,4.11,0,0,0-1.22-.74,3.86,3.86,0,0,0-1.43-.27,4.46,4.46,0,0,0-2.32.58A4.57,4.57,0,0,0,33.83,15a7.07,7.07,0,0,0-.86,2.2,11.84,11.84,0,0,0-.27,2.54A11,11,0,0,0,33,22.16a7.07,7.07,0,0,0,.86,2.15,4.69,4.69,0,0,0,1.55,1.52,4.46,4.46,0,0,0,2.32.58,3.58,3.58,0,0,0,2.9-1.24,5.94,5.94,0,0,0,1.27-3.24h3.92a11,11,0,0,1-.8,3.38,8.22,8.22,0,0,1-1.7,2.58,7.16,7.16,0,0,1-2.47,1.62,8.32,8.32,0,0,1-3.12.56,8.79,8.79,0,0,1-3.8-.79,8.37,8.37,0,0,1-2.85-2.2,10,10,0,0,1-1.77-3.29,12.83,12.83,0,0,1-.62-4.08,13.18,13.18,0,0,1,.62-4.15,10.21,10.21,0,0,1,1.77-3.35A8.23,8.23,0,0,1,33.9,10a8.65,8.65,0,0,1,3.8-.81,8.77,8.77,0,0,1,2.87.47A7.57,7.57,0,0,1,43,11a7.46,7.46,0,0,1,1.77,2.25,8.7,8.7,0,0,1,.87,3.08H41.72A3.83,3.83,0,0,0,41.25,15Z"/><path class="cls-1" d="M77.33,9.63a5.48,5.48,0,0,1,2.23.44,5,5,0,0,1,1.7,1.19A5.12,5.12,0,0,1,82.35,13a6.2,6.2,0,0,1,.37,2.14,6.48,6.48,0,0,1-.68,3,4.42,4.42,0,0,1-2.23,2v.06A3.05,3.05,0,0,1,81,20.9a3.66,3.66,0,0,1,.8,1.1,5.08,5.08,0,0,1,.45,1.38,13.31,13.31,0,0,1,.2,1.51c0,.32,0,.69.05,1.12s0,.87.09,1.32a9.64,9.64,0,0,0,.2,1.27,3.13,3.13,0,0,0,.43,1h-4a8.06,8.06,0,0,1-.42-2.27c0-.88-.13-1.72-.23-2.52a4.23,4.23,0,0,0-.87-2.3,2.89,2.89,0,0,0-2.19-.73H71.46v7.82h-4v-20Zm-1.44,9A2.93,2.93,0,0,0,78,18a3,3,0,0,0,.69-2.19A2.8,2.8,0,0,0,78,13.71a2.93,2.93,0,0,0-2.09-.66H71.46v5.63Z"/><path class="cls-1" d="M99.77,9.63v3.7H90.06v4.28H99V21H90.06v4.9H100v3.7H86v-20Z"/><path class="cls-1" d="M111,9.63a7.21,7.21,0,0,1,2.94.55,5.42,5.42,0,0,1,2,1.44A5.6,5.6,0,0,1,117,13.67a8.2,8.2,0,0,1,0,4.74,5.56,5.56,0,0,1-1.11,2.06,5.42,5.42,0,0,1-2,1.44,7,7,0,0,1-2.94.55h-4.25v7.17h-4v-20ZM109.89,19a8.26,8.26,0,0,0,1.34-.11,3,3,0,0,0,1.14-.43,2.32,2.32,0,0,0,.78-.91,3.43,3.43,0,0,0,.3-1.54,3.37,3.37,0,0,0-.3-1.54,2.19,2.19,0,0,0-.78-.91,3,3,0,0,0-1.14-.44,8.26,8.26,0,0,0-1.34-.11h-3.14v6Z"/></g></g></svg>