<svg xmlns="http://www.w3.org/2000/svg" xmlns:xlink="http://www.w3.org/1999/xlink" viewBox="0 0 108.42 48.22">
  <defs>
    <symbol id="cancel" data-name="cancel" viewBox="0 0 28 28">
      <g id="Rounded">
        <path d="M23.9,4.1a14,14,0,1,0,0,19.8A14,14,0,0,0,23.9,4.1Zm-6.85,15L14,16l-3.05,3a1.44,1.44,0,0,1-2,0h0a1.44,1.44,0,0,1,0-2L12,14,8.92,11a1.44,1.44,0,0,1,0-2h0a1.44,1.44,0,0,1,2,0L14,12l3.05-3.05a1.44,1.44,0,0,1,2,0h0a1.44,1.44,0,0,1,0,2L16,14l3,3.05a1.44,1.44,0,0,1,0,2h0A1.44,1.44,0,0,1,17.05,19.08Z" style="fill: #fff"/>
      </g>
    </symbol>
  </defs>
  <title>cancel</title>
  <g id="Layer_2" data-name="Layer 2">
    <g id="Layer_2-2" data-name="Layer 2">
      <g>
        <rect y="39.14" width="108.41" height="9.08" style="fill: #3c94cc"/>
        <path d="M30.57,0A16,16,0,0,0,15.5,10.78,32,32,0,0,1,0,28.43V39.14H108.42V0Z" style="fill: #e44e3e"/>
        <use width="28" height="28" transform="translate(79.26 5.58) scale(0.8)" xlink:href="#cancel"/>
        <g>
          <path d="M25,20.57a1.7,1.7,0,0,0,.57-.09,1.26,1.26,0,0,0,.44-.25,1.06,1.06,0,0,0,.29-.4,1.37,1.37,0,0,0,.12-.51h2.11a3,3,0,0,1-.28,1.23,3.1,3.1,0,0,1-.74,1,3.35,3.35,0,0,1-1.11.63,4,4,0,0,1-1.36.23,4.16,4.16,0,0,1-1.72-.33,3.25,3.25,0,0,1-1.21-.91,3.67,3.67,0,0,1-.73-1.35,5.57,5.57,0,0,1-.24-1.67v-.22a5.67,5.67,0,0,1,.24-1.67,3.8,3.8,0,0,1,.73-1.36A3.36,3.36,0,0,1,23.3,14a4.06,4.06,0,0,1,1.7-.33,4.23,4.23,0,0,1,1.42.23,3.41,3.41,0,0,1,1.11.66,3.05,3.05,0,0,1,.71,1,3.56,3.56,0,0,1,.27,1.37H26.4a1.8,1.8,0,0,0-.11-.57A1.31,1.31,0,0,0,26,15.9a1.22,1.22,0,0,0-.44-.32,1.48,1.48,0,0,0-.61-.11,1.4,1.4,0,0,0-.8.2,1.35,1.35,0,0,0-.49.54,3,3,0,0,0-.24.78,7,7,0,0,0-.06.92v.22a7,7,0,0,0,.06.93,2.75,2.75,0,0,0,.24.78,1.39,1.39,0,0,0,.49.53A1.45,1.45,0,0,0,25,20.57Z" style="fill: #fff"/>
          <path d="M35.48,22.23a2.38,2.38,0,0,1-.22-.75,2.89,2.89,0,0,1-.87.64,2.67,2.67,0,0,1-1.26.27A3.25,3.25,0,0,1,32,22.2a2.81,2.81,0,0,1-.91-.52,2.25,2.25,0,0,1-.6-.8,2.31,2.31,0,0,1-.22-1,2.58,2.58,0,0,1,.25-1.17,2.2,2.2,0,0,1,.73-.88,3.42,3.42,0,0,1,1.22-.54,6.64,6.64,0,0,1,1.7-.19h1V16.6a1.4,1.4,0,0,0-.3-.94,1.18,1.18,0,0,0-.94-.35,1.38,1.38,0,0,0-.9.27.94.94,0,0,0-.32.75H30.45a2.25,2.25,0,0,1,.25-1,2.64,2.64,0,0,1,.72-.85,3.44,3.44,0,0,1,1.13-.58,5,5,0,0,1,2.84,0,3,3,0,0,1,1.07.56,2.4,2.4,0,0,1,.71.92,3.14,3.14,0,0,1,.25,1.3v3.57a6.32,6.32,0,0,0,0,.65,3.76,3.76,0,0,0,.06.51,2.24,2.24,0,0,0,.1.41,2.17,2.17,0,0,0,.15.35v.13Zm-1.86-1.56a2.19,2.19,0,0,0,.53-.07,1.77,1.77,0,0,0,.44-.19,1.28,1.28,0,0,0,.34-.26,1.5,1.5,0,0,0,.23-.3V18.4h-.93a3,3,0,0,0-.77.09,1.48,1.48,0,0,0-.53.28,1,1,0,0,0-.32.41,1.46,1.46,0,0,0-.1.52.89.89,0,0,0,.3.69A1.17,1.17,0,0,0,33.62,20.67Z" style="fill: #fff"/>
          <path d="M42,13.8l.06,1a3.18,3.18,0,0,1,1.06-.84,3.23,3.23,0,0,1,1.37-.29,3.41,3.41,0,0,1,1.09.17,1.9,1.9,0,0,1,.84.55,2.4,2.4,0,0,1,.54,1,5,5,0,0,1,.2,1.51v5.36H44.93V16.85a2.13,2.13,0,0,0-.09-.67,1,1,0,0,0-.26-.42.94.94,0,0,0-.42-.22,2.49,2.49,0,0,0-.58-.07,1.65,1.65,0,0,0-.85.22,1.69,1.69,0,0,0-.57.59v5.95H39.9V13.8Z" style="fill: #fff"/>
          <path d="M53.2,20.57a1.7,1.7,0,0,0,.57-.09,1.26,1.26,0,0,0,.44-.25,1.06,1.06,0,0,0,.29-.4,1.37,1.37,0,0,0,.12-.51h2.11a3,3,0,0,1-.28,1.23,3.1,3.1,0,0,1-.74,1,3.4,3.4,0,0,1-1.1.63,4.1,4.1,0,0,1-1.37.23,4.16,4.16,0,0,1-1.72-.33,3.25,3.25,0,0,1-1.21-.91,3.67,3.67,0,0,1-.73-1.35,5.57,5.57,0,0,1-.24-1.67v-.22a5.67,5.67,0,0,1,.24-1.67,3.8,3.8,0,0,1,.73-1.36A3.36,3.36,0,0,1,51.52,14a4.09,4.09,0,0,1,1.7-.33,4.23,4.23,0,0,1,1.42.23,3.41,3.41,0,0,1,1.11.66,3.22,3.22,0,0,1,.72,1,3.75,3.75,0,0,1,.26,1.37H54.62a1.8,1.8,0,0,0-.11-.57,1.45,1.45,0,0,0-.27-.47,1.36,1.36,0,0,0-.45-.32,1.48,1.48,0,0,0-.61-.11,1.42,1.42,0,0,0-.8.2,1.35,1.35,0,0,0-.49.54,2.63,2.63,0,0,0-.23.78,5.62,5.62,0,0,0-.07.92v.22a5.65,5.65,0,0,0,.07.93,2.47,2.47,0,0,0,.23.78,1.39,1.39,0,0,0,.49.53A1.45,1.45,0,0,0,53.2,20.57Z" style="fill: #fff"/>
          <path d="M62.7,22.39a4.64,4.64,0,0,1-1.76-.32,3.94,3.94,0,0,1-1.32-.87,3.83,3.83,0,0,1-.82-1.3,4.46,4.46,0,0,1-.29-1.6V18a5.2,5.2,0,0,1,.28-1.76,3.79,3.79,0,0,1,.79-1.37,3.44,3.44,0,0,1,1.23-.9,4.33,4.33,0,0,1,3.24,0,3.22,3.22,0,0,1,1.17.84,3.76,3.76,0,0,1,.71,1.31,5.63,5.63,0,0,1,.24,1.7v1H60.8a2.33,2.33,0,0,0,.22.75,1.86,1.86,0,0,0,.43.57,1.78,1.78,0,0,0,.61.37,2.13,2.13,0,0,0,.78.13A2.67,2.67,0,0,0,64,20.34a2.28,2.28,0,0,0,.9-.71L66,20.87a3.75,3.75,0,0,1-.51.56,3.63,3.63,0,0,1-.72.49,4.52,4.52,0,0,1-2.06.47Zm-.26-6.92a1.59,1.59,0,0,0-.64.12,1.44,1.44,0,0,0-.48.36,2,2,0,0,0-.32.55,2.64,2.64,0,0,0-.18.71H64V17a2.06,2.06,0,0,0-.1-.62,1.28,1.28,0,0,0-.27-.5,1.25,1.25,0,0,0-.47-.33A1.71,1.71,0,0,0,62.44,15.47Z" style="fill: #fff"/>
          <path d="M70.62,22.23H68.36v-12h2.26Z" style="fill: #fff"/>
        </g>
      </g>
    </g>
  </g>
</svg>
