<?xml version="1.0" encoding="UTF-8"?>
<svg version="1.1" viewBox="0 0 2048 724" width="328" height="116" xmlns="http://www.w3.org/2000/svg">
<path transform="translate(0)" d="m0 0h2048v724h-2048z" fill="#FDFDFD"/>
<path transform="translate(245,59)" d="m0 0h323l406 1 36 1v2l-884 1 96 1h408l324-1h56l1 2v592l-1 1h-950l-1-1v-592l1-5 48-1z" fill="#FEFEFE"/>
<path transform="translate(0)" d="m0 0h2048v724h-2048zm28 33v600l1 56h1988l1-289v-291l-1-75-3-1z" fill="#FEFEFE"/>
<path transform="translate(28,33)" d="m0 0h1986l3 1 1 75v291l-1 289h-1988l-1-56zm217 26-137 1-48 1-1 5v592l1 1h950l1-1v-592l-1-2h-56l-324 1h-408l-96-1 884-1v-2l-36-1-406-1zm793 3-1 1v595l1 1h950v-594l-1-1-126 1h-232l-492-1-46-1-26-1z" fill="#040304"/>
<path transform="translate(1154,233)" d="m0 0h94l43 2 26 3 14 4 12 5 6 4 9 7 7 11 6 15 2 11v31l-4 14-7 12-11 12-20 12-22 9v2l14 10 12 11 13 14 20 32 7 10 12 23 8 11 1 3h-44l-18-1-8-3-5-12-5-5-4-5-5-10-10-15-7-8-5-8-7-11-7-10-7-8-8-10-7-2-27-3-12-1v108l-4 1-40-1-11-1z" fill="#040304"/>
<path transform="translate(1674,234)" d="m0 0h98l35 2 20 3 14 4 8 6 13 12 8 12 7 21 2 11v20l-2 14-5 16-8 15-9 10-14 9-15 6-18 4-12 1-64 1-5-1v101h-54v-257z" fill="#040304"/>
<path transform="translate(1454,233)" d="m0 0h168l1 1v46l-1 1h-143v59h133l-1-2-49-1h-80v-1l14-1h114l3 1v22l-1 24h-133v73h123l27 1v44l-1 1h-39l-165-1v-266z" fill="#050405"/>
<path transform="translate(555,233)" d="m0 0h48l2 2-1 29v76l103-1 3-1 1-105h52l1 3v180l-1 85h-52l-1-116-30-1-76-1 1 118h-55l-1-1v-266z" fill="#040304"/>
<path transform="translate(369,232)" d="m0 0h38l23 3 21 6 10 5 10 9 8 7 7 8 8 13 5 13 1 13-3 4-28 5-12 3-5-1-4-5-6-11-8-10-10-9-12-5-12-2h-17l-16 4-12 7-8 7-9 14-6 15-3 15-1 9v34l3 22 5 15 8 15 11 11 11 7 6 2 7 1h20l17-4 10-5 9-8 9-16 7-19 12 2 20 6 17 6 5 4-3 10-12 25-7 10-15 15-10 7-18 8-7 3-23 4-10 1h-16l-20-3-19-6-18-8-13-10-14-14-12-17-9-21-6-23-2-16v-36l4-27 7-21 8-16 6-9 8-10 12-12 15-11 19-9z" fill="#040304"/>
<path transform="translate(1210,281)" d="m0 0h73l15 1 7 4 7 6 5 9 1 5v13l-1 8-9 12-10 4-22 2-65 1-1-1z" fill="#FEFEFE"/>
<path transform="translate(1727,281)" d="m0 0h52l18 1 9 3 12 12 3 9 1 8v13l-4 10-4 6-5 5-11 4-18 2-38 2h-13l-2-1z" fill="#FEFEFE"/>
<path transform="translate(31,37)" d="m0 0 4 1 1 85v445l-1 58h-1l-1-8-1-18-1-7-1-32v-58l-1-62v-208l1-66 1-11h1v-70l-2 3v-39z" fill="#312F32"/>
<path transform="translate(1798,59)" d="m0 0h48l123 1 19 1-1 2h-880l-24-1v-1l42-1z" fill="#FEFEFE"/>
<path transform="translate(1169,63)" d="m0 0h652l89 1v1l-49 1h-232l-460-1z" fill="#0A090A"/>
<path transform="translate(259,660)" d="m0 0h179l95 1 11 1v1l-7 1-88 1-58 1h-179l-21-1-5-1 4-2 10-1z" fill="#312F32"/>
<path transform="translate(63,63)" d="m0 0h575v1l-8 1v1h-408l-96-1-63-1z" fill="#2A282B"/>
<path transform="translate(2017,109)" d="m0 0h1v291l-1 22-3-1-1-6v-184l1-38 2-2z" fill="#2F2D30"/>
<path transform="translate(1169,661)" d="m0 0h203l21 1v1l-15 1h-278v-2z" fill="#312F32"/>
<path transform="translate(31,37)" d="m0 0 4 1v124h-2l-1-76-2 3v-39z" fill="#6E6D6F"/>
<path transform="translate(1152,499)" d="m0 0h58l-1 4h-28l-28-1z" fill="#0C0A0C"/>
<path transform="translate(1038,660)" d="m0 0 28 2v2l-13 2h-15l-1-5z" fill="#312F32"/>
</svg>
