<svg xmlns="http://www.w3.org/2000/svg" viewBox="0 0 53.58 40">
  <g id="Layer_2" data-name="Layer 2">
    <g id="Layer_3" data-name="Layer 3">
      <g>
        <path d="M52.65,3.19c-6.8,2.9-10.39.92-13.87-1s-6.61-3.64-12-.41C21.41-1.44,18.2.33,14.8,2.2S7.72,6.09.93,3.19L0,2.79V38.25l.41.17A17.35,17.35,0,0,0,7.25,40c3.42,0,5.91-1.37,8.2-2.63,3.38-1.86,6.06-3.33,11-.23l.36.23.36-.23c4.92-3.1,7.6-1.63,11,.23,3.59,2,7.65,4.21,15,1.05l.41-.17V2.79ZM14.8,36.2C11.39,38.08,7.87,40,1.34,37.36V4.8C8.14,7.38,12,5.26,15.45,3.37S21.4.11,26.12,3V35.42C21.15,32.73,18.06,34.41,14.8,36.2Zm37.44,1.16c-6.53,2.65-10.05.71-13.46-1.16-3.25-1.79-6.34-3.47-11.32-.78V3c4.72-2.85,7.36-1.41,10.67.41s7.3,4,14.11,1.43Z" style="fill: #2c3e50"/>
        <path d="M34.87,17.8h9v11h2.64v1.66H34.87V28.81h2.7V19.27h-2.7Z" style="fill: #2c3e50"/>
        <circle cx="40.7" cy="12.62" r="3.29" style="fill: #2c3e50"/>
      </g>
    </g>
  </g>
</svg>
