<svg xmlns="http://www.w3.org/2000/svg" xmlns:xlink="http://www.w3.org/1999/xlink" viewBox="0 0 145.19 180.37">
  <defs>
    <clipPath id="clip-path">
      <rect width="145.19" height="152.58" style="fill: none"/>
    </clipPath>
    <symbol id="outline_2" data-name="outline 2" viewBox="0 0 257.14 379.74">
      <path d="M128.57,376.74c-22.15,0-42.77-6.85-61.29-22.93-8.88-7.72-26.15-24.12-40-94.93-.59-3-1.16-6-1.73-8.87a8.94,8.94,0,0,0-3-5.28C14.23,237.94,8.35,219,5.33,206.92,2.21,194.44.92,178.32,10,172.79a10.13,10.13,0,0,0,4.82-8.66A281.43,281.43,0,0,1,16.32,135c4.67-45.68,7.44-82.54,37-107.91C79.09,4.89,107.75,3,128.57,3s49.48,1.89,75.27,24.06c29.53,25.37,32.3,62.23,37,107.91a284.24,284.24,0,0,1,1.5,29.16,10.12,10.12,0,0,0,4.81,8.66c9.08,5.53,7.8,21.65,4.68,34.13-3,12.09-8.91,31-17.21,37.81a9,9,0,0,0-3,5.28c-.56,2.9-1.14,5.85-1.73,8.87-13.81,70.81-31.08,87.21-40,94.93C171.33,369.89,150.72,376.74,128.57,376.74Z" style="fill: none;stroke: #3c92ca;stroke-linecap: round;stroke-miterlimit: 10;stroke-width: 6px"/>
      <g>
        <line x1="51.36" y1="178.18" x2="106.36" y2="178.18" style="fill: none;stroke: #3c92ca;stroke-linecap: round;stroke-miterlimit: 10;stroke-width: 4px"/>
        <line x1="150.78" y1="178.18" x2="205.78" y2="178.18" style="fill: none;stroke: #3c92ca;stroke-linecap: round;stroke-miterlimit: 10;stroke-width: 4px"/>
      </g>
    </symbol>
  </defs>
  <title>face 1</title>
  <g id="Layer_2" data-name="Layer 2">
    <g id="Layer_2-2" data-name="Layer 2">
      <g>
        <rect width="145.19" height="152.58" style="fill: #fff"/>
        <g style="clip-path: url(#clip-path)">
          <g>
            <g>
              <path d="M13.06,129.85l0,0Z" style="fill: #f6b7b1"/>
              <path d="M142.09,149.07a.69.69,0,0,0,0,.1Z" style="fill: #f6b7b1"/>
              <path d="M142.36,140.46c.45-15.24-20.05-29.72-10.18-15.12-5,5.49-3.59,8.4-9.74,13.68a6.91,6.91,0,0,0-7.81,1.16,9.51,9.51,0,0,0-2.15-1.68,4.48,4.48,0,0,0-1.61-2.63c.4-3,.13-6.16-2.13-8.58.18-1.16,2.62-15.83-3.8-12.73a3.19,3.19,0,0,0-4.06-2.49c2-5.67-3.06-7.73-5.23-3.14-.21-6-4.39-2.67-4.9,1.77l.08-.71c-3.51,27.7-24.36,20.53-31.8,1.83,4.43-6.29-8.18-2.27-10.83,4.68-2.37-.33-3.89,3.41-5,4.79-2.14.26-2.53,3.21-2.84,4.82-2.22.33-2.74,3-3.16,4.84a4.62,4.62,0,0,0-2.12,1.55c2.11-2.91-.31-8.58-3.35-5.09-2.41.71-5.53,1.76-6.32,4.47a2.31,2.31,0,0,0-1.52.8,1.74,1.74,0,0,0-.2-.67,2.3,2.3,0,0,0-1.34-2.93,5.51,5.51,0,0,0-.52-2.52c3.91-4.18-.65-4.79-3.67-1.77-3,.74-6,6-7.68,8.53l.2-.3c-1.09,1.64-2.82,2.94-3.45,4.86-1.49,1.14-3,3.69-2.32,5.58-1.07,2.61-5.22,11.51,1,10.78.47,2.1,3,4,5.16,3a5.3,5.3,0,0,0,3,2.46c.37,3.18,3.26,6.21,6.63,5.52A5.61,5.61,0,0,0,23,166a7.34,7.34,0,0,0,.6.51c1.44,4.06,4.92,6.67,9.24,5.93,1.54,4.56,6.5,7.33,11,5a6.79,6.79,0,0,0,10.18,1.2c2.87,2.44,6.7,1.83,9.2-.66a6,6,0,0,0,5.38-.64c6.67,9.19,16.52-6.49,16.61-12.5a5.19,5.19,0,0,0,1.11-.38,5.8,5.8,0,0,0,4.73.42c1.69,3.36,6.18,5.08,9.46,2.86,3.46,3,6.9.15,9.57-2.11a5.39,5.39,0,0,0,5.36.39c4.25,1.74,7.6-2.76,10.28-5.22,5.07,2.61,8.33-3.29,10.64-6.72,3,.36,5.19-2.21,5.63-4.89h0C143,146.73,143.37,142.51,142.36,140.46Z" style="fill: #f6b7b1"/>
            </g>
            <g>
              <polygon points="61.4 93.97 61.41 93.97 61.4 93.96 61.4 93.97" style="fill: #f6b7b1"/>
              <path d="M74.21,24.6l0,0Z" style="fill: #f6b7b1"/>
              <path d="M74.25,24.66v0Z" style="fill: #f6b7b1"/>
              <path d="M66.12,28.09l.16,0Z" style="fill: #f6b7b1"/>
              <path d="M39.93,100.08v0Z" style="fill: #f6b7b1"/>
              <path d="M46.19,103.52l-.08.1Z" style="fill: #f6b7b1"/>
              <path d="M111.44,136.34c-3.94-3.94-.3-9.08.31-13.76.36-2.72-.51-4.85-1.57-7.28-1.17-2.7-.85-3.89.55-6.34,1.31-2.3,1.63-4.07.58-6.57s-2.66-4.09-4.64-5.94c-1.78-1.65-.93-4.87-2.17-7a7.7,7.7,0,0,0-5-3.64l.12-.24c0,.35.17-.38.17-.34a1.57,1.57,0,0,0,.18-.64h0v0h0c0-1-1.51.24-1.76.49a5.78,5.78,0,0,0-1.25,2.57,6.56,6.56,0,0,0,.56,5c1.11,2.32-.19,3.72-.72,6a5.47,5.47,0,0,0,3,6.15c.75.4,6.09,1.71,4.44-.66-.41-.59-1.83-.53-2.47-.75a5.21,5.21,0,0,1-2.35-1.6c-1.72-2.28.71-4.68.82-7.06.07-1.56-.77-2.54-1.32-3.9a5.71,5.71,0,0,1,0-3.54c2.4.72,4.14,1.93,4.71,4.53.29,1.28,0,2.62.28,3.89.32,1.48,1.35,2.22,2.49,3.1l-.14-.11c1.75,1.46,4,4.58,3.75,7s-2.53,4-2.52,6.55a22.58,22.58,0,0,0-3.33,7.11c-.71,2.49-1.12,4.72-2.79,6.8-1.44,1.8-3.33,2.84-5,4.36-2,1.79-2,4.2-3.35,6.29-3,4.56-9.74,3.82-14.34,4.86-5.59,1.25-11.1,2.07-16.71.42a17.64,17.64,0,0,0-3.59-2.86c-.78-2.2-.79-4.61-1.17-6.89a43,43,0,0,0,4.69,1.83c2,.55,3.18,2.12,5.25,2.6,4.47,1,9.37,0,13.55-1.68,3.49-1.41,7.68-2.36,10.76-4.6a5.51,5.51,0,0,0,2.39-4c.18-2-.87-3.9-.62-5.88s1.76-3.9,2.93-5.53c.46-.63,3.31-3.69,2.32-4.57-1.39-1.24-6.32,7.45-6.71,8.82-1,3.64,2.13,7.6-1.91,10.08-3.36,2.06-7.87,3.43-11.64,4.53-3.35,1-8.5,2.18-11.84.38-1.47-.79-2.09-1.82-3.81-2.35a24.84,24.84,0,0,1-6-2.55c-1-2.77-2.67-5.08-4.11-7.6-.27-1.12-.46-4.15-1.46-5-.47-.39-1.05-.62-1.48,0s.2,1.08.36,1.57c-1.08.5.39,2.54.7,3.14.66,3.75,1.35,7.38,4.63,9.68.43,2.36.38,4.8.86,7.13-2.39-.36-5.55.18-7.64-1.3-1.09-.78-1.35-2.09-2.13-3.12a15.88,15.88,0,0,0-3.09-2.69A6.66,6.66,0,0,1,40.47,125c.07-1,.77-3.09.22-3.89s-1.12-.49-1.35.42a14.75,14.75,0,0,0,0,7.69c.89,2.4,2.7,3.36,4.48,5,2.12,2,2.33,4.42,5.46,5.37,2.44.75,5.3.14,7.59,1.27a7.43,7.43,0,0,0,4.37,3.28,1,1,0,0,0,.91.26,27,27,0,0,0,4.2.78c-.21,1,3.14,3.52,3.78,4.45A15.18,15.18,0,0,1,72.64,157c.47,5.59.72,11.16.81,16.77,0,.68-.19,1.91.49,2.34s1.18,0,1.42-.59c.37-.91-.31-3.08-.42-4.08-.15-1.37-.26-2.73-.34-4.11-.15-2.75-.22-5.5-.44-8.25a26.71,26.71,0,0,0-.73-6.18c3-3.34,6.46-6.1,9-9.79,3.5-.31,6.81-.67,9.8-2.74a7.93,7.93,0,0,0,3.08-3.67c.59-1.52.86-3.07,2-4.34s2.79-2.07,4-3.26a15.2,15.2,0,0,0,3-3.71c1.76-3.23,2.16-7.07,3.79-10.42.86,2.17,2.09,4.11,2,6.54a25.72,25.72,0,0,1-1.37,6.23c-.65,2.13-1.44,4.59-.63,6.79a6.13,6.13,0,0,0,1.77,2.47c.24.19.67.67,1,.63A.79.79,0,0,0,111.44,136.34ZM79.5,144.65c-2,2.49-4.67,4.35-6.61,6.95a16.71,16.71,0,0,0-4.63-6.29c4.13.13,8.11-.89,12.1-1.79C80.07,143.89,79.78,144.27,79.5,144.65Z" style="fill: #f6b7b1"/>
              <path d="M134.87,128.05a15.88,15.88,0,0,0-4.28-9.13c-2.18-2.28-2.75-5.25-4.25-8-.93-1.67-.8-2.23-.46-4.06a6.6,6.6,0,0,0-.74-4.5c-.87-1.53-2.08-2.82-2.59-4.55s-.11-3.62.07-5.34c.39-3.77.27-7.22-2.54-10-.89-.88-2.26-1.68-2.49-3-.26-1.5.69-2.75,1.62-3.77,2.31-2.51,2.51-5.55.89-8.66s-4.78-4.32-7.23-6.61c-.84-2.36-3-3.93-3.82-6.3-.86-2.63,0-5.58-1.39-8.08s-4-4.16-6-6.21a36.91,36.91,0,0,1-5.89-7.29c1.3.24-.7-1.22-.81-1.27-1.24-1.8-2.14-3.66-3.52-5.37-1.63-2-3.2-4.1-5.6-5.22-3.44-1.61-10.91-.67-11.44,4.13l-.16-.2h0c-6.09-7.89-17.48,1.3-22,6.59a9.25,9.25,0,0,0-2,4c-.62,2.42-2.29,3.71-3.65,5.7a14.73,14.73,0,0,0-2.49,12.59c.43,1.78,1.19,3.57.78,5.42-.49,2.19-2.17,3.79-3,5.82s-.52,3.79-.35,6c.16,1.93-.79,2.9-2.17,4.12-1.86,1.65-2.53,3.74-3.42,6a14.19,14.19,0,0,0-1.27,6.44c.2,2.11,1.14,3.41,0,5.34a12.11,12.11,0,0,0-1.48,6.41,8.37,8.37,0,0,1-2.85,6.77c-1.7,1.62-3.69,2.88-5.4,4.47a5.61,5.61,0,0,0-1.56,6c.7,2.28-.55,3.25-2,5.06-1.48-1.72-7.58,5.1-8.46,6.11a32.7,32.7,0,0,0-3.76,5.34c-.58,1-1.07,2.06-1.6,3.09-.35.67-1.42,2.1-1.42,2.86s.33,1.06,1.07.63S8.61,136.75,9,136a34.23,34.23,0,0,1,3.22-5.27,41.58,41.58,0,0,1,4.67-4.9c1.4-1.29,3.16-2.13,4.53-3.37.8-.2,2.47-2.78,2.82-3.61.49-1.16.11-1.86-.21-3.06-.94-3.48,2.15-5.28,4.41-7.2,2.87-2.45,5.23-4.54,5.41-8.49a20.55,20.55,0,0,1,.33-4.5c.39-1.42,1.62-2.35,2-3.71s-.25-2.8-.41-4.22a10.22,10.22,0,0,1,.31-3.48c.54-2.36,1.51-5.64,3-7.57.83-1.06,2.05-1.74,2.78-2.91.88-1.41.68-2.73.51-4.29-.41-3.79,2-5.86,3.13-9.22C45.72,62,47,63.24,46.19,65c-.68,1.52-1.83,2.71-2.27,4.37a17.93,17.93,0,0,0-.18,5.32c.06,1.78-.79,3-1.77,4.42-1.18,1.71-2,3-1.75,5.11a27.09,27.09,0,0,1,.64,4.65c-.14,3.88-1.45,7.43-.89,11.4l0-.07a12.75,12.75,0,0,1-1.08,6.8c-.95,2.21-3.16,3.49-4.16,5.71-.27.59-.93,6,.07,5.36.34-.22-.05-2.9,0-3.34a7.3,7.3,0,0,1,1.38-3.13c.73-1,1.75-1.79,2.49-2.79a11.19,11.19,0,0,0,1.5-3.32c.83-2.48.52-4.92.94-7.45s1.52-4.81,2.06-7.27c.62-2.82-.52-5.25-.41-8,.78-3.06,3.49-4.69,3-8.21S45,69,47.11,66.09c.23,1.16.67,2.3.81,3.47-2.08,1.24-1.82,5.79-1.49,7.84a14,14,0,0,0,1.48,3.81c.63,1.33.48,1.73,0,3.1-1,2.58-1.41,4.22-.1,6.76,1.46,2.83,1.23,5.19-.05,8.1-.92,2.08-2.44,4.57-4.51,5.67-.48.25-2,.44-2.34.88-.79,1.15,1.57.54,1.94.4,4-1.47,6.52-6.8,7.08-10.73.76,2.75,1.47,5.43-.14,8-.68,1.08-1.54,2-2.28,3.08a9.65,9.65,0,0,0-1.56,4.13c-.63,2.92-2.9,4-5.22,5.43-1.37.88-2.68,1.84-4,2.83-.46.36-2.55,1.57-1.23,2,.54.16,3.69-2.61,4.19-2.94,1.25-.84,2.57-1.59,3.84-2.4a7.38,7.38,0,0,0,3-3c.66-1.33.66-2.84,1.41-4.13,1.61-2.79,4.45-4.23,5.19-7.6a8.68,8.68,0,0,0,0-4c-.36-1.52-1.53-3.45-.94-5,.44,1.62,1.45,2.77,2.25,4.2.67,1.21,1,2.55,1.6,3.82s1.2,2.34,1,3.87c-.07.72-.71,3.14,1,2.34,1-.45,1-3.1.89-4a16.67,16.67,0,0,0-1.4-3.65,21.2,21.2,0,0,0-1.85-4c-.82-1.24-1.95-2.49-1.87-4.08.14-.58.68-1,.13-1.57,1-1.49-1-2.09-2-1.45s-2.17,3.31-2.41,4.54c-.74-1.77-1.71-3-1.08-4.93.55-1.71,1.87-3.34,1.52-5.2-.31-1.69-1.61-3-2-4.69a10.92,10.92,0,0,1,.22-5.56c.09.47.17.94.25,1.41,0,0,0-.1,0-.15.3,2.24.4,7.06,3.63,6.81.63,1.11.59,2.8.89,4a13,13,0,0,0,1.38,3.32,31.86,31.86,0,0,0,3.34,4.93c-1,.95.66,5.29.87,6.41.41,2.18.62,4.4.86,6.61a25.94,25.94,0,0,1-.06,6.41c-.21,1.55-1.5,5.91,0,7.09-.73,1.62.88,3.25,1.92,4.25,1.49,1.41,3.13,2.54,4.15,4.38s1.45,3.21,3.83,3.32c2.09.1,4.33-1.2,6.38-.6,1.42.74,2.29,1.46,4,1.05a8.94,8.94,0,0,0,3.94-2.42c2.77-2.83,1.71-6.86,3-10.24l0,.07c.07-.18.14-.35.22-.53l0,.06c.94-2.05,3-3.5,3.35-5.8.59,0,.37-6.28.52-7.29.38-2.66,1.09-5.24,1.41-7.92a57.45,57.45,0,0,1,1.2-7.37c.18-.71,1.21-3.35-.57-3.13.82-1.45,1.34-3,2.06-4.51s1.38-1.19,2.47-2.27,1.28-3.53,1.49-5.09a11.83,11.83,0,0,1,1.28-3.91c1.2-2.51,4.63-12.4-1.39-11-.72-2.84-.21-5.59-1.71-8.26-1.29-2.28-2-4.75-3.23-7.06-2.36-4.4-5.88-10.15-10.15-13,2.41-.25,5.1,1.23,6.64,3s1.62,4.47,2.63,6.59a7.54,7.54,0,0,0,2,2.68c1.27,1,2.93,1.21,4.23,2.15,2.39,1.73,2,4.32,2.38,6.91,0,0,0-.06,0-.09a9.46,9.46,0,0,0,4.41,6.46c.87.43,1.33.48.68-.46s-2-1.52-2.71-2.46c-2.79-3.53-.46-8.91-4.85-11.37-1.61-.91-3.36-1.15-4.57-2.69S92.51,37.92,92,36c-1.1-3.74-5.57-6.22-9.38-5.43a12,12,0,0,0-5.27-1.44c.46-.18.17-.83.19-1.2a2.75,2.75,0,0,1,.88-2.13c1.48-1.26,4.44-1.39,6.15-.66A13,13,0,0,1,88.26,28a19.87,19.87,0,0,0,5.07,3.5c2.6,5.11,7,8.66,11,12.56,2.4,2.32,3.06,4.33,3.21,7.63s1.74,4.91,3.49,7.36c-.36.31.56,1,.71,1.16a9.47,9.47,0,0,1,.39,7.79c-1.29,3.06-3.91,4.82-5.54,7.59-1.43,2.42-2.21,4.77-.67,7.33s4.34,4.26,6.18,6.58.55,5.5,2.73,7.61,5.49,3.2,3.87,6.73c-.65,1.43-1.77,2.65-1.58,4.32s1.37,2.74,2.48,3.74c2.21,2,4.56,3.25,5.47,6.28a24.08,24.08,0,0,0,1.39,4.64,5.45,5.45,0,0,1,.53,4.32c-1.14,3.49-4.76,5.68-6.4,8.88,1.82-4.78,5-10.16,2.18-15.16-1.11-2-2.69-3.28-4.11-5a9.35,9.35,0,0,1-1.52-2.94c-.22-.61-.49-2.61-1.32-2.73-.24-.8-1.2-2.73-1.6-.78-.21,1,.94,3.23,1.2,4.27a6.86,6.86,0,0,1,.15,3.54c-.39,1.37-1.39,2.44-1.69,3.85-.55,2.5.43,5,.82,7.47a13.21,13.21,0,0,1-.88,7.95c-.59,1.18-1.89,2.38-2.27,3.6s.47,2.14,1.7,1.59,2.19-2.82,2.7-3.88a12.64,12.64,0,0,0,1.28-4.49c.27-3.21-.77-6.09-1.27-9.19a7.5,7.5,0,0,1,.15-3.85,11.78,11.78,0,0,0,1.13-3.7c2,3,5.33,5.26,5,9.3a26,26,0,0,1-1.84,6.18c-.35,1-.78,2-1,3-.11.46-.49,1.13.05,1.48a.7.7,0,0,0,1-.16c-.19.44-1.37,3.4.21,2.71.57-.25,1.31-2.85,1.83-3.57,1.91-2.63,5-5.16,5.8-8.42a6.82,6.82,0,0,0-.8-4.87,11.53,11.53,0,0,1-1-3.24c-.67-3.1-2.41-4.93-4.84-6.8l.12.09c-1.27-1-3.24-2.38-3.45-4.13s1.27-3,1.76-4.43a5.06,5.06,0,0,0-1-4.73c-1.17-1.48-3.55-2.17-4.08-4.12-.23-3.33.45-5.91-2.13-8.58-1.8-1.85-5.78-4-6-6.8-.23-3.39,3.36-6,4.94-8.48a10.33,10.33,0,0,0,1.41-9.29c2.93,2.49,6.23,4.46,6.67,8.62.16,1.55.14,2.84-.92,4-1.2,1.36-2.37,2.36-2.58,4.29-.4,3.56,3.74,4.43,4.77,7.41,1.27,3.69-.56,7.6,0,11.31.51,3.13,3.84,5.3,3.64,8.54-.09,1.51-1,2.69-.46,4.22s1.66,3,2.24,4.58a13.37,13.37,0,0,0,2.12,4.15c1.07,1.29,2.51,2.32,3.33,3.81,1.37,2.52,2.52,6.75.92,9.35a38.53,38.53,0,0,1-3.55,4.33c-.4.47-1.94,1.81-1.91,2.42.06,1.25.85.43,1.39-.1C131.66,135.92,135.53,132.16,134.87,128.05ZM47.73,60.43a1.48,1.48,0,0,1,0-.21c.5-1.93,2-3.18,2-5.35s-.67-3.41.79-5.23A77.06,77.06,0,0,0,51,62c-.72-.81-2.15-2.46-3.18-1.12C47.79,60.72,47.75,60.58,47.73,60.43ZM90.06,91a59.16,59.16,0,0,0-.65,8.63c-.12,2.52-.3,5-.25,7.54-1.48.24-.87,3.4-1.06,4.39-.28,1.5-1.44,2.13-2.26,3.32-2,2.93-1.43,6.27-2.46,9.49-.71,2.21-3.41,5.27-5.94,4a6.49,6.49,0,0,0-3.92-1c-1.4.06-3.85.89-5.1.1,0,0-.11-.1-.16-.16a19.67,19.67,0,0,0-3.36-4.4c-1.25-1.11-2.91-2-3.73-3.51l-.06-.2c0-.52.12-.9-.34-1.28a.89.89,0,0,0,.08-.51,42.54,42.54,0,0,0-.13-5.75,48.07,48.07,0,0,0-.5-6.46c-.63-4.23-1.85-8.56-2.07-12.8,2.15,2.49,4.12,5.31,6.72,7.38,2.91,2.32,7.87,2.14,11.43,2,2.57-.1,5.89-.91,7.77-2.78,2.59-2.57,4.43-6.15,6.28-9.27C90.24,90.18,90.14,90.61,90.06,91Zm-11.83-61a15.48,15.48,0,0,1,3.18,1,2.21,2.21,0,0,0,.34.18c2.17,1.12,4.08,4.15,5.41,6.17,1.62,2.46,3.14,5.11,4.6,7.67.76,1.32,1.22,2.73,1.86,4.09s1.55,2.26,2.15,3.49c.42.87,1.07,8.83,2.46,7.79,1.22.58,1.93-1,2.58.68.73,1.83-.31,4-.91,5.74-.7,1.95-1.92,3.85-2.34,5.88-.36,1.72-.07,4.27-1.48,5.59-1,.66-1.66.7-2.29,1.81C93,81.48,92.65,83,92,84.34a49.24,49.24,0,0,1-3.34,5.82c-1.27,2-2.34,4.16-3.77,6a11.29,11.29,0,0,1-4.17,3.24,24.92,24.92,0,0,1-10.8.61,7.91,7.91,0,0,1-4.07-1.33A29.24,29.24,0,0,1,61.43,94a52,52,0,0,1-5.78-7.62,22.41,22.41,0,0,1-2.09-5.95c-.42-1.65-.79-1.7-2.14-2.14-1.69-.93-1.77-4.89-2.1-6.66-.42-2.32-1.18-4.67-1.43-7a4.36,4.36,0,0,0,.17-2.55,2.14,2.14,0,0,1,.54-.81.13.13,0,0,1,.1,0c.67.15,2,2.38,2.55,1.63,1,.67.37-2.36.35-2.69-.09-1.35,0-2.69,0-4,.08-3.11.15-6.23.43-9.33a9.79,9.79,0,0,0,.27-1.33c.5-1.51,1.26-3,1.89-4.47v0l0-.1h0c.42-1,.26-2.1.79-3.05.62-1.13,2-1.85,3-2.55A26.16,26.16,0,0,1,64.87,32c1.79-.59,3.62-1.06,5.43-1.58C73,29.66,75.51,29.89,78.23,30.08ZM52.51,42.48c.06-1.94.77-2.83,1.63-4.45-.33.84-.24,1.7-.61,2.55C53.25,41.24,52.81,41.83,52.51,42.48ZM92.48,30c-2.94-1.57-4.84-5-8.1-6a8.67,8.67,0,0,0-5.92.72c-1,.55-2.93,3.48-1.46,4.33a19.06,19.06,0,0,0-5.28,0c-2.11.46-4.24,1.31-6.31,2-3.58,1.13-8.77,2.95-10.93,6.29a4.73,4.73,0,0,0,.2-2h0c.91-1.66,3.27-2.87,4.86-3.78a18.72,18.72,0,0,1,6.61-2.25,17.48,17.48,0,0,1,3.38-.24c.43,0,2.61.55,2-.65s-5.82-.3-6.86-.12c-3.59.61-9.21,2.8-11,6.28-.39.75-.32,1.51-.79,2.26a14.62,14.62,0,0,0-1.7,2.42c-.75,1.92-.09,4.08-.14,6.07a8.65,8.65,0,0,0-.45,2.36c-1.19,2.15-2.78,2.51-2.91,5.23-.12,2.43-.76,3.53-1.77,5.68.27-2.56-1-5.16-1.34-7.68-.38-2.83.48-5.2,1.75-7.69,1-2,2.51-3.3,3.72-5.09s1.06-3.9,2.28-5.64a29.37,29.37,0,0,1,5.22-5.11,20.88,20.88,0,0,1,6.09-4c2-.76,4.6-1.35,6.75-.75A5.72,5.72,0,0,1,72.87,24c.13.12,1.64,2.27,1.7,1.21.63.47.9-.94,1.12-1.3A4.56,4.56,0,0,1,78.14,22a11,11,0,0,1,6-.55,21.38,21.38,0,0,1,8.5,8.72Z" style="fill: #f6b7b1"/>
              <path d="M29.89,137.57c-1.18-2.64-4.52-4.31-4.94-7.25-.1-.68,1.05-4.24.35-4.1-1.2.25-1.39,3.15-1.28,4.11.39,3.28,4,4.74,5,7.69a2.45,2.45,0,0,1,.11,1.86c0,.08-1,1.46,0,1.38C30.65,141.14,30.26,138.41,29.89,137.57Z" style="fill: #f6b7b1"/>
              <path d="M28.19,122.28a8.17,8.17,0,0,1,2.43-2.61c.13-.1,2.4-1.56,1.6-1.94-1.08-.52-4.85,3.37-5,4.58-.26,1.52,4.45,5.53,5,4.82C33.46,125.5,27.46,124.17,28.19,122.28Z" style="fill: #f6b7b1"/>
              <path d="M37.35,130c.08-.7.63-3.61,0-4s-.76,3-.79,3.34c-.25,3-2.61,3.5-5.29,4-.53-.4-.94.47-.51.87s2.14-.28,2.66-.44C35.54,133.1,37.1,132.44,37.35,130Zm-6.1,3.36Z" style="fill: #f6b7b1"/>
              <path d="M40.71,142.69c-.14-1.9-1.7-2.66-2.27-4.3-.41-1.2,0-2.67.25-3.87a13.24,13.24,0,0,0,.53-4.33c-.06-.35,0-1.55-.78-1-.37.27-.12,1.53-.15,2-.19,2.95-2,6-.28,8.74a8.93,8.93,0,0,1,1.5,3.44c.1.4.1,1.41.86,1.14S40.75,143.16,40.71,142.69Z" style="fill: #f6b7b1"/>
              <path d="M106.59,123.24c-1.07,0-2.83,3.44-3.35,4.29a12.47,12.47,0,0,0-2,5.68,13.8,13.8,0,0,0,1,5.31c.3.82,1.34,4.48,2.48,4.42,1.74-.1-.46-3.56-.76-4.33a12.21,12.21,0,0,1-1.09-5.83,13.44,13.44,0,0,1,2.37-5.42C105.57,126.84,108.39,123.24,106.59,123.24Z" style="fill: #f6b7b1"/>
              <path d="M83.45,85.24a.71.71,0,0,0-.32,0c-.89-.84-3.95-.89-5.16-1.1-2.09-.37-3.43-.57-5.42.15-1.65-.57-2.28-.86-4.13-.43-1.69.4-4.68,1-5.94,2.24-.69.38-.65,1.18.15.72a.87.87,0,0,0,.72-.22c3.09,1,4.95,4.48,8.23,5.14a8.6,8.6,0,0,0,5.71-1c1.93-1.07,2.83-3,4.58-4.12.52-.07,1.62.06,1.71-.65A.42.42,0,0,0,83.45,85.24Zm-15.89-.15c1.56-.49,2.69-.86,4.27-.22l-.11,0c1.31.56,2.11-.46,3.48-.34,2.09.18,4.13.91,6.2,1.23-5.1.91-10-.22-15.07-.23Zm13.2,1.74c-2.44,2.24-4.62,4-8.16,3.69-2.93-.28-5.31-2.91-7.9-4.19a12.72,12.72,0,0,1,4.6.14h0a45.35,45.35,0,0,0,11.58.28Z" style="fill: #f6b7b1"/>
              <path d="M65.66,73.6c.09-.32,1.49-3,.38-2.12a4.1,4.1,0,0,0-.65,4.41c.28.39,2.58,2,2.59.82,0-.45-1.59-.93-1.86-1.22A1.81,1.81,0,0,1,65.66,73.6Z" style="fill: #f6b7b1"/>
              <path d="M78.8,76.07l-.08.06c-.28.51-1.32.53-1.11,1.19s2-.61,2.24-1A2.89,2.89,0,0,0,80,73.78c-.19-.58-1-2.52-1.56-2.66-.3-.53-1,.2-.41.45.14.42.35.82.47,1.26.16.25.26.48.46.75l0,0a1.74,1.74,0,0,1,.32,1.08v-.1A2,2,0,0,1,78.8,76.07Z" style="fill: #f6b7b1"/>
              <path d="M68.09,75.66a.63.63,0,0,0,.57-.11l.62.19c.71,1.26,1.26-.4.38-.81C68.82,73.25,66.72,75.09,68.09,75.66Z" style="fill: #f6b7b1"/>
              <path d="M73.85,76c.54.15.55-.73.71-1l.06,0c.08.45,1.11.81,1.3.28.65-.52,0-1.19-.58-1.28a.73.73,0,0,0-1.11.24C73.86,74.46,73.18,75.84,73.85,76Z" style="fill: #f6b7b1"/>
              <path d="M57.25,53.89a9.51,9.51,0,0,1,5.64,0c1.33.35,2.4,1.56,3.77,1.65,1.31.33.46-.88-.15-1.19A11.35,11.35,0,0,0,63,53.25h0a14.53,14.53,0,0,0-5.26,0C56,53.68,54.12,55.08,57.25,53.89Z" style="fill: #f6b7b1"/>
              <path d="M80,53h0Z" style="fill: #f6b7b1"/>
              <path d="M76.16,54.84c-.88.65-.29,1.73.64.86a15.46,15.46,0,0,1,6-2.59c.61-.1,6.16.49,5.85,1,.26-.45-3.28-1.81-3.71-1.89A8.52,8.52,0,0,0,80,53h0A18.16,18.16,0,0,0,76.16,54.84Z" style="fill: #f6b7b1"/>
              <path d="M79.92,53l0,0Z" style="fill: #f6b7b1"/>
              <path d="M63,62.07c.35-.13,3.31-1,3-1.31.46-.34-4.23-2.66-5.24-2.54-.7.08-5.83,2.34-5.11,3.07.14.14.2-.1.29-.14.07.67,2.18,1.14,2.69,1.25A8.35,8.35,0,0,0,63,62.07Zm-3.53,0c-1.05-.17-2.22-1.24-3.2-1.28a6.82,6.82,0,0,1,2.11-1.38c-1,.88.67,2.48,1.5,2.7ZM60.64,59c0,.43,0,1.35-.58,1.49a.77.77,0,0,1-.26,0l0,0h0c-.25-.36.13-1.21-.19-1.42.37-.06.75-.11,1.13-.14A.28.28,0,0,0,60.64,59Zm1.27,2.9-.4.07a2.15,2.15,0,0,0,1-2.78,18.38,18.38,0,0,0,2.86,1.53h0A34.52,34.52,0,0,1,61.91,61.9Z" style="fill: #f6b7b1"/>
              <path d="M88.3,59.81c-2.48-2-5.24-2.4-7.75-.42h0l0,0h0a13.51,13.51,0,0,0-2,1.4c0,.67,5.2,1.39,5.94,1.36a9.81,9.81,0,0,0,4.29-1.38C89.55,61.2,88.41,59.9,88.3,59.81Zm-6.15-.41,0,.14a1.81,1.81,0,0,1,0-.23l0,0A.5.5,0,0,1,82.15,59.4Zm.09.69,0-.07a.44.44,0,0,1,0-.1A.58.58,0,0,0,82.24,60.09Zm3.41-1.3.11.06a.28.28,0,0,0-.14.16.84.84,0,0,0-.47-.38ZM83,58.39c.21,0,.41,0,.63,0-.35.37.18.65.48.75s.27.72,0,.95a.87.87,0,0,1-.67,0,1.2,1.2,0,0,1-.45-.9c.13-.26.26-.7-.22-.74Zm-.65,3c-1.1-.26-2.16-.56-3.28-.78a11.55,11.55,0,0,0,1.87-1.22l0,0a5.62,5.62,0,0,1,1.67-.94.31.31,0,0,0-.15.12c-1.84.09.09,2.63.57,2.94Zm5.64-1a8.52,8.52,0,0,1-3.48,1.28c.91-.2,2.16-1.54,1.79-2.58a13,13,0,0,1,1.86,1.22Z" style="fill: #f6b7b1"/>
              <path d="M80.55,59.39h0Z" style="fill: #f6b7b1"/>
              <path d="M83.3,62.05h0Z" style="fill: #f6b7b1"/>
              <path d="M50.32,64.81v0Z" style="fill: #f6b7b1"/>
              <path d="M51.76,72.67c-.89-.72-.64-3-1.08-4.13-.52-1.35-1.33-2.75-.8-4.23a.76.76,0,0,1,.44.5h0a.59.59,0,0,0,0,.08l0,0c1.15,2.87,1.16-1.44-.63-1.17-1.39.52-.21,3.53.13,4.32v0a9.7,9.7,0,0,1,.74,2.1,18,18,0,0,0,.16,2.09C51.13,73.43,53.21,73.77,51.76,72.67ZM49.89,64.3h0Z" style="fill: #f6b7b1"/>
              <path d="M95.55,74.7c1.06,1.17,1.39-1.86,1.37-2.35,0-.67-.32-1.29-.29-2s.82-2.11.56-2.65c-.72-1.5-1.39,1.84-1.42,2.33-.09,1.37.54,2.46.2,3.86C95.68,73.34,94.82,73.9,95.55,74.7Z" style="fill: #f6b7b1"/>
            </g>
          </g>
        </g>
        <use width="257.14" height="379.74" transform="translate(33.6 6.76) scale(0.3)" xlink:href="#outline_2"/>
      </g>
    </g>
  </g>
</svg>
