<svg xmlns="http://www.w3.org/2000/svg" xmlns:xlink="http://www.w3.org/1999/xlink" viewBox="0 0 286.32 326.94">
  <defs>
    <clipPath id="clip-path" transform="translate(70.41 27.37)">
      <rect width="145.19" height="152.58" style="fill: none"/>
    </clipPath>
    <symbol id="outline_2" data-name="outline 2" viewBox="0 0 257.14 379.74">
      <path d="M128.57,376.74c-22.15,0-42.77-6.85-61.29-22.93-8.88-7.72-26.15-24.12-40-94.93-.59-3-1.16-6-1.73-8.87a8.94,8.94,0,0,0-3-5.28C14.23,237.94,8.35,219,5.33,206.92,2.21,194.44.92,178.32,10,172.79a10.13,10.13,0,0,0,4.82-8.66A281.43,281.43,0,0,1,16.32,135c4.67-45.68,7.44-82.54,37-107.91C79.09,4.89,107.75,3,128.57,3s49.48,1.89,75.27,24.06c29.53,25.37,32.3,62.23,37,107.91a284.24,284.24,0,0,1,1.5,29.16,10.12,10.12,0,0,0,4.81,8.66c9.08,5.53,7.8,21.65,4.68,34.13-3,12.09-8.91,31-17.21,37.81a9,9,0,0,0-3,5.28c-.56,2.9-1.14,5.85-1.73,8.87-13.81,70.81-31.08,87.21-40,94.93C171.33,369.89,150.72,376.74,128.57,376.74Z" style="fill: none;stroke: #3c92ca;stroke-linecap: round;stroke-miterlimit: 10;stroke-width: 6px"/>
      <g>
        <line x1="51.36" y1="178.18" x2="106.36" y2="178.18" style="fill: none;stroke: #3c92ca;stroke-linecap: round;stroke-miterlimit: 10;stroke-width: 4px"/>
        <line x1="150.78" y1="178.18" x2="205.78" y2="178.18" style="fill: none;stroke: #3c92ca;stroke-linecap: round;stroke-miterlimit: 10;stroke-width: 4px"/>
      </g>
    </symbol>
  </defs>
  <title>face 2</title>
  <g id="Layer_2" data-name="Layer 2">
    <g id="Layer_2-2" data-name="Layer 2">
      <g>
        <rect x="70.56" y="27.37" width="145.19" height="152.58" style="fill: #fff"/>
        <g style="clip-path: url(#clip-path)">
          <g>
            <g>
              <path d="M-48.93,196.57l0-.08Z" transform="translate(70.41 27.37)" style="fill: #f6b7b1"/>
              <path d="M214.11,235.76,214,236Z" transform="translate(70.41 27.37)" style="fill: #f6b7b1"/>
              <path d="M214.66,218.2c.92-31.06-40.87-60.6-20.74-30.82-10.29,11.2-7.33,17.13-19.87,27.88a14.06,14.06,0,0,0-15.91,2.38,19.35,19.35,0,0,0-4.38-3.43,9.19,9.19,0,0,0-3.3-5.38c.83-6.17.28-12.54-4.33-17.47.36-2.37,5.34-32.27-7.75-26q-1.81-6.21-8.28-5.09c4.16-11.56-6.24-15.75-10.66-6.4-.44-12.25-8.94-5.43-10,3.61.06-.48.11-1,.17-1.45-7.16,56.47-49.66,41.86-64.84,3.74,9-12.82-16.67-4.64-22.08,9.53-4.83-.67-7.93,7-10.26,9.76-4.36.55-5.15,6.55-5.79,9.85-4.51.66-5.57,6.21-6.43,9.86A9.3,9.3,0,0,0-4.1,202c4.29-5.94-.63-17.5-6.84-10.39-4.9,1.45-11.27,3.61-12.88,9.12a4.76,4.76,0,0,0-3.1,1.62,3.81,3.81,0,0,0-.4-1.36q1-4.23-2.74-6a11,11,0,0,0-1.06-5.13c8-8.52-1.33-9.77-7.48-3.61-6,1.51-12.22,12.32-15.66,17.39.13-.21.27-.41.41-.62-2.23,3.35-5.76,6-7,9.9-3,2.34-6,7.54-4.73,11.39-2.19,5.33-10.63,23.46,2,22,1,4.27,6.09,8.17,10.52,6.08a10.9,10.9,0,0,0,6.2,5c.76,6.49,6.65,12.65,13.51,11.26a11.69,11.69,0,0,0,4.79,1.54,11.06,11.06,0,0,0,1.22,1c2.93,8.28,10,13.61,18.82,12.09,3.15,9.3,13.27,14.94,22.52,10.25,4.67,7.14,14.43,7.88,20.74,2.44,5.86,5,13.66,3.73,18.76-1.34a12.22,12.22,0,0,0,11-1.32C78,312.08,98.09,280.12,98.28,267.86a10.42,10.42,0,0,0,2.26-.78,11.78,11.78,0,0,0,9.65.87c3.43,6.85,12.59,10.35,19.28,5.84,7.05,6.19,14.07.3,19.51-4.32a11,11,0,0,0,10.93.79c8.67,3.55,15.48-5.61,21-10.63,10.33,5.31,17-6.7,21.69-13.71,6,.73,10.58-4.49,11.47-9.95h0C216,231,216.72,222.38,214.66,218.2Z" transform="translate(70.41 27.37)" style="fill: #f6b7b1"/>
            </g>
            <g>
              <path d="M49.62,123.42h0l0,0Z" transform="translate(70.41 27.37)" style="fill: #f6b7b1"/>
              <path d="M75.72-18a.27.27,0,0,0,.07.08A.27.27,0,0,1,75.72-18Z" transform="translate(70.41 27.37)" style="fill: #f6b7b1"/>
              <path d="M75.81-17.88l0,0Z" transform="translate(70.41 27.37)" style="fill: #f6b7b1"/>
              <path d="M59.23-10.88a1.88,1.88,0,0,0,.33,0Z" transform="translate(70.41 27.37)" style="fill: #f6b7b1"/>
              <path d="M5.85,135.89s0-.09,0-.13S5.85,135.85,5.85,135.89Z" transform="translate(70.41 27.37)" style="fill: #f6b7b1"/>
              <path d="M18.6,142.89l-.16.21Z" transform="translate(70.41 27.37)" style="fill: #f6b7b1"/>
              <path d="M151.63,209.8c-8-8-.61-18.52.63-28.05.73-5.54-1-9.88-3.2-14.85-2.39-5.49-1.74-7.91,1.12-12.92,2.67-4.69,3.33-8.28,1.19-13.39-2.22-5.27-5.43-8.34-9.47-12.1-3.62-3.37-1.89-9.93-4.43-14.33-2.44-4.25-5.73-6.08-10.26-7.44l.25-.49c.06.72.33-.76.33-.68a3.18,3.18,0,0,0,.37-1.31h0v0h0c-.08-2-3.08.49-3.58,1a11.61,11.61,0,0,0-2.55,5.23c-1,3.91-.56,6.7,1.14,10.27,2.27,4.73-.4,7.59-1.47,12.25-1.23,5.31,1.46,10.06,6.15,12.55,1.55.81,12.42,3.48,9.07-1.35-.84-1.21-3.74-1.08-5-1.54a10.45,10.45,0,0,1-4.79-3.25c-3.49-4.65,1.45-9.55,1.68-14.4.14-3.18-1.58-5.17-2.7-8-.93-2.32-.56-4.82,0-7.22,4.88,1.47,8.44,3.94,9.6,9.25.58,2.61,0,5.33.56,7.91.65,3,2.76,4.55,5.09,6.33l-.29-.22c3.57,3,8.07,9.33,7.65,14.16s-5.17,8.23-5.14,13.37a45.66,45.66,0,0,0-6.78,14.49c-1.46,5.06-2.29,9.62-5.69,13.86-3,3.66-6.79,5.79-10.22,8.88-4.06,3.66-4,8.58-6.84,12.83-6.15,9.29-19.85,7.8-29.22,9.9-11.41,2.56-22.63,4.23-34.08.86a35.8,35.8,0,0,0-7.32-5.84c-1.58-4.47-1.6-9.38-2.38-14a85.4,85.4,0,0,0,9.57,3.73c4,1.13,6.47,4.32,10.69,5.3,9.12,2.14,19.11,0,27.63-3.42,7.12-2.87,15.65-4.8,21.93-9.37a11.2,11.2,0,0,0,4.87-8.23c.38-4.07-1.76-7.94-1.26-12,.52-4.19,3.59-8,6-11.28.93-1.28,6.74-7.53,4.72-9.33-2.83-2.51-12.88,15.19-13.68,18-2.14,7.43,4.35,15.5-3.89,20.55-6.85,4.2-16,7-23.73,9.23-6.82,2-17.33,4.45-24.13.79-3-1.62-4.27-3.72-7.76-4.79a50.62,50.62,0,0,1-12.31-5.21c-1.95-5.64-5.44-10.35-8.37-15.49-.55-2.29-.94-8.46-3-10.12-1-.78-2.15-1.26-3,0-.76,1.12.4,2.21.73,3.2-2.21,1,.79,5.19,1.42,6.41,1.34,7.64,2.76,15,9.45,19.74.87,4.8.76,9.78,1.75,14.53-4.87-.74-11.31.38-15.57-2.66-2.23-1.58-2.75-4.26-4.35-6.36s-4.12-3.79-6.31-5.48C8.2,196.07,6.57,192,7,186.62c.14-1.94,1.57-6.3.44-7.92s-2.27-1-2.75.84c-1.16,4.5-1.54,11.26.09,15.68,1.8,4.89,5.5,6.86,9.13,10.23,4.32,4,4.74,9,11.12,10.94,5,1.52,10.81.28,15.47,2.58a15.18,15.18,0,0,0,8.92,6.69,2,2,0,0,0,1.85.54,57.85,57.85,0,0,0,8.56,1.59c-.41,2.09,6.42,7.17,7.72,9.07a31.11,31.11,0,0,1,5,15.12c1,11.4,1.47,22.74,1.65,34.2,0,1.38-.38,3.88,1,4.77s2.41,0,2.9-1.2c.76-1.88-.62-6.3-.84-8.33-.31-2.8-.55-5.56-.71-8.37-.31-5.61-.45-11.23-.9-16.83-.34-4.23-.16-8.52-1.49-12.59,6.05-6.81,13.17-12.45,18.45-20,7.15-.64,13.89-1.37,20-5.58a16.25,16.25,0,0,0,6.29-7.5c1.2-3.1,1.75-6.24,4-8.84s5.68-4.22,8.21-6.64a30.93,30.93,0,0,0,6.05-7.57c3.59-6.58,4.42-14.4,7.72-21.25,1.76,4.43,4.28,8.4,4.06,13.35-.19,4.29-1.54,8.6-2.79,12.69-1.32,4.34-2.94,9.36-1.28,13.85a12.54,12.54,0,0,0,3.61,5c.49.4,1.36,1.36,2.08,1.29A1.63,1.63,0,0,0,151.63,209.8ZM86.51,226.74C82.34,231.83,77,235.61,73,240.92c-2.1-5.29-5.27-9-9.42-12.82,8.4.26,16.52-1.83,24.65-3.67Z" transform="translate(70.41 27.37)" style="fill: #f6b7b1"/>
              <path d="M199.4,192.89c-1.24-7.49-3.51-13.09-8.74-18.59-4.43-4.67-5.59-10.71-8.65-16.22-1.89-3.4-1.63-4.53-.94-8.28a13.37,13.37,0,0,0-1.52-9.16c-1.77-3.12-4.23-5.77-5.28-9.29s-.21-7.37.16-10.88c.79-7.69.54-14.73-5.18-20.4-1.81-1.8-4.61-3.43-5.08-6.12-.53-3.07,1.4-5.61,3.3-7.69,4.7-5.13,5.11-11.31,1.81-17.66s-9.74-8.79-14.74-13.46c-1.71-4.83-6.18-8-7.78-12.86-1.76-5.36.09-11.36-2.84-16.46s-8.15-8.5-12.22-12.66C127.17,8.52,123,4,119.71-1.71c2.65.49-1.44-2.48-1.66-2.59-2.54-3.67-4.35-7.47-7.18-10.94-3.32-4.06-6.51-8.35-11.4-10.65-7-3.28-22.25-1.37-23.34,8.42-.11-.13-.21-.27-.32-.41v0C63.42-33.93,40.19-15.21,31-4.41a18.62,18.62,0,0,0-4,8.07c-1.26,4.94-4.67,7.57-7.45,11.63C14,23.45,12.22,31.45,14.52,41c.87,3.62,2.42,7.26,1.58,11-1,4.46-4.42,7.72-6.11,11.87-1.77,4.35-1.07,7.72-.71,12.21C9.59,80,7.65,82,4.84,84.49c-3.78,3.35-5.15,7.62-7,12.23-1.62,4.11-3,8.64-2.58,13.13.41,4.29,2.32,6.94.08,10.88-2.52,4.44-2.91,8-3,13.07-.14,6-1.44,9.62-5.81,13.8-3.46,3.3-7.53,5.88-11,9.11a11.42,11.42,0,0,0-3.19,12.23c1.44,4.65-1.11,6.63-4.11,10.32-3-3.5-15.44,10.41-17.25,12.46a66.62,66.62,0,0,0-7.66,10.88c-1.18,2.05-2.18,4.2-3.26,6.3-.71,1.37-2.89,4.29-2.9,5.84,0,1.72.68,2.17,2.18,1.28,1.32-.77,2.65-5.37,3.45-6.94a67.77,67.77,0,0,1,6.57-10.73,84,84,0,0,1,9.51-10c2.85-2.63,6.44-4.33,9.23-6.86,1.65-.42,5-5.68,5.75-7.36,1-2.36.24-3.8-.42-6.24-1.92-7.1,4.39-10.77,9-14.68,5.87-5,10.67-9.26,11-17.31.14-3-.12-6.23.68-9.17s3.31-4.79,4.17-7.57-.49-5.7-.82-8.59a21.06,21.06,0,0,1,.63-7.11C-.81,98.65,1.18,92,4.27,88c1.7-2.17,4.18-3.56,5.67-6,1.79-2.86,1.39-5.55,1-8.74-.84-7.72,4-11.94,6.38-18.8.29,3.61,2.88,6.22,1.25,9.9C17.22,67.55,14.87,70,14,73.36c-1,3.72-.49,7.1-.37,10.84S12,90.3,10,93.22c-2.39,3.48-4.15,6-3.55,10.41.44,3.21,1.41,6.21,1.29,9.48-.28,7.92-2.94,15.15-1.81,23.24l0-.15a26,26,0,0,1-2.2,13.87c-1.94,4.51-6.45,7.11-8.5,11.63-.55,1.22-1.88,12.29.16,10.94.69-.45-.12-5.91,0-6.8a14.68,14.68,0,0,1,2.8-6.4c1.5-2.07,3.57-3.64,5.09-5.68A23.4,23.4,0,0,0,6.32,147c1.68-5.05,1-10,1.9-15.19s3.1-9.8,4.21-14.82c1.27-5.75-1.07-10.71-.84-16.3,1.59-6.25,7.12-9.57,6-16.75-1.06-7-1.51-11.4,2.86-17.34.46,2.36,1.36,4.68,1.64,7.07-4.23,2.52-3.7,11.81-3,16,.46,2.92,1.8,5.15,3,7.76s1,3.52-.07,6.32c-1.93,5.25-2.88,8.61-.21,13.79,3,5.77,2.52,10.57-.1,16.5-1.88,4.24-5,9.33-9.18,11.56-1,.52-4.16.9-4.78,1.8-1.61,2.34,3.2,1.1,4,.82,8.11-3,13.3-13.87,14.44-21.89,1.55,5.61,3,11.08-.29,16.38-1.38,2.21-3.13,4.16-4.64,6.27-2,2.82-2.49,5.18-3.19,8.43-1.28,5.94-5.91,8.05-10.63,11.07C4.63,170.25,2,172.2-.66,174.23c-.93.73-5.21,3.2-2.51,4,1.11.33,7.53-5.32,8.54-6,2.56-1.72,5.24-3.24,7.84-4.89a15.08,15.08,0,0,0,6-6.18c1.35-2.72,1.35-5.79,2.88-8.42,3.28-5.69,9.07-8.61,10.57-15.5a17.72,17.72,0,0,0,0-8.13c-.75-3.1-3.14-7-1.93-10.23.91,3.3,3,5.64,4.58,8.56a83.45,83.45,0,0,1,3.28,7.8c1.22,2.8,2.44,4.76,2.12,7.88-.15,1.47-1.46,6.4,2,4.77,2-.92,2.09-6.33,1.83-8.07-.39-2.63-1.89-5-2.85-7.45a43.46,43.46,0,0,0-3.78-8.19c-1.67-2.53-4-5.07-3.81-8.31.28-1.19,1.39-2,.26-3.2,2-3-2.14-4.28-4.18-3s-4.42,6.74-4.91,9.25c-1.5-3.6-3.48-6.06-2.2-10,1.12-3.49,3.82-6.8,3.11-10.6-.65-3.44-3.28-6.12-4-9.57a22.14,22.14,0,0,1,.44-11.34c.18,1,.35,1.92.51,2.89,0-.11,0-.21,0-.32.6,4.58.81,14.4,7.4,13.89,1.28,2.28,1.2,5.7,1.81,8.21a27,27,0,0,0,2.81,6.78,65.54,65.54,0,0,0,6.82,10c-2,1.94,1.35,10.78,1.77,13.06.84,4.46,1.26,9,1.75,13.48a52.53,52.53,0,0,1-.13,13.08c-.41,3.15-3,12,0,14.45-1.49,3.3,1.79,6.62,3.92,8.65,3,2.88,6.38,5.19,8.45,8.94s3,6.55,7.82,6.77c4.26.21,8.83-2.45,13-1.24,2.89,1.51,4.66,3,8.07,2.16a18.63,18.63,0,0,0,8-4.94c5.64-5.77,3.48-14,6-20.87l-.06.13c.15-.36.3-.72.46-1.08l0,.12c1.91-4.17,6.14-7.12,6.81-11.81,1.21-.09.77-12.81,1.06-14.86.77-5.43,2.23-10.68,2.88-16.15a120.52,120.52,0,0,1,2.44-15c.37-1.46,2.48-6.83-1.15-6.39,1.68-3,2.74-6.14,4.2-9.19s2.82-2.44,5-4.63c2.5-2.47,2.6-7.19,3-10.37a24.5,24.5,0,0,1,2.62-8C130.3,70.11,137.3,50,125,52.69c-1.48-5.78-.44-11.39-3.5-16.82-2.63-4.66-4.06-9.69-6.58-14.39-4.81-9-12-20.7-20.69-26.43,4.92-.51,10.39,2.5,13.53,6.17s3.31,9.12,5.36,13.44a15.56,15.56,0,0,0,4.14,5.46c2.6,2.11,6,2.47,8.62,4.39,4.88,3.52,4.15,8.82,4.86,14.09a1.37,1.37,0,0,0,0-.19c.64,4.8,4.58,11,9,13.18,1.76.87,2.71,1,1.38-.94s-4-3.1-5.53-5c-5.68-7.19-.93-18.17-9.88-23.19-3.29-1.84-6.86-2.33-9.32-5.48S113,9.15,111.89,5.25C109.65-2.38,100.54-7.43,92.77-5.83A24.69,24.69,0,0,0,82-8.76c.94-.36.35-1.7.4-2.45.12-1.75.39-3.14,1.79-4.33,3-2.57,9.05-2.85,12.53-1.36,3,1.25,5.34,3.55,7.63,5.74A40.13,40.13,0,0,0,114.71-4C120,6.38,129,13.63,137.18,21.57c4.89,4.73,6.24,8.82,6.55,15.56.29,6.49,3.55,10,7.11,15-.74.63,1.13,2,1.45,2.36,2.35,5.09,3,10.68.79,15.87-2.64,6.25-8,9.84-11.3,15.47-2.91,4.94-4.5,9.73-1.37,15s8.84,8.69,12.6,13.41,1.12,11.22,5.57,15.53c4.2,4.06,11.19,6.52,7.89,13.72-1.33,2.91-3.61,5.39-3.22,8.81.36,3.17,2.8,5.57,5.05,7.61,4.5,4.09,9.31,6.62,11.15,12.81,1,3.41,1.2,6.25,2.85,9.46a11.11,11.11,0,0,1,1.07,8.81c-2.32,7.1-9.7,11.57-13.06,18.1,3.73-9.75,10.11-20.72,4.47-30.91-2.28-4.11-5.49-6.69-8.4-10.24a19.44,19.44,0,0,1-3.09-6c-.45-1.25-1-5.32-2.7-5.58-.47-1.62-2.45-5.55-3.26-1.59-.41,2,1.93,6.59,2.46,8.71a14,14,0,0,1,.29,7.23c-.78,2.79-2.82,5-3.44,7.84-1.12,5.09.89,10.25,1.67,15.23.87,5.46.7,11.17-1.8,16.2-1.19,2.41-3.85,4.87-4.61,7.34s.94,4.37,3.47,3.26c2.27-1,4.45-5.76,5.5-7.93a26.13,26.13,0,0,0,2.61-9.15c.54-6.55-1.57-12.41-2.59-18.73a15.35,15.35,0,0,1,.29-7.85c1-2.62,2.19-4.63,2.31-7.54,4.14,6.07,10.88,10.71,10.17,19-.37,4.32-2.31,8.55-3.75,12.59-.7,2-1.59,4-2.09,6-.23.95-1,2.32.1,3a1.43,1.43,0,0,0,2.11-.31c-.38.88-2.78,6.92.44,5.51,1.16-.51,2.67-5.81,3.73-7.27,3.89-5.38,10.2-10.52,11.83-17.17.86-3.51,0-6.79-1.65-9.92a24.28,24.28,0,0,1-2.07-6.62c-1.37-6.32-4.91-10-9.86-13.86l.23.18c-2.59-2-6.6-4.85-7-8.4-.41-3.39,2.6-6,3.59-9a10.32,10.32,0,0,0-2.05-9.64c-2.39-3-7.24-4.42-8.33-8.39-.47-6.79.93-12.06-4.34-17.49-3.66-3.78-11.77-8.06-12.18-13.87-.48-6.91,6.84-12.18,10.06-17.3,4-6.26,5-11.86,2.88-18.94,6,5.1,12.69,9.1,13.59,17.58.33,3.17.29,5.8-1.88,8.26-2.44,2.78-4.82,4.81-5.26,8.76-.8,7.24,7.64,9,9.74,15.1,2.59,7.51-1.14,15.48.08,23,1,6.39,7.82,10.8,7.41,17.41-.19,3.07-2,5.48-.93,8.61s3.37,6.08,4.57,9.34a26.87,26.87,0,0,0,4.31,8.44c2.19,2.64,5.12,4.73,6.79,7.78,2.81,5.14,5.14,13.77,1.89,19.05-2,3.19-4.84,6-7.25,8.84-.8,1-4,3.69-3.89,4.93.13,2.55,1.74.89,2.84-.2C192.85,208.94,200.74,201.27,199.4,192.89ZM21.74,55.06c0-.15,0-.29,0-.43,1-4,4.05-6.49,4.12-10.91s-1.38-7,1.61-10.67a154.36,154.36,0,0,0,1,25.16c-1.47-1.66-4.4-5-6.5-2.29C21.87,55.63,21.79,55.34,21.74,55.06ZM108,117.46c-1.13,5.64-1,11.84-1.31,17.58-.25,5.14-.6,10.24-.51,15.39-3,.47-1.78,6.91-2.16,8.93-.57,3.06-3,4.35-4.62,6.77-4.13,6-2.91,12.79-5,19.35-1.45,4.5-7,10.75-12.12,8.18-3-1.52-4.44-2.25-8-2.09-2.84.12-7.84,1.82-10.38.21l-.33-.32c-2.18-3.37-3.81-6.25-6.85-9-2.54-2.27-5.94-4.08-7.61-7.17a2.85,2.85,0,0,1-.11-.39c0-1.06.23-1.85-.69-2.61a1.88,1.88,0,0,0,.16-1c.47-3.82-.21-7.89-.27-11.72a96.77,96.77,0,0,0-1-13.19c-1.29-8.62-3.77-17.43-4.21-26.09,4.39,5.07,8.4,10.84,13.7,15.05,5.93,4.72,16,4.37,23.29,4.09,5.24-.21,12-1.88,15.86-5.68,5.27-5.24,9-12.54,12.8-18.9C108.4,115.7,108.21,116.58,108,117.46ZM83.93-6.82a31.49,31.49,0,0,1,6.48,2.05,3.22,3.22,0,0,0,.69.36c4.43,2.29,8.32,8.48,11,12.59,3.3,5,6.39,10.43,9.38,15.63,1.54,2.69,2.48,5.57,3.8,8.35,1.2,2.55,3.16,4.6,4.37,7.12.85,1.76,2.19,18,5,15.87,2.49,1.19,3.94-2,5.27,1.38,1.49,3.73-.63,8.27-1.86,11.7-1.43,4-3.92,7.85-4.77,12-.73,3.52-.14,8.73-3,11.42-2.07,1.35-3.38,1.42-4.68,3.68-1.52,2.65-2.31,5.74-3.62,8.49a103.89,103.89,0,0,1-6.8,11.86c-2.6,4-4.77,8.49-7.69,12.22-2.52,3.22-5.06,4.79-8.51,6.59-7.23,2.19-14.53,2.28-22,1.25-3.08-.43-5.78-.78-8.31-2.72-3.42-2.62-6.28-6.22-9-9.51-4.21-5.07-8.56-9.78-11.79-15.54-2.23-4-3.15-7.73-4.27-12.14-.84-3.35-1.61-3.45-4.35-4.36-3.45-1.88-3.62-10-4.28-13.57-.86-4.72-2.42-9.52-2.92-14.28a8.79,8.79,0,0,0,.34-5.22,4.75,4.75,0,0,1,1.12-1.65.45.45,0,0,1,.2,0c1.37.32,4,4.86,5.2,3.33,2,1.38.75-4.8.7-5.49-.18-2.74,0-5.47.06-8.21.16-6.33.32-12.71.89-19a17.68,17.68,0,0,0,.54-2.7c1-3.09,2.57-6.13,3.87-9.12l0,0,.09-.2,0,0c.85-2,.53-4.3,1.6-6.22,1.27-2.3,4.08-3.78,6.2-5.21A54.83,54.83,0,0,1,56.68-2.9C60.33-4.1,64.07-5,67.76-6.11,73.16-7.68,78.38-7.21,83.93-6.82ZM31.49,18.45c.13-3.95,1.57-5.77,3.32-9.08-.67,1.73-.49,3.47-1.24,5.21C33,15.92,32.11,17.13,31.49,18.45ZM113-6.94c-6-3.22-9.88-10.14-16.52-12.16A17.68,17.68,0,0,0,84.4-17.62c-2,1.11-6,7.09-3,8.81-3.63-.22-7.13-.82-10.75,0-4.32.93-8.65,2.66-12.86,4-7.31,2.29-17.88,6-22.3,12.81.61-1.47.39-2.53.42-4v0C37.78.52,42.61-2,45.84-3.82A38.51,38.51,0,0,1,59.33-8.39a33.81,33.81,0,0,1,6.89-.49c.86.05,5.3,1.11,4.15-1.34s-11.86-.61-14-.24c-7.3,1.25-18.76,5.71-22.46,12.8-.8,1.53-.65,3.1-1.6,4.61-1.08,1.72-2.71,3-3.47,4.93-1.53,3.93-.18,8.33-.28,12.39a17.08,17.08,0,0,0-.92,4.81c-2.43,4.38-5.66,5.1-5.93,10.65-.24,5-1.55,7.21-3.61,11.58.55-5.21-2.06-10.5-2.75-15.64-.76-5.77,1-10.6,3.58-15.68,2-4,5.12-6.74,7.58-10.37s2.17-8,4.66-11.52c2.83-4,6.91-7.24,10.63-10.41s7.79-6.38,12.42-8.08c4.18-1.54,9.37-2.75,13.77-1.53a12,12,0,0,1,5,2.69c.26.25,3.34,4.64,3.46,2.47,1.28,1,1.84-1.91,2.28-2.65a9.35,9.35,0,0,1,5-4c3.36-1.29,8.73-2.13,12.33-1.13A43.54,43.54,0,0,1,113.4-6.72Z" transform="translate(70.41 27.37)" style="fill: #f6b7b1"/>
              <path d="M-14.63,212.32c-2.39-5.39-9.2-8.8-10.07-14.8-.2-1.38,2.14-8.64.72-8.35-2.44.5-2.85,6.42-2.61,8.38.8,6.7,8.07,9.66,10.24,15.68a5.05,5.05,0,0,1,.22,3.78c-.06.17-2.12,3-.07,2.83C-13.07,219.58-13.87,214-14.63,212.32Z" transform="translate(70.41 27.37)" style="fill: #f6b7b1"/>
              <path d="M-18.1,181.15c1-2.24,3.14-3.79,5-5.33.26-.21,4.89-3.18,3.26-4-2.2-1.06-9.89,6.88-10.31,9.34C-20.7,184.31-11.1,192.47-10,191-7.35,187.7-19.58,185-18.1,181.15Z" transform="translate(70.41 27.37)" style="fill: #f6b7b1"/>
              <path d="M.59,196.91c.15-1.41,1.28-7.35-.08-8.18-1.62-1-1.53,6.06-1.59,6.8-.52,6.09-5.33,7.13-10.79,8.22-1.08-.81-1.91,1-1,1.78,1.11,1.05,4.37-.57,5.43-.92C-3.11,203.2.07,201.85.59,196.91Zm-12.45,6.85Z" transform="translate(70.41 27.37)" style="fill: #f6b7b1"/>
              <path d="M7.44,222.74c-.3-3.87-3.48-5.41-4.63-8.75-.85-2.46,0-5.45.51-7.9.5-2.66,1.54-6.08,1.07-8.83-.12-.71,0-3.15-1.59-2-.75.56-.24,3.12-.29,4-.4,6-4.19,12.25-.57,17.82a18.48,18.48,0,0,1,3.05,7c.2.83.2,2.88,1.76,2.33C8.09,226,7.51,223.72,7.44,222.74Z" transform="translate(70.41 27.37)" style="fill: #f6b7b1"/>
              <path d="M141.74,183.1c-2.18,0-5.77,7-6.82,8.74a25.32,25.32,0,0,0-4.08,11.59,27.83,27.83,0,0,0,2,10.83c.6,1.65,2.73,9.12,5,9,3.56-.2-.93-7.25-1.54-8.82-1.45-3.76-2.72-7.8-2.22-11.88s2.67-7.66,4.83-11.06C139.66,190.44,145.41,183.1,141.74,183.1Z" transform="translate(70.41 27.37)" style="fill: #f6b7b1"/>
              <path d="M94.56,105.63a1.32,1.32,0,0,0-.65-.08c-1.82-1.71-8-1.81-10.51-2.24-4.26-.75-7-1.17-11.06.31-3.35-1.17-4.65-1.77-8.41-.89-3.44.81-9.55,2.06-12.12,4.57-1.4.77-1.31,2.41.31,1.47a1.77,1.77,0,0,0,1.47-.46c6.3,2.1,10.1,9.14,16.78,10.48a17.49,17.49,0,0,0,11.63-2c3.94-2.17,5.78-6,9.34-8.39,1.07-.15,3.31.13,3.49-1.33A.84.84,0,0,0,94.56,105.63Zm-32.39-.3c3.19-1,5.49-1.77,8.7-.45l-.21-.09c2.66,1.14,4.29-.94,7.1-.7,4.25.37,8.41,1.86,12.62,2.52-10.38,1.86-20.39-.46-30.72-.48C60.5,105.85,61.33,105.58,62.17,105.33Zm26.92,3.54c-5,4.55-9.42,8.21-16.64,7.52-6-.57-10.83-5.92-16.11-8.55,3.09-.71,6.29-.13,9.38.29h0a92.25,92.25,0,0,0,23.59.57C89.2,108.75,89.15,108.82,89.09,108.87Z" transform="translate(70.41 27.37)" style="fill: #f6b7b1"/>
              <path d="M58.3,81.9c.18-.66,3.05-6.11.78-4.33-2.06,1.62-2.83,6.87-1.32,9,.56.8,5.25,4,5.28,1.67,0-.92-3.26-1.9-3.81-2.5A3.68,3.68,0,0,1,58.3,81.9Z" transform="translate(70.41 27.37)" style="fill: #f6b7b1"/>
              <path d="M85.09,86.93l-.16.13c-.57,1-2.71,1.08-2.28,2.41s4-1.23,4.57-2a5.88,5.88,0,0,0,.4-5.2c-.38-1.19-2.11-5.14-3.19-5.42-.6-1.1-2,.4-.83.9.29.86.71,1.69,1,2.57.33.52.53,1,.93,1.53l0,0A3.52,3.52,0,0,1,86.11,84l0-.2A4,4,0,0,1,85.09,86.93Z" transform="translate(70.41 27.37)" style="fill: #f6b7b1"/>
              <path d="M63.24,86.09a1.32,1.32,0,0,0,1.18-.21c.42.14.84.24,1.25.38,1.46,2.57,2.59-.82.79-1.65C64.75,81.18,60.47,84.93,63.24,86.09Z" transform="translate(70.41 27.37)" style="fill: #f6b7b1"/>
              <path d="M75,86.84c1.1.31,1.12-1.47,1.45-2a.41.41,0,0,1,.13-.1c.16.91,2.25,1.64,2.66.55,1.32-1,0-2.42-1.19-2.6a1.48,1.48,0,0,0-2.27.48C75,83.64,73.63,86.47,75,86.84Z" transform="translate(70.41 27.37)" style="fill: #f6b7b1"/>
              <path d="M41.15,41.71c3.53-1.36,7.92-1,11.51-.08,2.69.72,4.88,3.19,7.68,3.36,2.66.68.93-1.78-.31-2.42a23,23,0,0,0-7.25-2.15h0a29.05,29.05,0,0,0-10.72.06C38.7,41.29,34.78,44.14,41.15,41.71Z" transform="translate(70.41 27.37)" style="fill: #f6b7b1"/>
              <path d="M87.47,39.85l0,0Z" transform="translate(70.41 27.37)" style="fill: #f6b7b1"/>
              <path d="M79.71,43.66c-1.8,1.32-.6,3.52,1.3,1.75C84.8,43,88.6,40.86,93.13,40.12c1.25-.21,12.57,1,11.93,2.1.53-.91-6.68-3.69-7.56-3.84a17.41,17.41,0,0,0-10,1.47h0C85,40.93,81.93,42,79.71,43.66Z" transform="translate(70.41 27.37)" style="fill: #f6b7b1"/>
              <path d="M87.38,39.89l.06,0Z" transform="translate(70.41 27.37)" style="fill: #f6b7b1"/>
              <path d="M52.76,58.4c.73-.27,6.76-2,6.13-2.67.94-.71-8.62-5.44-10.69-5.19-1.41.17-11.88,4.78-10.4,6.26.28.28.4-.21.58-.28.14,1.36,4.45,2.33,5.49,2.55A17,17,0,0,0,52.76,58.4Zm-7.17,0c-2.15-.35-4.53-2.54-6.54-2.61A13.76,13.76,0,0,1,43.35,53c-2,1.8,1.38,5.06,3.07,5.51Zm2.47-6.25c.07.88,0,2.76-1.17,3a1.65,1.65,0,0,1-.54-.05l-.06-.06h0c-.52-.76.27-2.47-.4-2.91.76-.12,1.53-.22,2.3-.27A.52.52,0,0,0,48.06,52.13ZM50.65,58l-.81.15A4.39,4.39,0,0,0,52,52.53a36.65,36.65,0,0,0,5.81,3.11l-.06,0h0C55.34,56.29,53.07,57.69,50.65,58Z" transform="translate(70.41 27.37)" style="fill: #f6b7b1"/>
              <path d="M104.45,53.79c-5-4.14-10.67-4.9-15.8-.86l0,0,0,.05h0c-.31.23-4.32,2.64-4.07,2.84.08,1.38,10.59,2.84,12.11,2.79a20.17,20.17,0,0,0,8.75-2.81C107,56.62,104.68,54,104.45,53.79Zm-12.54-.85c0,.09,0,.19,0,.29a1.83,1.83,0,0,1,.07-.46.21.21,0,0,1,0-.06Zm.2,1.41a.42.42,0,0,1-.09-.14c0-.07,0-.14,0-.21A2.13,2.13,0,0,0,92.11,54.35ZM99,51.71l.23.11a.64.64,0,0,0-.29.32,1.61,1.61,0,0,0-1-.75Zm-5.39-.82a10.94,10.94,0,0,1,1.28,0c-.71.75.37,1.34,1,1.54.31.47.54,1.46.07,1.93a1.74,1.74,0,0,1-1.36,0,2.57,2.57,0,0,1-.92-1.85c.28-.52.54-1.41-.43-1.49C93.4,51,93.52,50.91,93.65,50.89Zm-1.33,6.17c-2.25-.53-4.41-1.13-6.68-1.59A23.12,23.12,0,0,0,89.46,53l-.06,0a11.36,11.36,0,0,1,3.41-1.91.63.63,0,0,0-.31.25c-3.73.17.2,5.35,1.16,6Zm11.5-2c-2.41,1.28-4.31,2.39-7.1,2.61,1.87-.39,4.41-3.14,3.67-5.25a25.8,25.8,0,0,1,3.79,2.49C104.06,54.94,103.94,55,103.82,55Z" transform="translate(70.41 27.37)" style="fill: #f6b7b1"/>
              <path d="M88.65,52.93l0,0Z" transform="translate(70.41 27.37)" style="fill: #f6b7b1"/>
              <path d="M94.25,58.34h0Z" transform="translate(70.41 27.37)" style="fill: #f6b7b1"/>
              <path d="M27,64,27,64A.14.14,0,0,0,27,64Z" transform="translate(70.41 27.37)" style="fill: #f6b7b1"/>
              <path d="M30,80c-1.8-1.48-1.3-6.14-2.19-8.43C26.7,68.83,25.05,66,26.13,63A1.52,1.52,0,0,1,27,64v0a1.22,1.22,0,0,0,.07.17A.2.2,0,0,0,27,64c2.36,5.86,2.36-2.93-1.27-2.39-2.84,1.06-.44,7.19.26,8.8l0,0a21.15,21.15,0,0,1,1.51,4.28c.26,1.38-.1,3,.32,4.26C28.68,81.55,32.92,82.24,30,80ZM26.14,62.94h0Z" transform="translate(70.41 27.37)" style="fill: #f6b7b1"/>
              <path d="M119.24,84.15c2.15,2.37,2.82-3.8,2.78-4.79-.06-1.38-.64-2.65-.59-4s1.67-4.3,1.15-5.4c-1.46-3.06-2.84,3.76-2.9,4.75-.19,2.78,1.11,5,.41,7.87C119.5,81.37,117.74,82.51,119.24,84.15Z" transform="translate(70.41 27.37)" style="fill: #f6b7b1"/>
            </g>
          </g>
        </g>
        <use width="257.14" height="379.74" transform="translate(104.42 34.13) scale(0.3)" xlink:href="#outline_2"/>
      </g>
    </g>
  </g>
</svg>
