<svg xmlns="http://www.w3.org/2000/svg" xmlns:android="http://schemas.android.com/apk/res/android" width="200" height="66.75" viewBox="0 0 424.5 133.5">
	<path d="M131.1,47.7v65.2h-7.7V47.7Z" fill="#3496D9"/>
	<path d="M147,51.1a5,5 0,0 1,0 10,4.9 4.9,0 0,1 -4.9,-5A4.8,4.8 0,0 1,147 51.1ZM150.8,70.4v42.5h-7.7L143.1,70.3Z" fill="#3496D9"/>
	<path d="M159.4,71.6h7.5V68.4c0,-9.7 4.2,-18.2 16,-18.2 3.6,0 6.9,0.8 9,2.2l-2.8,5.9a12.2,12.2 0,0 0,-6 -1.3c-7.2,0 -8.5,3.6 -8.5,11.4v3.2H186v6.7H174.6v34.5h-7.7V78.4h-7.5Z" fill="#3496D9"/>
	<path d="M227.3,106.8c-4.6,4.7 -9.7,6.9 -16.8,6.9s-10.1,-1.6 -13,-4.5 -5.2,-8.3 -5.2,-16.4 1.3,-13.8 5,-18 7,-5.5 13.6,-5.5c12.3,0 16.8,8.2 16.8,18.2 0,1.4 -0.1,3.6 -0.3,5.2l-27.3,0.2c0.2,8.7 1.5,14.2 10.3,14.2a17.5,17.5 0,0 0,12.6 -5.1ZM219.8,86.8c0.1,-6.9 -1.4,-11.1 -9,-11.1s-10,4.4 -10.4,11.2Z" fill="#3496D9"/>
	<path d="M247.7,47.7v65.2H240V47.7Z" fill="#3496D9"/>
	<path d="M264.4,51.1a5,5 0,0 1,0 10,4.9 4.9,0 0,1 -4.9,-5A4.8,4.8 0,0 1,264.4 51.1ZM268.2,70.4v42.5h-7.7L260.5,70.3Z" fill="#3496D9"/>
	<path d="M315.4,70.3v43.9c0,9.8 -3.7,19.3 -19.6,19.3 -6.1,0 -11.8,-1.4 -15.9,-4.9l4,-5.8c3.5,2.8 7.8,3.8 12.4,3.8 10.1,0 11.7,-4.7 11.7,-12.7v-8.6c-2.6,5.4 -7.9,8.2 -13.9,8.2s-8.5,-1.9 -10.8,-5 -4.2,-9.4 -4.2,-16.5 1.3,-13.2 5,-17.5 6.4,-5 12,-5 9.5,1.6 12.3,6.4l0.2,-5.5ZM303.6,103.4c2.7,-2.9 4.5,-7.7 4.5,-13.9 0,-4 -0.8,-7.9 -3.5,-10.6a10.6,10.6 0,0 0,-7.6 -2.8c-7.8,0 -9.7,5.9 -9.7,15.9s1.9,14.8 8.3,14.8A10.6,10.6 0,0 0,303.5 103.4Z" fill="#3496D9"/>
	<path d="M334.8,47.7V78.5c1.7,-5.2 6.7,-9.2 13.6,-9.2s12.4,5.2 12.4,14.2v29.4h-7.7v-28c0,-5.5 -1.4,-8.5 -6,-8.5 -6.1,0 -12.3,5.7 -12.3,21.7v14.8h-7.7V47.7Z" fill="#3496D9"/>
	<path d="M397.7,112.4a31.1,31.1 0,0 1,-8.5 1.1c-10.5,0 -12.6,-4.8 -12.6,-14.7V77.8h-7.8V71.1h7.8V58.8l7.6,-0.9V71.1h13v6.7h-13V98.3c0,6 0.4,8.4 6.1,8.4a30.4,30.4 0,0 0,6.7 -0.9Z" fill="#3496D9"/>
	<path d="M50.6,115.8l-2.7,-2.9C47.1,112 38,102.2 28,89c-9.9,13 -19.1,23 -19.9,23.9l-2.6,2.8L0,110.5l2.6,-2.8c4.9,-5.3 12.9,-14.7 20.8,-25.2C13.1,68.2 3.2,51.1 1.6,37.4S4.7,13.5 9,8.6A25.5,25.5 0,0 1,28 0c9.8,0 18,6.7 22.6,17.2C55.1,6.6 63.3,0 73.3,0A25.2,25.2 0,0 1,91.9 8.4c6.2,6.9 9,17.2 7.8,28.9C98.3,51.1 88.4,68.2 78,82.7c7.9,10.5 15.8,19.7 20.7,25l2.6,2.8 -5.5,5.1 -2.6,-2.8c-0.8,-0.9 -9.9,-10.8 -19.8,-23.8 -10,13.2 -19.1,23 -20,23.8ZM32.7,82.6c7.2,9.7 14.2,17.9 17.9,22.1 3.7,-4.2 10.8,-12.3 18,-22 -7,-9.7 -13.9,-20.5 -18,-30.3C46.6,62.2 39.8,72.9 32.7,82.6ZM73.3,7.5C62.4,7.5 54.4,19.9 54.4,37c0,9.8 8.8,25.1 18.9,39.3C82.5,63.1 91,48.2 92.2,36.6c1,-9.6 -1.1,-17.8 -5.9,-23.1A17.4,17.4 0,0 0,73.3 7.5ZM28,7.5a18,18 0,0 0,-13.4 6.1c-3.3,3.7 -7,10.7 -5.5,22.9s9.8,26.5 19,39.6C38.2,61.9 46.9,46.7 46.9,37 46.9,20.2 38.8,7.5 28,7.5Z" fill="#3496D9"/>
	<path d="M414,49c6.3,0 10.5,4.7 10.5,10.7a10.3,10.3 0,0 1,-10.6 10.7c-6.3,0 -10.5,-4.8 -10.5,-10.7S407.6,49 414,49ZM414,67.6c4.8,0 7.7,-3.3 7.7,-7.9s-2.9,-7.9 -7.6,-7.9 -7.6,3.3 -7.6,7.9S409.2,67.6 413.9,67.6ZM414.6,54.2c2.5,0 4.3,0.9 4.3,3.2a3,3 0,0 1,-2.5 3.1c1.8,0.3 2.1,1.7 2.5,4.8L416,65.3c-0.5,-2.8 -0.8,-3.7 -2,-3.7h-1.7v3.7h-2.8L409.5,54.2ZM412.4,59.4h1.1c1.6,0 2.6,-0.3 2.6,-1.6s-0.5,-1.2 -1.7,-1.2h-2Z" fill="#3496D9"/>
</svg>
