<?xml version="1.0" encoding="utf-8"?>
<!-- Generator: Adobe Illustrator 25.2.2, SVG Export Plug-In . SVG Version: 6.00 Build 0)  -->
<svg version="1.1" id="Layer_1" xmlns="http://www.w3.org/2000/svg" xmlns:xlink="http://www.w3.org/1999/xlink" x="0px" y="0px"
	 viewBox="0 0 174 174" style="enable-background:new 0 0 174 174;" xml:space="preserve">
<style type="text/css">
	.st0{fill:#2C3E50;}
</style>
<g>
	<polygon class="st0" points="78,6 78,0 72,0 66,0 66,6 72,6 	"/>
	<rect x="84" class="st0" width="6" height="6"/>
	<rect x="114" class="st0" width="6" height="6"/>
	<path class="st0" d="M168,0h-6h-6h-6h-6h-6h-6v6v6v6v6v6v6v6h6h6h6h6h6h6h6v-6v-6v-6v-6v-6V6V0H168z M168,12v6v6v6v6h-6h-6h-6h-6
		h-6v-6v-6v-6v-6V6h6h6h6h6h6V12z"/>
	<rect x="120" y="6" class="st0" width="6" height="6"/>
	<polygon class="st0" points="66,18 66,12 66,6 60,6 54,6 48,6 48,12 54,12 54,18 60,18 	"/>
	<rect x="72" y="12" class="st0" width="6" height="6"/>
	<polygon class="st0" points="90,18 96,18 102,18 102,12 108,12 108,18 102,18 102,24 108,24 114,24 114,30 120,30 120,24 120,18 
		114,18 114,12 114,6 108,6 102,6 96,6 90,6 90,12 	"/>
	<polygon class="st0" points="150,12 144,12 144,18 144,24 144,30 150,30 156,30 162,30 162,24 162,18 162,12 156,12 	"/>
	<rect x="48" y="18" class="st0" width="6" height="6"/>
	<rect x="78" y="18" class="st0" width="6" height="6"/>
	<polygon class="st0" points="24,30 30,30 30,24 30,18 30,12 24,12 18,12 12,12 12,18 12,24 12,30 18,30 	"/>
	<polygon class="st0" points="66,30 72,30 72,36 72,42 78,42 78,36 78,30 78,24 72,24 66,24 60,24 54,24 54,30 60,30 	"/>
	<rect x="84" y="24" class="st0" width="6" height="6"/>
	<polygon class="st0" points="54,30 48,30 48,36 48,42 54,42 54,36 	"/>
	<rect x="90" y="30" class="st0" width="6" height="6"/>
	<polygon class="st0" points="108,36 108,42 114,42 114,36 114,30 108,30 	"/>
	<path class="st0" d="M12,42h6h6h6h6h6v-6v-6v-6v-6v-6V6V0h-6h-6h-6h-6h-6H6H0v6v6v6v6v6v6v6h6H12z M6,30v-6v-6v-6V6h6h6h6h6h6v6v6
		v6v6v6h-6h-6h-6h-6H6V30z"/>
	<rect x="84" y="36" class="st0" width="6" height="6"/>
	<polygon class="st0" points="120,42 126,42 126,36 126,30 120,30 120,36 	"/>
	<polygon class="st0" points="96,48 102,48 102,42 102,36 96,36 96,42 	"/>
	<polygon class="st0" points="48,54 54,54 60,54 60,48 66,48 66,54 66,60 72,60 72,66 72,72 78,72 78,66 84,66 84,60 78,60 78,54 
		84,54 84,48 78,48 72,48 72,42 66,42 66,36 60,36 60,42 54,42 54,48 48,48 42,48 36,48 36,54 42,54 	"/>
	<polygon class="st0" points="108,54 114,54 114,48 108,48 102,48 102,54 	"/>
	<polygon class="st0" points="132,54 132,48 126,48 120,48 120,54 126,54 	"/>
	<rect x="138" y="48" class="st0" width="6" height="6"/>
	<rect x="150" y="48" class="st0" width="6" height="6"/>
	<polygon class="st0" points="168,48 162,48 162,54 156,54 156,60 162,60 162,66 168,66 168,60 174,60 174,54 168,54 	"/>
	<rect x="30" y="54" class="st0" width="6" height="6"/>
	<rect x="114" y="54" class="st0" width="6" height="6"/>
	<rect x="132" y="54" class="st0" width="6" height="6"/>
	<rect x="144" y="54" class="st0" width="6" height="6"/>
	<polygon class="st0" points="6,60 6,54 12,54 18,54 24,54 30,54 30,48 24,48 18,48 12,48 6,48 0,48 0,54 0,60 0,66 0,72 6,72 
		12,72 12,66 6,66 	"/>
	<polygon class="st0" points="30,66 30,60 24,60 18,60 12,60 12,66 18,66 18,72 24,72 24,66 	"/>
	<rect x="36" y="60" class="st0" width="6" height="6"/>
	<rect x="48" y="60" class="st0" width="6" height="6"/>
	<rect x="60" y="60" class="st0" width="6" height="6"/>
	<polygon class="st0" points="90,66 90,72 96,72 102,72 102,66 96,66 96,60 102,60 102,54 96,54 96,48 90,48 90,54 84,54 84,60 
		90,60 	"/>
	<polygon class="st0" points="108,66 108,72 102,72 102,78 108,78 114,78 114,72 114,66 114,60 108,60 	"/>
	<rect x="120" y="60" class="st0" width="6" height="6"/>
	<rect x="150" y="60" class="st0" width="6" height="6"/>
	<polygon class="st0" points="138,66 132,66 132,72 138,72 138,78 144,78 144,72 150,72 150,66 144,66 	"/>
	<polygon class="st0" points="66,78 66,72 60,72 54,72 54,78 48,78 48,84 48,90 54,90 54,84 60,84 60,78 	"/>
	<polygon class="st0" points="132,78 132,72 126,72 120,72 120,78 126,78 	"/>
	<polygon class="st0" points="156,78 162,78 168,78 168,72 162,72 156,72 150,72 150,78 	"/>
	<polygon class="st0" points="90,78 90,84 90,90 90,96 96,96 102,96 102,90 96,90 96,84 102,84 102,78 96,78 	"/>
	<rect x="114" y="78" class="st0" width="6" height="6"/>
	<rect x="132" y="78" class="st0" width="6" height="6"/>
	<rect x="144" y="78" class="st0" width="6" height="6"/>
	<rect x="168" y="78" class="st0" width="6" height="6"/>
	<polygon class="st0" points="18,90 18,96 24,96 24,90 30,90 30,84 30,78 36,78 42,78 48,78 48,72 42,72 36,72 36,66 30,66 30,72 
		24,72 24,78 24,84 18,84 18,78 12,78 12,84 6,84 6,90 6,96 12,96 12,90 	"/>
	<rect x="36" y="84" class="st0" width="6" height="6"/>
	<rect x="60" y="84" class="st0" width="6" height="6"/>
	<polygon class="st0" points="78,84 84,84 84,78 84,72 78,72 78,78 72,78 66,78 66,84 72,84 72,90 78,90 	"/>
	<polygon class="st0" points="138,90 132,90 132,84 126,84 126,90 126,96 126,102 132,102 132,96 138,96 138,102 144,102 144,96 
		150,96 150,90 144,90 144,84 138,84 	"/>
	<polygon class="st0" points="162,90 162,96 156,96 150,96 150,102 144,102 144,108 150,108 150,114 156,114 156,108 156,102 
		162,102 168,102 168,96 168,90 168,84 162,84 	"/>
	<polygon class="st0" points="0,102 0,108 0,114 0,120 0,126 6,126 6,120 6,114 6,108 6,102 6,96 0,96 	"/>
	<polygon class="st0" points="18,96 12,96 12,102 12,108 18,108 18,102 	"/>
	<polygon class="st0" points="120,96 114,96 114,90 108,90 108,96 102,96 102,102 108,102 114,102 114,108 120,108 120,102 	"/>
	<rect x="132" y="102" class="st0" width="6" height="6"/>
	<rect x="168" y="102" class="st0" width="6" height="6"/>
	<polygon class="st0" points="42,114 42,108 36,108 36,102 42,102 42,108 48,108 48,102 48,96 42,96 36,96 36,90 30,90 30,96 
		30,102 24,102 24,108 18,108 18,114 24,114 24,120 30,120 36,120 36,114 	"/>
	<path class="st0" d="M162,114v6h-6h-6v-6h-6v-6h-6v6v6h-6v-6v-6h-6h-6v6h6v6h-6h-6v-6v-6h-6h-6v-6h-6h-6h-6v-6h-6h-6v-6h-6v6h-6v6
		h-6v6v6h-6v6h-6h-6v6h6h6v6v6h6v6h-6v6v6v6v6v6h6h6h6v-6h6h6v-6v-6v-6h6v-6h-6v-6h-6v6h-6v-6v-6h-6h-6v-6h6h6v-6v-6h-6v-6h6h6v6h6
		v-6h6h6v6v6h6v-6h6h6v6h-6v6h6h6v6h-6v6v6h-6h-6v-6h6v-6h-6h-6v6v6v6h6h6v6h6v6v6h-6h-6h-6v6h6h6h6h6v-6h6h6v6h6v-6v-6h-6h-6h-6v-6
		h6v-6h-6v-6v-6h6v6v6h6v6h6v-6h6v6h6v-6h6v6h6v-6h6v-6h-6h-6v-6v-6v-6h6h6v6v6v6h6v-6v-6h6v-6v-6h-6v-6v-6h-6V114z M72,162h-6h-6
		v-6h-6v-6h6v6h6h6V162z M144,132v6v6h-6h-6h-6v-6v-6v-6h6h6h6V132z"/>
	<rect x="12" y="114" class="st0" width="6" height="6"/>
	<rect x="78" y="120" class="st0" width="6" height="6"/>
	<polygon class="st0" points="78,132 78,126 72,126 66,126 66,132 72,132 	"/>
	<rect x="84" y="126" class="st0" width="6" height="6"/>
	<path class="st0" d="M30,132h-6h-6h-6H6H0v6v6v6v6v6v6v6h6h6h6h6h6h6h6v-6v-6v-6v-6v-6v-6v-6h-6H30z M36,144v6v6v6v6h-6h-6h-6h-6H6
		v-6v-6v-6v-6v-6h6h6h6h6h6V144z"/>
	<rect x="132" y="132" class="st0" width="6" height="6"/>
	<polygon class="st0" points="18,144 12,144 12,150 12,156 12,162 18,162 24,162 30,162 30,156 30,150 30,144 24,144 	"/>
	<rect x="84" y="150" class="st0" width="6" height="6"/>
	<rect x="168" y="150" class="st0" width="6" height="6"/>
	<rect x="90" y="156" class="st0" width="6" height="6"/>
	<rect x="132" y="156" class="st0" width="6" height="6"/>
	<polygon class="st0" points="162,162 162,168 168,168 168,162 168,156 162,156 156,156 156,162 	"/>
	<rect x="84" y="162" class="st0" width="6" height="6"/>
	<rect x="78" y="168" class="st0" width="6" height="6"/>
	<polygon class="st0" points="150,168 150,162 150,156 144,156 144,162 144,168 144,174 150,174 156,174 162,174 162,168 156,168 	
		"/>
</g>
</svg>
