<svg xmlns="http://www.w3.org/2000/svg" viewBox="0 0 233.66 264.8">
  <title>moving stand</title>
  <g id="Layer_2" data-name="Layer 2">
    <g id="copy">
      <g>
        <rect width="233.66" height="264.8" style="fill: #fff"/>
        <g>
          <g>
            <path d="M90.66,107.07c0-1.49-7.37-13.16-10-11-4.15,4.59-9.82,7.42-13.76,12.62-.81,1.6.09,4.3,1.72,1.27.83.2-3.77,10.21-.48,8,.65.75.37,2.94,2.49,1-.67,1.77-2.93,3.14-3.57,5.49-.42,3.26.57,6,3.5,2.28-.33,4.07-2.53,3.69-3.31,6.69.41,4.29-4.26,8.82-.2,12.72-.18,11.76,3.81,7.4,8.35-1.11.78-2.43,3.69-3.55,3.74-6.57.56-2.65,8.11-8.92,9.08-10.83,3.53-7,9.18-3.8,7.43-13.75C95.42,109.64,93.33,110.67,90.66,107.07Zm0,.15h0a2.5,2.5,0,0,0,.07.26C90.68,107.4,90.66,107.31,90.63,107.22Z" style="fill: #3b94cc"/>
            <path d="M215.76,229a19.85,19.85,0,0,0-3.27-9c-.74-9.05-.62-18.33-3.29-27.59l-.39-1.57.06.23c-2.79-35.33.23-8.3-5.68-44.79-.45-7,3.15-20.4-.83-25.06-3.87-7.89-21.22-1.84-24.47,6.44-1.16,3.4.63,6.43.44,10-2.58,11.54-3.83,23-4.93,35.11.92,11.17-4,21.51-7.06,32.49-2.63,11.93,2.65,10.65-7.93,23.08-1.9,2.54-3.52,5-7,6a22.17,22.17,0,0,0-14,7.84l-.07.07.06-.07c-4.2,5.42-2.27,10.34,9.23,3.15,3.88-2.73,7.83-3.54,12-6.62.3,1.14,2.45,9.55,5.16,7,1.27,6-2.05,16.72,8,8.68,1,10.71,8,2,12.43-1.81,4.82,8.34.28,15.46,13.07,3.37-.09,8.17,3.24,11.34,7.91,2.43,1,2.13,3,2,3.86-.25,5-8.27.62-16.41,4.33-25.38C215.2,233.44,215.87,230.64,215.76,229Zm-31.3-91.34c0-.36-.78-.88-1-1.34C184.29,136,184.83,136,184.46,137.68Zm2.47,17c0,.29,0,.58,0,.87C186.75,155.38,186.78,155.22,186.93,154.71Zm1.88-18-.06-.7.14,0Zm1.66,70a4.33,4.33,0,0,0-.65.66c.2-.83.39-1.67.58-2.5C190.32,205.34,190.78,206.16,190.47,206.76Zm6-68.87c.22-.64-.76-2.37,0-3a3.72,3.72,0,0,0,.9,1.92A1.83,1.83,0,0,0,196.48,137.89Zm2.18-.66,0,0,.16-.09A.76.76,0,0,0,198.66,137.23Zm1.56,77.18c0-1.42-1.34-3.14-.37-4.78C199.87,211,200.7,212.64,200.22,214.41Zm4-46c.07.23.15.46.21.69a28.28,28.28,0,0,1,1.05,6C204.44,173.34,204.71,170.71,204.18,168.39Zm2.1,13.69,0,.31S206.29,182.3,206.28,182.08Zm0,.31v0l0,.18s0-.1,0-.36v.16Z" style="fill: #3b94cc"/>
            <path d="M173.35,173.34c0-.17,0-.34.05-.51v0C173.38,173,173.37,173.16,173.35,173.34Z" style="fill: #3b94cc"/>
            <path d="M164.18,219.93c.06-.1,0,0,.12-.23Z" style="fill: #3b94cc"/>
            <path d="M137.33,242.3l-.05,0Z" style="fill: #3b94cc"/>
            <path d="M139.11,62.89l7.06,1.2a1.1,1.1,0,0,0,.91-.12c.33-.28.22-.81,0-1.2-.65-1.49-1.79-2.28-2.88-3.39.07-.06.14-.17.21-.24-.89-.86-2.45-3.4-3.91-2.56a2.26,2.26,0,0,0-.87,1.27A33.34,33.34,0,0,0,138.46,62a.83.83,0,0,0,0,.62A.84.84,0,0,0,139.11,62.89Z" style="fill: #3b94cc"/>
            <path d="M153.67,65.27c.33.08,4.06.69,4.06.6l-.1-8.39a32.31,32.31,0,0,0-5.12,5.77c-.28.4-.88,1-.63,1.45S153.3,65.19,153.67,65.27Z" style="fill: #3b94cc"/>
          </g>
          <g>
            <path d="M110,65.53c1.57,4,8-.19,4.8-.69-.53.54-1.1,1.61-2.4,1.23C111.91,66,109.54,62.86,110,65.53Z" style="fill: #2c3e50"/>
            <path d="M214.82,233c-.29-2.85-.18-5.86-.69-9.12-3.41-7.55,2-11.86-1-23.28-.9-7.48-3.52-14.26-3-22.17-1.05-9.64-3.15-18.79-4.23-28.72-3-19.35,2.72-23-3.72-29.92-.53-.33-.1-.44-.18-1.86-1-4.27,8.42-19.22,6-33-3.08-3.39-1.4-8.25-6.07-12.24-.16-.67,1-13.87-15.23-12.35,1.43-11.8,2.29-23.91,3.7-36.15v0c.45-3.92,2.78-8.69.47-12.8.63-.27.35-1.06-1-1.52h0C173.31,6.77,156,6.79,138.56,5.61c-6.91-.22-13.81-2.6-20.89-.28-3.74-2.4-3.83,11.5-3.17,14.9.73,9.85-.49,19.89.08,30.17-4.36,2.61-7.58-.08-13.84,8.74-1.9,3.07-6.71,4.73-7.39,9.74h0c-5.77,7-3.74,20.73-11.87,25.95-1.37-1-1.65,1.13-4.57,2.54-1.3,1.46-2.28,3.45-4.06,5.08-3.65-21.93,2-8.5,2.67-29.51.21-4.29,2-8.84.6-13.46-2.82-7.13-8.51-10.3-9.48-19.84-1.3-12.44,1.77-22.81-5.81-33.81C60,5,57.91-.16,55,1.25c19.22,18.81.1,32.2,19.18,57.15,2.76,3.83-.72,13.06-.14,23.17-1.49,2.82-3.63,6.24-3.46,10.26-.19,13.29,4.85,9.37-4.37,16C63.72,101.34,68,95,68.79,88.23c-.27-8.27-1.42-17.79-4-25-1.28-.56,2.71,11.25,2.82,23.36-.63,12.81-5.73,6.09-1.95,26.9,0,0,0-.09,0-.14-.34,2.15-1,4.33-1.57,6.94h0l0,.13v0c-.51,8.19,0,17,3.24,24.85-1.9,5.65-1.19,14.53,4.78,19.08,1.74.24,8.56,7.89,6.19,12.07l.06-.16c-2.8,7-2.34,7.8,4.18,14,2.41,2.28,3.23,8.38,4.51,5.66-.49-3-2.87-5.9-5.22-8.39-10.25-7.65,5-8.88-6.35-22.18,4.11,1.32,9-4.74,2-5.56-.36.4-.79,1.08.73,1.43,5.37,1.29-6.41,7.51-9.47-5.2,3.7-4.56,7.63-10.91,11.2-16.68-1.85,10.8.38,8.25,2.32,18.38.52,6.39-3.6,12.84,8.76,24.15,3.59,1.53-1-2.88-2.37-4.34-4.81-5.92-5.76-8.91-5-19.47-.42-8.08-5.55-7.51-1.37-22.46,3.36-2.38,4.93-6.75,8.4-9.6,4-5.4,11.73-1.45,2.24-18.12,1.64.39-.28-.35,5.86-3a80.5,80.5,0,0,0,10.11-17.17c1,1.08,2.63-.42,5.25-1-1.51,13.87-1.28,15.93,14.67,17.06,9.84,2.16,19.38,4.86,29.82,6.27-2,3.39-1.86,7.67-3.21,13.12,0,0,0-.06,0-.09.59,1.73-4.94,13-.85,13.31,1.34.34,3.38.38,3.88-1.74a149.7,149.7,0,0,1,5.53-23.76,15.26,15.26,0,0,0,1.63.48,133,133,0,0,1-4.9,22.37c-1,4.26-.79,9.89-3.89,21.85-1.87-1.6-4,3.5-1,3.29.39-.25.56-.71-.45-.92,0,0-.63-1.95,1.27-1.64l-.09.53c-2.59-.38,3.72,2.31-5,6,0,1.35,5.53-.08,5.41-5.22,2.47.74,5.18,1.42,8,2.41h0c3.31,1.58,4.39,1,7.74,6.46-3.81,7.66-5.42,22.56-18.83,21.38a101.5,101.5,0,0,1-32.12-10.13c-7.86-3.43-9.43-7.67-1.56-14.95h0l.15-.12-.12.1c6-6.28,7.86-12.18,22.93-8.91l-.06.41,0-.11c-.35,1.75-1.5,4.16,1.72,5.9a2.43,2.43,0,0,0,.13,2.15c-.19.51,5.78,2.8,6.42.27-.24-1.28-.45-.17-1.61-.19-.74-.46-3.31.33-3.92-1.28,1.57-5.52-1.15-13.91,8.69-9.49-.08.13-.17.25-.26.37l.06-.07c-1.26,1.51-3,3.55-2.71,6.26-.12.14-1,6.09.58,2.3.63-2.79-.36-4.44,2.41-7.74,1.81-1.71-1.18-2.7-4.34-3.13l.1,0a4.06,4.06,0,0,0-2,.05c.26,0-.41-1.79,1.46-1.44,1,.45,6.29-.83,5.57,2.19,3.82-1.87-9-5.65-7.67-.32-1.34,1.42-1.76,4.17-2.37,8.48v0c0,.16,0,.32-.07.48-4.75-2,1.91-11.92,3.35-17.26,2.43-9.5,4-18.81,6.75-28.54-.36-.3,1.74-3.71-.24-3.49-3.55,11-4.12,23.27-8.36,34.56h0c-.71,2.9-3.11,5.73-3.59,9-2.94-.78-6.3-1.88-9.83-1.22l.14,0c-3.14.33-7.34,1.24-9.57,4.47l0,0c-12.42,13.87-17,18.2,9.27,27.42C152,189.32,165.11,196.1,172.48,171c-1.72,30.22-8.56,27.93-8.18,40.94-5,20.74-5.48,10.52-9,19.29.07,1.55-5.65,2.18-7,3.19-2.69.55-3.86,3.54-6.56,4.6-4.38-.68-9.17,2.37-13.43.34-3.73-3.45-14.31-12.43-19.86-5.94.43.69.67.51,1.59-.26,8.58-3.29,12.65,4.94,19.73,8.45,17.69-2.57,6.9,2.1,19.56-5.88,3.77-2.15,6.89-.47,8.18-5.84,5.93-4.43,8.56-15.71,8.53-23.27,9.51-24.17,5.51-27.19,10.78-54.69.15-3.52-.23-7.84,1-11.84.75-1.42,1.6-3.06,1.05-5.13-4.66-12.46,13.09-20.76,22.7-13.55,3.8,3.56,1.34,12.71,1.83,19.4.35,12.31,3.3,23.88,4.92,36.28l0-.21c-.29,10.14,2.92,19.92,4.16,30.37-2.45,16.49.68,12.42.7,28.13,0,5.3-1.85,10.21-2.3,15.79.22,4.19.22,3.26-1.31,6.88,3.39,1.6,2.65-5.47,3.05-9.18C213.7,243.59,214.89,238.64,214.82,233Zm-60-81.49h0Zm.8-2.61h0Zm26.67-77.59c-.41-1.9-.42-6.14,4-5.15C186.55,68.24,186.7,73.76,182.28,71.35ZM80.85,96h0l0,0Zm-1.57,41.15c-2.88,5.9-7.38,11-11.06,17.18a10.85,10.85,0,0,1-.22-5.08c3.4-8.71-3.56-2.3-2.53-29l0,.18c4.67-15.72-4.07-7.07,6.54-16.16,10.72,16.84-11.61,24.18.73,28.81.37-.35.41-.91-.33-1.28-6.23-2.6,4.47-10.54,4-16.74C81.21,119.11,84.54,130.89,79.28,137.15Zm16.56-17.21s0,0,0,0l0,0Zm-2.63-8.8c.18.41.53.89,1.1,2.17l-.08-.19c.06.15.15.34.33.76l-.06-.14c2.13,11.85,3.21-.56-11.73,19.36,1.38-6.68-.12-13.43-6.39-19.31.23-2.82-1.37-6.13-2.93-9.09-1.69-2,4-5.12,7.3-8.55C81.68,95.86,88.85,103.16,93.21,111.14Zm21.71-39A15.42,15.42,0,0,0,115.1,74c-.21-.15-.74.19-2,.68A10.82,10.82,0,0,0,114.92,72.12Zm-2.44,3.48c0,.3.67.46,2.74-.55a27.87,27.87,0,0,1-.17,3.66c-1.36-.32-3.44,1.17-5.21,1.7C110.52,79.39,110.51,77.86,112.48,75.6Zm1.32,9.61c-1.31.48-3,.93-4.63,1.59.92-5.92-2.26-4.13,5.71-7a40.86,40.86,0,0,0-.45,4.86v0c0,.29,0,0-.07.66C114.24,85.26,114.36,85.16,113.8,85.21Zm49.54,25.46c-2.77,7.46-4.2,15.93-5.67,24.23v0h0l0-.07,0,.07h0v0h0l0,.07,0-.05h0v0c.06.68-5,2.39-3.73-1.87,2.08-7.19,2.87-15.47,5.14-23,1.19.17,2.67.29,4.29.58Zm1.37-.48c-15.63-2.37-31.22-6.55-47.23-9l0,0c-6.54-3.53-.36-19.18-1.64-27.76v.11c-.71-2.82,1.27-5.73,1.28-8.92l0,.15c1.21-2.3-2.27-7.82-5.7-6.07-2.1,1.93-1.64,3.24-4.62,6.57-.2-1.43-4.15-.57-2.35.8,2.81-1,1.51,1.9-.7,3.77-.27-3.12-8.31-.59-2-.19.65,0,.5.61,1.24,1-.41.35-.77,2.36-3.16,3.7-.41.46-2.61.9-1.8,1.86,7.27-2.64,9.53-11.54,14.8-16.54,4.41,1.52,3.63,7.11,1.69,11.11-1.37,2.82-4.33,4.7-5.94,9.18-2.81,4.42,3.42,1.6-5.13,15.87-1.32,2.91-3.81,5.48-6,8.28-1.52.26-4.11.92-5,2.78a43.44,43.44,0,0,0-9.78-11.54c9.84-8.6,6.84-25.16,18.11-33.71,4.81-5.7,3.29-6.61,13.87-9.52.38,1.85-.78,5.44.55,7.13.52-14.43.36-29.31.15-44.35C115,1.16,117.63,5.62,147,7.05c13.9,1.16,28.63.8,42.82,3.85-.26.55.29.46.9,1.67l0,0c1.7,1.41-2.52,13.69-3.07,33.21h0c-1.47,5.85-1,13.34-2.59,18.95-2.57-.14-4.55,2-4.61,4.94-.79,5,.09,10.11-2.42,15.1,1.78-14.56,3-29.41,4.44-44.5a178.07,178.07,0,0,0,2.29-19.54c-.65-4,.75-3.8-21.53-5-7,1.29-7.38-8-16-5.08-1.92.32-3.83,2.81-7.59,3.64h0c-5.63.88-11.24-2.21-17.2-1.45-.94-2-3,1.8-2.87,4,1.31,9.53-.52,19,.13,29,.64,15.8-.4,31.78-.12,48-3.17,5.24,12.16,3,16.67,5.66,3.74,1.39,5.77,8.76,13.75,5.67a13.64,13.64,0,0,1,8.93-1.2h0c2.49-.52,15.87,6.81,17.28,1,.63,2.83,6.2,10.71-2,7.61h0C171.41,111.83,168,110.85,164.71,110.19Zm9.74-4.42c-4.76,1.75-13.83-5.31-22.29-2.54h0c-.15.06,0,0-.49.2h0c-11.34,5.59-7.75-6.27-23.71-6.36h.1c-8.64-1.34-8.91,2.11-7.48-17.51,8,1.22,16.16,2.85,24.62,3.87h-.07c8.25,1,16.62,2.94,25.26,4.51h-.09c1.71.17,3.62.93,5.67,1.21-.16,2.47-1.22,5-1.38,8-.12,2.57,1.5,5.61,0,8.4v0A1.47,1.47,0,0,1,174.45,105.77Zm-36.12-5h0Zm45-79C162.73,21.52,142,17.41,121,17.22c-.4-7.21,6.83-1.46,17.82-2,7.58-.54,9.42-9.57,18.65.46,36,7.59,26.11-13.64,21.64,50.68-19.66-4.55,2.25,4.11-27.24-1.95,2.85-2.55,5.86-9.7-.2-1.39-.1.29-.83.79-.16,1.37a30.42,30.42,0,0,1-3.78-.61c.47.56-3.93-6.26-5.07-6.29-.65,1.13,1.53,3.28,3.83,6.12-2.35-.26-5-.68-7.75-.94.32-.44.77-.78.49-4.14,1.62-1.39,2.51-1.63,1.4-5.75-.14-1.64-2-4.34.06-6,.85-.18,2,15.23,13.17,10l-.06,0c2.63-2.24,3.11-5.67,4-9.28,1.68-1.62,1-3.59,1-6.28,2.51,10.71-2,3.48-.8,11.89h0c1.15,1.75-.68,1.13-1,3.19.07,1,1.18,2,1,3.49-.13.16-.94,7.16.48,4.53-.3-2.86.75-3.83-.83-8.48,2-1.42.79-1.58.45-4.83-.38-1.76,1.7-2,1.82-4.39-.71-4.16-.69-8.66-2.33-13.13-2.16-6.07-11.9-8.58-15.39.72-.32.53-2.24,6.06-.53,6.76a11.86,11.86,0,0,0-.59,2.15c.85-3.5-1.7-3.43-.66,3.2-2.2,1.47-.44,5.67,0,8.88.49,2.32-2.77,1.24-2,5.57-.13.19.39.13-.77,1.75-2.46-.3-5.17-1.28-8.21-1.23,2.2-3.15,7.43-6.5,5.14-11.3.07-.62.18-.67,1.3-3.61-.06-1.9,2.53-4.18,2.64-8.83.78-1.58,2.24-1.64,2-4.69.69-4.4,8.25-8.1,14.5-4.81,3.85-.58,7.43,12.64,8.35,19.77-.53,2.26,1.14,5,.56,7.65-1,.72.48,3,1,6.21.51,0-1.16,4.82.71,3.65-.79-.56,1.07-2.63-1.59-8.68.82-.53.81-8.83-2-17.78-2-4.35-.85-10-8.66-12.12-1.53-1.82-13.89.21-13.36,6.93.27,2-2.46,2.72-2.34,5,.68,1.42-2.21,5.63-3.69,10.62-.87,3,4.12,1.29-5.21,12-27.16-2.68,24,3.75,36.61,6.46,3.12,1.37,4-3,8.44-1.5h-.12c1.5.09,3.7.85,5.45.51-.16,3.22-1.32,6.47-1.55,10.23v0c0,.36-.09.71-.12,1.07-18.5-3.69-37.53-6.36-56.61-9.36-.07-14.94,0-30,.55-45.42,11,.41,22.07,2.14,33.46,3.16h-.1l1.32.18h0c2.91.41,6.08.56,9.32.92l-.09,0,.94.13h0c1.11.17,2.78.35,4.39.56h0c7.82,1.34,22.35,1.77-.1-.67h0c-12.74-1.69-25.61-2.72-38.79-4.22h0c-.08-.72-11.19.63-10.4-1.27-.47-7.22-4-4.27,36.93-1.13C158.1,20.63,180.77,23.87,183.3,21.77ZM141.55,44.58c-.87-2.79,1.91-4,3.43-6.25.17-3.56.09-6.64,6.09-6.65,4-1.05,2.43-.29,4.45,3.64,1.63.15,3.64,8.6,1.93,11.23-1.5,1.23.06,5-4,9.68h0C149.65,58.13,143.81,58,141.55,44.58Zm.93-9.68A17.08,17.08,0,0,1,144,32.08h0c3-5,12.72-5.12,13.68,5.85-.05-2.08-1-1.78-2.3-4-.38-.79.17-2.37-1.65-3.33-2.79.59-6.44-.1-8.47,3-1.53,1.39.92,4.49-3.48,7C141.2,39.22,141.63,37.25,142.48,34.9Zm7.75,48.56c-.63-.11-1.76-.3-2.78-.43h.09c-29.06-5.51-27.41-.53-26.89-12.42v.08a.87.87,0,0,1,0-.11v0a9.07,9.07,0,0,0,.12-1c11.37,1.45,22.89,3.75,34.64,5.36l-.09,0,1.82.25h-.07a164.18,164.18,0,0,1,20.23,3.51c-.51,2.52-.17,5.53-.93,8.7v0a8.72,8.72,0,0,0-.25,1.17c-7.86-1.84-16.62-3.27-25.09-4.9h.1Zm29.06,40.27c-2.63,4-3.49,4.59-1.59,12.71-.11,1.94-1.85,3.8-1.81,6.26l0-.19a176.22,176.22,0,0,1-2.72,21.9,10.11,10.11,0,0,0-2.95-3.24l0,0c-17.57-9.27-13.65,7.21-8-30.31,2.09-6.26,3.91-12.37,4.1-19.38,3.73.55,7.37,2,11.55,2.66C175.9,117.5,181.15,120.57,179.29,123.73Zm19.07-5.43c-4-2.72-13.47-.28-17.34,3.41.23-1.69-1.81-2.45-1.7-5.94.55-2.22,1.55-5.16-.35-7.77-7.14-15.09,2.61-17.67,2.92-35.92,1.3.8,4,1.51,4.92-1.59l0,.05A8.24,8.24,0,0,0,187.4,67c.27.41.26,0,1.56,2.94h0c.08,4.52,2.55,5.86,1.14-.5h0c-.92-1.55.24-3.28,1-5.09-.18-.82-1.29-1-2.25,2.51-1-2.12-3.37-.69-1.61-5.78,3,.37,6.87.51,9.89,2.37v0c2.25,1.71,3.37,4.89,3.56,8.19-.6,1.14,1.55,8.87,1.17,2.11,2.72.22,2.66,12.43,4.59,11,1.94.8.22,15.53-2.93,22.45l.06-.13c-.31.57-.71,2-1.38,3.68l0-.07a19.33,19.33,0,0,0-1.71,8.24C200,118.78,199.31,118.64,198.36,118.3Z" style="fill: #2c3e50"/>
            <path d="M190.09,69.45h0l0,0Z" style="fill: #2c3e50"/>
            <path d="M192.07,66.22c-1.23-.67-2,5.7-.93,8-.08.21-.21.11-1.3,1.62l0,0c-.38,0-5.51,10-3.07,10.22,1.17-4.16,3.37-8.12,5.5-12.12C191.11,71.53,193,68.42,192.07,66.22Z" style="fill: #2c3e50"/>
            <path d="M110.88,71.17l.09,0Z" style="fill: #2c3e50"/>
            <path d="M107.65,70.54c-.23.21,4.54,2.89,3.32.67C110.56,71.47,105.56,67.49,107.65,70.54Z" style="fill: #2c3e50"/>
            <path d="M111,71.21h0Z" style="fill: #2c3e50"/>
            <path d="M108.84,68.47c0,.17,4.5,2.93,3.3.62C111.72,69.35,107.86,66,108.84,68.47Z" style="fill: #2c3e50"/>
            <path d="M119.44,5.31h0Z" style="fill: #2c3e50"/>
            <path d="M187.16,48.65v0Z" style="fill: #2c3e50"/>
            <path d="M114.43,84.65h0v0Z" style="fill: #2c3e50"/>
            <path d="M174.16,112.44h0Z" style="fill: #2c3e50"/>
            <path d="M114.42,84.72v0Z" style="fill: #2c3e50"/>
            <path d="M117.27,102l-.1,0Z" style="fill: #2c3e50"/>
            <polygon points="120.65 70.62 120.65 70.62 120.65 70.61 120.65 70.62" style="fill: #2c3e50"/>
            <path d="M150.2,13.6c-1.08-.7-3.71,1.26-1.5,2.36.24.32,2.53-.45.13-.85C148.08,13.81,151,14.93,150.2,13.6Z" style="fill: #2c3e50"/>
            <path d="M156,26.54h0Z" style="fill: #2c3e50"/>
            <path d="M156.08,26.55h0Z" style="fill: #2c3e50"/>
            <path d="M170.43,27.45Z" style="fill: #2c3e50"/>
            <polygon points="166.16 27.57 166.15 27.57 166.16 27.57 166.16 27.57" style="fill: #2c3e50"/>
            <path d="M154,56.64l0,0Z" style="fill: #2c3e50"/>
            <path d="M143.64,31.34l0-.05Z" style="fill: #2c3e50"/>
            <path d="M154,29.29l.06.05Z" style="fill: #2c3e50"/>
            <path d="M144.87,42.44c.83.28,3.08-1,2.4,3.82-1.71.94,2.07,3.45.26,1-.19-.52.83-.75.25-4.18C148.41,42,143.36,40.76,144.87,42.44Z" style="fill: #2c3e50"/>
            <path d="M146.55,51.24c-1.73.57,2.47,1.82,3.32.91C150.23,51.74,148.61,51.53,146.55,51.24Z" style="fill: #2c3e50"/>
            <path d="M152.45,44.05c.49.1.27-.47.85-.94C158.8,43.83,151.57,40.37,152.45,44.05Z" style="fill: #2c3e50"/>
            <path d="M159.7,33.91v0Z" style="fill: #2c3e50"/>
            <path d="M144.26,82.58h0Z" style="fill: #2c3e50"/>
            <path d="M30.24,6.61c6,15.08,11.72,31.13,9.43,48a2,2,0,0,1,0-.26c-.75,7.87-4.45,15.16-5.36,23.31-1.57,7.16,11.7,23.13,3,5.5l0,.09C31.77,67,55.08,58.76,31,5.62,32.19,4.58,29.21,3.87,30.24,6.61Zm7.14,76.54L37.32,83ZM30.94,5.63h0v.08S30.94,5.65,30.94,5.63Z" style="fill: #2c3e50"/>
            <path d="M57,158.26c-9-18.1,9.15-22.5-5.85-38.27a37.91,37.91,0,0,1-4.27-10.41c-3-10.91,10.5-12.22-1.07-32.17a11,11,0,0,1-1.51-5c-.23-9.79,5.82-19.7,7.66-29.71,1-9.85.65-34.55-6.14-38.77,2.42,8.11,4.72,9.41,4.69,21.48C52.21,50.68,46.67,48,42.93,68.81,41.4,76.6,48.28,82.06,49,89.72c1.42,10.21-9.19,11.81-.33,28.72-24.2-12.68-4.41-12.21-15.83-26.07a58.64,58.64,0,0,1-13-17.45l0,.07a13.44,13.44,0,0,1-.75-10.43c-5.24,7.26,7.12,23.07,13.54,29.63l-.11-.14a9,9,0,0,1,2.42,7c-4.7,18.38,16.65,13.19,19.89,29.25,1.49,8.41-6.51,14.47.25,27.93,2,4,.94,8,.49,12.41C58.59,172.87,58.2,159.36,57,158.26Z" style="fill: #2c3e50"/>
            <path d="M124.58,155.91l0,0Z" style="fill: #2c3e50"/>
            <path d="M142,171.26h0Z" style="fill: #2c3e50"/>
            <path d="M155.83,170.2A120.42,120.42,0,0,0,137,164.12c-1.94-.28-3.69,0-4.58,2.3-.07.22-1.71,1.78-.26,1.5,0,1.12,3.16,1.88,5.31,3.06l-.05,0C140.58,170.92,157.65,180.11,155.83,170.2Zm-6.78-1.67c1.53.85,3.51,1.1,5.57,1.86l-.1,0c.21.25.59-.15.7.86a14.58,14.58,0,0,1-3.56-1.31h0c-1.08-.48-2.28-.95-3.72-1.7A10.74,10.74,0,0,1,149.05,168.53Zm6,2.65h.06l-.17,0Zm-21.59-3.36c-.22-.17.19-.34-.69-.61,1.31-3.78,5.55-2.28,9.07-1-2.47-.26-5.75-.41-7.83,1.93C133.82,168.07,133.93,168.25,133.42,167.82ZM154.73,173c0,3.17-15-2-19.88-4.45,4.54-3.92,12.09.16,18.34,2.88l0,0,.09,0h0a5.8,5.8,0,0,0,1.94.67A6.7,6.7,0,0,1,154.73,173Z" style="fill: #2c3e50"/>
            <path d="M133.52,169.22l-.1,0Z" style="fill: #2c3e50"/>
            <path d="M149.9,186.21Z" style="fill: #2c3e50"/>
            <path d="M157.7,185.3a15.61,15.61,0,0,1-5.58.42h0c-9.39-.77-18.78-5.26-27.9-7.36a104.62,104.62,0,0,0,25.64,7.85h0c2.75,1.06,14.23-.25,14.55-4.87-.85.16-.84,1.59-6.24,3.81l.06,0A4.88,4.88,0,0,1,157.7,185.3Z" style="fill: #2c3e50"/>
            <path d="M149.86,186.2h0Z" style="fill: #2c3e50"/>
            <path d="M151.1,170.5l-.09,0Z" style="fill: #2c3e50"/>
            <path d="M153.21,171.39h0Z" style="fill: #2c3e50"/>
            <path d="M151.71,169.91l-.09,0,0,0h0l.06,0Z" style="fill: #2c3e50"/>
            <path d="M151.67,169.89Z" style="fill: #2c3e50"/>
            <polygon points="151.67 169.89 151.67 169.89 151.67 169.89 151.67 169.89" style="fill: #2c3e50"/>
            <path d="M153.33,170.58l-.14-.06.07,0h0l.05,0h0Z" style="fill: #2c3e50"/>
            <path d="M151.73,169.92h0Z" style="fill: #2c3e50"/>
            <path d="M153.28,170.56h0Z" style="fill: #2c3e50"/>
            <polygon points="157.68 134.88 157.68 134.88 157.68 134.88 157.68 134.88" style="fill: #2c3e50"/>
            <path d="M152.18,142c-5.11.61.37.5,6.63,2.1C159.33,144.1,155.42,142.17,152.18,142Z" style="fill: #2c3e50"/>
          </g>
        </g>
      </g>
    </g>
  </g>
</svg>
