<svg xmlns="http://www.w3.org/2000/svg" xmlns:xlink="http://www.w3.org/1999/xlink" viewBox="0 0 708.37 69.18">
  <defs>
    <symbol id="blank2" data-name="blank2" viewBox="0 0 16.5 16.5">
      <circle cx="8.25" cy="8.25" r="7.5" style="fill: none;stroke: #e97063;stroke-miterlimit: 10;stroke-width: 1.5px"/>
    </symbol>
    <symbol id="medium" data-name="medium" viewBox="0 0 16.5 16.5">
      <path d="M15.58,8.21V9H.78a7.51,7.51,0,0,0,15-.8Z" style="fill: #fff"/>
      <circle cx="8.25" cy="8.25" r="7.5" style="fill: none;stroke: #fff;stroke-miterlimit: 10;stroke-width: 1.5px"/>
    </symbol>
    <symbol id="low" data-name="low" viewBox="0 0 16.5 16.5">
      <circle cx="8.25" cy="8.25" r="7.5" style="fill: none;stroke: #fff;stroke-miterlimit: 10;stroke-width: 1.5px"/>
    </symbol>
    <symbol id="good" data-name="good" viewBox="0 0 16.5 16.5">
      <circle cx="8.25" cy="8.25" r="7.5" style="fill: #fff;stroke: #fff;stroke-miterlimit: 10;stroke-width: 1.5px"/>
    </symbol>
    <symbol id="cancel" data-name="cancel" viewBox="0 0 28 28">
      <g id="Rounded">
        <path d="M23.9,4.1a14,14,0,1,0,0,19.8A14,14,0,0,0,23.9,4.1Zm-6.85,15L14,16l-3.05,3a1.44,1.44,0,0,1-2,0h0a1.44,1.44,0,0,1,0-2L12,14,8.92,11a1.44,1.44,0,0,1,0-2h0a1.44,1.44,0,0,1,2,0L14,12l3.05-3.05a1.44,1.44,0,0,1,2,0h0a1.44,1.44,0,0,1,0,2L16,14l3,3.05a1.44,1.44,0,0,1,0,2h0A1.44,1.44,0,0,1,17.05,19.08Z" style="fill: #fff"/>
      </g>
    </symbol>
  </defs>
  <title>red bar during measure</title>
  <g id="Layer_2" data-name="Layer 2">
    <g id="buttons">
      <g>
        <path d="M618.48,0a18.55,18.55,0,0,0-17.41,12.44,36.88,36.88,0,0,1-34.75,24.45H0V69.18H708.37V0Z" style="fill: #e44e3e"/>
        <text transform="translate(607.91 25.67)" style="font-size: 18.42922019958496px;fill: #fff;font-family: Roboto-Bold, Roboto;font-weight: 700;letter-spacing: 0.05002246378394031em">cancel</text>
        <use width="16.5" height="16.5" transform="translate(444.61 45.47) scale(0.92)" xlink:href="#blank2"/>
        <use width="16.5" height="16.5" transform="translate(466.3 45.47) scale(0.92)" xlink:href="#blank2"/>
        <use width="16.5" height="16.5" transform="translate(487.99 45.47) scale(0.92)" xlink:href="#blank2"/>
        <use width="16.5" height="16.5" transform="translate(509.69 45.47) scale(0.92)" xlink:href="#blank2"/>
        <use width="16.5" height="16.5" transform="translate(531.38 45.47) scale(0.92)" xlink:href="#blank2"/>
        <use width="16.5" height="16.5" transform="translate(553.07 45.52) scale(0.92)" xlink:href="#blank2"/>
        <use width="16.5" height="16.5" transform="translate(184.32 45.47) scale(0.92)" xlink:href="#medium"/>
        <use width="16.5" height="16.5" transform="translate(162.63 45.47) scale(0.92)" xlink:href="#medium"/>
        <use width="16.5" height="16.5" transform="translate(140.94 45.47) scale(0.92)" xlink:href="#low"/>
        <use width="16.5" height="16.5" transform="translate(206.01 45.47) scale(0.92)" xlink:href="#medium"/>
        <use width="16.5" height="16.5" transform="translate(227.7 45.47) scale(0.92)" xlink:href="#medium"/>
        <use width="16.5" height="16.5" transform="translate(249.39 45.47) scale(0.92)" xlink:href="#medium"/>
        <use width="16.5" height="16.5" transform="translate(271.08 45.47) scale(0.92)" xlink:href="#good"/>
        <use width="16.5" height="16.5" transform="translate(292.77 45.47) scale(0.92)" xlink:href="#medium"/>
        <use width="16.5" height="16.5" transform="translate(314.47 45.47) scale(0.92)" xlink:href="#good"/>
        <use width="16.5" height="16.5" transform="translate(336.16 45.47) scale(0.92)" xlink:href="#good"/>
        <use width="16.5" height="16.5" transform="translate(357.85 45.47) scale(0.92)" xlink:href="#good"/>
        <use width="16.5" height="16.5" transform="translate(379.54 45.47) scale(0.92)" xlink:href="#medium"/>
        <use width="16.5" height="16.5" transform="translate(401.23 45.47) scale(0.92)" xlink:href="#medium"/>
        <use width="16.5" height="16.5" transform="translate(422.92 45.47) scale(0.92)" xlink:href="#good"/>
        <text transform="translate(601.33 60.05)" style="font-size: 18.447059631347656px;fill: #fff;font-family: Roboto-Light, Roboto;font-weight: 300">12 seconds</text>
        <use width="28" height="28" transform="translate(674.69 6.45) scale(0.92)" xlink:href="#cancel"/>
      </g>
    </g>
  </g>
</svg>
