<svg xmlns="http://www.w3.org/2000/svg" xmlns:xlink="http://www.w3.org/1999/xlink" viewBox="0 0 108.42 48.22">
  <defs>
    <symbol id="return" data-name="return" viewBox="0 0 28 28">
      <path d="M28,14A14,14,0,1,1,14,0,14,14,0,0,1,28,14ZM15.62,7l-.17-2.75c0-.82-.64-1.1-1.31-.61L8.26,8a.88.88,0,0,0,.1,1.61l6.37,3.52c.72.4,1.27.05,1.22-.78l-.16-2.58a5.59,5.59,0,1,1-7,6.32,1.3,1.3,0,1,0-2.56.43A8.19,8.19,0,1,0,15.62,7Z" style="fill: #fff"/>
    </symbol>
  </defs>
  <title>return</title>
  <g id="Layer_2" data-name="Layer 2">
    <g id="Layer_2-2" data-name="Layer 2">
      <g>
        <rect y="39.14" width="108.41" height="9.08" style="fill: #3c94cc"/>
        <path d="M30.57,0A16,16,0,0,0,15.5,10.78,32,32,0,0,1,0,28.43V39.14H108.42V0Z" style="fill: #e44e3e"/>
        <use width="28" height="28" transform="translate(79.26 5.58) scale(0.8)" xlink:href="#return"/>
        <g>
          <path d="M29.83,15.91l-.4,0a3.1,3.1,0,0,0-.41,0,2.25,2.25,0,0,0-1.08.22,1.38,1.38,0,0,0-.6.64v5.52H25.09V13.8h2.13l.06,1a2.49,2.49,0,0,1,.79-.85,1.89,1.89,0,0,1,1.09-.31l.37,0,.33.07Z" style="fill: #fff"/>
          <path d="M35.44,22.39a4.59,4.59,0,0,1-1.75-.32,3.94,3.94,0,0,1-1.32-.87,3.85,3.85,0,0,1-.83-1.3,4.45,4.45,0,0,1-.28-1.6V18a5.46,5.46,0,0,1,.27-1.76,4.1,4.1,0,0,1,.79-1.37,3.39,3.39,0,0,1,1.24-.9,3.92,3.92,0,0,1,1.63-.33,4,4,0,0,1,1.61.3,3.18,3.18,0,0,1,1.16.84,3.46,3.46,0,0,1,.71,1.31,5.63,5.63,0,0,1,.24,1.7v1H33.54a2.61,2.61,0,0,0,.22.75,2,2,0,0,0,.43.57,2,2,0,0,0,.61.37,2.22,2.22,0,0,0,.79.13,2.7,2.7,0,0,0,1.14-.23,2.28,2.28,0,0,0,.9-.71l1.1,1.24a3.2,3.2,0,0,1-.5.56,4.33,4.33,0,0,1-.72.49,4.85,4.85,0,0,1-.93.34A4.57,4.57,0,0,1,35.44,22.39Zm-.25-6.92a1.64,1.64,0,0,0-.65.12,1.51,1.51,0,0,0-.47.36,2,2,0,0,0-.33.55,3.69,3.69,0,0,0-.18.71H36.7V17a2.44,2.44,0,0,0-.1-.62,1.42,1.42,0,0,0-.27-.5,1.25,1.25,0,0,0-.47-.33A1.71,1.71,0,0,0,35.19,15.47Z" style="fill: #fff"/>
          <path d="M43.69,11.72V13.8h1.44v1.65H43.69v4.21a1.4,1.4,0,0,0,.05.44.72.72,0,0,0,.16.27.84.84,0,0,0,.27.13,2.09,2.09,0,0,0,.38,0h.37l.29,0v1.71c-.18,0-.39.1-.61.14a4.22,4.22,0,0,1-.75.06,3.45,3.45,0,0,1-1-.14,1.91,1.91,0,0,1-.76-.43,2.08,2.08,0,0,1-.49-.77,3.53,3.53,0,0,1-.17-1.15V15.45H40.2V13.8h1.23V11.72Z" style="fill: #fff"/>
          <path d="M52.23,21.37a2.51,2.51,0,0,1-1,.75,3.13,3.13,0,0,1-1.35.27,3.39,3.39,0,0,1-1.13-.18,2.16,2.16,0,0,1-.89-.55,2.42,2.42,0,0,1-.57-1,4.29,4.29,0,0,1-.2-1.43V13.8h2.25v5.47a1.8,1.8,0,0,0,.09.6,1,1,0,0,0,.25.4.85.85,0,0,0,.38.22,1.43,1.43,0,0,0,.48.07,2,2,0,0,0,1-.21,1.41,1.41,0,0,0,.58-.58v-6h2.26v8.43H52.29Z" style="fill: #fff"/>
          <path d="M61.65,15.91l-.4,0a3,3,0,0,0-.41,0,2.21,2.21,0,0,0-1.07.22,1.38,1.38,0,0,0-.6.64v5.52H56.91V13.8H59l.06,1a2.7,2.7,0,0,1,.79-.85A1.91,1.91,0,0,1,61,13.64l.38,0,.32.07Z" style="fill: #fff"/>
          <path d="M65.61,13.8l.07,1a3.05,3.05,0,0,1,1-.84,3.23,3.23,0,0,1,1.37-.29,3.37,3.37,0,0,1,1.09.17,2,2,0,0,1,.85.55,2.65,2.65,0,0,1,.54,1,5.39,5.39,0,0,1,.19,1.51v5.36H68.52V16.85a2.47,2.47,0,0,0-.09-.67,1,1,0,0,0-.27-.42.94.94,0,0,0-.42-.22,2.34,2.34,0,0,0-.57-.07,1.66,1.66,0,0,0-.86.22,1.89,1.89,0,0,0-.57.59v5.95H63.49V13.8Z" style="fill: #fff"/>
        </g>
      </g>
    </g>
  </g>
</svg>
