<svg xmlns="http://www.w3.org/2000/svg" viewBox="0 0 63.53 40">
  <g id="Layer_2" data-name="Layer 2">
    <g id="Layer_3" data-name="Layer 3">
      <g>
        <g>
          <path d="M18.62,25.37a3,3,0,0,0,.9,1.14,3.74,3.74,0,0,0,1.31.65,5.76,5.76,0,0,0,1.56.21,7.11,7.11,0,0,0,1.17-.1,3.73,3.73,0,0,0,1.17-.38,2.47,2.47,0,0,0,.9-.77A2,2,0,0,0,26,24.86a1.87,1.87,0,0,0-.48-1.33,3.66,3.66,0,0,0-1.26-.84,11.44,11.44,0,0,0-1.77-.6c-.66-.17-1.32-.35-2-.56a18,18,0,0,1-2-.69,7.23,7.23,0,0,1-1.76-1.06,4.89,4.89,0,0,1-1.26-1.63A5.24,5.24,0,0,1,15,15.8a5.61,5.61,0,0,1,.61-2.7,5.94,5.94,0,0,1,1.6-1.91,6.69,6.69,0,0,1,2.23-1.12,8.59,8.59,0,0,1,2.49-.37,11.25,11.25,0,0,1,2.8.35,6.86,6.86,0,0,1,2.37,1.14,5.72,5.72,0,0,1,1.65,2,6.63,6.63,0,0,1,.61,3H25.37A3.67,3.67,0,0,0,25,14.7a2.44,2.44,0,0,0-.79-.94,3.39,3.39,0,0,0-1.13-.48,6.68,6.68,0,0,0-1.39-.14,4.19,4.19,0,0,0-1,.12,2.45,2.45,0,0,0-.89.39,2.24,2.24,0,0,0-.66.71,2,2,0,0,0-.26,1.07,2,2,0,0,0,.2,1,1.93,1.93,0,0,0,.82.68,10,10,0,0,0,1.69.62l2.82.79c.35.08.83.21,1.44.41a6.41,6.41,0,0,1,1.83.95,5.73,5.73,0,0,1,1.57,1.73A5.2,5.2,0,0,1,30,24.35a6.62,6.62,0,0,1-.5,2.57A5.54,5.54,0,0,1,28,29a6.83,6.83,0,0,1-2.41,1.34,10.59,10.59,0,0,1-3.34.48,10.92,10.92,0,0,1-3-.41,7.29,7.29,0,0,1-2.55-1.28A6.35,6.35,0,0,1,15,26.87a7.18,7.18,0,0,1-.63-3.22h4A4.06,4.06,0,0,0,18.62,25.37Z" style="fill: #2c3e50"/>
          <path d="M36.41,10.18,44.15,23.7h.06V10.18H48V30.34H44l-7.72-13.5h0v13.5H32.36V10.18Z" style="fill: #2c3e50"/>
        </g>
        <path d="M63.53,40H0V0H63.53Zm-62-1.57H62V1.57H1.57Z" style="fill: #2c3e50"/>
      </g>
    </g>
  </g>
</svg>
