<svg xmlns="http://www.w3.org/2000/svg" xmlns:xlink="http://www.w3.org/1999/xlink" viewBox="0 0 108.42 48.22">
  <defs>
    <symbol id="start" data-name="start" viewBox="0 0 28 28">
      <path d="M14,0A14,14,0,1,0,28,14,14,14,0,0,0,14,0Zm5.6,15-8.47,5.39c-.69.44-1.26.13-1.26-.7v-11c0-.82.57-1.14,1.26-.69l8.47,5.39A.88.88,0,0,1,19.6,15Z" style="fill: #fff"/>
    </symbol>
  </defs>
  <title>start</title>
  <g id="Layer_2" data-name="Layer 2">
    <g id="Layer_2-2" data-name="Layer 2">
      <g>
        <rect y="39.14" width="108.41" height="9.08" style="fill: #3c94cc"/>
        <path d="M30.57,0A16,16,0,0,0,15.5,10.78,32,32,0,0,1,0,28.43V39.14H108.42V0Z" style="fill: #e44e3e"/>
        <use width="28" height="28" transform="translate(79.26 5.58) scale(0.8)" xlink:href="#start"/>
        <g>
          <path d="M40.08,19.9a.65.65,0,0,0-.33-.6,2.4,2.4,0,0,0-.53-.25,6.81,6.81,0,0,0-.87-.22,8,8,0,0,1-1.2-.36A3.75,3.75,0,0,1,36.2,18a2.36,2.36,0,0,1-.62-.72,1.9,1.9,0,0,1-.23-1,2.37,2.37,0,0,1,.23-1,2.48,2.48,0,0,1,.66-.83,3.09,3.09,0,0,1,1.06-.58,4.46,4.46,0,0,1,1.42-.21,5.17,5.17,0,0,1,1.47.2,3.42,3.42,0,0,1,1.11.57,2.4,2.4,0,0,1,.7.86,2.36,2.36,0,0,1,.25,1.09H40a1.09,1.09,0,0,0-.31-.8,1.3,1.3,0,0,0-1-.31,1.36,1.36,0,0,0-.88.25.82.82,0,0,0-.31.66.6.6,0,0,0,.08.33.74.74,0,0,0,.26.27,2.53,2.53,0,0,0,.49.22,4.58,4.58,0,0,0,.73.18,10.19,10.19,0,0,1,1.27.33,3.54,3.54,0,0,1,1,.51,2.15,2.15,0,0,1,.67.74,2.23,2.23,0,0,1,.24,1.07,2.12,2.12,0,0,1-.25,1,2.31,2.31,0,0,1-.71.82,3.75,3.75,0,0,1-1.12.53,5.17,5.17,0,0,1-1.47.2,4.64,4.64,0,0,1-1.56-.25A3.71,3.71,0,0,1,36,21.48a2.62,2.62,0,0,1-.7-.91,2.38,2.38,0,0,1-.24-1h2.14a1.41,1.41,0,0,0,.14.57,1.24,1.24,0,0,0,.34.38,1.56,1.56,0,0,0,.49.22,2.2,2.2,0,0,0,.58.07,1.59,1.59,0,0,0,1-.25A.75.75,0,0,0,40.08,19.9Z" style="fill: #fff"/>
          <path d="M47.22,11.72V13.8h1.44v1.65H47.22v4.21a1.78,1.78,0,0,0,.05.44.62.62,0,0,0,.17.27.71.71,0,0,0,.26.13,2.17,2.17,0,0,0,.38,0h.37l.29,0v1.71c-.18,0-.39.1-.61.14a4.22,4.22,0,0,1-.75.06,3.45,3.45,0,0,1-1-.14,1.91,1.91,0,0,1-.76-.43,1.94,1.94,0,0,1-.48-.77A3.27,3.27,0,0,1,45,19.9V15.45H43.73V13.8H45V11.72Z" style="fill: #fff"/>
          <path d="M55.6,22.23a2.66,2.66,0,0,1-.23-.75,2.72,2.72,0,0,1-.86.64,2.7,2.7,0,0,1-1.26.27,3.25,3.25,0,0,1-1.14-.19,2.81,2.81,0,0,1-.91-.52,2.25,2.25,0,0,1-.6-.8,2.31,2.31,0,0,1-.22-1,2.72,2.72,0,0,1,.24-1.17,2.32,2.32,0,0,1,.74-.88,3.42,3.42,0,0,1,1.22-.54,6.64,6.64,0,0,1,1.7-.19h1V16.6a1.4,1.4,0,0,0-.3-.94,1.2,1.2,0,0,0-.95-.35,1.35,1.35,0,0,0-.89.27.91.91,0,0,0-.32.75H50.56a2.26,2.26,0,0,1,.26-1,2.64,2.64,0,0,1,.72-.85,3.44,3.44,0,0,1,1.13-.58,5,5,0,0,1,2.84,0,3,3,0,0,1,1.07.56,2.5,2.5,0,0,1,.71.92,3.14,3.14,0,0,1,.25,1.3v3.57c0,.24,0,.46,0,.65s0,.36.07.51a2.24,2.24,0,0,0,.1.41,2.17,2.17,0,0,0,.15.35v.13Zm-1.86-1.56a2.19,2.19,0,0,0,.53-.07,2,2,0,0,0,.44-.19,1.46,1.46,0,0,0,.34-.26,1.5,1.5,0,0,0,.23-.3V18.4h-.93a3,3,0,0,0-.77.09,1.53,1.53,0,0,0-.54.28,1,1,0,0,0-.31.41,1.27,1.27,0,0,0-.1.52.89.89,0,0,0,.3.69A1.14,1.14,0,0,0,53.74,20.67Z" style="fill: #fff"/>
          <path d="M64.81,15.91l-.4,0a3.1,3.1,0,0,0-.41,0,2.21,2.21,0,0,0-1.07.22,1.35,1.35,0,0,0-.61.64v5.52H60.07V13.8H62.2l.06,1a2.59,2.59,0,0,1,.79-.85,1.89,1.89,0,0,1,1.09-.31l.38,0,.32.07Z" style="fill: #fff"/>
          <path d="M69.78,11.72V13.8h1.44v1.65H69.78v4.21a1.78,1.78,0,0,0,0,.44.62.62,0,0,0,.17.27.68.68,0,0,0,.27.13,2,2,0,0,0,.37,0H71l.3,0v1.71l-.62.14a4.22,4.22,0,0,1-.75.06,3.45,3.45,0,0,1-1-.14,1.91,1.91,0,0,1-.76-.43,1.94,1.94,0,0,1-.48-.77,3.28,3.28,0,0,1-.17-1.15V15.45H66.29V13.8h1.24V11.72Z" style="fill: #fff"/>
        </g>
      </g>
    </g>
  </g>
</svg>
